<svg width="178" height="178" viewBox="0 0 178 178" fill="none" xmlns="http://www.w3.org/2000/svg">
<g clip-path="url(#clip0_25_1534)">
<path d="M178 136.134H0V136.223H178V136.134Z" fill="#EBEBEB"/>
<path d="M160.164 141.862H148.374V141.951H160.164V141.862Z" fill="#EBEBEB"/>
<path d="M117.914 142.831H114.82V142.92H117.914V142.831Z" fill="#EBEBEB"/>
<path d="M148.018 138.559H141.186V138.648H148.018V138.559Z" fill="#EBEBEB"/>
<path d="M34.0514 139.157H18.6758V139.246H34.0514V139.157Z" fill="#EBEBEB"/>
<path d="M39.4771 139.157H37.2236V139.246H39.4771V139.157Z" fill="#EBEBEB"/>
<path d="M80.1538 140.659H46.8037V140.748H80.1538V140.659Z" fill="#EBEBEB"/>
<path d="M84.3718 120.257H15.6317C15.0932 120.256 14.5771 120.041 14.1967 119.66C13.8162 119.279 13.6025 118.762 13.6025 118.224V21.5948C13.6072 21.0594 13.823 20.5474 14.2029 20.1702C14.5829 19.7929 15.0963 19.5808 15.6317 19.5798H84.3718C84.9109 19.5798 85.4279 19.794 85.8092 20.1752C86.1904 20.5564 86.4045 21.0735 86.4045 21.6126V118.224C86.4045 118.763 86.1904 119.28 85.8092 119.661C85.4279 120.042 84.9109 120.257 84.3718 120.257ZM15.6317 19.651C15.1168 19.652 14.6234 19.8572 14.2596 20.2216C13.8958 20.586 13.6915 21.0799 13.6915 21.5948V118.224C13.6915 118.739 13.8958 119.233 14.2596 119.597C14.6234 119.961 15.1168 120.167 15.6317 120.168H84.3718C84.887 120.167 85.3809 119.962 85.7452 119.597C86.1095 119.233 86.3146 118.739 86.3155 118.224V21.5948C86.3146 21.0796 86.1095 20.5857 85.7452 20.2214C85.3809 19.8571 84.887 19.652 84.3718 19.651H15.6317Z" fill="#EBEBEB"/>
<path d="M161.378 120.257H92.6348C92.096 120.256 91.5795 120.041 91.1985 119.66C90.8175 119.279 90.603 118.763 90.6021 118.224V21.5948C90.6077 21.0591 90.8242 20.5471 91.2047 20.1699C91.5852 19.7928 92.099 19.5807 92.6348 19.5798H161.378C161.913 19.5817 162.426 19.7942 162.805 20.1714C163.184 20.5486 163.399 21.06 163.404 21.5948V118.224C163.404 118.762 163.191 119.278 162.811 119.659C162.432 120.04 161.916 120.255 161.378 120.257ZM92.6348 19.651C92.1196 19.652 91.6257 19.8571 91.2614 20.2214C90.8971 20.5857 90.692 21.0796 90.6911 21.5948V118.224C90.692 118.739 90.8971 119.233 91.2614 119.597C91.6257 119.962 92.1196 120.167 92.6348 120.168H161.378C161.894 120.167 162.387 119.962 162.752 119.597C163.116 119.233 163.321 118.739 163.322 118.224V21.5948C163.321 21.0796 163.116 20.5857 162.752 20.2214C162.387 19.8571 161.894 19.652 161.378 19.651H92.6348Z" fill="#EBEBEB"/>
<path d="M157.302 135.682V118.124H149.2V101.844H148.057V111.179H144.938V108.598H139.331V99.6621H138.292V88.74H137.459V99.4627H135.487V115.347H131.745V99.4627H124.995V112.895H117.907V96.6147H116.765V105.945H113.646V103.364H108.039V94.4289H106.999V83.5104H106.166V94.2331H104.194V110.114H100.456V94.2331H93.7029V109.598H89.1496V100.662H88.1101V89.7404H87.2806V100.463H85.3048V116.348H81.5668V100.463H74.8135V116.348H71.4885V118.124H65.6679V101.844H64.5251V111.179H61.4066V108.598H55.7996V99.6621H54.76V88.74H53.927V99.4627H52.1185V98.5692H45.3652V99.4627H41.6236V98.5692H39.6514V87.8465H38.8219V98.7685H37.7824V107.701H32.1718V110.282H29.0568V100.951H27.9141V117.231H19.8115V135.682H157.302Z" fill="#EBEBEB"/>
<path d="M52.8776 53.9914C57.9256 51.9005 60.3228 46.1132 58.2318 41.0653C56.1409 36.0173 50.3537 33.6202 45.3057 35.7111C40.2577 37.802 37.8606 43.5893 39.9515 48.6372C42.0424 53.6852 47.8297 56.0824 52.8776 53.9914Z" fill="#FAFAFA"/>
<path d="M43.9626 44.7422C43.962 44.4742 43.899 44.21 43.7785 43.9706C43.658 43.7312 43.4833 43.5233 43.2684 43.3632C43.0534 43.2032 42.804 43.0955 42.5401 43.0488C42.2763 43.002 42.0051 43.0175 41.7482 43.0939C41.8251 42.5765 41.7894 42.0486 41.6435 41.5462C41.4976 41.0439 41.245 40.579 40.903 40.1832C40.561 39.7874 40.1375 39.4702 39.6616 39.253C39.1857 39.0359 38.6686 38.9241 38.1455 38.9251C37.9209 38.9248 37.6967 38.9462 37.4762 38.9892C37.1182 38.3997 36.5785 37.9424 35.9381 37.6862C35.2978 37.43 34.5915 37.3888 33.9257 37.5687C33.2599 37.7486 32.6705 38.1399 32.2463 38.6838C31.8222 39.2276 31.5861 39.8945 31.5738 40.5841H31.5204C30.7424 40.5841 29.9962 40.8931 29.4461 41.4433C28.896 41.9934 28.5869 42.7395 28.5869 43.5175C28.5869 44.2955 28.896 45.0417 29.4461 45.5918C29.9962 46.1419 30.7424 46.451 31.5204 46.451H42.2894C42.7358 46.4398 43.1603 46.2551 43.4727 45.9361C43.7851 45.617 43.9608 45.1887 43.9626 44.7422Z" fill="#F0F0F0"/>
<path d="M152.289 68.5695C152.289 68.3015 152.226 68.0373 152.105 67.798C151.985 67.5586 151.81 67.3506 151.595 67.1906C151.38 67.0306 151.131 66.9229 150.867 66.8762C150.603 66.8294 150.332 66.8448 150.075 66.9213C150.152 66.4038 150.116 65.8759 149.97 65.3736C149.824 64.8713 149.572 64.4063 149.23 64.0106C148.888 63.6148 148.464 63.2975 147.989 63.0804C147.513 62.8633 146.995 62.7514 146.472 62.7525C146.247 62.7527 146.022 62.773 145.8 62.813C145.438 62.2266 144.896 61.7732 144.255 61.521C143.614 61.2688 142.909 61.2314 142.245 61.4144C141.581 61.5974 140.994 61.9909 140.572 62.5358C140.151 63.0807 139.918 63.7476 139.908 64.4364H139.854C139.076 64.4364 138.33 64.7454 137.78 65.2956C137.23 65.8457 136.921 66.5918 136.921 67.3698C136.921 68.1478 137.23 68.8939 137.78 69.4441C138.33 69.9942 139.076 70.3033 139.854 70.3033H150.623C151.073 70.2902 151.499 70.1013 151.811 69.777C152.122 69.4528 152.294 69.0192 152.289 68.5695Z" fill="#F0F0F0"/>
<path d="M101.357 42.453C101.355 42.0282 101.453 41.609 101.643 41.229C101.833 40.8491 102.11 40.5191 102.451 40.2655C102.791 40.012 103.187 39.8421 103.605 39.7694C104.024 39.6967 104.454 39.7233 104.86 39.847C104.82 39.57 104.8 39.2904 104.799 39.0104C104.798 38.1638 104.984 37.3274 105.344 36.5609C105.703 35.7943 106.227 35.1165 106.879 34.5759C107.53 34.0352 108.293 33.645 109.113 33.4331C109.932 33.2212 110.789 33.1929 111.62 33.35C112.187 32.4151 113.043 31.6901 114.059 31.2848C115.074 30.8794 116.194 30.8157 117.249 31.1032C118.304 31.3908 119.236 32.014 119.905 32.8786C120.575 33.7432 120.944 34.8022 120.958 35.8954H121.04C122.271 35.8954 123.451 36.3843 124.321 37.2546C125.192 38.1248 125.681 39.3052 125.681 40.5359C125.681 41.7666 125.192 42.9469 124.321 43.8172C123.451 44.6874 122.271 45.1764 121.04 45.1764H104.002C103.293 45.1569 102.62 44.8612 102.126 44.3525C101.632 43.8438 101.356 43.1621 101.357 42.453Z" fill="#F0F0F0"/>
<path d="M51.0791 72.0791C51.0785 71.5685 51.1975 71.0648 51.4265 70.6084C51.6554 70.152 51.988 69.7555 52.3977 69.4507C52.8074 69.1458 53.2827 68.9411 53.7856 68.8529C54.2886 68.7647 54.8052 68.7955 55.2941 68.9427C55.244 68.6105 55.219 68.2749 55.2194 67.9388C55.2194 66.0996 55.95 64.3357 57.2506 63.0351C58.5511 61.7346 60.315 61.0039 62.1543 61.0039C62.5817 61.005 63.0083 61.0443 63.4287 61.1214C64.1081 59.9912 65.1379 59.1138 66.3617 58.6226C67.5854 58.1315 68.9361 58.0534 70.2083 58.4004C71.4805 58.7473 72.6045 59.5003 73.4095 60.5448C74.2144 61.5892 74.6562 62.868 74.6677 64.1866H74.7602C75.5054 64.1678 76.2467 64.2983 76.9407 64.5704C77.6346 64.8426 78.267 65.2509 78.8007 65.7712C79.3344 66.2916 79.7585 66.9135 80.0481 67.6004C80.3377 68.2872 80.4869 69.0251 80.4869 69.7704C80.4869 70.5158 80.3377 71.2537 80.0481 71.9405C79.7585 72.6273 79.3344 73.2493 78.8007 73.7696C78.267 74.29 77.6346 74.6983 76.9407 74.9704C76.2467 75.2426 75.5054 75.3731 74.7602 75.3543H54.2546C53.4031 75.3293 52.5949 74.9731 52.0019 74.3614C51.4089 73.7498 51.0778 72.931 51.0791 72.0791Z" fill="#F0F0F0"/>
<path d="M65.5394 49.8936C65.5394 49.6103 65.4269 49.3387 65.2266 49.1384C65.0263 48.9381 64.7547 48.8256 64.4714 48.8256C64.3675 48.8244 64.2642 48.84 64.1653 48.8719C64.1808 48.7622 64.1891 48.6516 64.1902 48.5408C64.1902 47.9403 63.9516 47.3644 63.527 46.9398C63.1024 46.5152 62.5265 46.2766 61.926 46.2766C61.7863 46.277 61.6469 46.2901 61.5095 46.3158C61.2864 45.9488 60.9499 45.6644 60.551 45.5055C60.152 45.3465 59.7122 45.3216 59.2978 45.4345C58.8835 45.5475 58.5171 45.7921 58.254 46.1315C57.9908 46.4709 57.8452 46.8867 57.8391 47.3161H57.8071C57.3237 47.3161 56.8601 47.5082 56.5182 47.85C56.1764 48.1918 55.9844 48.6554 55.9844 49.1389C55.9844 49.6223 56.1764 50.0859 56.5182 50.4277C56.8601 50.7695 57.3237 50.9616 57.8071 50.9616H64.5035C64.7811 50.9532 65.0446 50.8371 65.238 50.6377C65.4314 50.4383 65.5395 50.1714 65.5394 49.8936Z" fill="#F0F0F0"/>
<path d="M26.6006 82.3605C26.6006 82.0772 26.7131 81.8056 26.9134 81.6053C27.1137 81.405 27.3853 81.2925 27.6686 81.2925C27.7733 81.2922 27.8776 81.3066 27.9783 81.3352C27.9609 81.2269 27.9526 81.1174 27.9534 81.0077C27.9534 80.7104 28.012 80.4159 28.1257 80.1412C28.2395 79.8665 28.4063 79.6169 28.6165 79.4067C28.8268 79.1964 29.0764 79.0297 29.3511 78.9159C29.6258 78.8021 29.9202 78.7435 30.2175 78.7435C30.3573 78.7439 30.4967 78.757 30.6341 78.7827C30.8572 78.4158 31.1936 78.1313 31.5926 77.9724C31.9916 77.8134 32.4314 77.7885 32.8458 77.9014C33.2601 78.0144 33.6265 78.259 33.8896 78.5984C34.1527 78.9378 34.2983 79.3536 34.3044 79.7831H34.3365C34.8199 79.7831 35.2835 79.9751 35.6253 80.3169C35.9672 80.6587 36.1592 81.1224 36.1592 81.6058C36.1592 82.0892 35.9672 82.5528 35.6253 82.8946C35.2835 83.2365 34.8199 83.4285 34.3365 83.4285H27.6401C27.3618 83.4211 27.0974 83.3053 26.9033 83.1058C26.7091 82.9063 26.6005 82.6389 26.6006 82.3605Z" fill="#F0F0F0"/>
<path d="M126.811 85.8495C126.811 85.5663 126.923 85.2946 127.123 85.0943C127.324 84.894 127.595 84.7815 127.879 84.7815C127.983 84.7812 128.088 84.7956 128.188 84.8242C128.171 84.7159 128.163 84.6064 128.163 84.4967C128.163 83.8962 128.402 83.3203 128.827 82.8957C129.251 82.4711 129.827 82.2326 130.428 82.2326C130.567 82.2329 130.707 82.246 130.844 82.2717C131.067 81.9048 131.404 81.6204 131.803 81.4614C132.202 81.3024 132.641 81.2775 133.056 81.3905C133.47 81.5034 133.836 81.748 134.1 82.0874C134.363 82.4269 134.508 82.8427 134.514 83.2721H134.546C135.03 83.2721 135.493 83.4641 135.835 83.8059C136.177 84.1478 136.369 84.6114 136.369 85.0948C136.369 85.5782 136.177 86.0418 135.835 86.3837C135.493 86.7255 135.03 86.9175 134.546 86.9175H127.85C127.572 86.9101 127.307 86.7943 127.113 86.5948C126.919 86.3953 126.81 86.1279 126.811 85.8495Z" fill="#F0F0F0"/>
<path d="M88.9999 152.211C127.121 152.211 158.025 150.407 158.025 148.181C158.025 145.956 127.121 144.151 88.9999 144.151C50.8786 144.151 19.9751 145.956 19.9751 148.181C19.9751 150.407 50.8786 152.211 88.9999 152.211Z" fill="#F5F5F5"/>
<path d="M138.413 43.0868L123.194 66.2588L122.525 67.2806L121.2 67.8929L74.0945 89.7833L78.7475 105.729L79.8119 109.374L76.1237 112.421L44.3436 143.304H18.0459L65.5933 103.817L62.7132 88.1386L61.93 83.8702L65.6111 82.1756L115.814 59.0605L132.165 38.8326L127.779 37.964L141.567 32.243L140.859 47.1559L138.413 43.0868Z" fill="#263238"/>
<path opacity="0.6" d="M138.413 43.0868L123.194 66.2588L122.525 67.2806L121.2 67.8929L74.0945 89.7833L78.7475 105.729L79.8119 109.374L76.1237 112.421L44.3436 143.304H18.0459L65.5933 103.817L62.7132 88.1386L61.93 83.8702L65.6111 82.1756L115.814 59.0605L132.165 38.8326L127.779 37.964L141.567 32.243L140.859 47.1559L138.413 43.0868Z" fill="#FAFAFA"/>
<path d="M130.457 141.863H105.252C105.004 141.863 104.803 142.064 104.803 142.311V148.057C104.803 148.305 105.004 148.506 105.252 148.506H130.457C130.704 148.506 130.905 148.305 130.905 148.057V142.311C130.905 142.064 130.704 141.863 130.457 141.863Z" fill="#407BFF"/>
<path opacity="0.2" d="M107.003 142.247H105.971V148.182H107.003V142.247Z" fill="black"/>
<path opacity="0.2" d="M109.35 142.219H108.599V148.154H109.35V142.219Z" fill="black"/>
<path opacity="0.2" d="M111.51 142.247H111.133V148.182H111.51V142.247Z" fill="black"/>
<path opacity="0.2" d="M114.422 142.219H114.233V148.154H114.422V142.219Z" fill="black"/>
<path opacity="0.2" d="M128.705 148.153H129.737V142.219H128.705V148.153Z" fill="black"/>
<path opacity="0.2" d="M126.359 148.182H127.11V142.247H126.359V148.182Z" fill="black"/>
<path opacity="0.2" d="M124.201 148.153H124.575V142.219H124.201V148.153Z" fill="black"/>
<path opacity="0.2" d="M121.286 148.182H121.475V142.247H121.286V148.182Z" fill="black"/>
<path opacity="0.2" d="M117.808 148.182H117.9V142.247H117.808V148.182Z" fill="black"/>
<path opacity="0.2" d="M130.207 142.874H105.554C105.471 142.874 105.392 142.841 105.333 142.782C105.274 142.723 105.241 142.644 105.241 142.561C105.242 142.478 105.275 142.399 105.334 142.34C105.393 142.282 105.472 142.248 105.554 142.247H130.207C130.291 142.247 130.37 142.28 130.429 142.339C130.488 142.398 130.521 142.478 130.521 142.561C130.521 142.602 130.513 142.643 130.498 142.681C130.482 142.719 130.459 142.754 130.43 142.783C130.401 142.812 130.366 142.836 130.328 142.851C130.29 142.867 130.249 142.874 130.207 142.874Z" fill="white"/>
<path d="M131.169 135.237H105.964C105.716 135.237 105.516 135.438 105.516 135.686V141.432C105.516 141.679 105.716 141.88 105.964 141.88H131.169C131.417 141.88 131.618 141.679 131.618 141.432V135.686C131.618 135.438 131.417 135.237 131.169 135.237Z" fill="#407BFF"/>
<path opacity="0.2" d="M107.715 135.623H106.683V141.557H107.715V135.623Z" fill="black"/>
<path opacity="0.2" d="M110.065 135.593H109.314V141.528H110.065V135.593Z" fill="black"/>
<path opacity="0.2" d="M112.222 135.623H111.848V141.557H112.222V135.623Z" fill="black"/>
<path opacity="0.2" d="M115.134 135.593H114.946V141.528H115.134V135.593Z" fill="black"/>
<path opacity="0.2" d="M129.42 141.524H130.453V135.59H129.42V141.524Z" fill="black"/>
<path opacity="0.2" d="M127.071 141.554H127.822V135.619H127.071V141.554Z" fill="black"/>
<path opacity="0.2" d="M124.91 141.524H125.287V135.59H124.91V141.524Z" fill="black"/>
<path opacity="0.2" d="M121.998 141.554H122.187V135.619H121.998V141.554Z" fill="black"/>
<path opacity="0.2" d="M118.52 141.554H118.612V135.619H118.52V141.554Z" fill="black"/>
<path opacity="0.2" d="M130.919 136.249H106.266C106.184 136.248 106.104 136.215 106.046 136.156C105.987 136.098 105.954 136.019 105.953 135.936C105.953 135.853 105.986 135.773 106.045 135.714C106.104 135.656 106.183 135.623 106.266 135.623H130.919C130.961 135.622 131.002 135.63 131.04 135.645C131.078 135.661 131.113 135.684 131.142 135.713C131.171 135.742 131.194 135.777 131.21 135.815C131.225 135.854 131.233 135.895 131.233 135.936C131.233 136.019 131.2 136.099 131.141 136.157C131.082 136.216 131.002 136.249 130.919 136.249Z" fill="white"/>
<path d="M131.169 128.612H105.964C105.716 128.612 105.516 128.813 105.516 129.061V134.807C105.516 135.055 105.716 135.255 105.964 135.255H131.169C131.417 135.255 131.618 135.055 131.618 134.807V129.061C131.618 128.813 131.417 128.612 131.169 128.612Z" fill="#407BFF"/>
<path opacity="0.2" d="M107.715 128.993H106.683V134.928H107.715V128.993Z" fill="black"/>
<path opacity="0.2" d="M110.065 128.966H109.314V134.9H110.065V128.966Z" fill="black"/>
<path opacity="0.2" d="M112.222 128.993H111.848V134.928H112.222V128.993Z" fill="black"/>
<path opacity="0.2" d="M115.134 128.966H114.946V134.9H115.134V128.966Z" fill="black"/>
<path opacity="0.2" d="M129.42 134.899H130.453V128.965H129.42V134.899Z" fill="black"/>
<path opacity="0.2" d="M127.071 134.929H127.822V128.994H127.071V134.929Z" fill="black"/>
<path opacity="0.2" d="M124.91 134.899H125.287V128.965H124.91V134.899Z" fill="black"/>
<path opacity="0.2" d="M121.998 134.929H122.187V128.994H121.998V134.929Z" fill="black"/>
<path opacity="0.2" d="M118.52 134.929H118.612V128.994H118.52V134.929Z" fill="black"/>
<path opacity="0.2" d="M130.919 129.62H106.266C106.183 129.62 106.104 129.587 106.045 129.528C105.986 129.469 105.953 129.39 105.953 129.307C105.954 129.224 105.987 129.145 106.046 129.086C106.104 129.028 106.184 128.994 106.266 128.993H130.919C131.002 128.993 131.082 129.026 131.141 129.085C131.2 129.144 131.233 129.224 131.233 129.307C131.233 129.348 131.225 129.389 131.21 129.427C131.194 129.465 131.171 129.5 131.142 129.529C131.113 129.558 131.078 129.582 131.04 129.597C131.002 129.613 130.961 129.62 130.919 129.62Z" fill="white"/>
<path d="M130.457 121.984H105.252C105.004 121.984 104.803 122.185 104.803 122.433V128.178C104.803 128.426 105.004 128.627 105.252 128.627H130.457C130.704 128.627 130.905 128.426 130.905 128.178V122.433C130.905 122.185 130.704 121.984 130.457 121.984Z" fill="#407BFF"/>
<path opacity="0.2" d="M107.003 122.369H105.971V128.303H107.003V122.369Z" fill="black"/>
<path opacity="0.2" d="M109.35 122.34H108.599V128.274H109.35V122.34Z" fill="black"/>
<path opacity="0.2" d="M111.51 122.369H111.133V128.303H111.51V122.369Z" fill="black"/>
<path opacity="0.2" d="M114.422 122.34H114.233V128.274H114.422V122.34Z" fill="black"/>
<path opacity="0.2" d="M128.705 128.271H129.737V122.336H128.705V128.271Z" fill="black"/>
<path opacity="0.2" d="M126.359 128.3H127.11V122.365H126.359V128.3Z" fill="black"/>
<path opacity="0.2" d="M124.201 128.271H124.575V122.336H124.201V128.271Z" fill="black"/>
<path opacity="0.2" d="M121.286 128.3H121.475V122.365H121.286V128.3Z" fill="black"/>
<path opacity="0.2" d="M117.808 128.3H117.9V122.365H117.808V128.3Z" fill="black"/>
<path opacity="0.2" d="M130.207 122.995H105.554C105.472 122.994 105.393 122.961 105.334 122.902C105.275 122.844 105.242 122.765 105.241 122.682C105.241 122.599 105.274 122.519 105.333 122.46C105.392 122.402 105.471 122.369 105.554 122.369H130.207C130.249 122.368 130.29 122.376 130.328 122.391C130.366 122.407 130.401 122.43 130.43 122.459C130.459 122.488 130.482 122.523 130.498 122.561C130.513 122.6 130.521 122.641 130.521 122.682C130.521 122.765 130.488 122.845 130.429 122.903C130.37 122.962 130.291 122.995 130.207 122.995Z" fill="white"/>
<path d="M129.389 115.358H104.184C103.936 115.358 103.735 115.559 103.735 115.807V121.553C103.735 121.801 103.936 122.001 104.184 122.001H129.389C129.636 122.001 129.837 121.801 129.837 121.553V115.807C129.837 115.559 129.636 115.358 129.389 115.358Z" fill="#407BFF"/>
<path opacity="0.2" d="M105.935 115.739H104.903V121.674H105.935V115.739Z" fill="black"/>
<path opacity="0.2" d="M108.281 115.712H107.53V121.646H108.281V115.712Z" fill="black"/>
<path opacity="0.2" d="M110.439 115.739H110.065V121.674H110.439V115.739Z" fill="black"/>
<path opacity="0.2" d="M113.354 115.712H113.166V121.646H113.354V115.712Z" fill="black"/>
<path opacity="0.2" d="M127.637 121.645H128.669V115.711H127.637V121.645Z" fill="black"/>
<path opacity="0.2" d="M125.287 121.675H126.039V115.74H125.287V121.675Z" fill="black"/>
<path opacity="0.2" d="M123.134 121.645H123.507V115.711H123.134V121.645Z" fill="black"/>
<path opacity="0.2" d="M120.221 121.675H120.41V115.74H120.221V121.675Z" fill="black"/>
<path opacity="0.2" d="M116.74 121.675H116.833V115.74H116.74V121.675Z" fill="black"/>
<path opacity="0.2" d="M129.139 116.366H104.486C104.445 116.366 104.404 116.359 104.366 116.343C104.327 116.327 104.293 116.304 104.264 116.275C104.234 116.246 104.211 116.211 104.196 116.173C104.18 116.135 104.172 116.094 104.173 116.053C104.173 115.97 104.206 115.89 104.265 115.831C104.323 115.772 104.403 115.739 104.486 115.739H129.139C129.222 115.739 129.302 115.772 129.361 115.831C129.419 115.89 129.452 115.97 129.452 116.053C129.453 116.094 129.445 116.135 129.43 116.173C129.414 116.211 129.391 116.246 129.362 116.275C129.333 116.304 129.298 116.327 129.26 116.343C129.221 116.359 129.18 116.366 129.139 116.366Z" fill="white"/>
<path d="M130.457 108.73H105.252C105.004 108.73 104.803 108.931 104.803 109.179V114.924C104.803 115.172 105.004 115.373 105.252 115.373H130.457C130.704 115.373 130.905 115.172 130.905 114.924V109.179C130.905 108.931 130.704 108.73 130.457 108.73Z" fill="#407BFF"/>
<path opacity="0.2" d="M107.003 109.115H105.971V115.049H107.003V109.115Z" fill="black"/>
<path opacity="0.2" d="M109.35 109.086H108.599V115.02H109.35V109.086Z" fill="black"/>
<path opacity="0.2" d="M111.51 109.115H111.133V115.049H111.51V109.115Z" fill="black"/>
<path opacity="0.2" d="M114.422 109.086H114.233V115.02H114.422V109.086Z" fill="black"/>
<path opacity="0.2" d="M128.705 115.017H129.737V109.082H128.705V115.017Z" fill="black"/>
<path opacity="0.2" d="M126.359 115.045H127.11V109.111H126.359V115.045Z" fill="black"/>
<path opacity="0.2" d="M124.201 115.017H124.575V109.082H124.201V115.017Z" fill="black"/>
<path opacity="0.2" d="M121.286 115.045H121.475V109.111H121.286V115.045Z" fill="black"/>
<path opacity="0.2" d="M117.808 115.045H117.9V109.111H117.808V115.045Z" fill="black"/>
<path opacity="0.2" d="M130.207 109.741H105.554C105.471 109.741 105.392 109.708 105.333 109.649C105.274 109.591 105.241 109.511 105.241 109.428C105.241 109.345 105.274 109.265 105.333 109.206C105.392 109.148 105.471 109.115 105.554 109.115H130.207C130.249 109.114 130.29 109.122 130.328 109.137C130.366 109.153 130.401 109.176 130.43 109.205C130.459 109.234 130.482 109.269 130.498 109.307C130.513 109.346 130.521 109.387 130.521 109.428C130.521 109.469 130.513 109.51 130.498 109.548C130.482 109.586 130.459 109.621 130.43 109.65C130.401 109.68 130.366 109.703 130.328 109.718C130.29 109.734 130.249 109.742 130.207 109.741Z" fill="white"/>
<path d="M130.457 102.105H105.252C105.004 102.105 104.803 102.306 104.803 102.554V108.299C104.803 108.547 105.004 108.748 105.252 108.748H130.457C130.704 108.748 130.905 108.547 130.905 108.299V102.554C130.905 102.306 130.704 102.105 130.457 102.105Z" fill="#407BFF"/>
<path opacity="0.2" d="M107.003 102.485H105.971V108.42H107.003V102.485Z" fill="black"/>
<path opacity="0.2" d="M109.35 102.458H108.599V108.392H109.35V102.458Z" fill="black"/>
<path opacity="0.2" d="M111.51 102.485H111.133V108.42H111.51V102.485Z" fill="black"/>
<path opacity="0.2" d="M114.422 102.458H114.233V108.392H114.422V102.458Z" fill="black"/>
<path opacity="0.2" d="M128.705 108.392H129.737V102.457H128.705V108.392Z" fill="black"/>
<path opacity="0.2" d="M126.359 108.421H127.11V102.486H126.359V108.421Z" fill="black"/>
<path opacity="0.2" d="M124.201 108.392H124.575V102.457H124.201V108.392Z" fill="black"/>
<path opacity="0.2" d="M121.286 108.421H121.475V102.486H121.286V108.421Z" fill="black"/>
<path opacity="0.2" d="M117.808 108.421H117.9V102.486H117.808V108.421Z" fill="black"/>
<path opacity="0.2" d="M130.207 103.115H105.554C105.471 103.115 105.391 103.081 105.333 103.021C105.274 102.962 105.241 102.882 105.241 102.799C105.242 102.716 105.275 102.637 105.334 102.578C105.393 102.52 105.472 102.486 105.554 102.485H130.207C130.291 102.485 130.37 102.518 130.429 102.577C130.488 102.636 130.521 102.716 130.521 102.799C130.521 102.84 130.513 102.881 130.498 102.92C130.482 102.958 130.459 102.993 130.43 103.022C130.401 103.052 130.366 103.075 130.328 103.091C130.29 103.107 130.249 103.115 130.207 103.115Z" fill="white"/>
<path d="M131.525 95.4766H106.32C106.072 95.4766 105.872 95.6774 105.872 95.9251V101.671C105.872 101.919 106.072 102.12 106.32 102.12H131.525C131.773 102.12 131.973 101.919 131.973 101.671V95.9251C131.973 95.6774 131.773 95.4766 131.525 95.4766Z" fill="#407BFF"/>
<path opacity="0.2" d="M108.071 95.8604H107.039V101.795H108.071V95.8604Z" fill="black"/>
<path opacity="0.2" d="M110.421 95.8325H109.67V101.767H110.421V95.8325Z" fill="black"/>
<path opacity="0.2" d="M112.581 95.8604H112.204V101.795H112.581V95.8604Z" fill="black"/>
<path opacity="0.2" d="M115.49 95.8325H115.302V101.767H115.49V95.8325Z" fill="black"/>
<path opacity="0.2" d="M129.776 101.764H130.809V95.829H129.776V101.764Z" fill="black"/>
<path opacity="0.2" d="M127.427 101.796H128.178V95.861H127.427V101.796Z" fill="black"/>
<path opacity="0.2" d="M125.269 101.764H125.643V95.829H125.269V101.764Z" fill="black"/>
<path opacity="0.2" d="M122.354 101.796H122.543V95.861H122.354V101.796Z" fill="black"/>
<path opacity="0.2" d="M118.879 101.796H118.972V95.861H118.879V101.796Z" fill="black"/>
<path opacity="0.2" d="M131.275 96.4766H106.626C106.584 96.477 106.543 96.4693 106.505 96.4537C106.467 96.4382 106.432 96.4152 106.402 96.3861C106.373 96.3569 106.349 96.3222 106.333 96.284C106.317 96.2457 106.309 96.2047 106.309 96.1633C106.309 96.1218 106.317 96.0808 106.333 96.0426C106.349 96.0043 106.373 95.9696 106.402 95.9405C106.432 95.9113 106.467 95.8884 106.505 95.8728C106.543 95.8573 106.584 95.8495 106.626 95.85H131.275C131.317 95.8495 131.358 95.8573 131.396 95.8728C131.435 95.8884 131.47 95.9113 131.499 95.9405C131.529 95.9696 131.552 96.0043 131.568 96.0426C131.584 96.0808 131.592 96.1218 131.592 96.1633C131.592 96.2047 131.584 96.2457 131.568 96.284C131.552 96.3222 131.529 96.3569 131.499 96.3861C131.47 96.4152 131.435 96.4382 131.396 96.4537C131.358 96.4693 131.317 96.477 131.275 96.4766Z" fill="white"/>
<path d="M129.745 88.851H104.54C104.292 88.851 104.091 89.0518 104.091 89.2995V95.0454C104.091 95.2931 104.292 95.4939 104.54 95.4939H129.745C129.992 95.4939 130.193 95.2931 130.193 95.0454V89.2995C130.193 89.0518 129.992 88.851 129.745 88.851Z" fill="#407BFF"/>
<path opacity="0.2" d="M106.291 89.2355H105.259V95.17H106.291V89.2355Z" fill="black"/>
<path opacity="0.2" d="M108.637 89.2035H107.886V95.138H108.637V89.2035Z" fill="black"/>
<path opacity="0.2" d="M110.795 89.2355H110.421V95.17H110.795V89.2355Z" fill="black"/>
<path opacity="0.2" d="M113.71 89.2035H113.521V95.138H113.71V89.2035Z" fill="black"/>
<path opacity="0.2" d="M127.993 95.1379H129.025V89.2034H127.993V95.1379Z" fill="black"/>
<path opacity="0.2" d="M125.643 95.1665H126.395V89.232H125.643V95.1665Z" fill="black"/>
<path opacity="0.2" d="M123.489 95.1379H123.863V89.2034H123.489V95.1379Z" fill="black"/>
<path opacity="0.2" d="M120.574 95.1665H120.763V89.232H120.574V95.1665Z" fill="black"/>
<path opacity="0.2" d="M117.096 95.1665H117.188V89.232H117.096V95.1665Z" fill="black"/>
<path opacity="0.2" d="M129.496 89.8621H104.843C104.76 89.8611 104.681 89.8278 104.622 89.7693C104.564 89.7107 104.53 89.6316 104.529 89.5488C104.529 89.4657 104.562 89.386 104.621 89.3272C104.68 89.2685 104.759 89.2355 104.843 89.2355H129.496C129.537 89.235 129.578 89.2428 129.616 89.2584C129.654 89.2739 129.689 89.297 129.718 89.3262C129.747 89.3554 129.77 89.3901 129.786 89.4283C129.802 89.4665 129.809 89.5075 129.809 89.5488C129.809 89.6319 129.776 89.7115 129.717 89.7703C129.658 89.829 129.579 89.8621 129.496 89.8621Z" fill="white"/>
<path d="M129.033 82.2225H103.828C103.58 82.2225 103.379 82.4234 103.379 82.6711V88.4169C103.379 88.6647 103.58 88.8655 103.828 88.8655H129.033C129.28 88.8655 129.481 88.6647 129.481 88.4169V82.6711C129.481 82.4234 129.28 82.2225 129.033 82.2225Z" fill="#407BFF"/>
<path opacity="0.2" d="M105.579 82.6063H104.547V88.5408H105.579V82.6063Z" fill="black"/>
<path opacity="0.2" d="M107.925 82.5785H107.174V88.513H107.925V82.5785Z" fill="black"/>
<path opacity="0.2" d="M110.086 82.6063H109.709V88.5408H110.086V82.6063Z" fill="black"/>
<path opacity="0.2" d="M112.998 82.5785H112.81V88.513H112.998V82.5785Z" fill="black"/>
<path opacity="0.2" d="M127.281 88.5095H128.313V82.575H127.281V88.5095Z" fill="black"/>
<path opacity="0.2" d="M124.931 88.5415H125.683V82.607H124.931V88.5415Z" fill="black"/>
<path opacity="0.2" d="M122.774 88.5095H123.148V82.575H122.774V88.5095Z" fill="black"/>
<path opacity="0.2" d="M119.866 88.5415H120.054V82.607H119.866V88.5415Z" fill="black"/>
<path opacity="0.2" d="M116.384 88.5415H116.476V82.607H116.384V88.5415Z" fill="black"/>
<path opacity="0.2" d="M128.783 83.2329H104.13C104.089 83.2334 104.048 83.2256 104.01 83.21C103.972 83.1945 103.937 83.1714 103.908 83.1422C103.878 83.113 103.855 83.0783 103.84 83.0401C103.824 83.0019 103.816 82.9609 103.817 82.9196C103.816 82.8784 103.824 82.8374 103.84 82.7992C103.855 82.761 103.878 82.7262 103.908 82.697C103.937 82.6679 103.972 82.6448 104.01 82.6292C104.048 82.6136 104.089 82.6059 104.13 82.6063H128.783C128.824 82.6059 128.865 82.6136 128.904 82.6292C128.942 82.6448 128.977 82.6679 129.006 82.697C129.035 82.7262 129.058 82.761 129.074 82.7992C129.089 82.8374 129.097 82.8784 129.096 82.9196C129.097 82.9609 129.089 83.0019 129.074 83.0401C129.058 83.0783 129.035 83.113 129.006 83.1422C128.977 83.1714 128.942 83.1945 128.904 83.21C128.865 83.2256 128.824 83.2334 128.783 83.2329Z" fill="white"/>
<path d="M98.3985 141.863H73.1937C72.9459 141.863 72.7451 142.064 72.7451 142.311V148.057C72.7451 148.305 72.9459 148.506 73.1937 148.506H98.3985C98.6462 148.506 98.847 148.305 98.847 148.057V142.311C98.847 142.064 98.6462 141.863 98.3985 141.863Z" fill="#407BFF"/>
<path opacity="0.2" d="M74.9416 142.247H73.9092V148.182H74.9416V142.247Z" fill="black"/>
<path opacity="0.2" d="M77.2917 142.219H76.5405V148.154H77.2917V142.219Z" fill="black"/>
<path opacity="0.2" d="M79.449 142.247H79.0752V148.182H79.449V142.247Z" fill="black"/>
<path opacity="0.2" d="M82.361 142.219H82.1724V148.154H82.361V142.219Z" fill="black"/>
<path opacity="0.2" d="M96.6473 148.153H97.6797V142.219H96.6473V148.153Z" fill="black"/>
<path opacity="0.2" d="M94.2977 148.182H95.0488V142.247H94.2977V148.182Z" fill="black"/>
<path opacity="0.2" d="M92.1404 148.153H92.5142V142.219H92.1404V148.153Z" fill="black"/>
<path opacity="0.2" d="M89.2283 148.182H89.417V142.247H89.2283V148.182Z" fill="black"/>
<path opacity="0.2" d="M85.7502 148.182H85.8428V142.247H85.7502V148.182Z" fill="black"/>
<path opacity="0.2" d="M98.1499 142.874H73.4969C73.4556 142.874 73.4147 142.867 73.3764 142.851C73.3382 142.836 73.3035 142.812 73.2743 142.783C73.2451 142.754 73.2221 142.719 73.2065 142.681C73.1909 142.643 73.1831 142.602 73.1836 142.561C73.1836 142.478 73.2166 142.398 73.2754 142.339C73.3341 142.28 73.4138 142.247 73.4969 142.247H98.1499C98.2327 142.248 98.3118 142.282 98.3704 142.34C98.4289 142.399 98.4622 142.478 98.4632 142.561C98.4632 142.644 98.4302 142.723 98.3714 142.782C98.3127 142.841 98.233 142.874 98.1499 142.874Z" fill="white"/>
<path d="M97.3272 135.237H72.1224C71.8747 135.237 71.6738 135.438 71.6738 135.686V141.432C71.6738 141.679 71.8747 141.88 72.1224 141.88H97.3272C97.5749 141.88 97.7757 141.679 97.7757 141.432V135.686C97.7757 135.438 97.5749 135.237 97.3272 135.237Z" fill="#407BFF"/>
<path opacity="0.2" d="M73.8737 135.623H72.8413V141.557H73.8737V135.623Z" fill="black"/>
<path opacity="0.2" d="M76.2233 135.593H75.4722V141.528H76.2233V135.593Z" fill="black"/>
<path opacity="0.2" d="M78.3811 135.623H78.0073V141.557H78.3811V135.623Z" fill="black"/>
<path opacity="0.2" d="M81.2932 135.593H81.1045V141.528H81.2932V135.593Z" fill="black"/>
<path opacity="0.2" d="M95.5789 141.524H96.6113V135.59H95.5789V141.524Z" fill="black"/>
<path opacity="0.2" d="M93.2298 141.554H93.981V135.619H93.2298V141.554Z" fill="black"/>
<path opacity="0.2" d="M91.0725 141.524H91.4463V135.59H91.0725V141.524Z" fill="black"/>
<path opacity="0.2" d="M88.1565 141.554H88.3452V135.619H88.1565V141.554Z" fill="black"/>
<path opacity="0.2" d="M84.6784 141.554H84.771V135.619H84.6784V141.554Z" fill="black"/>
<path opacity="0.2" d="M97.0781 136.249H72.4251C72.3423 136.248 72.2631 136.215 72.2046 136.156C72.146 136.098 72.1127 136.019 72.1118 135.936C72.1118 135.853 72.1448 135.773 72.2036 135.714C72.2623 135.656 72.342 135.623 72.4251 135.623H97.0781C97.1194 135.622 97.1603 135.63 97.1986 135.645C97.2368 135.661 97.2715 135.684 97.3007 135.713C97.3299 135.742 97.3529 135.777 97.3685 135.815C97.3841 135.854 97.3919 135.895 97.3914 135.936C97.3914 136.019 97.3584 136.099 97.2996 136.157C97.2409 136.216 97.1612 136.249 97.0781 136.249Z" fill="white"/>
<path d="M98.3985 128.612H73.1937C72.9459 128.612 72.7451 128.813 72.7451 129.061V134.807C72.7451 135.055 72.9459 135.255 73.1937 135.255H98.3985C98.6462 135.255 98.847 135.055 98.847 134.807V129.061C98.847 128.813 98.6462 128.612 98.3985 128.612Z" fill="#407BFF"/>
<path opacity="0.2" d="M74.9416 128.993H73.9092V134.928H74.9416V128.993Z" fill="black"/>
<path opacity="0.2" d="M77.2917 128.966H76.5405V134.9H77.2917V128.966Z" fill="black"/>
<path opacity="0.2" d="M79.449 128.993H79.0752V134.928H79.449V128.993Z" fill="black"/>
<path opacity="0.2" d="M82.361 128.966H82.1724V134.9H82.361V128.966Z" fill="black"/>
<path opacity="0.2" d="M96.6473 134.899H97.6797V128.965H96.6473V134.899Z" fill="black"/>
<path opacity="0.2" d="M94.2977 134.929H95.0488V128.994H94.2977V134.929Z" fill="black"/>
<path opacity="0.2" d="M92.1404 134.899H92.5142V128.965H92.1404V134.899Z" fill="black"/>
<path opacity="0.2" d="M89.2283 134.929H89.417V128.994H89.2283V134.929Z" fill="black"/>
<path opacity="0.2" d="M85.7502 134.929H85.8428V128.994H85.7502V134.929Z" fill="black"/>
<path opacity="0.2" d="M98.1499 129.62H73.4969C73.4556 129.62 73.4147 129.613 73.3764 129.597C73.3382 129.582 73.3035 129.558 73.2743 129.529C73.2451 129.5 73.2221 129.465 73.2065 129.427C73.1909 129.389 73.1831 129.348 73.1836 129.307C73.1836 129.224 73.2166 129.144 73.2754 129.085C73.3341 129.026 73.4138 128.993 73.4969 128.993H98.1499C98.2327 128.994 98.3118 129.028 98.3704 129.086C98.4289 129.145 98.4622 129.224 98.4632 129.307C98.4632 129.39 98.4302 129.469 98.3714 129.528C98.3127 129.587 98.233 129.62 98.1499 129.62Z" fill="white"/>
<path d="M97.6831 121.984H72.4783C72.2306 121.984 72.0298 122.185 72.0298 122.433V128.178C72.0298 128.426 72.2306 128.627 72.4783 128.627H97.6831C97.9309 128.627 98.1317 128.426 98.1317 128.178V122.433C98.1317 122.185 97.9309 121.984 97.6831 121.984Z" fill="#407BFF"/>
<path opacity="0.2" d="M74.2297 122.369H73.1973V128.303H74.2297V122.369Z" fill="black"/>
<path opacity="0.2" d="M76.5793 122.34H75.8281V128.274H76.5793V122.34Z" fill="black"/>
<path opacity="0.2" d="M78.7371 122.369H78.3633V128.303H78.7371V122.369Z" fill="black"/>
<path opacity="0.2" d="M81.6491 122.34H81.4604V128.274H81.6491V122.34Z" fill="black"/>
<path opacity="0.2" d="M95.9354 128.271H96.9678V122.336H95.9354V128.271Z" fill="black"/>
<path opacity="0.2" d="M93.5858 128.3H94.3369V122.365H93.5858V128.3Z" fill="black"/>
<path opacity="0.2" d="M91.4249 128.271H91.8022V122.336H91.4249V128.271Z" fill="black"/>
<path opacity="0.2" d="M88.5125 128.3H88.7012V122.365H88.5125V128.3Z" fill="black"/>
<path opacity="0.2" d="M85.0378 128.3H85.1304V122.365H85.0378V128.3Z" fill="black"/>
<path opacity="0.2" d="M97.4341 122.995H72.7846C72.7012 122.995 72.6211 122.962 72.5618 122.904C72.5025 122.845 72.4687 122.765 72.4678 122.682C72.4678 122.64 72.476 122.599 72.492 122.561C72.5079 122.523 72.5313 122.488 72.5608 122.459C72.5903 122.43 72.6252 122.407 72.6636 122.391C72.7021 122.376 72.7432 122.368 72.7846 122.369H97.4341C97.4755 122.368 97.5166 122.376 97.555 122.391C97.5935 122.407 97.6284 122.43 97.6579 122.459C97.6873 122.488 97.7107 122.523 97.7267 122.561C97.7427 122.599 97.7509 122.64 97.7509 122.682C97.75 122.765 97.7162 122.845 97.6568 122.904C97.5975 122.962 97.5175 122.995 97.4341 122.995Z" fill="white"/>
<path d="M97.6831 115.358H72.4783C72.2306 115.358 72.0298 115.559 72.0298 115.807V121.553C72.0298 121.801 72.2306 122.001 72.4783 122.001H97.6831C97.9309 122.001 98.1317 121.801 98.1317 121.553V115.807C98.1317 115.559 97.9309 115.358 97.6831 115.358Z" fill="#407BFF"/>
<path opacity="0.2" d="M74.2297 115.739H73.1973V121.674H74.2297V115.739Z" fill="black"/>
<path opacity="0.2" d="M76.5793 115.712H75.8281V121.646H76.5793V115.712Z" fill="black"/>
<path opacity="0.2" d="M78.7371 115.739H78.3633V121.674H78.7371V115.739Z" fill="black"/>
<path opacity="0.2" d="M81.6491 115.712H81.4604V121.646H81.6491V115.712Z" fill="black"/>
<path opacity="0.2" d="M95.9354 121.645H96.9678V115.711H95.9354V121.645Z" fill="black"/>
<path opacity="0.2" d="M93.5858 121.675H94.3369V115.74H93.5858V121.675Z" fill="black"/>
<path opacity="0.2" d="M91.4249 121.645H91.8022V115.711H91.4249V121.645Z" fill="black"/>
<path opacity="0.2" d="M88.5125 121.675H88.7012V115.74H88.5125V121.675Z" fill="black"/>
<path opacity="0.2" d="M85.0378 121.675H85.1304V115.74H85.0378V121.675Z" fill="black"/>
<path opacity="0.2" d="M97.4341 116.366H72.7846C72.7432 116.366 72.7021 116.359 72.6636 116.343C72.6252 116.328 72.5903 116.305 72.5608 116.275C72.5313 116.246 72.5079 116.212 72.492 116.173C72.476 116.135 72.4678 116.094 72.4678 116.053C72.4687 115.969 72.5025 115.89 72.5618 115.831C72.6211 115.772 72.7012 115.739 72.7846 115.739H97.4341C97.5175 115.739 97.5975 115.772 97.6568 115.831C97.7162 115.89 97.75 115.969 97.7509 116.053C97.7509 116.094 97.7427 116.135 97.7267 116.173C97.7107 116.212 97.6873 116.246 97.6579 116.275C97.6284 116.305 97.5935 116.328 97.555 116.343C97.5166 116.359 97.4755 116.366 97.4341 116.366Z" fill="white"/>
<path d="M97.6831 108.73H72.4783C72.2306 108.73 72.0298 108.931 72.0298 109.179V114.924C72.0298 115.172 72.2306 115.373 72.4783 115.373H97.6831C97.9309 115.373 98.1317 115.172 98.1317 114.924V109.179C98.1317 108.931 97.9309 108.73 97.6831 108.73Z" fill="#407BFF"/>
<path opacity="0.2" d="M74.2297 109.115H73.1973V115.049H74.2297V109.115Z" fill="black"/>
<path opacity="0.2" d="M76.5793 109.086H75.8281V115.02H76.5793V109.086Z" fill="black"/>
<path opacity="0.2" d="M78.7371 109.115H78.3633V115.049H78.7371V109.115Z" fill="black"/>
<path opacity="0.2" d="M81.6491 109.086H81.4604V115.02H81.6491V109.086Z" fill="black"/>
<path opacity="0.2" d="M95.9354 115.017H96.9678V109.082H95.9354V115.017Z" fill="black"/>
<path opacity="0.2" d="M93.5858 115.045H94.3369V109.111H93.5858V115.045Z" fill="black"/>
<path opacity="0.2" d="M91.4249 115.017H91.8022V109.082H91.4249V115.017Z" fill="black"/>
<path opacity="0.2" d="M88.5125 115.045H88.7012V109.111H88.5125V115.045Z" fill="black"/>
<path opacity="0.2" d="M85.0378 115.045H85.1304V109.111H85.0378V115.045Z" fill="black"/>
<path opacity="0.2" d="M97.4341 109.741H72.7846C72.7432 109.742 72.7021 109.734 72.6636 109.718C72.6252 109.703 72.5903 109.68 72.5608 109.651C72.5313 109.621 72.5079 109.587 72.492 109.549C72.476 109.51 72.4678 109.469 72.4678 109.428C72.4678 109.386 72.476 109.345 72.492 109.307C72.5079 109.269 72.5313 109.234 72.5608 109.205C72.5903 109.176 72.6252 109.153 72.6636 109.137C72.7021 109.122 72.7432 109.114 72.7846 109.115H97.4341C97.4755 109.114 97.5166 109.122 97.555 109.137C97.5935 109.153 97.6284 109.176 97.6579 109.205C97.6873 109.234 97.7107 109.269 97.7267 109.307C97.7427 109.345 97.7509 109.386 97.7509 109.428C97.7509 109.469 97.7427 109.51 97.7267 109.549C97.7107 109.587 97.6873 109.621 97.6579 109.651C97.6284 109.68 97.5935 109.703 97.555 109.718C97.5166 109.734 97.4755 109.742 97.4341 109.741Z" fill="white"/>
<path d="M97.9927 95.4049H72.7879C72.5402 95.4049 72.3394 95.6057 72.3394 95.8535V101.599C72.3394 101.847 72.5402 102.048 72.7879 102.048H97.9927C98.2405 102.048 98.4413 101.847 98.4413 101.599V95.8535C98.4413 95.6057 98.2405 95.4049 97.9927 95.4049Z" fill="#407BFF"/>
<path opacity="0.2" d="M74.5397 95.7894H73.5073V101.724H74.5397V95.7894Z" fill="black"/>
<path opacity="0.2" d="M76.8893 95.761H76.1382V101.696H76.8893V95.761Z" fill="black"/>
<path opacity="0.2" d="M79.0466 95.7894H78.6729V101.724H79.0466V95.7894Z" fill="black"/>
<path opacity="0.2" d="M81.9582 95.761H81.7695V101.696H81.9582V95.761Z" fill="black"/>
<path opacity="0.2" d="M96.2449 101.692H97.2773V95.7575H96.2449V101.692Z" fill="black"/>
<path opacity="0.2" d="M93.8953 101.724H94.6465V95.7895H93.8953V101.724Z" fill="black"/>
<path opacity="0.2" d="M91.738 101.692H92.1118V95.7575H91.738V101.692Z" fill="black"/>
<path opacity="0.2" d="M88.8226 101.724H89.0112V95.7895H88.8226V101.724Z" fill="black"/>
<path opacity="0.2" d="M85.3479 101.724H85.4404V95.7895H85.3479V101.724Z" fill="black"/>
<path opacity="0.2" d="M97.7436 96.416H73.0942C73.0527 96.4165 73.0116 96.4087 72.9732 96.3932C72.9348 96.3776 72.8998 96.3546 72.8704 96.3255C72.8409 96.2964 72.8175 96.2617 72.8015 96.2234C72.7856 96.1852 72.7773 96.1442 72.7773 96.1027C72.7783 96.0193 72.8121 95.9396 72.8714 95.881C72.9307 95.8223 73.0108 95.7894 73.0942 95.7894H97.7436C97.827 95.7894 97.9071 95.8223 97.9664 95.881C98.0257 95.9396 98.0595 96.0193 98.0605 96.1027C98.0605 96.1442 98.0523 96.1852 98.0363 96.2234C98.0203 96.2617 97.9969 96.2964 97.9675 96.3255C97.938 96.3546 97.903 96.3776 97.8646 96.3932C97.8262 96.4087 97.7851 96.4165 97.7436 96.416Z" fill="white"/>
<path d="M98.3985 102.105H73.1937C72.9459 102.105 72.7451 102.306 72.7451 102.554V108.299C72.7451 108.547 72.9459 108.748 73.1937 108.748H98.3985C98.6462 108.748 98.847 108.547 98.847 108.299V102.554C98.847 102.306 98.6462 102.105 98.3985 102.105Z" fill="#407BFF"/>
<path opacity="0.2" d="M74.9416 102.485H73.9092V108.42H74.9416V102.485Z" fill="black"/>
<path opacity="0.2" d="M77.2917 102.458H76.5405V108.392H77.2917V102.458Z" fill="black"/>
<path opacity="0.2" d="M79.449 102.485H79.0752V108.42H79.449V102.485Z" fill="black"/>
<path opacity="0.2" d="M82.361 102.458H82.1724V108.392H82.361V102.458Z" fill="black"/>
<path opacity="0.2" d="M96.6473 108.392H97.6797V102.457H96.6473V108.392Z" fill="black"/>
<path opacity="0.2" d="M94.2977 108.421H95.0488V102.486H94.2977V108.421Z" fill="black"/>
<path opacity="0.2" d="M92.1404 108.392H92.5142V102.457H92.1404V108.392Z" fill="black"/>
<path opacity="0.2" d="M89.2283 108.421H89.417V102.486H89.2283V108.421Z" fill="black"/>
<path opacity="0.2" d="M85.7502 108.421H85.8428V102.486H85.7502V108.421Z" fill="black"/>
<path opacity="0.2" d="M98.1499 103.115H73.4969C73.4554 103.115 73.4144 103.107 73.3762 103.091C73.3379 103.075 73.3032 103.052 73.2741 103.022C73.245 102.993 73.222 102.958 73.2064 102.92C73.1909 102.881 73.1831 102.84 73.1836 102.799C73.1836 102.716 73.2166 102.636 73.2754 102.577C73.3341 102.518 73.4138 102.485 73.4969 102.485H98.1499C98.2327 102.486 98.3118 102.52 98.3704 102.578C98.4289 102.637 98.4622 102.716 98.4632 102.799C98.4632 102.882 98.4303 102.962 98.3716 103.021C98.313 103.081 98.2333 103.115 98.1499 103.115Z" fill="white"/>
<path d="M89.0291 91.2473L88.2316 92.8066L87.4199 94.3908L85.9995 93.871L86.7115 92.4791L87.6086 90.7275L89.0291 91.2473Z" fill="#FFC2BC"/>
<path opacity="0.2" d="M89.029 91.2473L88.2315 92.8066L86.7114 92.4791L87.6085 90.7275L89.029 91.2473Z" fill="black"/>
<path d="M120.051 82.4288C120.008 82.4291 119.966 82.4137 119.934 82.3855C119.902 82.3573 119.881 82.3182 119.876 82.2757C119.826 81.9197 115.149 47.0317 109.502 31.7237C109.491 31.7014 109.484 31.6769 109.483 31.6519C109.482 31.6269 109.486 31.6019 109.495 31.5785C109.504 31.5551 109.518 31.5339 109.536 31.5163C109.553 31.4986 109.575 31.485 109.598 31.4761C109.622 31.4673 109.647 31.4635 109.672 31.4651C109.697 31.4666 109.721 31.4734 109.743 31.485C109.766 31.4966 109.785 31.5128 109.801 31.5324C109.816 31.5521 109.827 31.5748 109.833 31.5991C115.497 46.9356 120.182 81.8806 120.229 82.2366C120.235 82.2837 120.222 82.3313 120.194 82.3693C120.165 82.4072 120.123 82.4324 120.076 82.4395L120.051 82.4288Z" fill="#263238"/>
<path d="M111.037 81.4253L112.55 81.3648L112.845 77.8546L111.329 77.9151L111.037 81.4253Z" fill="#FFC2BC"/>
<path d="M112.692 80.5634L111.04 80.51C111.01 80.5101 110.981 80.5199 110.956 80.5378C110.932 80.5557 110.914 80.5809 110.905 80.6097L110.549 81.9411C110.54 81.9733 110.539 82.007 110.545 82.0396C110.552 82.0723 110.565 82.1032 110.585 82.1299C110.605 82.1566 110.631 82.1785 110.66 82.1939C110.69 82.2093 110.722 82.2178 110.755 82.2188C111.354 82.2188 112.219 82.2188 112.97 82.2402C113.846 82.2687 114.394 82.2402 115.433 82.258C116.053 82.2758 116.252 81.6563 115.992 81.5923C114.817 81.2968 114.048 81.3502 113.052 80.6916C112.946 80.6169 112.821 80.5726 112.692 80.5634Z" fill="#263238"/>
<path opacity="0.2" d="M112.845 77.8546L112.692 79.6631L111.179 79.7272L111.329 77.9151L112.845 77.8546Z" fill="black"/>
<path d="M110.421 68.7085C110.805 69.4454 110.834 77.1706 110.834 79.1322H113.451C113.789 77.0994 115.462 66.1845 113.095 64.6252C110.489 62.9057 103.881 63.4967 103.881 63.4967L103.404 62.5319L102.45 60.6095L96.982 62.6565L95.7894 63.0979L95.2981 63.2831H95.2554C95.2554 63.2831 95.2554 63.3365 95.2554 63.429C95.2732 63.6426 95.323 64.0734 95.412 64.6109C95.5152 65.2557 95.6603 65.8931 95.8463 66.5191C96.3519 68.1674 97.249 69.7231 98.8082 69.2033C98.8759 69.182 98.9435 69.1535 99.0112 69.125C99.1393 69.0681 99.2782 69.0147 99.4206 68.9613C100.67 68.5585 101.963 68.304 103.272 68.203C106.576 67.8897 110.129 68.1389 110.421 68.7085Z" fill="#263238"/>
<path d="M113.568 79.3601L110.51 79.442L110.492 78.4559L113.853 78.317L113.568 79.3601Z" fill="#407BFF"/>
<path d="M87.6833 93.629H85.8392C85.8093 93.6291 85.7803 93.6393 85.757 93.6581C85.7338 93.6769 85.7175 93.703 85.7111 93.7322L85.3978 95.0743C85.3903 95.1069 85.3902 95.1407 85.3976 95.1733C85.405 95.2058 85.4198 95.2363 85.4407 95.2623C85.4616 95.2884 85.4881 95.3094 85.5183 95.3237C85.5485 95.338 85.5816 95.3452 85.615 95.3449C86.2095 95.3449 86.6438 95.2986 87.395 95.2986C87.8542 95.2986 89.239 95.3484 89.887 95.3484C90.5349 95.3484 90.599 94.7183 90.3498 94.6614C89.1892 94.4086 88.3134 94.0562 87.9432 93.7215C87.9082 93.6896 87.8672 93.665 87.8226 93.6491C87.778 93.6332 87.7306 93.6263 87.6833 93.629Z" fill="#263238"/>
<path d="M101.104 63.2694L100.788 64.3623C100.62 64.9462 100.389 65.7401 100.118 66.6621L99.4419 68.9654C98.2884 72.8636 96.8217 77.7301 96.01 80.0406C94.3938 84.6259 88.9862 92.7818 88.9862 92.7818L86.3838 91.8277C86.3838 91.8277 90.3781 84.1453 91.6882 79.4959C92.6031 76.2492 94.0378 70.4143 94.9812 66.4948L95.4333 64.6151C95.5864 63.9743 95.711 63.451 95.7893 63.0843C95.8676 62.7176 95.9317 62.4827 95.9317 62.4827L96.9819 62.6429L101.104 63.2694Z" fill="#263238"/>
<path d="M89.2677 92.9516L86.2061 91.8266L86.5514 90.9153L89.8159 91.905L89.2677 92.9516Z" fill="#407BFF"/>
<path opacity="0.2" d="M103.415 62.5283L101.104 65.2233L100.787 64.3617L100.431 63.4219L100.107 66.6615L95.8567 66.5227L94.9702 66.4942L95.4223 64.6145C95.3333 64.0769 95.2835 63.6462 95.2657 63.4326L95.2942 63.2724L95.7855 63.0873C95.878 62.7028 95.9279 62.4856 95.9279 62.4856L96.9781 62.6458L102.457 60.6095L103.415 62.5283Z" fill="black"/>
<path opacity="0.2" d="M103.287 68.2068C101.826 68.3047 100.387 68.6154 99.0149 69.1288C98.9473 69.1573 98.8797 69.1858 98.812 69.2071L99.1217 67.6834C99.1217 67.6834 101.788 67.5588 103.287 68.2068Z" fill="black"/>
<path d="M83.4039 63.9911L82.4747 65.2229L81.688 63.7241C81.688 63.7241 82.5815 62.6739 83.112 63.1581L83.4039 63.9911Z" fill="#FFC2BC"/>
<path d="M81.0546 65.7853L80.8232 64.251L81.6883 63.7063L82.4751 65.2229L81.0546 65.7853Z" fill="#FFC2BC"/>
<path d="M83.6566 63.8776L83.3967 64.0093L83.0122 63.0338L83.4252 62.8345L83.6566 63.8776Z" fill="white"/>
<path d="M94.0204 54.9882C93.8851 55.2255 93.7462 55.4534 93.6038 55.6717C93.2455 56.2555 92.8705 56.8299 92.4789 57.3947L92.1549 57.8611C91.8274 58.331 91.4821 58.7903 91.1118 59.2495C90.9267 59.4773 90.738 59.7087 90.528 59.9366C90.3173 60.1752 90.0926 60.401 89.8552 60.613C88.9445 61.3881 87.9427 62.0492 86.8719 62.5817C85.8397 63.1151 84.7686 63.5697 83.6679 63.9416L83.2051 62.9021C83.6679 62.6208 84.1485 62.3325 84.6077 62.0334C85.067 61.7344 85.5333 61.4389 85.9783 61.1256C86.4233 60.8123 86.8612 60.4955 87.2742 60.1644C87.6802 59.8465 88.0655 59.5028 88.4276 59.1356C89.1111 58.3413 89.7268 57.491 90.2681 56.5937C90.8626 55.6717 91.6138 54.0555 92.2012 53.1334L94.0204 54.9882Z" fill="#263238"/>
<path opacity="0.2" d="M93.6035 55.672C93.2451 56.2558 92.8701 56.8302 92.4785 57.395C92.5182 56.6463 92.7263 55.9162 93.0873 55.259C93.3017 55.3332 93.484 55.479 93.6035 55.672Z" fill="black"/>
<path d="M114.016 51.1542L112.984 52.1154L113.13 53.0054C113.507 53.5038 114.376 52.8879 114.579 52.7312C114.611 52.7077 114.646 52.6874 114.682 52.6707L115.23 52.45C115.327 52.4097 115.408 52.3379 115.459 52.2461C115.51 52.1544 115.528 52.0481 115.511 51.9445L115.405 51.2895C115.395 51.228 115.373 51.1691 115.34 51.1165C115.306 51.0638 115.263 51.0185 115.212 50.9832C115.16 50.9479 115.102 50.9234 115.041 50.9112C114.98 50.8989 114.917 50.8993 114.856 50.9121L114.241 51.0367C114.156 51.0531 114.078 51.094 114.016 51.1542Z" fill="#FFC2BC"/>
<path d="M112.746 52.1227L113.03 52.0515L113.194 53.0839L112.746 53.1907V52.1227Z" fill="white"/>
<path d="M112.984 53.1977C111.853 53.437 110.706 53.5917 109.552 53.6605C108.364 53.7528 107.168 53.6978 105.992 53.4967C105.68 53.4369 105.37 53.3584 105.067 53.2617C104.768 53.1692 104.49 53.0695 104.212 52.9663C103.661 52.7633 103.144 52.5462 102.607 52.3077L101.977 52.0229C101.5 51.8021 101.03 51.5743 100.553 51.3358C100.197 51.1649 99.8657 50.9798 99.5239 50.7947L100.439 48.6195C101.418 49.1108 102.575 49.7765 103.557 50.2642C104.48 50.76 105.443 51.1745 106.437 51.5031C106.936 51.635 107.443 51.7337 107.954 51.7986C108.481 51.8733 109.022 51.9196 109.56 51.9623C110.097 52.0051 110.652 52.03 111.201 52.0371C111.749 52.0442 112.311 52.062 112.853 52.0691L112.984 53.1977Z" fill="#263238"/>
<path opacity="0.2" d="M101.966 52.0225C101.489 51.8017 101.019 51.5739 100.542 51.3354L100.357 50.3243C101.069 50.693 101.636 51.2913 101.966 52.0225Z" fill="black"/>
<path d="M92.5176 52.9382C93.106 54.3856 93.5751 55.8786 93.9202 57.4024C94.1765 58.4704 95.0843 59.5384 95.241 60.5174C95.3905 61.5972 95.6045 62.6671 95.8818 63.7214C96.9676 63.1376 100.253 62.4149 102.457 61.2294C102.55 52.3579 100.168 48.8976 100.168 48.8976C99.5633 49.0514 98.9689 49.2429 98.388 49.4707L98.0035 49.6309C96.9432 50.1314 95.9094 50.6863 94.9063 51.2935C94.7105 51.4109 94.5147 51.532 94.3261 51.6495C93.3577 52.2831 92.5176 52.9382 92.5176 52.9382Z" fill="#407BFF"/>
<path opacity="0.7" d="M92.5176 52.9382C93.106 54.3856 93.5751 55.8786 93.9202 57.4024C94.1765 58.4704 95.0843 59.5384 95.241 60.5174C95.3905 61.5972 95.6045 62.6671 95.8818 63.7214C96.9676 63.1376 100.253 62.4149 102.457 61.2294C102.55 52.3579 100.168 48.8976 100.168 48.8976C99.5633 49.0514 98.9689 49.2429 98.388 49.4707L98.0035 49.6309C96.9432 50.1314 95.9094 50.6863 94.9063 51.2935C94.7105 51.4109 94.5147 51.532 94.3261 51.6495C93.3577 52.2831 92.5176 52.9382 92.5176 52.9382Z" fill="white"/>
<path d="M98.3522 52.7704L98.4875 51.9481L97.9215 51.9125L97.5762 52.2934L98.3522 52.7704Z" fill="#407BFF"/>
<path d="M97.9218 51.9124C96.8751 52.4963 95.8391 51.8163 95.1699 51.35L95.0987 51.3001C95.3942 50.8907 95.4226 50.2321 95.3265 49.57C95.2129 48.8383 95.017 48.1217 94.7427 47.434L97.1385 48.8081C97.1385 48.9719 97.1101 49.1178 97.103 49.246C97.0709 49.5557 97.0674 49.7658 97.2382 49.901C97.5039 50.0493 97.8069 50.1173 98.1104 50.0968C98.3846 50.4137 98.6409 51.5102 97.9218 51.9124Z" fill="#FFC2BC"/>
<path d="M94.3405 51.6597C94.3405 51.6597 97.3558 54.8068 99.563 56.5191C99.563 56.5191 99.3993 50.9549 98.4025 49.4775L100.453 48.6195C100.453 48.6195 102.425 52.9769 102.707 60.2536L103.597 62.087L101.105 64.6217L100.304 62.742L99.7659 65.8606L94.6253 66.3163L95.2554 62.7563L92.2188 53.1443L94.3405 51.6597Z" fill="#263238"/>
<path d="M98.082 52.6031C98.082 52.6031 98.794 55.031 98.7442 56.3269L99.6627 56.8039L99.8264 56.0919C99.8264 56.0919 99.0183 52.9627 98.2743 52.4144L98.082 52.6031Z" fill="#407BFF"/>
<path d="M94.4473 51.3993C94.4473 51.3993 98.2138 55.5325 99.5452 56.5186C99.5452 56.5186 99.1572 50.9223 98.2921 49.5161C98.2921 49.5161 98.8866 49.1067 100.154 50.342L99.5203 51.5168L100.645 52.2929C100.645 52.2929 100.261 56.4866 99.5203 58.4766C99.5741 58.0564 99.5979 57.6329 99.5915 57.2093L95.1735 54.76L95.3693 53.4072L93.6997 53.336C93.6997 53.336 93.8848 51.7375 94.4473 51.3993Z" fill="#263238"/>
<path opacity="0.2" d="M94.4473 51.3993C94.4473 51.3993 98.2138 55.5325 99.5452 56.5186C99.5452 56.5186 99.1572 50.9223 98.2921 49.5161C98.2921 49.5161 98.8866 49.1067 100.154 50.342L99.5203 51.5168L100.645 52.2929C100.645 52.2929 100.261 56.4866 99.5203 58.4766C99.5741 58.0564 99.5979 57.6329 99.5915 57.2093L95.1735 54.76L95.3693 53.4072L93.6997 53.336C93.6997 53.336 93.8848 51.7375 94.4473 51.3993Z" fill="white"/>
<path d="M109.784 31.9769C109.784 31.9769 107.648 31.7348 106.455 32.2973C105.262 32.8597 104.063 34.6931 102.126 34.8676C100.189 35.042 99.8013 34.4119 99.8013 34.4119C99.8013 34.4119 101.507 37.4379 104.785 37.4058C108.064 37.3738 109.769 36.8327 111.702 38.0502C111.709 38.0502 110.221 32.9203 109.784 31.9769Z" fill="#407BFF"/>
<path opacity="0.2" d="M97.2382 49.8941C97.0388 50.5136 96.544 51.3893 95.3727 51.368C95.3052 51.3736 95.2374 51.3736 95.1698 51.368L95.0986 51.3181C95.3941 50.9087 95.4226 50.2501 95.3265 49.588C95.8529 49.2472 96.4927 49.1282 97.1065 49.2569C97.0709 49.5488 97.0673 49.7588 97.2382 49.8941Z" fill="black"/>
<path d="M97.9217 51.9123C97.9404 52.3425 97.8485 52.7703 97.6547 53.1548C96.9961 53.0622 95.0274 52.0868 94.9277 51.2715C94.9785 51.0758 95.0848 50.899 95.2339 50.7625C95.9844 51.4224 96.9261 51.8253 97.9217 51.9123Z" fill="white"/>
<path d="M97.9218 51.9126C98.2882 52.0078 98.6296 52.1815 98.9222 52.4217C99.1073 51.6563 98.3419 49.8158 98.1461 49.7161C97.8268 49.6852 97.505 49.7392 97.2134 49.8728C97.2134 49.8728 98.2885 50.8767 97.9218 51.9126Z" fill="white"/>
<path d="M92.6491 46.6651C92.61 47.2739 93.0052 48.4131 93.6887 47.8435C94.3722 47.2739 92.7168 45.6185 92.6491 46.6651Z" fill="#263238"/>
<path d="M96.9111 46.4341C97.3525 47.8581 97.6836 48.6841 97.2457 49.6631C96.5836 51.1369 94.6042 51.1333 93.7391 49.8553C92.9631 48.709 92.3685 46.5587 93.5398 45.4943C93.7987 45.2595 94.1129 45.0941 94.453 45.0136C94.7931 44.9331 95.1481 44.9401 95.4848 45.034C95.8214 45.1278 96.1289 45.3055 96.3783 45.5503C96.6277 45.7952 96.811 46.0992 96.9111 46.4341Z" fill="#FFC2BC"/>
<path d="M97.1387 44.6213C96.9963 43.6885 95.8891 43.8203 95.2412 44.3115V46.1521C95.4912 46.0333 95.7295 45.8914 95.9532 45.7284C95.9532 45.7284 96.206 47.1061 97.0497 47.5084C98.1248 46.4653 98.2138 44.8562 97.1387 44.6213Z" fill="#263238"/>
<path d="M97.9 47.3984C97.9204 47.7726 97.7925 48.1397 97.544 48.4202C97.2058 48.7762 96.7715 48.5448 96.6469 48.0855C96.5223 47.6263 96.5721 46.9926 97.0029 46.7968C97.1016 46.7556 97.209 46.7396 97.3154 46.7501C97.4219 46.7605 97.5241 46.7972 97.613 46.8568C97.7018 46.9163 97.7745 46.997 97.8246 47.0915C97.8747 47.186 97.9006 47.2915 97.9 47.3984Z" fill="#FFC2BC"/>
<path d="M94.9242 47.6087C94.9669 47.7226 94.9242 47.8366 94.8637 47.865C94.8032 47.8935 94.6928 47.8223 94.6501 47.7084C94.6074 47.5945 94.6501 47.4806 94.7106 47.4521C94.7711 47.4236 94.8779 47.4948 94.9242 47.6087Z" fill="#263238"/>
<path d="M93.6283 48.0815C93.6746 48.1954 93.6461 48.3093 93.5714 48.3378C93.4966 48.3663 93.4005 48.2951 93.3577 48.1812C93.315 48.0673 93.3399 47.9533 93.4147 47.9249C93.4895 47.8964 93.582 47.9676 93.6283 48.0815Z" fill="#263238"/>
<path d="M94.0594 47.9895C94.0453 48.378 93.977 48.7627 93.8564 49.1323C93.9552 49.157 94.0581 49.1602 94.1582 49.1418C94.2583 49.1234 94.3532 49.0837 94.4367 49.0255L94.0594 47.9895Z" fill="#ED893E"/>
<path d="M95.2159 49.2393L95.07 49.3033C95.061 49.3066 95.0511 49.3062 95.0424 49.3022C95.0337 49.2982 95.027 49.2909 95.0237 49.282C95.0204 49.273 95.0208 49.2631 95.0248 49.2544C95.0288 49.2457 95.0361 49.239 95.0451 49.2357C95.1883 49.1869 95.318 49.105 95.4238 48.9968C95.5295 48.8886 95.6083 48.757 95.6538 48.6127C95.6547 48.608 95.6565 48.6035 95.6591 48.5995C95.6617 48.5954 95.6651 48.592 95.6691 48.5894C95.6731 48.5867 95.6776 48.5849 95.6823 48.584C95.687 48.5831 95.6919 48.5832 95.6965 48.5842C95.7012 48.585 95.7057 48.5868 95.7095 48.5894C95.7134 48.5921 95.7167 48.5956 95.7191 48.5997C95.7215 48.6038 95.7229 48.6083 95.7233 48.613C95.7237 48.6178 95.7231 48.6225 95.7215 48.6269C95.6835 48.7581 95.619 48.8801 95.5321 48.9854C95.4451 49.0907 95.3375 49.1771 95.2159 49.2393Z" fill="#263238"/>
<path d="M95.1663 47.0459C95.1548 47.0521 95.142 47.0554 95.1289 47.0554C95.1159 47.0554 95.103 47.0521 95.0915 47.0459C95.0168 46.995 94.9309 46.9626 94.8412 46.9515C94.7514 46.9403 94.6603 46.9507 94.5753 46.9818C94.5579 46.9893 94.5381 46.9897 94.5204 46.9826C94.5027 46.9756 94.4885 46.9619 94.481 46.9444C94.4734 46.9269 94.4731 46.9072 94.4801 46.8895C94.4872 46.8718 94.5009 46.8576 94.5184 46.8501C94.625 46.8094 94.7399 46.795 94.8532 46.808C94.9666 46.821 95.0752 46.8611 95.1699 46.9248C95.1854 46.9357 95.1962 46.952 95.2002 46.9705C95.2041 46.989 95.2009 47.0083 95.1912 47.0245C95.1844 47.0332 95.176 47.0405 95.1663 47.0459Z" fill="#263238"/>
<path d="M92.9163 47.8438C92.9025 47.849 92.8873 47.849 92.8736 47.8438C92.8642 47.8429 92.8551 47.8402 92.8468 47.8357C92.8385 47.8313 92.8311 47.8253 92.8252 47.818C92.8192 47.8107 92.8148 47.8023 92.8121 47.7933C92.8094 47.7843 92.8085 47.7748 92.8095 47.7655C92.8196 47.651 92.8573 47.5408 92.9193 47.4441C92.9813 47.3474 93.0657 47.2671 93.1655 47.2101C93.1739 47.2058 93.183 47.2033 93.1924 47.2026C93.2018 47.2019 93.2113 47.2031 93.2202 47.206C93.2292 47.209 93.2374 47.2138 93.2445 47.22C93.2516 47.2262 93.2574 47.2337 93.2616 47.2421C93.2705 47.2587 93.2725 47.2781 93.2671 47.2961C93.2618 47.3141 93.2496 47.3292 93.2331 47.3383C93.156 47.3845 93.0914 47.4489 93.0448 47.5259C92.9983 47.6028 92.9713 47.6899 92.9661 47.7797C92.9653 47.7942 92.9601 47.8081 92.9512 47.8196C92.9423 47.831 92.9301 47.8395 92.9163 47.8438Z" fill="#263238"/>
<path d="M95.921 45.7396C95.921 45.7396 95.0203 46.6688 94.141 46.6225C94.3781 46.5147 94.594 46.3652 94.7782 46.181C94.7782 46.181 93.0588 46.9251 92.2115 46.537C91.3642 46.149 91.4603 45.7289 91.4603 45.7289C91.4603 45.7289 91.5564 45.9746 92.3788 45.9496C92.3788 45.9496 91.6668 45.4833 91.9552 44.8247C91.9963 44.9035 92.0567 44.9706 92.1308 45.0198C92.2049 45.069 92.2902 45.0986 92.3788 45.1059C92.6578 44.6763 93.0324 44.3171 93.4734 44.0564C93.9144 43.7958 94.4097 43.6408 94.9206 43.6036C96.7683 43.3936 97.1421 44.1234 97.224 44.6716C97.3058 45.2198 95.921 45.7396 95.921 45.7396Z" fill="#263238"/>
<path d="M66.337 141.862H41.1322C40.8844 141.862 40.6836 142.063 40.6836 142.31V148.056C40.6836 148.304 40.8844 148.505 41.1322 148.505H66.337C66.5847 148.505 66.7855 148.304 66.7855 148.056V142.31C66.7855 142.063 66.5847 141.862 66.337 141.862Z" fill="#407BFF"/>
<path opacity="0.2" d="M42.884 142.247H41.8516V148.182H42.884V142.247Z" fill="black"/>
<path opacity="0.2" d="M45.2302 142.218H44.479V148.152H45.2302V142.218Z" fill="black"/>
<path opacity="0.2" d="M47.3875 142.247H47.0137V148.182H47.3875V142.247Z" fill="black"/>
<path opacity="0.2" d="M50.299 142.218H50.1104V148.152H50.299V142.218Z" fill="black"/>
<path opacity="0.2" d="M64.5858 148.153H65.6182V142.219H64.5858V148.153Z" fill="black"/>
<path opacity="0.2" d="M62.2396 148.181H62.9907V142.246H62.2396V148.181Z" fill="black"/>
<path opacity="0.2" d="M60.0788 148.153H60.4526V142.219H60.0788V148.153Z" fill="black"/>
<path opacity="0.2" d="M57.1668 148.181H57.3555V142.246H57.1668V148.181Z" fill="black"/>
<path opacity="0.2" d="M53.6887 148.181H53.7812V142.246H53.6887V148.181Z" fill="black"/>
<path opacity="0.2" d="M66.0879 142.874H41.4349C41.3936 142.874 41.3527 142.866 41.3144 142.851C41.2762 142.835 41.2415 142.812 41.2123 142.783C41.1831 142.754 41.1601 142.719 41.1445 142.681C41.1289 142.643 41.1211 142.602 41.1216 142.56C41.1216 142.477 41.1546 142.398 41.2134 142.339C41.2721 142.28 41.3518 142.247 41.4349 142.247H66.0879C66.171 142.247 66.2507 142.28 66.3094 142.339C66.3682 142.398 66.4012 142.477 66.4012 142.56C66.4016 142.602 66.3939 142.643 66.3783 142.681C66.3627 142.719 66.3397 142.754 66.3105 142.783C66.2813 142.812 66.2466 142.835 66.2083 142.851C66.1701 142.866 66.1292 142.874 66.0879 142.874Z" fill="white"/>
<path d="M66.6929 135.237H41.4881C41.2404 135.237 41.0396 135.438 41.0396 135.686V141.431C41.0396 141.679 41.2404 141.88 41.4881 141.88H66.6929C66.9406 141.88 67.1415 141.679 67.1415 141.431V135.686C67.1415 135.438 66.9406 135.237 66.6929 135.237Z" fill="#407BFF"/>
<path opacity="0.2" d="M43.2399 135.622H42.2075V141.557H43.2399V135.622Z" fill="black"/>
<path opacity="0.2" d="M45.5861 135.593H44.835V141.527H45.5861V135.593Z" fill="black"/>
<path opacity="0.2" d="M47.7434 135.622H47.3696V141.557H47.7434V135.622Z" fill="black"/>
<path opacity="0.2" d="M50.6589 135.593H50.4702V141.527H50.6589V135.593Z" fill="black"/>
<path opacity="0.2" d="M64.9417 141.524H65.9741V135.589H64.9417V141.524Z" fill="black"/>
<path opacity="0.2" d="M62.5916 141.552H63.3428V135.618H62.5916V141.552Z" fill="black"/>
<path opacity="0.2" d="M60.4348 141.524H60.8086V135.589H60.4348V141.524Z" fill="black"/>
<path opacity="0.2" d="M57.5227 141.552H57.7114V135.618H57.5227V141.552Z" fill="black"/>
<path opacity="0.2" d="M54.0446 141.552H54.1372V135.618H54.0446V141.552Z" fill="black"/>
<path opacity="0.2" d="M66.4438 136.249H41.7908C41.7078 136.249 41.6281 136.216 41.5693 136.157C41.5106 136.098 41.4776 136.018 41.4776 135.935C41.4771 135.894 41.4849 135.853 41.5004 135.815C41.516 135.777 41.5391 135.742 41.5683 135.713C41.5974 135.684 41.6322 135.661 41.6704 135.645C41.7086 135.629 41.7496 135.622 41.7908 135.622H66.4438C66.4851 135.622 66.5261 135.629 66.5643 135.645C66.6025 135.661 66.6372 135.684 66.6664 135.713C66.6956 135.742 66.7187 135.777 66.7342 135.815C66.7498 135.853 66.7576 135.894 66.7571 135.935C66.7571 136.018 66.7241 136.098 66.6654 136.157C66.6066 136.216 66.5269 136.249 66.4438 136.249Z" fill="white"/>
<path d="M65.2691 128.612H40.0643C39.8166 128.612 39.6157 128.813 39.6157 129.061V134.806C39.6157 135.054 39.8166 135.255 40.0643 135.255H65.2691C65.5168 135.255 65.7176 135.054 65.7176 134.806V129.061C65.7176 128.813 65.5168 128.612 65.2691 128.612Z" fill="#407BFF"/>
<path opacity="0.2" d="M41.8127 128.993H40.7803V134.928H41.8127V128.993Z" fill="black"/>
<path opacity="0.2" d="M44.1618 128.964H43.4106V134.899H44.1618V128.964Z" fill="black"/>
<path opacity="0.2" d="M46.3191 128.993H45.9453V134.928H46.3191V128.993Z" fill="black"/>
<path opacity="0.2" d="M49.2312 128.964H49.0425V134.899H49.2312V128.964Z" fill="black"/>
<path opacity="0.2" d="M63.514 134.899H64.5464V128.964H63.514V134.899Z" fill="black"/>
<path opacity="0.2" d="M61.1717 134.927H61.9229V128.993H61.1717V134.927Z" fill="black"/>
<path opacity="0.2" d="M59.011 134.899H59.3848V128.964H59.011V134.899Z" fill="black"/>
<path opacity="0.2" d="M56.0984 134.927H56.2871V128.993H56.0984V134.927Z" fill="black"/>
<path opacity="0.2" d="M52.6203 134.927H52.7129V128.993H52.6203V134.927Z" fill="black"/>
<path opacity="0.2" d="M65.02 129.62H40.367C40.3257 129.62 40.2848 129.612 40.2466 129.597C40.2083 129.581 40.1736 129.558 40.1444 129.529C40.1152 129.5 40.0922 129.465 40.0766 129.427C40.061 129.389 40.0533 129.348 40.0537 129.306C40.0537 129.223 40.0867 129.144 40.1455 129.085C40.2042 129.026 40.2839 128.993 40.367 128.993H65.02C65.1028 128.994 65.182 129.027 65.2405 129.086C65.2991 129.144 65.3324 129.224 65.3333 129.306C65.3333 129.389 65.3003 129.469 65.2415 129.528C65.1828 129.587 65.1031 129.62 65.02 129.62Z" fill="white"/>
<path d="M51.0717 124.219L50.3561 125.981L49.815 127.312L48.4551 126.828L48.9428 125.632L49.7118 123.731L51.0717 124.219Z" fill="#E4897B"/>
<path d="M80.136 114.785L78.979 115.643L78.5553 114.703L77.5728 112.531L78.7298 111.67L79.6589 113.728L80.136 114.785Z" fill="#E4897B"/>
<path opacity="0.2" d="M49.7118 123.731L51.0718 124.219L50.3562 125.981L48.9429 125.632L49.7118 123.731Z" fill="black"/>
<path opacity="0.2" d="M79.6589 113.728L78.5553 114.703L77.5728 112.531L78.7298 111.67L79.6589 113.728Z" fill="black"/>
<path d="M61.2786 75.4294C61.3178 75.5398 61.4068 75.6074 61.478 75.5825C61.5492 75.5575 61.5777 75.4472 61.5385 75.3368C61.4993 75.2265 61.4103 75.1588 61.3391 75.1837C61.2679 75.2087 61.2323 75.319 61.2786 75.4294Z" fill="#263238"/>
<path d="M61.396 75.6111C61.6449 75.8995 61.9324 76.1523 62.2504 76.3622C62.1953 76.4429 62.123 76.5103 62.0386 76.5596C61.9543 76.6088 61.86 76.6387 61.7627 76.647L61.396 75.6111Z" fill="#DE5753"/>
<path d="M60.6624 74.9627C60.6461 74.9674 60.6288 74.9674 60.6125 74.9627C60.6008 74.9501 60.5942 74.9336 60.5942 74.9164C60.5942 74.8992 60.6008 74.8827 60.6125 74.8701C60.6721 74.7799 60.7522 74.7052 60.8463 74.652C60.9404 74.5987 61.0457 74.5686 61.1537 74.564C61.1719 74.5649 61.1891 74.5728 61.2017 74.586C61.2143 74.5993 61.2213 74.6169 61.2213 74.6352C61.2213 74.6444 61.2195 74.6535 61.2158 74.6619C61.2122 74.6703 61.2069 74.678 61.2003 74.6843C61.1936 74.6906 61.1857 74.6955 61.1771 74.6987C61.1685 74.7019 61.1593 74.7033 61.1501 74.7028C61.0644 74.7064 60.9808 74.7306 60.9065 74.7734C60.8321 74.8162 60.7692 74.8762 60.7229 74.9484C60.7143 74.9548 60.7045 74.9594 60.6941 74.9618C60.6837 74.9643 60.6729 74.9646 60.6624 74.9627Z" fill="#263238"/>
<path d="M58.6436 77.2235C58.6614 78.2915 58.5261 80.2353 57.6753 80.8013C57.6753 80.8013 57.7714 81.9049 59.7009 82.2467C61.8369 82.6276 60.9042 81.3745 60.9042 81.3745C59.7971 80.8939 59.9786 80.0395 60.3239 79.267L58.6436 77.2235Z" fill="#E4897B"/>
<path d="M57.5401 76.4862C58.0955 77.8034 58.3554 78.6222 59.281 79.0566C60.6694 79.733 62.129 78.5297 61.9617 77.0736C61.8264 75.76 60.9364 73.8269 59.4269 73.7557C59.0948 73.7387 58.7639 73.8069 58.4656 73.9538C58.1672 74.1007 57.9114 74.3214 57.7224 74.595C57.5333 74.8686 57.4174 75.1859 57.3855 75.5169C57.3536 75.8479 57.4068 76.1816 57.5401 76.4862Z" fill="#E4897B"/>
<path d="M58.4801 78.6293C59.1067 78.882 61.0754 77.4723 60.4025 75.8489C60.4025 75.8489 61.0754 74.7631 60.8333 73.7129C60.5912 72.6627 59.8009 72.3459 59.0533 72.6876C58.3911 72.9867 58.4623 73.3605 58.4623 73.3605C58.4623 73.3605 55.2583 74.2006 56.1341 75.4288C55.0056 77.0522 57.6934 78.3196 58.4801 78.6293Z" fill="#263238"/>
<path d="M59.8755 76.2192C60.0165 76.5455 60.2603 76.8168 60.5697 76.9917C60.9826 77.216 61.2212 76.9027 61.1357 76.4862C61.0503 76.0697 60.7548 75.5428 60.3276 75.4894C59.9004 75.436 59.7117 75.8276 59.8755 76.2192Z" fill="#E4897B"/>
<path d="M57.1628 80.8116C57.0133 80.5126 56.8495 80.1708 57.2126 80.0783C57.5757 79.9857 60.1532 79.8362 60.8901 80.0783C60.648 80.4805 61.0218 80.9932 61.0218 80.9932L57.1628 80.8116Z" fill="#407BFF"/>
<path opacity="0.5" d="M57.1628 80.8116C57.0133 80.5126 56.8495 80.1708 57.2126 80.0783C57.5757 79.9857 60.1532 79.8362 60.8901 80.0783C60.648 80.4805 61.0218 80.9932 61.0218 80.9932L57.1628 80.8116Z" fill="#FAFAFA"/>
<path d="M49.9079 126.736H48.3343C48.3058 126.736 48.2782 126.746 48.2562 126.764C48.2341 126.783 48.219 126.808 48.2133 126.836L47.9285 128.117C47.9208 128.148 47.9203 128.18 47.9272 128.212C47.9341 128.243 47.948 128.272 47.968 128.297C47.988 128.322 48.0135 128.341 48.0425 128.355C48.0714 128.368 48.1031 128.375 48.135 128.374C48.701 128.374 49.5234 128.331 50.2354 128.331C51.072 128.331 51.7911 128.377 52.7701 128.377C53.3646 128.377 53.5284 127.779 53.2792 127.726C52.1507 127.476 51.2322 127.452 50.2567 126.85C50.1529 126.781 50.0323 126.742 49.9079 126.736Z" fill="#263238"/>
<path d="M60.0894 93.5384C60.0894 93.5384 59.6408 96.5608 59.0961 100.035C58.8576 101.523 58.6013 103.093 58.3485 104.546C58.0673 106.173 57.7932 107.647 57.5653 108.686C56.5721 113.207 51.2997 125.667 51.2997 125.667L48.7188 125.108C48.7188 125.108 52.4069 115.415 53.2293 109.088C53.8665 104.236 55.1161 93.5348 55.1161 93.5348L60.0894 93.5384Z" fill="#263238"/>
<path d="M51.9158 124.803L51.4352 125.736L48.5303 125.106L48.7724 124.244L51.9158 124.803Z" fill="#407BFF"/>
<path opacity="0.3" d="M51.9158 124.803L51.4352 125.736L48.5303 125.106L48.7724 124.244L51.9158 124.803Z" fill="black"/>
<path opacity="0.2" d="M59.0961 100.036C58.8576 101.524 58.6013 103.094 58.3485 104.546C57.6365 101.673 57.8679 99.954 57.8679 99.954L59.0961 100.036Z" fill="black"/>
<path d="M55.8707 83.4499C55.1765 84.105 54.4467 84.7992 53.7846 85.4934C53.1155 86.173 52.481 86.8859 51.8835 87.6294C51.6286 87.9978 51.399 88.3832 51.1965 88.7828C50.9757 89.2136 50.7515 89.6515 50.5379 90.1L49.2313 92.7985L48.2061 92.4425C48.4268 91.4421 48.708 90.4667 49.0142 89.4877C49.1744 89 49.3453 88.5123 49.5339 88.0245C49.7329 87.5 49.9771 86.9938 50.2637 86.5115C50.8422 85.629 51.4923 84.7955 52.2075 84.0195C52.899 83.2431 53.6361 82.5085 54.4147 81.8195L55.8707 83.4499Z" fill="#DC897C"/>
<path d="M48.1208 95.0768L48.6441 94.1476L47.0492 93.6635C46.9593 93.8784 46.9154 94.1099 46.9203 94.3429C46.9252 94.5758 46.9788 94.8052 47.0777 95.0162L48.1208 95.0768Z" fill="#E4897B"/>
<path d="M49.2275 92.784L48.2058 92.4529L47.0488 93.6633L48.6437 94.1474L49.2275 92.784Z" fill="#E4897B"/>
<path d="M80.1179 114.589L78.8185 115.554C78.7958 115.571 78.7797 115.596 78.7726 115.624C78.7655 115.651 78.7679 115.681 78.7794 115.707L79.3134 116.907C79.326 116.936 79.3453 116.962 79.3697 116.983C79.3941 117.003 79.423 117.018 79.454 117.026C79.4851 117.033 79.5175 117.033 79.5487 117.026C79.5799 117.019 79.609 117.005 79.6338 116.985C80.0823 116.629 80.2853 116.451 80.8549 116.027C81.2109 115.767 82.0225 115.194 82.5103 114.835C82.998 114.475 82.7025 113.945 82.4711 114.051C81.4351 114.518 80.8371 114.568 80.36 114.521C80.2738 114.514 80.1877 114.538 80.1179 114.589Z" fill="#263238"/>
<path d="M55.2515 80.9474C53.8667 80.8619 51.8232 83.8559 51.8232 83.8559L53.8382 86.6077C54.7225 86.0919 55.4584 85.3561 55.9742 84.4717C56.9318 82.8555 56.6648 81.0364 55.2515 80.9474Z" fill="#407BFF"/>
<path opacity="0.6" d="M55.2515 80.9474C53.8667 80.8619 51.8232 83.8559 51.8232 83.8559L53.8382 86.6077C54.7225 86.0919 55.4584 85.3561 55.9742 84.4717C56.9318 82.8555 56.6648 81.0364 55.2515 80.9474Z" fill="#FAFAFA"/>
<path opacity="0.2" d="M55.6429 83.7101C54.7351 84.1978 54.1299 85.3975 53.749 86.4833L53.838 86.6079C54.7223 86.0921 55.4582 85.3562 55.974 84.4719C56.031 84.3794 56.0844 84.2797 56.1342 84.1836L55.6429 83.7101Z" fill="black"/>
<path d="M63.4466 80.7263C63.4466 80.7263 64.2761 82.8125 62.8236 93.5423H55.1162C55.0628 92.3569 55.8068 86.5825 54.6641 81.0076C55.5163 80.8422 56.3785 80.7328 57.2451 80.6801C58.2312 80.6338 61.5171 79.9681 62.3857 80.0499C63.5285 80.1496 63.4466 80.7263 63.4466 80.7263Z" fill="#407BFF"/>
<path opacity="0.6" d="M63.6281 85.4577C63.5356 87.3552 63.3042 89.9682 62.8236 93.5389H55.1162C55.0628 92.3534 55.8068 86.5791 54.6641 81.0042C55.5163 80.8388 56.3785 80.7294 57.2451 80.6766C58.2312 80.6304 61.5171 79.9646 62.3857 80.0465C63.5285 80.1498 63.4537 80.7265 63.4537 80.7265C63.4537 80.7265 63.6281 81.1644 63.6744 82.6702C63.6922 83.3573 63.6887 84.2651 63.6281 85.4577Z" fill="#FAFAFA"/>
<path d="M62.5102 92.916L64.0339 96.476C64.0339 96.476 71.4138 97.4016 73.5071 99.9399C75.6004 102.478 79.5591 112.777 79.5591 112.777L77.5869 114.454C77.5869 114.454 71.9265 104.045 70.3422 102.788C68.758 101.531 59.7406 101.535 57.7256 100.784C55.7106 100.032 55.1304 93.5283 55.1304 93.5283L62.5102 92.916Z" fill="#263238"/>
<path d="M77.1665 114.258L79.5446 112.436L79.8507 113.023L77.5723 114.821L77.1665 114.258Z" fill="#407BFF"/>
<path opacity="0.3" d="M77.1665 114.258L79.5446 112.436L79.8507 113.023L77.5723 114.821L77.1665 114.258Z" fill="black"/>
<path d="M60.8766 74.2259C60.8766 74.2259 60.7876 72.1113 59.6697 72.0401C58.5519 71.9689 57.6726 72.9799 57.6726 72.9799C57.5643 72.845 57.4273 72.7359 57.2714 72.6608C57.1156 72.5856 56.9449 72.5463 56.7719 72.5456C56.1382 72.51 55.0346 73.5887 55.0346 73.5887C55.0346 73.5887 56.4123 72.7414 56.9926 73.1294C56.9926 73.1294 55.4298 73.5638 55.0346 74.5534C54.8651 75.0563 54.5854 75.5148 54.2158 75.8956H55.0346L54.4971 76.8105C54.4971 76.8105 55.6291 77.9034 56.4835 77.7219L56.2094 78.2416C56.2094 78.2416 57.8862 78.8539 58.5697 78.6653C59.2532 78.4766 58.6053 75.0732 58.6053 75.0732L60.8766 74.2259Z" fill="#263238"/>
<path opacity="0.2" d="M63.6282 85.4579C62.2291 84.5074 62.2505 82.318 62.2505 82.318L63.6745 82.674C63.6923 83.3575 63.6887 84.2653 63.6282 85.4579Z" fill="black"/>
<path d="M50.7231 96.2659L41.2144 94.6675L38.7544 101.987L40.3279 104.846L50.7089 106.213L52.8128 98.2382L50.7231 96.2659Z" fill="#407BFF"/>
<path opacity="0.4" d="M38.7544 101.987L39.3667 103.101L39.5056 103.347L40.3279 104.846L50.7089 106.213L52.8128 98.2382L51.9193 97.398L51.6452 97.1381L50.7267 96.2659L41.2144 94.6675L38.7544 101.987Z" fill="black"/>
<path opacity="0.2" d="M52.8128 98.2382L43.4002 96.775L41.2144 94.6675L50.7267 96.2659L52.8128 98.2382Z" fill="white"/>
<path opacity="0.1" d="M43.4002 96.775L40.3279 104.846L38.7544 101.987L41.2144 94.6675L43.4002 96.775Z" fill="white"/>
<path d="M39.3667 103.101L39.5055 103.347L42.35 95.7888L51.9193 97.3979L51.6451 97.138L42.1791 95.6215L39.3667 103.101Z" fill="#263238"/>
<path d="M48.708 96.7004L48.2274 96.2554L45.8315 95.821L46.2516 96.3052L48.708 96.7004Z" fill="#263238"/>
<path d="M49.6336 96.8782C49.6336 96.8782 49.7439 94.3649 49.6763 94.1975C49.6087 94.0302 46.2373 93.4855 45.9846 93.4321C45.7318 93.3787 44.6211 95.828 44.6211 95.828L44.8133 96.1235L45.4506 96.2089C45.4506 96.2089 46.2587 94.0979 46.3406 94.0445C47.2643 94.1427 48.1818 94.2925 49.0889 94.493C49.1601 94.55 48.8824 96.4688 48.8824 96.4688L49.0996 96.7821L49.6336 96.8782Z" fill="#263238"/>
<path d="M39.3984 100.873L40.1104 101.788L40.1781 101.606L40.7156 100.182L40.7797 100.011L40.8936 99.7051C40.8936 99.7051 40.6907 99.9329 40.413 100.193C40.1251 100.487 39.7797 100.718 39.3984 100.873Z" fill="#407BFF"/>
<path opacity="0.2" d="M39.6299 100.94L40.1603 101.606L40.6979 100.182L40.762 100.011C40.4669 100.409 40.078 100.728 39.6299 100.94Z" fill="white"/>
<path opacity="0.2" d="M40.3955 100.189H40.6981L40.8761 99.712C40.8761 99.712 40.6732 99.9292 40.3955 100.189Z" fill="black"/>
<path d="M39.1386 99.0815L39.0068 100.37C39.5389 100.127 40.1312 100.048 40.7085 100.142L40.7762 99.9644L41.1891 98.8572L41.2354 98.7433C40.519 98.6728 39.7965 98.7893 39.1386 99.0815Z" fill="#407BFF"/>
<path d="M40.4917 96.8957C40.7404 97.3804 41.0676 97.8207 41.46 98.1986L41.5099 98.0633L41.638 97.7073L41.8516 97.1199L41.9549 96.8352L41.9833 96.7533C41.8128 96.4924 41.6651 96.2172 41.5419 95.9309L40.4917 96.8957Z" fill="#407BFF"/>
<path d="M42.6704 95.2368C42.8002 95.4401 42.9009 95.6606 42.9694 95.8918L43.119 95.9167L43.3254 95.9488L43.6565 96.0093L43.9734 96.0627L44.0837 96.0805C44.0781 95.5861 43.8934 95.1106 43.564 94.7419L42.6704 95.2368Z" fill="#407BFF"/>
<path opacity="0.2" d="M42.8696 95.2727C42.9759 95.4778 43.0594 95.6938 43.1188 95.917L43.3253 95.9491C43.3079 95.9219 43.2966 95.8913 43.2923 95.8593C43.288 95.8273 43.2908 95.7948 43.3004 95.764C43.3096 95.7358 43.3244 95.7098 43.3437 95.6874C43.3631 95.665 43.3867 95.6467 43.4131 95.6335C43.4396 95.6202 43.4684 95.6124 43.498 95.6103C43.5275 95.6083 43.5571 95.6121 43.5852 95.6216C43.6132 95.6304 43.6391 95.6448 43.6615 95.6638C43.6838 95.6828 43.7022 95.7061 43.7155 95.7323C43.7287 95.7585 43.7366 95.787 43.7387 95.8163C43.7408 95.8456 43.737 95.875 43.7276 95.9028C43.7146 95.9445 43.6899 95.9816 43.6564 96.0096L43.9732 96.063C43.9544 95.6441 43.8092 95.2407 43.5567 94.906L42.8696 95.2727Z" fill="white"/>
<path opacity="0.2" d="M39.224 99.1312L39.1421 100.174C39.6677 99.9976 40.2229 99.9262 40.7761 99.9643L41.1891 98.8571C40.5214 98.7762 39.8441 98.8706 39.224 99.1312ZM40.3667 99.0458C40.4095 99.031 40.4551 99.0261 40.5 99.0317C40.5449 99.0373 40.588 99.0531 40.6258 99.0779C40.6636 99.1028 40.6953 99.1359 40.7182 99.1749C40.7412 99.2139 40.7549 99.2577 40.7583 99.3028C40.7617 99.348 40.7547 99.3933 40.7378 99.4353C40.7209 99.4772 40.6945 99.5148 40.6608 99.545C40.6271 99.5752 40.5869 99.5973 40.5433 99.6095C40.4998 99.6217 40.4539 99.6237 40.4095 99.6154C40.3667 99.6302 40.3211 99.6351 40.2762 99.6295C40.2313 99.6239 40.1882 99.6081 40.1504 99.5833C40.1126 99.5584 40.0809 99.5252 40.0579 99.4862C40.035 99.4472 40.0213 99.4035 40.0179 99.3584C40.0145 99.3132 40.0215 99.2679 40.0384 99.2259C40.0553 99.1839 40.0816 99.1464 40.1154 99.1162C40.1491 99.086 40.1893 99.0639 40.2328 99.0517C40.2764 99.0395 40.3222 99.0375 40.3667 99.0458Z" fill="white"/>
<path opacity="0.2" d="M40.6729 96.953C40.9069 97.3549 41.1877 97.7278 41.5095 98.0637L41.6376 97.7077C41.5648 97.6783 41.5063 97.6218 41.4744 97.55C41.4425 97.4783 41.4398 97.397 41.4667 97.3232C41.4891 97.2501 41.538 97.1879 41.6039 97.1491C41.6698 97.1102 41.7479 97.0974 41.8227 97.1132L41.926 96.8284C41.7451 96.6282 41.5984 96.3997 41.4917 96.152L40.6729 96.953Z" fill="white"/>
<path d="M72.5278 73.9978L73.0761 73.0829L74.2865 74.2292C74.144 74.4134 73.9647 74.5659 73.76 74.6769C73.5552 74.7878 73.3296 74.8548 73.0974 74.8736L72.5278 73.9978Z" fill="#E4897B"/>
<path d="M73.9234 71.8585L74.7814 73.0654L74.2866 74.2295L73.0762 73.0832L73.9234 71.8585Z" fill="#E4897B"/>
<path d="M63.0547 80.2284C64.0399 80.0262 65.0142 79.7743 65.9739 79.4737C66.8985 79.1994 67.7858 78.812 68.6154 78.3202C68.6912 78.2728 68.7637 78.2205 68.8326 78.1636L69.0782 77.9357C69.2491 77.772 69.4342 77.5797 69.5944 77.4089C69.9326 77.0315 70.2815 76.6435 70.6161 76.2447C71.3032 75.4544 71.9725 74.6321 72.6631 73.8311L73.5638 74.4291C73.069 75.3939 72.5207 76.3124 71.9404 77.2273C71.645 77.6794 71.3424 78.1351 71.0077 78.5801C70.8404 78.8008 70.6517 79.0251 70.4737 79.2494C70.3812 79.3597 70.2637 79.4737 70.1604 79.5876C70.0331 79.7137 69.8988 79.8325 69.7582 79.9436C68.813 80.6217 67.773 81.1567 66.6716 81.5313C65.6187 81.9123 64.5348 82.2018 63.432 82.3964L63.0547 80.2284Z" fill="#DC897C"/>
<path d="M62.5958 83.3392C64.0946 84.6386 67.3876 82.41 67.3876 82.41L66.0739 79.1669C64.8656 79.3078 63.6735 79.5641 62.5139 79.9323C60.4313 80.6407 61.4495 82.3495 62.5958 83.3392Z" fill="#407BFF"/>
<path opacity="0.6" d="M62.5958 83.3392C64.0946 84.6386 67.3876 82.41 67.3876 82.41L66.0739 79.1669C64.8656 79.3078 63.6735 79.5641 62.5139 79.9323C60.4313 80.6407 61.4495 82.3495 62.5958 83.3392Z" fill="#FAFAFA"/>
</g>
<defs>
<clipPath id="clip0_25_1534">
<rect width="178" height="178" fill="white"/>
</clipPath>
</defs>
</svg>
