<svg width="28" height="28" viewBox="0 0 28 28" fill="none" xmlns="http://www.w3.org/2000/svg">
<path d="M23.1999 10.55H12.8499C11.5797 10.55 10.5499 11.5797 10.5499 12.85V23.2C10.5499 24.4703 11.5797 25.5 12.8499 25.5H23.1999C24.4702 25.5 25.4999 24.4703 25.4999 23.2V12.85C25.4999 11.5797 24.4702 10.55 23.1999 10.55Z" stroke="#1769E9" stroke-width="2" stroke-linecap="round" stroke-linejoin="round"/>
<path d="M5.95 17.45H4.8C4.19 17.45 3.60499 17.2077 3.17365 16.7763C2.74232 16.345 2.5 15.76 2.5 15.15V4.8C2.5 4.19 2.74232 3.60499 3.17365 3.17365C3.60499 2.74232 4.19 2.5 4.8 2.5H15.15C15.76 2.5 16.345 2.74232 16.7763 3.17365C17.2077 3.60499 17.45 4.19 17.45 4.8V5.95" stroke="#1769E9" stroke-width="2" stroke-linecap="round" stroke-linejoin="round"/>
</svg>
