<svg width="20" height="21" viewBox="0 0 20 21" fill="none" xmlns="http://www.w3.org/2000/svg">
<path d="M17 0.490265H3C2.20462 0.491138 1.44206 0.807489 0.879644 1.36991C0.317225 1.93233 0.000873479 2.69488 0 3.49027V17.4903C0.000873479 18.2856 0.317225 19.0482 0.879644 19.6106C1.44206 20.173 2.20462 20.4894 3 20.4903H17C17.7954 20.4894 18.5579 20.173 19.1204 19.6106C19.6828 19.0482 19.9991 18.2856 20 17.4903V3.49027C19.9991 2.69488 19.6828 1.93233 19.1204 1.36991C18.5579 0.807489 17.7954 0.491138 17 0.490265ZM18 17.4903C17.9998 17.7554 17.8944 18.0097 17.7069 18.1972C17.5194 18.3847 17.2652 18.4901 17 18.4903H3C2.73484 18.4901 2.48059 18.3847 2.2931 18.1972C2.1056 18.0097 2.00019 17.7554 2 17.4903V3.49027C2.00019 3.22511 2.1056 2.97086 2.2931 2.78336C2.48059 2.59587 2.73484 2.49045 3 2.49027H17C17.2652 2.49045 17.5194 2.59587 17.7069 2.78336C17.8944 2.97086 17.9998 3.22511 18 3.49027V17.4903Z" fill="#1769E9"/>
<path d="M13.293 10.7832L11 13.0761V5.49023C11 5.22502 10.8947 4.97066 10.7071 4.78313C10.5196 4.59559 10.2653 4.49023 10 4.49023C9.73482 4.49023 9.48046 4.59559 9.29293 4.78313C9.10539 4.97066 9.00004 5.22502 9.00004 5.49023V13.0761L6.70704 10.7832C6.51844 10.6011 6.26584 10.5003 6.00364 10.5026C5.74144 10.5048 5.49063 10.61 5.30522 10.7954C5.11981 10.9808 5.01465 11.2316 5.01237 11.4938C5.01009 11.756 5.11088 12.0086 5.29304 12.1972L9.29304 16.1972C9.30194 16.2061 9.31404 16.2087 9.32304 16.2172C9.50991 16.3968 9.76004 16.4953 10.0191 16.4916C10.2782 16.4878 10.5254 16.3821 10.707 16.1972L14.707 12.1972C14.8892 12.0086 14.99 11.756 14.9877 11.4938C14.9854 11.2316 14.8803 10.9808 14.6948 10.7954C14.5094 10.61 14.2586 10.5048 13.9964 10.5026C13.7342 10.5003 13.4816 10.6011 13.293 10.7832Z" fill="#1769E9"/>
</svg>
