<svg width="53" height="53" viewBox="0 0 53 53" fill="none" xmlns="http://www.w3.org/2000/svg">
<circle opacity="0.5" cx="26.5" cy="26.6907" r="25.5" fill="#E8F0FD" stroke="#D3E4FF"/>
<g clip-path="url(#clip0_0_191)">
<path d="M20.3348 39.1616L24.794 28.3964L21.2131 26.9131L16.0754 39.3161C15.859 39.8386 16.3487 40.3771 16.8894 40.2112L19.8026 39.3172C19.885 39.2914 19.9718 39.2825 20.0578 39.291L20.3348 39.1616Z" fill="#FFE07D"/>
<path d="M24.6033 28.3174L20.0578 39.291C20.1688 39.3007 20.2755 39.3381 20.3684 39.3996C20.4612 39.4611 20.5372 39.5449 20.5895 39.6432L22.0172 42.3354C22.2822 42.835 23.0093 42.8005 23.2258 42.278L28.3634 29.875L24.6033 28.3174Z" fill="#FFD064"/>
<path d="M28.4968 28.276L24.6366 29.875L29.7743 42.278C29.9907 42.8006 30.7178 42.8351 30.9828 42.3354L32.4106 39.6432C32.4533 39.5625 32.5122 39.4914 32.5836 39.4343L32.9332 38.9925L28.4968 28.276Z" fill="#FFE07D"/>
<path d="M36.9246 39.3161L31.7869 26.9131L28.04 28.4651L32.5839 39.4346C32.6688 39.3666 32.7692 39.3203 32.8761 39.2998C32.983 39.2793 33.0933 39.2853 33.1974 39.3172L36.1106 40.2112C36.6514 40.3772 37.1411 39.8386 36.9246 39.3161Z" fill="#FFD064"/>
<path d="M27.7901 11.1404C28.0547 11.3503 28.3666 11.4925 28.6987 11.5546C29.0308 11.6167 29.373 11.5968 29.6957 11.4966C30.6168 11.2105 31.6136 11.5967 32.1016 12.4287C32.2725 12.7201 32.512 12.9654 32.7992 13.1432C33.0865 13.3211 33.4128 13.4261 33.7498 13.4492C34.7121 13.5152 35.502 14.2354 35.6566 15.1875C35.7107 15.521 35.8454 15.8362 36.049 16.1058C36.2526 16.3754 36.5189 16.5912 36.8249 16.7345C37.6983 17.1437 38.1747 18.1006 37.9749 19.0442C37.9049 19.3747 37.9167 19.7173 38.0091 20.0422C38.1016 20.3672 38.2719 20.6646 38.5054 20.9088C39.1721 21.6059 39.2707 22.6702 38.7435 23.4779C38.5588 23.7608 38.446 24.0845 38.4148 24.4209C38.3837 24.7573 38.4351 25.0963 38.5646 25.4083C38.9344 26.2991 38.6419 27.3272 37.8586 27.8899C37.5842 28.087 37.362 28.3481 37.2114 28.6505C37.0609 28.9529 36.9864 29.2876 36.9944 29.6253C37.0175 30.5895 36.3733 31.4425 35.4396 31.6843C35.1125 31.769 34.811 31.9322 34.5614 32.1598C34.3117 32.3874 34.1214 32.6725 34.0069 32.9904C33.6801 33.8978 32.7712 34.4605 31.8132 34.3486C31.4776 34.3094 31.1376 34.3527 30.8225 34.4748C30.5075 34.5968 30.227 34.7939 30.0054 35.0489C29.3729 35.777 28.3221 35.9734 27.4692 35.523C27.1705 35.3653 26.8378 35.2828 26.4999 35.2828C26.1621 35.2828 25.8294 35.3653 25.5306 35.523C24.6777 35.9735 23.627 35.777 22.9944 35.0489C22.7729 34.7939 22.4924 34.5968 22.1773 34.4747C21.8623 34.3527 21.5222 34.3094 21.1867 34.3486C20.2287 34.4605 19.3199 33.8978 18.993 32.9904C18.8785 32.6725 18.6882 32.3874 18.4385 32.1598C18.1888 31.9322 17.8874 31.769 17.5603 31.6843C16.6266 31.4426 15.9824 30.5895 16.0054 29.6253C16.0135 29.2876 15.939 28.9529 15.7884 28.6505C15.6378 28.3481 15.4157 28.087 15.1413 27.8899C14.3579 27.3272 14.0654 26.2991 14.4352 25.4083C14.5648 25.0963 14.6162 24.7573 14.585 24.4209C14.5539 24.0845 14.441 23.7608 14.2564 23.4779C13.7292 22.6702 13.8278 21.6059 14.4944 20.9088C14.7279 20.6646 14.8983 20.3672 14.9908 20.0422C15.0832 19.7173 15.095 19.3747 15.025 19.0442C14.8252 18.1006 15.3016 17.1437 16.1751 16.7345C16.481 16.5912 16.7473 16.3754 16.9509 16.1058C17.1545 15.8362 17.2892 15.521 17.3434 15.1875C17.4979 14.2354 18.2879 13.5153 19.2501 13.4492C19.5872 13.4261 19.9135 13.3211 20.2007 13.1432C20.4879 12.9654 20.7274 12.7201 20.8984 12.4287C21.3864 11.5967 22.3832 11.2106 23.3042 11.4966C23.6269 11.5968 23.9691 11.6167 24.3012 11.5546C24.6333 11.4926 24.9452 11.3503 25.2099 11.1404C25.9655 10.5409 27.0345 10.5409 27.7901 11.1404Z" fill="#E8AE4D"/>
<path d="M32.1629 23.227C32.1629 18.9954 29.433 15.4017 25.6384 14.1101C20.9852 14.5444 17.3431 18.4603 17.3431 23.227C17.3431 27.9937 20.9852 31.9096 25.6384 32.3439C29.4331 31.0523 32.1629 27.4586 32.1629 23.227Z" fill="#FFE07D"/>
<path d="M26.5 14.0701C25.8138 14.0698 25.1297 14.1463 24.4606 14.2983C28.5361 15.2253 31.5781 18.8708 31.5781 23.227C31.5781 27.5832 28.5361 31.2286 24.4606 32.1556C25.1297 32.3076 25.8138 32.3842 26.5 32.3839C31.5572 32.3839 35.6569 28.2842 35.6569 23.227C35.6569 18.1698 31.5572 14.0701 26.5 14.0701Z" fill="#FFD064"/>
<path d="M26.7522 26.7416L29.9127 28.8689C30.0369 28.9526 30.1742 28.9649 30.2944 28.9279C30.4062 28.7759 30.5136 28.6207 30.6164 28.4625C30.6138 28.4312 30.6081 28.4002 30.5994 28.3701L29.5528 24.7069C29.5281 24.6205 29.5297 24.5287 29.5575 24.4432C29.5853 24.3577 29.638 24.2825 29.7087 24.2271L32.1224 22.3376C32.0828 21.9051 32.014 21.4757 31.9163 21.0524L28.6391 20.9349C28.5492 20.9317 28.4624 20.9017 28.3897 20.8489C28.317 20.7961 28.2617 20.7227 28.2309 20.6383L26.9244 17.0595C26.7799 16.6637 26.2201 16.6637 26.0756 17.0595L24.7691 20.6382C24.7383 20.7226 24.683 20.7959 24.6103 20.8488C24.5376 20.9016 24.4507 20.9315 24.3609 20.9347L20.5537 21.0713C20.1326 21.0864 19.9596 21.6188 20.2914 21.8786L23.2912 24.2269C23.362 24.2823 23.4146 24.3576 23.4424 24.4431C23.4702 24.5286 23.4719 24.6204 23.4472 24.7068L22.4006 28.3699C22.2848 28.7751 22.7377 29.1041 23.0872 28.8689L26.2477 26.7415C26.3223 26.6913 26.4101 26.6646 26.5 26.6646C26.5898 26.6646 26.6777 26.6914 26.7522 26.7416Z" fill="#E8AE4D"/>
<path d="M29.9127 28.8689C30.2622 29.1042 30.7151 28.7752 30.5994 28.37L30.4096 27.7058C30.2064 28.0672 29.9788 28.4144 29.7286 28.745L29.9127 28.8689ZM32.4463 21.0714L31.3128 21.0307C31.4532 21.6018 31.5382 22.1851 31.5667 22.7725L32.7086 21.8786C33.0404 21.6189 32.8674 21.0865 32.4463 21.0714Z" fill="#E5A32E"/>
</g>
<defs>
<clipPath id="clip0_0_191">
<rect width="32" height="32" fill="white" transform="translate(10.5 10.6907)"/>
</clipPath>
</defs>
</svg>
