<svg width="26" height="26" viewBox="0 0 26 26" fill="none" xmlns="http://www.w3.org/2000/svg">
<g clip-path="url(#clip0_0_668)">
<path d="M18.4167 22.7501V20.5834C18.4167 19.4342 17.9602 18.332 17.1475 17.5193C16.3348 16.7067 15.2326 16.2501 14.0834 16.2501H5.41671C4.26744 16.2501 3.16524 16.7067 2.35258 17.5193C1.53992 18.332 1.08337 19.4342 1.08337 20.5834V22.7501" stroke="#1769E9" stroke-width="2.29167" stroke-linecap="round" stroke-linejoin="round"/>
<path d="M9.74996 11.9168C12.1432 11.9168 14.0833 9.97667 14.0833 7.58344C14.0833 5.19021 12.1432 3.25011 9.74996 3.25011C7.35672 3.25011 5.41663 5.19021 5.41663 7.58344C5.41663 9.97667 7.35672 11.9168 9.74996 11.9168Z" stroke="#1769E9" stroke-width="2.29167" stroke-linecap="round" stroke-linejoin="round"/>
<path d="M24.9166 22.7502V20.5835C24.9159 19.6234 24.5963 18.6907 24.0081 17.9319C23.4199 17.173 22.5963 16.6311 21.6666 16.391" stroke="#1769E9" stroke-width="2.29167" stroke-linecap="round" stroke-linejoin="round"/>
<path d="M17.3334 3.39102C18.2655 3.62968 19.0917 4.17178 19.6816 4.93186C20.2716 5.69194 20.5919 6.62675 20.5919 7.58894C20.5919 8.55112 20.2716 9.48594 19.6816 10.246C19.0917 11.0061 18.2655 11.5482 17.3334 11.7869" stroke="#1769E9" stroke-width="2.29167" stroke-linecap="round" stroke-linejoin="round"/>
</g>
<defs>
<clipPath id="clip0_0_668">
<rect width="26" height="26" fill="white"/>
</clipPath>
</defs>
</svg>
