<svg class="svg-icon" style="width: 1em;height: 1em;vertical-align: middle;fill: currentColor;overflow: hidden;" viewBox="0 0 1024 1024" version="1.1" xmlns="http://www.w3.org/2000/svg"><path d="M895.2 750.7H792.5V648c0-19.3-15.7-35-35-35s-35 15.7-35 35v102.7H619.7c-19.3 0-35 15.7-35 35s15.7 35 35 35h102.7v102.7c0 19.3 15.7 35 35 35s35-15.7 35-35V820.7h102.7c19.3 0 35-15.7 35-35s-15.6-35-34.9-35z"  /><path d="M498.7 863.1H165.2v-5.7C165.5 666.3 321.1 511 512 511c72.4 0 141.7 22.1 200.5 63.8 15.8 11.2 37.6 7.5 48.8-8.3 11.2-15.8 7.5-37.6-8.3-48.8-37.5-26.6-78.5-46.6-121.8-59.4 13.1-8.4 25.4-18.3 36.7-29.6 41.4-41.4 64.2-96.5 64.2-155.1S709.4 159.9 668 118.4C626.5 77 571.5 54.2 512.9 54.2c-58.6 0-113.7 22.8-155.1 64.2-41.4 41.4-64.2 96.5-64.2 155.1s22.8 113.7 64.2 155.1c11.2 11.2 23.3 20.9 36.2 29.3-14.9 4.4-29.6 9.7-44.1 15.8-49.6 21-94.1 50.9-132.4 89.1-38.3 38.2-68.3 82.7-89.4 132.2-21.8 51.3-32.9 105.8-33 162.1V898c0 19.3 15.7 35 35 35h368.5c19.3 0 35-15.7 35-35s-15.6-34.9-34.9-34.9z m14.2-738.9c82.4 0 149.4 67 149.4 149.4S595.3 423 512.9 423s-149.4-67-149.4-149.4 67-149.4 149.4-149.4z"  /></svg>