<svg width="24" height="25" viewBox="0 0 24 25" fill="none" xmlns="http://www.w3.org/2000/svg">
<g clip-path="url(#clip0_0_1152)">
<path d="M21.4877 18.3444C21.0723 18.0354 20.485 18.1217 20.176 18.537C20.0052 18.7665 19.8248 18.9888 19.6354 19.2031C19.2925 19.591 19.3289 20.1835 19.7168 20.5265C19.8879 20.6782 20.1087 20.7618 20.3374 20.7616C20.5967 20.7616 20.8549 20.6546 21.0401 20.445C21.2645 20.1911 21.4781 19.9279 21.6803 19.6561C21.9894 19.2408 21.9032 18.6534 21.4877 18.3444ZM23.0556 13.9478C22.55 13.8377 22.0503 14.1585 21.9402 14.6644C21.8793 14.9436 21.8067 15.2201 21.7224 15.4932C21.5695 15.9879 21.8466 16.5128 22.3413 16.6657C22.4335 16.6941 22.5267 16.7077 22.6184 16.7077C23.0187 16.7077 23.3894 16.4492 23.5138 16.0467C23.6138 15.7227 23.7001 15.3945 23.7723 15.0632C23.8824 14.5573 23.5615 14.0579 23.0556 13.9478ZM16.9752 21.3469C16.7254 21.4863 16.4699 21.615 16.2093 21.7328C15.7374 21.9459 15.5276 22.5012 15.7407 22.9731C15.8973 23.3198 16.2385 23.525 16.5957 23.525C16.7247 23.525 16.8558 23.4982 16.981 23.4417C17.2901 23.302 17.5931 23.1493 17.8893 22.984C18.3414 22.7316 18.5032 22.1605 18.2508 21.7084C17.9984 21.2564 17.4273 21.0945 16.9752 21.3469ZM11.0624 5V12.1117L7.62467 15.5494C7.25857 15.9155 7.25857 16.5091 7.62467 16.8752C7.71163 16.9624 7.81496 17.0316 7.92874 17.0787C8.04251 17.1258 8.16448 17.15 8.28762 17.1498C8.41076 17.15 8.53272 17.1258 8.64649 17.0787C8.76026 17.0315 8.8636 16.9624 8.95057 16.8752L12.6629 13.1629C12.8387 12.9871 12.9374 12.7486 12.9374 12.5V5C12.9374 4.48222 12.5177 4.0625 11.9999 4.0625C11.4822 4.0625 11.0624 4.48222 11.0624 5Z" fill="white"/>
<path d="M23.0625 2.51562C22.5447 2.51562 22.125 2.93534 22.125 3.45312V6.05638C19.9429 2.63412 16.1321 0.5 12 0.5C8.79469 0.5 5.78123 1.74823 3.51469 4.01469C1.24823 6.28123 0 9.29469 0 12.5C0 15.7053 1.24823 18.7188 3.51469 20.9853C5.78123 23.2518 8.79469 24.5 12 24.5C12.0079 24.5 12.0156 24.499 12.0234 24.4988C12.0313 24.499 12.039 24.5 12.0469 24.5C12.3848 24.5 12.726 24.4858 13.0611 24.4577C13.5771 24.4145 13.9603 23.9612 13.9171 23.4453C13.8739 22.9293 13.4212 22.5459 12.9046 22.5893C12.6213 22.613 12.3328 22.625 12.0469 22.625C12.039 22.625 12.0313 22.626 12.0234 22.6262C12.0156 22.626 12.0079 22.625 12 22.625C6.41705 22.625 1.875 18.083 1.875 12.5C1.875 6.91705 6.41705 2.375 12 2.375C15.598 2.375 18.9074 4.2928 20.7157 7.34375H18.138C17.6202 7.34375 17.2005 7.76347 17.2005 8.28125C17.2005 8.79903 17.6202 9.21875 18.138 9.21875H21C21.5505 9.21939 22.0903 9.06765 22.5599 8.78033C22.5889 8.76384 22.617 8.74582 22.644 8.72633C23.46 8.18956 24 7.26627 24 6.21875V3.45312C24 2.93534 23.5803 2.51562 23.0625 2.51562Z" fill="white"/>
</g>
<defs>
<clipPath id="clip0_0_1152">
<rect width="24" height="24" fill="white" transform="translate(0 0.5)"/>
</clipPath>
</defs>
</svg>
