<svg width="371" height="198" viewBox="0 0 371 198" fill="none" xmlns="http://www.w3.org/2000/svg">
<path opacity="0.1" d="M25.9651 189.737C2.6113 161.358 -4.7084 144.78 15.3318 114.601C25.2035 99.7339 1.72106 85.0748 17.1913 73.838C29.9909 64.5499 44.0665 77.0726 60.2985 48.5455C86.1845 3.04467 119.024 44.7472 152.705 24.2322C204.071 -7.05453 261.313 17.5654 298.248 55.1629C305.41 62.4529 318.822 61.7704 329.377 64.7774C360.97 74.8865 358.665 93.0275 352.384 118.953C349.634 130.309 357.745 134.018 361.564 139.804C373.305 158.282 360.851 175.908 348.398 191.537C348.418 191.517 25.9651 189.737 25.9651 189.737Z" fill="#E3EAFF"/>
<path d="M278.46 191.129C278.677 191.129 278.885 191.011 279.004 190.813C279.172 190.516 279.063 190.14 278.766 189.972C277.896 189.487 276.867 188.983 275.7 188.459C275.393 188.32 275.027 188.459 274.889 188.775C274.75 189.082 274.889 189.448 275.205 189.586C276.343 190.091 277.342 190.585 278.173 191.05C278.262 191.11 278.361 191.129 278.46 191.129ZM272.337 188.36C272.584 188.36 272.822 188.211 272.911 187.964C273.029 187.648 272.881 187.291 272.564 187.163C271.575 186.777 270.507 186.381 269.389 185.986C269.073 185.877 268.717 186.045 268.598 186.362C268.479 186.678 268.657 187.034 268.974 187.153C270.082 187.539 271.13 187.934 272.109 188.31C272.189 188.34 272.258 188.36 272.337 188.36ZM265.996 186.114C266.254 186.114 266.501 185.946 266.58 185.689C266.689 185.363 266.511 185.016 266.184 184.908C265.146 184.571 264.068 184.235 262.96 183.899C262.633 183.8 262.287 183.988 262.188 184.314C262.089 184.641 262.277 184.987 262.604 185.086C263.702 185.422 264.78 185.758 265.799 186.085C265.868 186.104 265.927 186.114 265.996 186.114ZM259.557 184.156C259.824 184.156 260.071 183.978 260.151 183.711C260.24 183.384 260.052 183.038 259.725 182.949C258.667 182.652 257.579 182.346 256.471 182.049C256.145 181.96 255.808 182.158 255.719 182.484C255.63 182.811 255.828 183.147 256.154 183.236C257.252 183.533 258.34 183.829 259.389 184.126C259.438 184.146 259.498 184.156 259.557 184.156ZM253.058 182.415C253.335 182.415 253.583 182.227 253.652 181.95C253.731 181.624 253.533 181.287 253.207 181.198C252.138 180.921 251.031 180.654 249.933 180.387C249.606 180.308 249.27 180.516 249.191 180.842C249.112 181.169 249.319 181.505 249.646 181.584C250.744 181.851 251.842 182.118 252.91 182.385C252.95 182.405 252.999 182.415 253.058 182.415ZM246.51 180.832C246.787 180.832 247.044 180.635 247.114 180.358C247.193 180.021 246.985 179.695 246.649 179.616C245.758 179.408 244.848 179.21 243.938 179.012C243.75 178.973 243.553 178.923 243.365 178.884C243.028 178.805 242.702 179.012 242.623 179.349C242.544 179.685 242.751 180.011 243.088 180.09C243.286 180.14 243.483 180.179 243.681 180.219C244.581 180.417 245.491 180.615 246.382 180.822C246.421 180.832 246.471 180.832 246.51 180.832ZM239.992 179.2C240.249 179.2 240.496 179.032 240.575 178.775C240.684 178.448 240.506 178.102 240.18 177.993C239.121 177.647 238.073 177.262 237.084 176.826C236.767 176.688 236.411 176.836 236.273 177.153C236.134 177.469 236.282 177.825 236.599 177.964C237.628 178.409 238.706 178.814 239.804 179.171C239.863 179.19 239.922 179.2 239.992 179.2ZM233.819 176.53C234.037 176.53 234.245 176.421 234.354 176.213C234.522 175.916 234.413 175.54 234.116 175.372C233.147 174.828 232.207 174.235 231.337 173.602C231.06 173.404 230.674 173.463 230.476 173.74C230.278 174.017 230.338 174.403 230.615 174.601C231.525 175.254 232.494 175.877 233.513 176.441C233.622 176.5 233.721 176.53 233.819 176.53ZM228.389 172.593C228.557 172.593 228.715 172.523 228.844 172.395C229.081 172.148 229.062 171.752 228.814 171.524C228.003 170.773 227.251 169.962 226.579 169.131C226.361 168.864 225.975 168.824 225.708 169.042C225.441 169.259 225.402 169.645 225.619 169.912C226.332 170.792 227.123 171.633 227.974 172.434C228.092 172.533 228.241 172.593 228.389 172.593ZM224.185 167.37C224.294 167.37 224.393 167.34 224.492 167.291C224.789 167.123 224.887 166.747 224.719 166.45C224.165 165.501 223.7 164.511 223.325 163.512C223.206 163.196 222.85 163.028 222.533 163.146C222.217 163.265 222.049 163.621 222.167 163.938C222.563 165.006 223.067 166.054 223.651 167.063C223.77 167.261 223.977 167.37 224.185 167.37ZM221.861 161.089C221.9 161.089 221.93 161.089 221.969 161.079C222.306 161.02 222.533 160.703 222.474 160.367C222.316 159.447 222.236 158.517 222.236 157.597C222.236 157.449 222.237 157.291 222.246 157.142C222.256 156.806 221.989 156.519 221.643 156.509C221.307 156.499 221.02 156.766 221.01 157.103C221.01 157.271 221 157.429 221 157.597C221 158.586 221.089 159.585 221.257 160.575C221.307 160.881 221.574 161.089 221.861 161.089ZM222.078 154.422C222.355 154.422 222.602 154.234 222.672 153.957C222.929 152.909 223.305 151.9 223.789 150.93C223.938 150.624 223.819 150.258 223.513 150.099C223.206 149.951 222.84 150.07 222.682 150.376C222.157 151.415 221.752 152.523 221.475 153.651C221.396 153.977 221.594 154.313 221.92 154.402C221.979 154.412 222.029 154.422 222.078 154.422ZM253.286 148.695C253.513 148.695 253.731 148.566 253.84 148.349C253.988 148.042 253.869 147.676 253.563 147.518C252.554 147.013 251.515 146.539 250.467 146.093C250.15 145.965 249.794 146.103 249.656 146.42C249.517 146.736 249.666 147.092 249.982 147.231C251.001 147.656 252.02 148.131 253.009 148.626C253.098 148.675 253.197 148.695 253.286 148.695ZM225.075 148.457C225.253 148.457 225.422 148.388 225.55 148.24C226.243 147.419 227.044 146.707 227.924 146.133C228.211 145.945 228.29 145.559 228.102 145.282C227.914 144.995 227.528 144.916 227.251 145.104C226.272 145.747 225.382 146.539 224.62 147.449C224.403 147.706 224.432 148.101 224.69 148.319C224.789 148.408 224.927 148.457 225.075 148.457ZM247.094 146.084C247.351 146.084 247.588 145.925 247.677 145.668C247.786 145.342 247.618 144.995 247.302 144.887C246.204 144.501 245.106 144.165 244.037 143.888C243.711 143.799 243.375 143.996 243.286 144.323C243.197 144.649 243.394 144.986 243.721 145.075C244.759 145.352 245.818 145.678 246.896 146.054C246.955 146.074 247.025 146.084 247.094 146.084ZM230.595 144.778C230.654 144.778 230.723 144.768 230.793 144.748C231.762 144.432 232.83 144.204 233.948 144.085C234.284 144.046 234.532 143.749 234.492 143.403C234.452 143.067 234.156 142.819 233.81 142.859C232.603 142.988 231.455 143.235 230.397 143.581C230.071 143.69 229.902 144.036 230.001 144.362C230.1 144.62 230.338 144.778 230.595 144.778ZM240.585 144.372C240.882 144.372 241.139 144.155 241.189 143.858C241.248 143.522 241.02 143.205 240.684 143.146C239.507 142.948 238.36 142.819 237.272 142.76C236.935 142.74 236.638 143.007 236.629 143.344C236.619 143.68 236.876 143.977 237.212 143.987C238.251 144.036 239.359 144.165 240.486 144.353C240.516 144.372 240.556 144.372 240.585 144.372Z" fill="#CDD8FA"/>
<path d="M251.622 145.671L252.874 148.345L267.734 142.291L251.622 145.671Z" fill="#CDD8FA"/>
<path d="M254.637 151.156L257.495 152.08L267.062 142.553L254.637 151.156Z" fill="#CDD8FA"/>
<path d="M267.734 142.291L249.035 156.715L251.039 148.769L267.734 142.291Z" fill="white"/>
<path d="M251.622 145.672L267.734 142.291L252.599 140.483L251.622 145.672Z" fill="white"/>
<g opacity="0.2">
<path d="M333.254 23.7767L339.535 40.8988C339.772 41.5517 339.436 42.2738 338.793 42.5112L309.039 53.4215C308.387 53.6589 307.665 53.3226 307.427 52.6697L301.146 35.5574C300.909 34.9046 301.245 34.1825 301.888 33.9451L331.642 23.0348C332.294 22.7875 333.016 23.1238 333.254 23.7767Z" fill="#CDD8FA"/>
<path d="M333.254 23.7766L333.6 24.7261L323.61 39.4348C322.65 40.8987 320.86 41.5812 319.168 41.1064L301.334 36.1014L301.136 35.5573C300.899 34.9045 301.235 34.1824 301.888 33.945L331.642 23.0347C332.294 22.7874 333.016 23.1237 333.254 23.7766Z" fill="#EDF1FF"/>
</g>
<g opacity="0.1">
<path d="M223.389 38.3269L215.209 53.4609C214.893 54.0346 214.18 54.2522 213.607 53.9455L187.295 39.7216C186.722 39.4149 186.504 38.6929 186.82 38.1093L195.001 22.9753C195.317 22.4016 196.029 22.184 196.603 22.4906L222.915 36.7146C223.488 37.0311 223.706 37.7532 223.389 38.3269Z" fill="#CDD8FA"/>
<path d="M223.389 38.327L222.934 39.1678L206.297 41.2945C204.664 41.5319 203.062 40.6911 202.34 39.1975L194.733 23.4601L194.991 22.9854C195.307 22.4116 196.019 22.194 196.603 22.5106L222.904 36.7246C223.488 37.0313 223.706 37.7533 223.389 38.327Z" fill="white"/>
</g>
<path d="M231.738 94.9861L232.084 92.7012C232.084 92.7012 230.481 92.4539 230.57 91.3262L232.252 91.3065C232.252 91.3065 233.162 90.4756 232.114 87.9532C231.876 85.5793 233.439 86.7663 233.657 86.0145C233.973 84.9067 235.961 87.1322 236.021 89.4765C236.1 92.5231 234.478 94.9762 234.478 94.9762L231.738 94.9861Z" fill="#F37A50"/>
<path d="M188.7 118.685L187.176 117.301C187.176 117.301 187.275 114.462 185.623 114.66C185.178 114.709 186.434 116.272 185.524 116.361C185.337 116.381 184.713 115.718 183.853 114.66C183.21 113.423 181.914 113.413 181.34 113.651C180.272 114.086 180.134 116.203 181.776 117.894C183.892 120.08 186.781 120.644 186.781 120.644L188.7 118.685Z" fill="#F37A50"/>
<path d="M205.664 184.464C203.408 187.64 197.869 185.691 198.047 189.984C206.475 189.925 209.976 189.984 209.976 189.984C209.966 188.995 209.798 186.66 209.6 185.74L205.664 184.464Z" fill="black"/>
<path d="M218.275 184.543C216.02 187.718 210.48 185.769 210.658 190.062C219.086 190.003 222.588 190.062 222.588 190.062C222.578 189.073 222.41 186.739 222.212 185.819L218.275 184.543Z" fill="black"/>
<path d="M201.766 135.996C201.766 135.996 200.401 156.343 200.955 160.863C201.509 165.384 203.477 171.19 203.26 186.146C206.01 186.848 209.986 186.146 209.986 186.146C209.986 186.146 210.579 169.232 207.671 161.674C208.848 154.335 212.647 137.519 212.647 137.519L201.766 135.996Z" fill="#0E6A41"/>
<path d="M205.842 136.55C205.842 136.55 208.602 159.389 209.957 163.722C211.312 168.054 213.626 171.408 216.079 186.146C218.899 186.294 222.885 186.462 222.885 186.462C222.885 186.462 221.47 167.767 217.069 163.514C216.92 156.066 217.781 136.698 217.781 136.698L205.842 136.55Z" fill="#3F964F"/>
<path d="M216.505 109.121C216.505 109.121 216.702 109.279 228.088 107.32H228.097L232.123 110.753C232.123 110.753 232.133 110.763 232.123 110.773C229.126 114.096 216.178 116.124 216.178 116.124L216.505 109.121Z" fill="#95A6DB"/>
<path d="M211.668 106.618L207.672 105.975L203.705 106.806L207.79 111.614L211.668 106.618Z" fill="#607EDB"/>
<path d="M210.204 108.962C208.621 110.199 206.95 110.723 205.209 109.477L204.971 103.324L210.194 103.265L210.204 108.962Z" fill="#F37A50"/>
<path d="M202.528 108.893L203.755 108.497L203.705 106.806L206.841 109.684L207.761 109.892L208.671 109.635L211.668 106.618L211.698 108.309L212.736 108.586L217.138 109.19V128.745L218.78 137.786C213.626 139.121 205.96 139.201 200.471 138.063L201.381 129.823L199.472 110.011L202.528 108.893Z" fill="#95A6DB"/>
<path d="M207.573 112.069C207.573 112.069 208.127 124.027 209.027 130.15C208.74 130.506 207.424 132.089 207.424 132.089C207.424 132.089 205.832 130.576 205.397 130.308C204.417 119.517 206.178 112.128 206.178 112.128L207.573 112.069Z" fill="#E62552"/>
<path d="M208.572 109.991L206.89 109.556L205.654 110.05L206.178 112.127H207.672L208.572 109.991Z" fill="#C4204A"/>
<path d="M206.89 109.556C206.89 109.556 208.245 111.356 209.482 112.068L212.657 108.705L211.678 106.628L206.89 109.556Z" fill="white"/>
<path d="M206.89 109.556C206.89 109.556 205.812 111.119 204.417 112.148L201.944 109.052L203.705 106.806L206.89 109.556Z" fill="white"/>
<path d="M234.893 94.6394C233.083 94.224 232.133 94.0459 230.768 94.1745C228.453 104.096 226.505 107.934 227.721 110.604C228.74 112.83 231.253 112.405 232.321 110.565C233.745 108.131 234.368 99.3478 234.893 94.6394Z" fill="#95A6DB"/>
<path d="M199.63 110.001C196.929 110.1 193.774 122.741 193.774 122.741L188.512 117.123L185.524 121.267C185.524 121.267 193.269 130.823 196.247 129.932C199.026 129.101 200.441 119.131 200.441 119.131L199.63 110.001Z" fill="#95A6DB"/>
<path d="M234.722 91.0947C238.977 89.7304 241.321 85.1746 239.957 80.9191C238.593 76.6636 234.037 74.3198 229.781 75.6841C225.526 77.0484 223.182 81.6041 224.546 85.8596C225.911 90.1152 230.466 92.459 234.722 91.0947Z" fill="#7F99EB"/>
<path d="M228.928 84.6402C229.646 84.41 230.042 83.6414 229.811 82.9235C229.581 82.2056 228.813 81.8102 228.095 82.0403C227.377 82.2705 226.982 83.0391 227.212 83.757C227.442 84.4749 228.21 84.8703 228.928 84.6402Z" fill="white"/>
<path d="M235.536 82.5226C236.254 82.2925 236.65 81.5239 236.419 80.806C236.189 80.088 235.421 79.6926 234.703 79.9228C233.985 80.153 233.589 80.9215 233.82 81.6395C234.05 82.3574 234.818 82.7528 235.536 82.5226Z" fill="white"/>
<path d="M230.708 87.3668C230.639 87.3963 230.577 87.4325 230.522 87.4756C230.26 87.6769 230.218 87.9926 230.424 88.1772C231.429 89.059 233.16 89.2124 234.728 88.5645C236.24 87.9318 237.319 86.6784 237.474 85.374C237.504 85.1005 237.269 84.9025 236.927 84.9305C236.598 84.9582 236.31 85.202 236.266 85.4757C236.159 86.3874 235.407 87.2563 234.353 87.6977C233.264 88.1469 232.065 88.0386 231.36 87.4304C231.203 87.2797 230.944 87.2641 230.708 87.3668Z" fill="white"/>
<path d="M232.618 91.4741C232.212 91.3257 231.955 91.2466 231.895 90.6234C231.836 90.0002 231.886 89.2089 231.361 89.4661C230.847 89.7233 230.481 90.9498 230.56 91.4543C231.173 91.8203 232.618 91.4741 232.618 91.4741Z" fill="#F37A50"/>
<path d="M108.055 91.692C107.352 92.1766 106.373 92.4437 106.205 93.2647L104.068 92.5723C104.108 89.862 106.591 87.4485 106.868 87.2408C107.6 86.7066 107.906 86.4099 108.025 86.4791C108.144 86.5484 108.747 87.1221 107.718 87.9233C106.423 88.9421 108.025 89.496 110.231 86.7066C110.785 86.0043 112.328 85.5493 112.16 86.3604C111.982 87.2705 111.23 89.5059 108.055 91.692Z" fill="#F37A50"/>
<path d="M86.046 183.217C88.3408 186.274 93.9592 184.395 93.7712 188.529C85.2151 188.48 81.6641 188.529 81.6641 188.529C81.674 187.58 81.8421 185.324 82.0399 184.444L86.046 183.217Z" fill="black"/>
<path d="M73.2564 183.307C75.5513 186.364 81.1696 184.484 80.9817 188.619C72.4256 188.57 68.8745 188.619 68.8745 188.619C68.8844 187.669 69.0526 185.414 69.2504 184.534L73.2564 183.307Z" fill="black"/>
<path d="M90.0125 136.59C90.0125 136.59 91.3973 156.165 90.8335 160.517C90.2697 164.869 88.2716 170.448 88.4991 184.85C85.7097 185.523 81.674 184.85 81.674 184.85C81.674 184.85 81.0706 168.569 84.0183 161.299C82.8214 154.236 78.9736 138.054 78.9736 138.054L90.0125 136.59Z" fill="#201D40"/>
<path d="M84.7304 137.124C84.7304 137.124 81.9311 159.103 80.5562 163.277C79.1813 167.441 77.5294 170.498 75.0467 184.682C72.1781 184.821 68.271 185.157 68.271 185.157C68.271 185.157 68.8744 167.164 73.3354 163.069C73.4838 155.908 72.6134 137.262 72.6134 137.262L84.7304 137.124Z" fill="#2C2858"/>
<path d="M87.9941 107.597C87.9941 107.597 88.4195 107.41 99.221 104.798H99.2309C99.2309 104.798 103.326 107.845 103.316 107.855C100.645 111.238 88.8646 114.848 88.8646 114.848L87.9941 107.597Z" fill="#201D40"/>
<path d="M83.0386 107.469L79.1512 107.103L75.4023 108.152L79.626 112.504L83.0386 107.469Z" fill="#95A6DB"/>
<path d="M81.694 109.467C80.1114 110.763 78.3309 111.01 76.4317 109.932L75.9272 104.768L81.3972 104.333L81.694 109.467Z" fill="#F37A50"/>
<path d="M74.4038 110.229L75.5513 109.774L75.393 108.152L78.5879 110.713L79.4881 110.852L80.3486 110.555L83.0292 107.469L83.1677 109.091L84.1865 109.299L87.8464 109.892L88.2816 130.21L89.7258 137.124C84.869 138.736 79.4386 139.142 74.0972 138.41L74.2753 131.466L70.4868 111.604L74.4038 110.229Z" fill="#95A6DB"/>
<path d="M80.19 112.909L82.4849 128.419L81.2187 130.19L79.557 128.914L78.9932 113.038L80.19 112.909Z" fill="#2C2858"/>
<path d="M80.3286 111.079L79.4879 110.861L78.6372 111.227L79.0032 113.067L80.2001 112.958L80.3286 111.079Z" fill="#2C2858"/>
<path d="M83.0386 107.469L83.6716 126.342L86.1544 138.41C86.1544 138.41 90.9122 138.687 93.3257 136.392L90.3187 126.609L88.0041 107.607L83.0386 107.469Z" fill="#2C2858"/>
<path d="M83.0386 107.469L83.6617 126.085L86.5204 111.92L83.0386 107.469Z" fill="#494C7F"/>
<path d="M75.1062 108.794L80.141 139.171C80.141 139.171 72.2179 139.933 69.4087 138.498L71.2287 129.329L70.2693 111.228L75.1062 108.794Z" fill="#2C2858"/>
<path d="M75.1061 108.794L78.0835 126.599L72.752 113.166L75.1061 108.794Z" fill="#494C7F"/>
<path d="M74.4926 155.917H58.3892C58.0826 155.917 57.8452 155.67 57.8452 155.373V146.114C57.8452 145.808 58.0925 145.57 58.3892 145.57H74.4926C74.7992 145.57 75.0366 145.818 75.0366 146.114V155.373C75.0465 155.67 74.7992 155.917 74.4926 155.917Z" fill="#95A6DB"/>
<path d="M73.4145 148.024C73.9226 148.024 74.3344 147.612 74.3344 147.104C74.3344 146.596 73.9226 146.184 73.4145 146.184C72.9065 146.184 72.4946 146.596 72.4946 147.104C72.4946 147.612 72.9065 148.024 73.4145 148.024Z" fill="#494C7F"/>
<path d="M73.8554 149.351C74.0083 149.151 73.9706 148.866 73.7712 148.713C73.5718 148.56 73.2862 148.598 73.1333 148.797C72.9804 148.996 73.0181 149.282 73.2175 149.435C73.4169 149.588 73.7025 149.55 73.8554 149.351Z" fill="#494C7F"/>
<path d="M107.243 92.859C105.552 92.2951 104.651 92.038 103.336 92.038C100.22 101.326 97.9945 104.828 98.9243 107.498C99.6959 109.724 102.139 109.546 103.336 107.874C104.909 105.678 106.303 97.3299 107.243 92.859Z" fill="#201D40"/>
<path d="M65.3727 142.287L65.3232 144.512C65.3232 144.512 66.9058 144.463 66.9652 145.551L65.4716 145.601C65.4716 145.601 64.5616 146.768 65.8672 149.053C66.3816 151.288 64.7495 150.348 64.6308 151.09C64.4626 152.188 62.2964 150.309 61.9502 148.073C61.5051 145.175 62.0986 144.829 62.0986 144.829L62.7514 142.633L65.3727 142.287Z" fill="#F37A50"/>
<path d="M70.3282 111.237C67.7465 111.504 60.3081 126.599 60.3081 126.599L61.7819 143.523L65.966 142.85L67.2025 128.547L71.2975 120.446L70.3282 111.237Z" fill="#201D40"/>
<path d="M81.465 105.879C84.4472 104.686 85.6325 100.639 84.1124 96.8405C82.5923 93.0418 78.9425 90.9296 75.9603 92.123C72.9781 93.3163 71.7928 97.3632 73.3129 101.162C74.833 104.961 78.4828 107.073 81.465 105.879Z" fill="#F37A50"/>
<path d="M83.5888 98.2175C83.8399 98.0428 83.9019 97.6977 83.7272 97.4465C83.5525 97.1954 83.2073 97.1334 82.9562 97.3081C82.7051 97.4828 82.6431 97.828 82.8178 98.0791C82.9924 98.3302 83.3376 98.3922 83.5888 98.2175Z" fill="black"/>
<path d="M79.4725 99.9365C79.746 99.7462 79.8135 99.3702 79.6232 99.0967C79.433 98.8231 79.057 98.7556 78.7834 98.9459C78.5098 99.1362 78.4423 99.5122 78.6326 99.7857C78.8229 100.059 79.1989 100.127 79.4725 99.9365Z" fill="black"/>
<path d="M81.8618 98.8434C82.6136 99.4369 83.5632 100.159 83.5632 100.159C83.5632 100.159 83.573 101.069 82.5048 101.465C82.8905 101.118 83.2268 100.654 82.8312 100.11C82.4355 99.5754 81.8618 98.8434 81.8618 98.8434Z" fill="#DE623C"/>
<path d="M77.707 99.0313C77.8257 99.0808 77.9642 99.0511 78.0433 98.9522C78.0631 98.9324 78.5379 98.3488 79.1017 98.6159C79.2402 98.6851 79.4083 98.6159 79.4677 98.4774C79.5369 98.3389 79.4677 98.1708 79.3292 98.1114C78.5577 97.7553 77.8554 98.2796 77.5982 98.6159C77.4993 98.7346 77.5191 98.9126 77.6477 99.0116C77.6674 99.0116 77.6872 99.0214 77.707 99.0313Z" fill="#2C2858"/>
<path d="M82.3365 97.5773C82.4058 97.5278 82.4453 97.4586 82.4354 97.3696C82.4354 97.3597 82.4255 97.0827 82.6036 96.9047C82.7322 96.7761 82.9399 96.7266 83.207 96.7464C83.3355 96.7563 83.4444 96.6574 83.4542 96.5288C83.4641 96.4002 83.3652 96.2914 83.2366 96.2815C82.8212 96.2518 82.4948 96.3507 82.2673 96.5782C81.931 96.9047 81.9606 97.3795 81.9606 97.3992C81.9705 97.5278 82.0793 97.6267 82.2079 97.6169C82.2574 97.607 82.2969 97.5971 82.3365 97.5773Z" fill="#2C2858"/>
<path d="M74.2059 100.891C74.2059 99.4072 75.5017 99.7237 75.6401 97.7652C75.7786 95.8067 75.9666 94.323 77.8163 94.6395C79.6759 94.9659 80.2694 94.7186 80.8727 94.0856C81.4662 93.4525 83.8105 96.143 83.8105 96.143C83.8105 96.143 85.8185 93.2646 83.8402 91.6918C81.6443 89.9411 81.2189 91.3654 79.2209 90.1389C77.2228 88.9123 74.3543 89.7432 73.7707 90.9599C73.1574 92.2458 73.0486 93.1657 71.3077 94.0658C69.5668 94.9659 68.6963 96.4694 70.3284 98.329C71.9506 100.189 69.2799 101.534 72.0001 103.255C73.0585 103.918 74.5422 104.086 74.829 103.71C75.2247 103.186 74.2059 101.85 74.2059 100.891Z" fill="#2C2858"/>
<path d="M84.6215 98.6158C84.6215 98.6158 84.7996 100.822 84.4831 101.494C84.1566 100.614 83.4445 101.544 82.7817 101.633C81.1694 101.85 78.2712 101.306 77.9844 103.72C76.0159 104.343 74.1761 100.129 74.1761 100.129C73.9288 105.045 77.5096 107.508 82.4553 106.717C85.7096 106.222 86.0162 101.672 84.6215 98.6158Z" fill="#2C2858"/>
<path d="M83.979 102.948C84.0674 102.814 83.951 102.652 83.7948 102.677C83.4058 102.75 82.7516 102.856 82.1286 102.907C81.5039 102.948 80.8503 102.934 80.4455 102.909C80.2845 102.905 80.2024 103.079 80.3026 103.203C80.6132 103.573 81.253 104.121 82.203 104.047C83.1644 103.982 83.725 103.36 83.979 102.948Z" fill="white"/>
<path d="M75.272 102.493C75.622 101.758 75.1781 100.816 74.2805 100.388C73.3829 99.9609 72.3715 100.21 72.0214 100.945C71.6714 101.68 72.1154 102.622 73.013 103.05C73.9106 103.477 74.922 103.228 75.272 102.493Z" fill="#F37A50"/>
<path d="M74.2949 102.513C74.3246 102.493 74.3444 102.463 74.3543 102.434C74.562 101.979 74.4927 101.534 74.1663 101.237C73.83 100.94 73.3255 100.881 72.9596 101.098C72.8606 101.158 72.8211 101.296 72.8804 101.395C72.9398 101.494 73.0783 101.534 73.1772 101.474C73.375 101.356 73.6816 101.395 73.8696 101.563C74.0476 101.722 74.0773 101.969 73.9487 102.256C73.8992 102.365 73.9487 102.493 74.0575 102.543C74.1465 102.582 74.2356 102.562 74.2949 102.513Z" fill="#DE623C"/>
<path d="M79.4875 110.862C79.4875 110.862 78.6665 112.276 77.0839 113.156L74.8286 109.388L75.3924 108.151L79.4875 110.862Z" fill="white"/>
<path d="M79.4878 110.862C79.4878 110.862 80.932 112.316 82.2574 112.692L83.84 108.508L83.029 107.469L79.4878 110.862Z" fill="white"/>
<path d="M41.8906 109.961C45.6098 110.891 51.9701 119.586 52.5635 126.104C50.5259 126.53 48.1915 124.898 48.1915 124.898L43.137 117.627L41.8906 109.961Z" fill="#DE623C"/>
<path d="M38.3392 91.1574C36.628 88.3483 32.1669 86.9437 30.5546 90.0793C28.9423 93.2149 28.5071 95.4899 24.5208 93.7589C21.3456 92.3741 17.0923 94.3425 15.7174 98.9915C13.9666 104.936 18.7738 103.838 16.9538 106.499C15.1338 109.16 13.6401 111.959 17.8638 113.304C22.0875 114.65 26.4397 112.068 27.3596 107.083C28.2894 102.097 30.8612 104.788 32.4636 102.661C34.7486 99.6246 38.3392 91.1574 38.3392 91.1574Z" fill="#201D40"/>
<path d="M45.4811 184.534L47.4692 176.69L42.5235 176.007C42.3554 179.717 42.0784 183.376 42.0982 184.366L45.4811 184.534Z" fill="#F37A50"/>
<path d="M33.6907 175.968H28.5273C28.6955 177.204 29.378 183.9 29.378 183.9C29.8132 184.89 33.661 184.662 33.661 184.108C33.3643 182.901 33.661 176.116 33.6907 175.968Z" fill="#F37A50"/>
<path d="M42.1282 179.034L47.2223 179.786L50.7535 158.677C50.0216 150.665 42.9689 133.622 42.9689 133.622L35.0162 136.402L34.8184 143.919L44.3933 160.131C43.1569 163.257 42.2963 173.396 42.1282 179.034Z" fill="#C4204A"/>
<path d="M38.1912 134.186C38.122 133.691 38.0923 133.533 37.6867 133.286L30.0505 131.12L28.2305 132.91C26.5093 139.161 27.5776 147.846 28.9328 154.75C26.9446 160.725 27.726 173.03 28.5272 178.816H33.9576C34.2742 174.949 34.1752 167.777 34.195 164.315C34.8973 161.536 35.5798 158.558 36.1832 155.433C36.9548 151.447 37.9241 147.579 38.1912 143.959C38.4385 140.526 38.5077 136.837 38.1912 134.186Z" fill="#E62552"/>
<path d="M43.5344 101.567C44.4984 97.5281 42.7083 93.6404 39.5359 92.8831C36.3636 92.1258 33.0104 94.7858 32.0464 98.8242C31.0823 102.863 32.8725 106.75 36.0448 107.508C39.2171 108.265 42.5703 105.605 43.5344 101.567Z" fill="#F37A50"/>
<path d="M28.5668 109.012C26.7764 110.189 19.2094 120.031 23.3738 128.142C23.5617 128.251 26.905 122.593 26.905 122.593L30.8418 114.788L28.5668 109.012Z" fill="#F37A50"/>
<path d="M32.3647 103.888L37.1028 106.579C37.1028 106.579 37.5281 108.498 37.7358 109.121C38.171 110.407 36.5093 110.971 35.1047 110.169C33.7001 109.368 32.7901 108.3 32.7901 108.3L32.3647 103.888Z" fill="#F37A50"/>
<path d="M43.9873 100.297C42.9091 99.9413 42.4145 98.2895 41.9595 97.0234C39.7042 101.564 31.3756 100.921 31.0195 100.02C30.2876 94.7285 32.6022 90.8807 38.2898 91.0588C46.0941 91.2863 43.9873 100.297 43.9873 100.297Z" fill="#2C2858"/>
<path d="M42.5211 102.624C42.8153 102.522 42.9712 102.201 42.8692 101.906C42.7673 101.612 42.4461 101.456 42.1519 101.558C41.8577 101.66 41.7018 101.981 41.8037 102.276C41.9057 102.57 42.2268 102.726 42.5211 102.624Z" fill="black"/>
<path d="M38.4913 101.491C38.8113 101.38 38.9809 101.031 38.87 100.711C38.7591 100.391 38.4098 100.222 38.0897 100.332C37.7697 100.443 37.6001 100.793 37.711 101.113C37.8219 101.433 38.1713 101.602 38.4913 101.491Z" fill="black"/>
<path d="M43.3445 101.158C43.3643 101.158 43.394 101.148 43.4138 101.138C43.5127 101.079 43.5523 100.95 43.4929 100.851C43.0379 100.06 42.1872 100.099 42.1576 100.109C42.0389 100.119 41.9498 100.218 41.9597 100.337C41.9696 100.456 42.0685 100.545 42.1872 100.535C42.2169 100.535 42.8104 100.505 43.1269 101.069C43.1665 101.128 43.2654 101.168 43.3445 101.158Z" fill="#2C2858"/>
<path d="M40.6638 102.622C40.7627 103.057 40.8221 103.482 40.9705 103.799C41.0199 103.908 40.9803 104.036 40.8715 104.096C40.4462 104.333 39.6648 104.264 39.1999 104.185C39.1306 104.175 39.1306 104.076 39.1999 104.066C39.7637 103.967 40.0703 103.829 40.2187 103.74C40.2879 103.69 40.3374 103.621 40.3473 103.532C40.3671 103.334 40.4066 102.938 40.4561 102.622C40.4858 102.513 40.644 102.513 40.6638 102.622Z" fill="#DE623C"/>
<path d="M32.8475 103.04C33.5297 102.627 33.6722 101.614 33.1657 100.778C32.6591 99.9412 31.6954 99.598 31.0132 100.011C30.3309 100.424 30.1885 101.437 30.695 102.274C31.2015 103.11 32.1652 103.453 32.8475 103.04Z" fill="#F37A50"/>
<path d="M32.335 102.325C32.3647 102.315 32.3944 102.296 32.4141 102.276C32.7603 101.92 32.8395 101.485 32.6416 101.109C32.4339 100.723 31.9888 100.505 31.5734 100.584C31.4547 100.604 31.3854 100.723 31.4052 100.832C31.425 100.95 31.5437 101.02 31.6525 101C31.88 100.96 32.1471 101.089 32.2658 101.307C32.3746 101.514 32.3251 101.752 32.1075 101.969C32.0284 102.058 32.0284 102.187 32.1075 102.266C32.1767 102.335 32.2658 102.355 32.335 102.325Z" fill="#DE623C"/>
<path d="M44.1459 134.858C44.1459 134.858 42.1874 137.172 41.861 137.351L40.1102 135.441L40.1003 135.471L39.6848 136.569L39.2001 137.845C38.7946 137.845 26.5786 135.105 26.5786 135.105C26.6083 134.007 27.637 130.436 29.3186 126.638C28.913 123.423 29.2988 120.08 29.1801 118.23C30.1692 113.255 29.4669 111.346 28.5767 109.002L31.6727 108.091L37.2515 110.06L37.667 108.715C37.667 108.715 41.1686 109.555 41.9005 109.961L43.226 115.471L42.9391 127.182C42.9193 127.192 43.3645 131.91 44.1459 134.858Z" fill="#3F964F"/>
<path d="M32.7407 107.469L30.5547 108.399C30.7822 111.02 36.6577 112.593 36.6577 112.593L37.2413 110.061L32.7407 107.469Z" fill="#0E6A41"/>
<path d="M37.2417 110.06L38.9727 111.979C38.9727 111.979 40.4663 110.436 39.9223 109.477C39.3783 108.517 37.4 107.874 37.4 107.874L37.2417 110.06Z" fill="#0E6A41"/>
<path d="M38.7915 106.476C38.6499 106.481 38.516 106.468 38.3859 106.446C37.3816 106.285 36.7966 105.451 36.7768 105.422C36.7031 105.316 36.7236 105.164 36.8385 105.094C36.9443 105.02 37.0927 105.05 37.1665 105.155C37.1756 105.159 37.667 105.857 38.4697 105.988C38.9901 106.076 39.5456 105.901 40.1118 105.494C40.2176 105.42 40.3697 105.441 40.4435 105.546C40.5173 105.652 40.4967 105.804 40.3909 105.878C39.8491 106.252 39.3134 106.458 38.7915 106.476Z" fill="#DE623C"/>
<path d="M44.284 184.415C44.7984 183.06 45.9062 182.901 45.9062 182.901C48.0527 185.77 53.3347 184.009 53.1567 187.887C45.1347 187.837 41.8013 187.887 41.8013 187.887C41.8112 186.996 41.9694 184.88 42.1574 184.059L42.5728 184.138L44.284 184.415Z" fill="#2C2858"/>
<path d="M52.7414 188.925H42.2069C41.9794 188.925 41.7915 188.737 41.7915 188.51V187.778H53.1568V188.51C53.1568 188.737 52.9788 188.925 52.7414 188.925Z" fill="white"/>
<path d="M40.1004 135.472L39.685 136.57C39.3091 134.047 37.9045 123.513 38.6959 120.605C39.4377 117.875 38.5079 114.996 37.6078 112.207C37.3902 111.525 37.1627 110.822 36.9648 110.14L37.2418 110.061L37.5188 109.982C37.7166 110.654 37.9342 111.356 38.1518 112.029C39.0816 114.898 40.0312 117.855 39.2498 120.753C38.5574 123.266 39.6059 131.911 40.1004 135.472Z" fill="#0E6A41"/>
<path d="M34.5711 187.926C34.5711 187.926 33.9281 185.522 33.8688 185.216C33.7995 184.87 33.6116 184.039 33.572 183.613C33.5621 183.505 32.4543 182.832 31.6135 182.832C30.4661 182.832 29.4275 183.495 29.4077 183.623C29.2692 184.424 29.2692 185.364 29.0516 186.146C28.8934 186.729 28.4482 188.084 28.4482 188.084L34.5711 187.926Z" fill="#2C2858"/>
<path d="M34.5712 187.739C34.4228 188.213 32.5731 187.669 31.218 187.669C30.0804 187.669 28.6165 188.105 28.4483 187.936C28.1615 188.441 28.3989 189.479 28.3989 189.479C28.3989 189.479 29.5859 189.539 31.0004 189.479C32.4148 189.42 34.0568 189.509 34.6701 189.321C35.0658 188.668 34.5712 187.739 34.5712 187.739Z" fill="white"/>
<path d="M36.9449 120.041C36.9449 120.041 27.1721 129.844 23.3738 128.132C22.1176 126.441 24.7784 123.038 27.271 121.901C29.7538 120.763 33.9181 118.983 33.9181 118.983L36.9449 120.041Z" fill="#F37A50"/>
<path d="M38.7947 116.708L42.8601 113.572C42.9491 113.503 43.0579 113.473 43.1667 113.493L45.9364 113.998C46.0155 114.008 46.1738 114.492 46.1144 114.542L43.3547 116.203C43.3448 116.213 43.325 116.223 43.3052 116.223L38.9629 116.965C38.8738 116.975 38.7255 116.767 38.7947 116.708Z" fill="#F9CD2D"/>
<path d="M39.0021 117.014L42.8598 114.066C42.9488 113.997 43.0576 113.967 43.1664 113.987L46.0251 114.472C46.1042 114.482 46.124 114.59 46.0646 114.63L43.3445 116.687C43.3346 116.697 43.3148 116.707 43.295 116.707L39.0516 117.172C38.9823 117.182 38.9329 117.063 39.0021 117.014Z" fill="#F9F93A"/>
<path d="M33.8096 119.041L36.0945 117.894C36.0945 117.894 37.5387 116.321 37.9937 115.846C38.5674 115.678 39.695 115.193 39.9225 115.213C40.15 115.233 40.5358 115.361 40.5358 115.361L39.2103 116.39C39.2103 116.39 39.7445 116.637 40.5061 116.341C41.2579 116.034 42.6723 115.114 43.2065 115.441C43.3746 115.658 43.3746 115.658 43.3746 115.658C43.3746 115.658 43.8494 115.292 44.1363 115.549C45.0265 116.341 39.3092 119.743 39.3092 119.743L36.9254 120.03L33.8096 119.041Z" fill="#F37A50"/>
<path d="M43.2892 114.694C43.4516 114.583 43.5131 114.391 43.4268 114.265C43.3404 114.139 43.1388 114.126 42.9765 114.237C42.8142 114.348 42.7526 114.541 42.839 114.667C42.9254 114.793 43.1269 114.805 43.2892 114.694Z" fill="#F9CD2D"/>
<path d="M52.5633 126.104C52.5633 126.104 47.4988 131.901 43.9676 132.722C43.7598 131.564 43.562 130.674 43.562 130.674L48.3693 124.344L52.5633 126.104Z" fill="#DE623C"/>
<path d="M43.3249 133.029C43.3447 132.979 43.3645 132.94 43.3942 132.89C43.3843 132.89 43.3744 132.89 43.3645 132.88C42.86 132.712 42.5534 132.287 42.6721 131.931C42.6919 131.871 42.7215 131.822 42.7611 131.772C42.494 131.565 42.3654 131.278 42.4446 131.021C42.4742 130.922 42.5435 130.833 42.6325 130.763C42.3555 130.575 42.2072 130.259 42.3061 129.972C42.4248 129.616 42.8699 129.438 43.2952 129.576C43.7206 129.715 43.9679 130.12 43.8492 130.486C43.8195 130.575 43.77 130.655 43.7008 130.724C44.1162 130.912 44.3635 131.298 44.2547 131.624C44.2349 131.683 44.2053 131.733 44.1657 131.782C44.4328 131.99 44.5613 132.277 44.4822 132.534C44.4525 132.633 44.3932 132.712 44.3141 132.771C44.5712 132.93 44.6998 133.207 44.6207 133.454C44.5218 133.761 44.1459 133.909 43.7799 133.79C43.4337 133.681 43.226 133.335 43.3249 133.029Z" fill="#DE623C"/>
<path d="M331.721 103.601H331.711L329.129 103.611L328.545 109.724L331.562 111.317L334.787 109.744L334.263 103.611L331.721 103.601Z" fill="#F37A50"/>
<path d="M339.415 100.147C341.187 95.7193 339.802 91.0014 336.323 89.6092C332.844 88.217 328.587 90.6777 326.815 95.1053C325.044 99.533 326.428 104.251 329.907 105.643C333.386 107.035 337.643 104.575 339.415 100.147Z" fill="#F37A50"/>
<path d="M328.354 96.5664C328.56 96.2705 328.487 95.8636 328.191 95.6577C327.895 95.4518 327.488 95.5248 327.283 95.8208C327.077 96.1167 327.15 96.5236 327.446 96.7295C327.742 96.9354 328.148 96.8624 328.354 96.5664Z" fill="black"/>
<path d="M333.203 98.5527C333.425 98.2343 333.346 97.7966 333.028 97.5751C332.71 97.3537 332.272 97.4322 332.05 97.7506C331.829 98.069 331.908 98.5067 332.226 98.7282C332.544 98.9496 332.982 98.8711 333.203 98.5527Z" fill="black"/>
<path d="M329.327 97.5969C328.447 98.2893 327.349 99.13 327.349 99.13C327.349 99.13 327.339 100.188 328.576 100.653C328.131 100.248 327.735 99.7037 328.2 99.0806C328.665 98.4574 329.327 97.5969 329.327 97.5969Z" fill="#DE623C"/>
<path d="M334.5 98.1212C334.53 98.1212 334.55 98.1212 334.579 98.1113C334.757 98.0718 334.866 97.8937 334.817 97.7157C334.698 97.2409 334.223 96.3408 333.234 96.3309C333.056 96.3309 332.908 96.4792 332.908 96.6573C332.908 96.8353 333.056 96.9837 333.234 96.9837C333.966 96.9837 334.184 97.8641 334.184 97.8641C334.223 98.0223 334.362 98.1212 334.5 98.1212Z" fill="#201D40"/>
<path d="M329.02 95.1737C329.07 95.1737 329.109 95.1638 329.159 95.1341C329.287 95.055 329.327 94.8967 329.258 94.7681C329.248 94.7484 328.961 94.2736 328.427 94.1746C328.061 94.1054 327.675 94.2241 327.299 94.5307C327.18 94.6198 327.161 94.7978 327.26 94.9066C327.349 95.0253 327.527 95.0451 327.636 94.9462C327.893 94.7484 328.12 94.6593 328.328 94.6989C328.625 94.7484 328.793 95.0352 328.793 95.0352C328.842 95.1341 328.931 95.1737 329.02 95.1737Z" fill="#201D40"/>
<path d="M343.343 98.3882C344.451 94.0062 340.752 90.5739 340.752 90.5739C340.752 90.5739 341.227 90.5244 341.741 90.3068C342.433 90.0101 342.206 88.9813 341.454 88.9912C340.544 89.0011 339.466 88.833 338.665 88.2395C333.65 84.4807 329.574 86.4986 329.574 88.5758C329.574 89.3177 324.985 89.8023 326.656 95.5295C326.558 95.1932 328.467 91.7609 329.555 91.5531C330.643 91.3454 329.664 92.7995 331.929 93.1061C334.214 93.4226 335.895 92.8687 337.3 94.1546C339.901 96.8253 337.349 103.245 337.191 103.591C337.577 102.81 342.107 103.255 343.343 98.3882Z" fill="#201D40"/>
<path d="M339.277 102.106C340.253 101.557 340.681 100.464 340.231 99.6638C339.782 98.8636 338.626 98.6595 337.649 99.2079C336.673 99.7563 336.246 100.85 336.695 101.65C337.145 102.45 338.3 102.654 339.277 102.106Z" fill="#F37A50"/>
<path d="M337.795 101.592C337.765 101.573 337.735 101.543 337.715 101.503C337.448 101.009 337.488 100.494 337.834 100.148C338.18 99.7922 338.754 99.6834 339.179 99.901C339.298 99.9603 339.348 100.109 339.288 100.227C339.229 100.346 339.081 100.396 338.962 100.336C338.724 100.218 338.388 100.287 338.19 100.485C338.002 100.682 337.983 100.959 338.151 101.266C338.22 101.385 338.17 101.533 338.052 101.602C337.963 101.662 337.864 101.652 337.795 101.592Z" fill="#DE623C"/>
<path d="M330.375 103.312C330.75 103.207 331.128 103.039 331.529 102.807C331.634 102.75 331.663 102.613 331.606 102.509C331.55 102.404 331.413 102.375 331.308 102.431C330.432 102.953 329.623 103.121 328.931 102.941C328.064 102.719 327.65 102.009 327.64 102.006C327.584 101.901 327.447 101.872 327.342 101.928C327.237 101.985 327.199 102.118 327.265 102.226C327.282 102.264 327.772 103.086 328.809 103.36C329.3 103.487 329.823 103.468 330.375 103.312Z" fill="#DE623C"/>
<path d="M326.993 183.574C324.708 186.729 319.079 184.791 319.267 189.064C327.814 189.005 331.365 189.064 331.365 189.064C331.355 188.085 331.187 185.75 330.989 184.84L326.993 183.574Z" fill="black"/>
<path d="M340.474 183.574C338.19 186.729 332.561 184.791 332.749 189.064C341.295 189.005 344.847 189.064 344.847 189.064C344.837 188.085 344.668 185.75 344.471 184.84L340.474 183.574Z" fill="black"/>
<path d="M323.105 135.303C323.105 135.303 320.623 156.273 321.186 160.764C321.75 165.265 324.836 170.3 324.609 185.186C327.398 185.889 331.434 185.186 331.434 185.186C331.434 185.186 332.027 168.361 329.09 160.843C330.286 153.543 334.134 136.817 334.134 136.817L323.105 135.303Z" fill="#201D40"/>
<path d="M328.309 135.926C328.309 135.926 331.108 158.647 332.483 162.96C333.858 167.273 335.935 170.448 338.418 185.107C341.276 185.245 344.541 185.572 344.541 185.572C344.541 185.572 344.155 166.976 339.694 162.752C339.545 155.353 340.416 136.085 340.416 136.085L328.309 135.926Z" fill="#2C2858"/>
<path d="M341.81 109.358C341.81 109.358 336.202 109.17 334.629 109.269C331.335 112.236 328.546 109.219 328.546 109.219C326.775 108.824 322.601 108.824 322.601 108.824C322.077 115.876 321.196 138.449 321.196 138.449C321.196 138.449 326.557 139.853 331.632 139.893C336.706 139.863 343.551 138.686 343.551 138.686C343.551 138.686 342.552 128.765 342.325 125.095C342.404 120.99 341.81 114.778 341.81 109.358Z" fill="#3F964F"/>
<path d="M303.607 121.178C303.654 120.935 303.759 120.715 303.891 120.528C304.946 118.551 307.979 119.289 312.356 120.019C313.088 120.141 312.836 119.207 312.94 117.277C313.008 116.022 314.159 114.297 315.492 114.551C317.686 114.973 315.249 116.29 316.372 120.922C316.97 123.397 319.532 122.563 319.095 124.851L318.098 130.059C317.927 130.951 317.675 131.789 316.392 131.687C315.145 131.591 315.253 132.51 313.499 132.17L304.694 130.487C303.797 130.313 303.204 129.449 303.375 128.557C303.447 128.187 303.644 127.873 303.901 127.641C303.454 127.269 303.218 126.68 303.334 126.072C303.407 125.702 303.601 125.393 303.86 125.156C303.413 124.784 303.172 124.192 303.288 123.584C303.371 123.143 303.626 122.776 303.975 122.539C303.664 122.185 303.514 121.69 303.607 121.178Z" fill="#F9F93A"/>
<path d="M309.125 123.914L304.926 123.109C304.353 122.998 303.878 122.592 303.677 122.046C303.595 121.82 303.712 121.575 303.938 121.492C304.164 121.409 304.415 121.53 304.492 121.753C304.585 122.009 304.81 122.206 305.084 122.255L309.382 123.078C309.81 123.161 310.219 122.879 310.3 122.456C310.38 122.033 310.1 121.618 309.677 121.538L306.803 120.989C306.565 120.945 306.414 120.716 306.455 120.483C306.497 120.25 306.728 120.093 306.964 120.142L309.837 120.691C310.734 120.865 311.327 121.729 311.156 122.621C311.063 123.121 310.744 123.512 310.335 123.744C310.577 124.095 310.689 124.539 310.601 124.99C310.508 125.49 310.187 125.886 309.773 126.116C310.015 126.466 310.122 126.908 310.034 127.359C309.93 127.904 309.569 128.331 309.094 128.542C309.293 128.878 309.382 129.279 309.307 129.692C309.136 130.584 308.269 131.169 307.369 131L304.694 130.488C304.121 130.376 303.646 129.971 303.445 129.425C303.362 129.199 303.48 128.954 303.706 128.871C303.932 128.788 304.183 128.908 304.26 129.132C304.353 129.388 304.583 129.587 304.852 129.634L307.528 130.146C307.956 130.229 308.365 129.947 308.445 129.524C308.526 129.1 308.246 128.686 307.823 128.606L304.648 128C304.075 127.888 303.6 127.483 303.399 126.937C303.316 126.711 303.434 126.466 303.66 126.383C303.886 126.3 304.137 126.42 304.214 126.644C304.31 126.908 304.532 127.096 304.806 127.146L308.252 127.806C308.68 127.889 309.09 127.606 309.17 127.183C309.25 126.76 308.97 126.346 308.547 126.265L304.602 125.512C304.029 125.4 303.554 124.995 303.353 124.449C303.27 124.223 303.388 123.978 303.614 123.895C303.84 123.812 304.091 123.932 304.168 124.156C304.264 124.42 304.486 124.608 304.76 124.658L308.814 125.435C309.243 125.517 309.652 125.235 309.732 124.812C309.813 124.389 309.548 123.995 309.125 123.914Z" fill="#F7D33C"/>
<path d="M317.455 132.3L320.356 132.857C320.693 132.919 321.014 132.7 321.081 132.365L322.671 124.059C322.733 123.722 322.514 123.402 322.179 123.334L319.278 122.778C318.941 122.715 318.621 122.935 318.553 123.269L316.963 131.576C316.901 131.913 317.118 132.238 317.455 132.3Z" fill="#7F99EB"/>
<path d="M321.691 133.701C322.71 133.622 323.838 133.127 324.599 133.77L326.063 131.505C323.976 129.012 319.831 128.646 319.416 128.666C318.328 128.726 317.824 128.686 317.754 128.834C317.695 128.993 317.566 129.982 319.139 129.942C321.117 129.903 320.049 131.644 315.885 130.714C314.846 130.486 313.046 131.228 313.827 131.851C314.688 132.564 317.082 134.067 321.691 133.701Z" fill="#F37A50"/>
<path d="M342.522 129.092C344.046 129.735 344.61 134.71 344.145 135.056C337.28 137.252 324.292 133.691 324.292 133.691L323.333 131.179C323.333 131.169 333.561 130.942 342.522 129.092Z" fill="#F37A50"/>
<path d="M345.895 114.571C346.598 119.071 345.282 133.869 344.144 135.056L339.06 131.05C339.06 131.05 338.546 116.064 338.546 113.522C338.536 109.101 344.758 107.221 345.895 114.571Z" fill="#F37A50"/>
<path d="M342.522 129.092C344.045 129.735 344.609 134.71 344.144 135.056C337.28 137.252 325.014 133.899 325.014 133.899L325.894 130.397C325.894 130.397 333.56 130.941 342.522 129.092Z" fill="#0E6A41"/>
<path d="M346.004 114.472C346.756 119.071 346.152 134.017 344.135 135.056L339.001 131.139C339.001 131.139 338.397 115.857 338.397 113.265C338.388 108.764 344.797 106.964 346.004 114.472Z" fill="#0E6A41"/>
<path d="M26.0317 30.3712L22.7121 34.5436L44.4066 53.6672L26.0317 30.3712Z" fill="#CDD8FA"/>
<path d="M19.5952 39.6481L20.3853 44.9992L43.4487 52.7903L19.5952 39.6481Z" fill="#CDD8FA"/>
<path d="M44.4064 53.6667L6.12107 35.0623L20.5557 31.9227L44.4064 53.6667Z" fill="#E3EAFF"/>
<path d="M26.0314 30.3706L44.4063 53.6666L35.1749 27.7794L26.0314 30.3706Z" fill="#E3EAFF"/>
<path d="M163.853 112.672C166.593 111.722 172.409 108.774 169.659 104.818C166.899 100.851 165.732 102.513 166.791 97.7454C167.849 92.9777 164.496 89.1893 161.251 90.0993C158.007 91.0192 157.146 93.6305 153.19 92.9184C149.223 92.2161 145.89 95.8858 147.344 99.1203C148.798 102.355 149.421 103.918 148.007 105.678C146.592 107.449 140.271 109.299 142.853 113.592C145.435 117.884 146.642 117.637 145.702 119.823C144.762 121.999 146.839 124.512 150.499 124.215C154.149 123.918 157.473 122.573 158.858 118.508C160.223 114.452 163.853 112.672 163.853 112.672Z" fill="#2C2858"/>
<path d="M157.671 182.14L157.443 184.464L159.392 185.058L160.955 183.386L161.212 182.427L157.671 182.14Z" fill="#F37A50"/>
<path d="M163.823 135.174C163.823 135.174 166.751 154.097 165.959 162.208C165.168 170.319 161.202 182.456 161.202 182.456H157.641C157.641 182.456 157.7 180.992 157.839 176.155C158.017 169.982 157.839 164.928 160.529 161.743C159.134 155.729 155.563 135.174 155.563 135.174H163.823Z" fill="#F37A50"/>
<path d="M160.203 138.409C160.203 138.409 159.253 155.828 156.385 163.454C149.025 168.469 142.339 170.903 137.888 172.653C137.68 172.733 136.79 169.429 136.79 169.429C141.735 166.194 146.078 160.368 151.112 161.12C150.252 155.541 149.411 141.199 149.411 141.199L160.203 138.409Z" fill="#F37A50"/>
<path d="M156.256 107.449V114.611C156.256 114.611 158.64 115.887 160.707 114.611C160.391 113.018 160.203 107.954 160.203 107.954L156.256 107.449Z" fill="#F37A50"/>
<path d="M151.993 111.306H163.863C163.863 111.306 165.999 116.094 165.702 120.189C165.416 124.284 164.891 135.442 164.891 135.442C164.891 135.442 157.611 133.79 152.962 132.356C152.596 123.948 150.094 120.11 150.272 117.38C150.44 114.65 151.993 111.306 151.993 111.306Z" fill="#F595AD"/>
<path d="M158.373 108.437C161.356 108.437 163.774 105.187 163.774 101.177C163.774 97.1673 161.356 93.9167 158.373 93.9167C155.39 93.9167 152.972 97.1673 152.972 101.177C152.972 105.187 155.39 108.437 158.373 108.437Z" fill="#F37A50"/>
<path d="M152.606 101.178C155.583 100.792 158.363 99.13 159.926 96.9836C160.935 99.496 163.764 101.178 163.764 101.178C163.764 101.178 165.88 96.3802 162.023 93.7886C158.353 91.3257 149.569 93.0072 152.606 101.178Z" fill="#2C2858"/>
<path d="M156.098 102.73C156.415 102.73 156.672 102.474 156.672 102.157C156.672 101.84 156.415 101.583 156.098 101.583C155.781 101.583 155.524 101.84 155.524 102.157C155.524 102.474 155.781 102.73 156.098 102.73Z" fill="black"/>
<path d="M160.668 102.73C160.985 102.73 161.242 102.474 161.242 102.157C161.242 101.84 160.985 101.583 160.668 101.583C160.351 101.583 160.094 101.84 160.094 102.157C160.094 102.474 160.351 102.73 160.668 102.73Z" fill="black"/>
<path d="M161.687 101.642C161.588 101.642 161.499 101.593 161.449 101.504C161.311 101.266 161.133 101.118 160.935 101.078C160.599 100.999 160.262 101.227 160.252 101.237C160.124 101.326 159.956 101.296 159.867 101.167C159.778 101.039 159.807 100.871 159.936 100.782C159.956 100.762 160.47 100.416 161.044 100.544C161.4 100.623 161.687 100.851 161.914 101.227C161.993 101.355 161.944 101.523 161.815 101.603C161.776 101.622 161.726 101.642 161.687 101.642Z" fill="#2C2858"/>
<path d="M155.01 101.662C154.95 101.662 154.891 101.642 154.842 101.603C154.723 101.504 154.703 101.335 154.802 101.217C155.168 100.762 155.564 100.514 155.989 100.485C156.543 100.445 156.919 100.782 156.939 100.801C157.047 100.9 157.057 101.078 156.958 101.187C156.86 101.296 156.681 101.306 156.573 101.207C156.563 101.197 156.335 101.009 156.029 101.039C155.762 101.059 155.495 101.237 155.227 101.563C155.168 101.632 155.089 101.662 155.01 101.662Z" fill="#2C2858"/>
<path d="M158.937 102.908C159.678 103.442 159.906 103.66 160.193 103.838C159.995 104.501 158.956 104.827 158.66 104.758C159.382 104.402 159.491 103.917 159.491 103.917L158.937 102.908Z" fill="#DE623C"/>
<path d="M153.84 103.985C154.419 103.528 154.386 102.522 153.767 101.737C153.147 100.953 152.176 100.687 151.597 101.144C151.018 101.601 151.051 102.608 151.671 103.392C152.29 104.177 153.262 104.442 153.84 103.985Z" fill="#F37A50"/>
<path d="M153.23 103.433C153.21 103.433 153.18 103.433 153.161 103.423C153.071 103.384 153.022 103.275 153.062 103.186C153.19 102.879 153.2 102.622 153.071 102.444C152.874 102.167 152.419 102.078 152.092 102.088C151.993 102.088 151.904 102.009 151.904 101.91C151.904 101.811 151.983 101.722 152.082 101.722C152.527 101.702 153.101 101.831 153.378 102.236C153.517 102.434 153.635 102.79 153.408 103.334C153.368 103.394 153.299 103.433 153.23 103.433Z" fill="#DE623C"/>
<path d="M156.939 105.737C156.86 105.609 156.968 105.45 157.117 105.49C157.483 105.569 158.086 105.678 158.68 105.737C159.263 105.787 159.886 105.787 160.252 105.777C160.401 105.777 160.48 105.945 160.381 106.054C160.084 106.39 159.471 106.894 158.581 106.815C157.681 106.726 157.176 106.123 156.939 105.737Z" fill="white"/>
<path d="M159.441 184.8C159.926 183.534 160.955 183.385 160.955 183.385C162.963 186.066 167.898 184.424 167.74 188.044C160.233 187.995 157.117 188.044 157.117 188.044C157.127 187.214 157.275 185.235 157.453 184.464L157.849 184.533L159.441 184.8Z" fill="#2C2858"/>
<path d="M167.364 189.014H157.502C157.285 189.014 157.117 188.836 157.117 188.628V187.946H167.75V188.628C167.75 188.846 167.572 189.014 167.364 189.014Z" fill="#201D40"/>
<path d="M137.146 169.201L134.495 170.547L134.871 172.495L137.007 173.079L138.016 172.614L137.146 169.201Z" fill="#F37A50"/>
<path d="M135.108 172.416C136.414 172.257 137.007 173.078 137.007 173.078C135.613 176.016 139.262 179.508 136.077 181.011C132.714 174.542 131.26 171.891 131.26 171.891C131.982 171.525 133.743 170.754 134.485 170.556L134.604 170.922L135.108 172.416Z" fill="#2C2858"/>
<path d="M135.069 181.12L130.607 172.653C130.509 172.465 130.578 172.248 130.766 172.149L131.349 171.842L136.166 180.972L135.583 181.279C135.395 181.378 135.167 181.308 135.069 181.12Z" fill="#201D40"/>
<path d="M152.29 156.025C150.104 155.63 147.997 155.63 146.771 155.659C147.552 153.048 147.324 136.955 152.26 131.425H164.694C169.096 138.972 167.434 150.17 170.154 154.749C169.096 155.264 166.108 156.55 162.211 156.945C157.908 157.38 155.989 156.698 152.29 156.025Z" fill="#070635"/>
<path d="M156.167 111.247L153.279 111.059C153.279 111.059 149.53 103.156 148.096 100.594C147.116 96.489 148.511 85.6579 148.511 85.6579L144.159 84.6193C144.159 84.6193 142.161 97.8343 142.843 101.573C143.021 102.553 148.452 114.135 148.452 114.135C148.452 114.135 150.292 117.38 147.779 133.681C151.32 134.561 153.793 134.611 153.793 134.611L156.167 111.247Z" fill="#E62552"/>
<path d="M160.371 111.257L162.696 134.62C162.696 134.62 163.754 134.977 167.73 133.799C165.802 124.066 166.365 118.092 166.642 116.222C166.702 115.837 166.82 115.461 167.008 115.114C167.839 113.542 170.599 108.171 173.131 101.187C172.973 97.9329 170.619 84.6289 170.619 84.6289L166.504 84.4113L167.76 100.06C167.76 100.06 163.348 109.664 162.834 111.257C161.054 111.385 160.371 111.257 160.371 111.257Z" fill="#E62552"/>
<path d="M58.5084 57.2991H29.7934C26.4006 57.2991 23.6606 60.0489 23.6606 63.4318V74.9851C23.6606 78.3778 26.4105 81.1178 29.7934 81.1178H49.5961L48.9037 94.0163C48.8543 95.0054 50.1995 95.3417 50.6149 94.4416L56.718 81.1277H58.5084C61.9011 81.1277 64.6411 78.3778 64.6411 74.9949V63.4318C64.6411 60.039 61.8912 57.2991 58.5084 57.2991Z" fill="#7F99EB"/>
<path d="M59.2898 65.539H29.4373C28.28 65.539 27.3403 64.5993 27.3403 63.442C27.3403 62.2847 28.28 61.345 29.4373 61.345H59.2898C60.4471 61.345 61.3868 62.2847 61.3868 63.442C61.3868 64.5993 60.4471 65.539 59.2898 65.539Z" fill="white"/>
<path d="M59.2898 71.7508H29.4373C28.28 71.7508 27.3403 70.8111 27.3403 69.6538C27.3403 68.4965 28.28 67.5568 29.4373 67.5568H59.2898C60.4471 67.5568 61.3868 68.4965 61.3868 69.6538C61.3868 70.8111 60.4471 71.7508 59.2898 71.7508Z" fill="white"/>
<path d="M59.8241 77.9724H38.7948C37.9342 77.9724 37.2319 77.2701 37.2319 76.4096V75.3314C37.2319 74.4708 37.9342 73.7686 38.7948 73.7686H59.8241C60.6846 73.7686 61.3869 74.4708 61.3869 75.3314V76.4096C61.3869 77.2701 60.6846 77.9724 59.8241 77.9724Z" fill="white"/>
<path d="M282.738 92.6219C278.208 90.9008 268.613 93.8386 269.82 110.961C271.027 128.083 283.371 126.807 283.371 126.807C283.371 126.807 289.098 125.551 290.543 114.868C291.997 104.185 290.355 95.5102 282.738 92.6219Z" fill="#2C2858"/>
<path d="M265.25 108.705C264.874 109.784 261.462 110.377 261.204 110.08C259.394 105.441 261.303 96.3312 261.303 96.3312L262.995 95.5596C262.995 95.5498 263.588 102.602 265.25 108.705Z" fill="#F37A50"/>
<path d="M273.727 117.756C270.552 116.737 261.55 111.049 261.155 109.912L264.914 107.894C264.914 107.894 275.161 112.444 276.833 113.285C279.721 114.729 278.91 119.418 273.727 117.756Z" fill="#F37A50"/>
<path d="M259.256 96.2029C260.027 96.3612 260.977 96.2425 261.412 96.8953L263.005 95.5303C261.996 93.2058 258.979 92.0287 258.662 91.9595C257.841 91.7616 257.465 91.6232 257.386 91.7221C257.307 91.821 256.991 92.5332 258.178 92.8596C259.661 93.2651 258.484 94.3235 255.576 92.7211C254.854 92.3156 253.35 92.4837 253.786 93.1168C254.28 93.8191 255.724 95.4611 259.256 96.2029Z" fill="#F37A50"/>
<path d="M276.279 111.099L280.552 110.308L282.154 112.434L278.752 119.428L273.737 115.174L276.279 111.099Z" fill="#F37A50"/>
<path d="M271.037 127.608C271.037 124.888 268.673 120.803 269.81 118.053C270.631 115.837 272.006 112.128 273.698 111.515C274.489 111.218 275.31 111.02 276.299 110.743C276.299 110.743 275.993 112.553 277.16 112.652C279.405 112.83 280.582 109.962 280.582 109.962C281.789 109.843 287.338 111.673 287.338 112.128C287.328 115.699 284.43 120.902 283.481 124.759C283.105 128.924 283.995 131.149 284.005 131.624C284.005 131.624 276.131 134.255 270.839 131.347C270.829 131.327 271.037 129.448 271.037 127.608Z" fill="#E62552"/>
<path d="M277.357 107.598L280.829 107.073L280.552 110.298C280.552 110.298 279.89 111.762 279.118 111.861L276.279 111.089L277.357 107.598Z" fill="#F37A50"/>
<path d="M284.058 102.945C284.955 99.1994 283.296 95.5917 280.353 94.8869C277.41 94.182 274.296 96.6469 273.4 100.392C272.503 104.138 274.161 107.745 277.105 108.45C280.048 109.155 283.161 106.69 284.058 102.945Z" fill="#F37A50"/>
<path d="M274.78 101.377C274.909 101.118 274.804 100.803 274.545 100.674C274.286 100.545 273.971 100.65 273.842 100.909C273.713 101.169 273.818 101.483 274.077 101.612C274.336 101.742 274.651 101.636 274.78 101.377Z" fill="black"/>
<path d="M278.907 102.404C279.049 102.121 278.933 101.776 278.65 101.635C278.366 101.494 278.022 101.609 277.88 101.893C277.739 102.176 277.854 102.521 278.138 102.662C278.422 102.803 278.766 102.688 278.907 102.404Z" fill="black"/>
<path d="M279.534 101.92C279.494 101.9 279.464 101.87 279.445 101.831C279.158 101.217 278.386 101.099 278.376 101.099C278.267 101.079 278.188 100.98 278.208 100.871C278.228 100.762 278.327 100.683 278.436 100.703C278.475 100.713 279.425 100.851 279.801 101.663C279.85 101.762 279.801 101.88 279.702 101.93C279.652 101.949 279.583 101.949 279.534 101.92Z" fill="#2C2858"/>
<path d="M273.628 100.614C273.609 100.605 273.589 100.595 273.579 100.575C273.5 100.496 273.5 100.367 273.579 100.298C274.182 99.7044 274.924 99.9517 274.954 99.9616C275.053 100.001 275.112 100.11 275.072 100.209C275.033 100.308 274.924 100.367 274.825 100.328C274.805 100.318 274.281 100.15 273.856 100.575C273.787 100.634 273.698 100.644 273.628 100.614Z" fill="#2C2858"/>
<path d="M275.112 102.513C274.825 102.81 274.568 103.117 274.291 103.285C274.202 103.344 274.172 103.463 274.222 103.562C274.449 103.957 275.092 104.284 275.488 104.452C275.547 104.482 275.596 104.402 275.547 104.363C275.141 104.007 274.973 103.75 274.904 103.611C274.865 103.542 274.865 103.453 274.904 103.384C274.983 103.225 275.151 102.889 275.26 102.612C275.3 102.523 275.181 102.444 275.112 102.513Z" fill="#DE623C"/>
<path d="M284.296 105.084C285.012 104.527 285.222 103.6 284.766 103.014C284.31 102.427 283.359 102.403 282.644 102.96C281.928 103.517 281.718 104.444 282.174 105.03C282.63 105.617 283.58 105.641 284.296 105.084Z" fill="#F37A50"/>
<path d="M283.035 104.858C283.006 104.848 282.986 104.828 282.966 104.798C282.689 104.432 282.669 104.027 282.897 103.7C283.134 103.374 283.569 103.216 283.945 103.344C284.044 103.374 284.104 103.493 284.074 103.592C284.044 103.691 283.925 103.75 283.827 103.72C283.629 103.651 283.362 103.75 283.223 103.938C283.095 104.116 283.114 104.343 283.283 104.571C283.352 104.66 283.332 104.779 283.243 104.848C283.184 104.887 283.104 104.887 283.035 104.858Z" fill="#DE623C"/>
<path d="M277.911 105.502C277.99 105.393 277.901 105.235 277.763 105.255C277.407 105.294 276.833 105.354 276.279 105.354C275.725 105.354 275.141 105.294 274.795 105.255C274.657 105.235 274.568 105.393 274.647 105.502C274.904 105.848 275.428 106.363 276.279 106.363C277.13 106.363 277.654 105.848 277.911 105.502Z" fill="white"/>
<path d="M284.113 102.612C280.602 102.138 275.696 98.5668 275.29 96.727C275.973 94.5212 279.583 93.4133 281.63 94.4321C283.678 95.4608 285.607 99.8329 284.113 102.612Z" fill="#2C2858"/>
<path d="M274.103 180.607C274.34 178.283 273.143 160.636 273.143 160.636C269.76 145.117 271.086 134.008 271.086 134.008L276.902 134.414L279.197 143.188L278.109 157.837C278.109 157.837 278.514 158.965 278.732 159.865C279.899 164.751 278.732 170.597 278.02 174.494C277.684 176.295 277.169 180.093 277.159 180.953L278.623 182.843C278.623 182.843 273.331 188.698 272.52 188.738C270.938 188.807 271.402 187.244 271.402 187.244C273.569 184.989 274.043 181.27 274.103 180.607Z" fill="#F37A50"/>
<path d="M278.702 184.899L278.415 188.658L277.743 188.688L277.396 185.196C275.596 185.651 274.31 188.925 274.31 188.925C273.074 189.37 269.918 189.677 268.801 189.093C268.534 187.995 271.402 187.224 271.402 187.224C271.659 187.531 273.193 187.768 273.747 187.442C275.754 185.73 276.734 183.248 277.159 180.943C277.149 180.943 280.324 181.16 278.702 184.899Z" fill="#201D40"/>
<path d="M276.072 135.126L284.272 133.998C287.407 141.09 288.426 153.445 289.277 157.836C292.689 163.564 293.777 180.933 293.777 180.933L295.241 182.822C295.241 182.822 289.949 188.678 289.138 188.718C287.556 188.787 288.021 187.224 288.021 187.224C290.197 184.989 290.622 182.021 290.761 181.368C290.968 180.389 284.123 161.12 284.123 161.12L283.391 159.291C275.033 145.482 273.658 135.046 273.658 135.046L276.072 135.126Z" fill="#F37A50"/>
<path d="M295.331 184.899L295.044 188.658L294.371 188.688L294.025 185.196C292.225 185.651 290.939 188.925 290.939 188.925C289.702 189.37 286.547 189.677 285.429 189.093C285.162 187.995 288.031 187.224 288.031 187.224C288.288 187.531 289.821 187.768 290.375 187.442C292.383 185.73 293.362 183.248 293.787 180.943C293.778 180.943 296.953 181.16 295.331 184.899Z" fill="#201D40"/>
<path d="M291.314 157.036C290.493 154.296 290.84 134.997 283.609 129.666L271.195 130.675C268.327 135.324 269.375 147.431 270.344 157.392C276.18 159.479 280.829 160.31 291.314 157.036Z" fill="#E62552"/>
<path d="M255.606 112.89C256.397 112.939 257.317 112.682 257.841 113.256L259.216 111.673C257.881 109.527 254.725 108.795 254.399 108.765C253.558 108.696 253.173 108.607 253.103 108.715C253.034 108.824 252.836 109.576 254.053 109.724C255.586 109.912 254.567 111.129 251.461 109.972C250.68 109.685 249.226 110.061 249.75 110.624C250.334 111.248 252.005 112.672 255.606 112.89Z" fill="#F37A50"/>
<path d="M271.581 117.568C272.323 118.616 270.631 122.128 270.186 122.167C264.756 120.783 257.673 113.067 257.673 113.067L258.079 111.01C258.069 111.01 264.914 115.095 271.581 117.568Z" fill="#F37A50"/>
<path d="M286.18 117.707C282.916 119.557 271.343 122.643 270.097 122.099L271.303 117.45C271.303 117.45 282.896 112.464 284.865 111.723C288.257 110.456 291.512 114.7 286.18 117.707Z" fill="#F37A50"/>
<path d="M256.872 108.863C256.793 108.863 256.704 108.844 256.625 108.804C255.972 108.488 254.943 107.953 253.786 107.202C253.529 107.033 253.45 106.687 253.618 106.43C253.786 106.173 254.132 106.094 254.389 106.262C255.497 106.984 256.477 107.488 257.11 107.795C257.387 107.934 257.505 108.26 257.377 108.547C257.278 108.755 257.08 108.863 256.872 108.863ZM251.531 105.401C251.402 105.401 251.274 105.362 251.165 105.263C250.304 104.521 249.523 103.74 248.85 102.938C248.652 102.701 248.682 102.345 248.919 102.147C249.157 101.949 249.513 101.979 249.711 102.216C250.344 102.968 251.076 103.71 251.887 104.402C252.124 104.6 252.154 104.956 251.946 105.194C251.847 105.332 251.689 105.401 251.531 105.401ZM247.515 100.505C247.317 100.505 247.119 100.396 247.02 100.198C246.575 99.3379 246.219 98.4378 245.982 97.5278C245.942 97.3695 245.903 97.2013 245.883 97.0431C245.833 96.7364 246.041 96.4496 246.348 96.4001C246.654 96.3507 246.941 96.5584 246.991 96.865C247.01 96.9837 247.04 97.1123 247.07 97.2409C247.287 98.0718 247.604 98.8928 248.019 99.6841C248.158 99.9611 248.059 100.297 247.782 100.436C247.693 100.485 247.604 100.505 247.515 100.505ZM247.188 94.5306C247.08 94.5306 246.961 94.501 246.872 94.4317C246.615 94.2537 246.555 93.9075 246.733 93.6503C247.268 92.8788 248.059 92.1171 249.147 91.3159C249.394 91.128 249.75 91.1873 249.928 91.4346C250.116 91.6819 250.057 92.038 249.81 92.216C248.821 92.9381 248.118 93.6206 247.653 94.2834C247.545 94.4416 247.366 94.5306 247.188 94.5306ZM252.144 90.5938C251.956 90.5938 251.768 90.4949 251.659 90.3169C251.501 90.0498 251.59 89.7036 251.847 89.5453C252.213 89.3277 252.579 89.1101 252.955 88.8925C253.489 88.576 254.053 88.2495 254.587 87.9231C254.854 87.7649 255.201 87.844 255.359 88.1111C255.517 88.3781 255.438 88.7243 255.171 88.8826C254.627 89.2189 254.063 89.5453 253.529 89.8619C253.163 90.0795 252.797 90.2971 252.431 90.5147C252.342 90.5642 252.243 90.5938 252.144 90.5938ZM257.525 87.1714C257.357 87.1714 257.189 87.1021 257.08 86.9538C256.892 86.7065 256.932 86.3603 257.179 86.1624C258.119 85.4305 258.801 84.7282 259.266 84.0259C259.434 83.7687 259.78 83.6896 260.037 83.8577C260.295 84.0259 260.374 84.3721 260.206 84.6293C259.681 85.4404 258.92 86.2218 257.871 87.0428C257.772 87.1318 257.654 87.1714 257.525 87.1714ZM260.512 81.8893C260.225 81.8893 259.988 81.6717 259.958 81.3849C259.889 80.732 259.662 80.0297 259.266 79.2978C259.147 79.0801 259.029 78.8724 258.91 78.6746C258.752 78.4075 258.831 78.0613 259.098 77.903C259.365 77.7448 259.711 77.8239 259.869 78.091C259.998 78.3086 260.136 78.5361 260.255 78.7636C260.72 79.6242 260.997 80.4649 261.076 81.276C261.106 81.5827 260.878 81.8596 260.572 81.8893C260.552 81.8893 260.532 81.8893 260.512 81.8893ZM250.126 81.4541C249.968 81.4541 249.8 81.4442 249.632 81.4343C247.693 81.2464 247.179 80.2275 247.04 79.6341C246.971 79.3373 247.159 79.0307 247.456 78.9614C247.762 78.8922 248.059 79.0801 248.128 79.3769C248.286 80.0396 249.088 80.2473 249.74 80.3166C249.869 80.3265 250.008 80.3364 250.126 80.3364H250.176C250.482 80.3364 250.739 80.5836 250.739 80.8903C250.739 81.1969 250.492 81.4541 250.186 81.4541H250.126ZM252.876 80.0396C252.767 80.0396 252.658 80.0099 252.56 79.9407C252.302 79.7627 252.243 79.4164 252.421 79.1593C252.876 78.4965 253.193 77.5766 253.341 76.4193C253.381 76.1127 253.667 75.8951 253.974 75.9346C254.281 75.9742 254.498 76.2611 254.459 76.5677C254.281 77.903 253.905 78.9911 253.351 79.8022C253.232 79.9506 253.054 80.0396 252.876 80.0396ZM248.741 77.2304C248.603 77.2304 248.464 77.181 248.356 77.0821C248.128 76.8743 248.118 76.5182 248.336 76.2907C249.107 75.4697 250.116 74.807 251.185 74.4015C251.471 74.2927 251.798 74.441 251.907 74.7279C252.015 75.0147 251.867 75.3412 251.58 75.45C250.67 75.7863 249.81 76.36 249.157 77.0524C249.038 77.1711 248.89 77.2304 248.741 77.2304ZM257.347 76.5182C257.218 76.5182 257.09 76.4787 256.991 76.3897C256.2 75.7269 255.329 75.3115 254.409 75.1532C254.103 75.1038 253.905 74.807 253.954 74.5004C254.004 74.1937 254.3 73.9959 254.607 74.0454C255.715 74.2432 256.763 74.7378 257.713 75.5192C257.95 75.717 257.98 76.0731 257.782 76.3105C257.664 76.449 257.505 76.5182 257.347 76.5182ZM253.954 73.8673C253.667 73.8673 253.42 73.6398 253.4 73.353C253.321 72.3539 253.163 71.3153 252.935 70.2866C252.866 69.98 253.054 69.6832 253.361 69.614C253.667 69.5447 253.964 69.7327 254.033 70.0393C254.271 71.1274 254.439 72.2154 254.518 73.2639C254.538 73.5706 254.31 73.8376 254.004 73.8673C253.974 73.8673 253.964 73.8673 253.954 73.8673ZM252.56 67.6753C252.332 67.6753 252.124 67.5368 252.035 67.3192C251.58 66.1717 251.066 65.2617 250.571 64.7672C250.354 64.5495 250.354 64.1934 250.581 63.9758C250.799 63.7582 251.155 63.7582 251.373 63.9857C251.976 64.599 252.569 65.6079 253.084 66.9136C253.193 67.2005 253.054 67.5269 252.767 67.6456C252.698 67.6555 252.629 67.6753 252.56 67.6753Z" fill="#2C2858"/>
<path d="M125.531 50.5306C126.647 44.96 123.037 39.5386 117.466 38.4216C111.896 37.3047 106.474 40.9151 105.357 46.4857C104.24 52.0564 107.851 57.4777 113.422 58.5947C118.992 59.7117 124.414 56.1013 125.531 50.5306Z" fill="#7F99EB"/>
<path d="M113.735 45.378C113.923 44.4407 113.315 43.5284 112.378 43.3405C111.441 43.1525 110.528 43.76 110.34 44.6974C110.152 45.6348 110.76 46.547 111.697 46.735C112.635 46.9229 113.547 46.3154 113.735 45.378Z" fill="white"/>
<path d="M121.671 48.2318C121.859 47.2944 121.251 46.3822 120.314 46.1942C119.377 46.0063 118.464 46.6138 118.276 47.5512C118.088 48.4885 118.696 49.4008 119.633 49.5887C120.571 49.7767 121.483 49.1692 121.671 48.2318Z" fill="white"/>
<path d="M117.926 53.0722C118.01 53.1061 118.093 53.1497 118.175 53.2032C118.515 53.4494 118.59 53.8525 118.342 54.0824C117.107 55.2535 114.916 55.5361 112.903 54.7954C110.946 54.0741 109.514 52.5365 109.254 50.8802C109.199 50.5405 109.494 50.2681 109.922 50.288C110.34 50.3063 110.733 50.6012 110.776 50.9491C110.958 52.1015 111.947 53.1655 113.317 53.6706C114.725 54.1919 116.242 53.9892 117.106 53.1785C117.288 52.9878 117.623 52.9624 117.926 53.0722Z" fill="white"/>
<path d="M109.37 85.8067C109.173 85.8067 108.985 85.6979 108.876 85.51C108.727 85.2429 108.826 84.8967 109.103 84.7483C109.628 84.4615 109.944 84.1647 109.944 83.9471C109.944 83.8581 109.885 83.591 109.311 83.1558C109.064 82.9679 109.014 82.6118 109.202 82.3744C109.39 82.1271 109.746 82.0776 109.984 82.2656C110.706 82.8195 111.062 83.3734 111.062 83.957C111.062 84.6296 110.597 85.2132 109.637 85.7375C109.548 85.7869 109.459 85.8067 109.37 85.8067ZM106.67 81.7018C106.601 81.7018 106.522 81.6919 106.452 81.6523C105.612 81.2962 104.622 80.9104 103.337 80.4455C103.05 80.3367 102.891 80.0202 103 79.7235C103.109 79.4366 103.426 79.2783 103.722 79.3871C105.028 79.8619 106.027 80.2477 106.888 80.6137C107.174 80.7324 107.303 81.0687 107.184 81.3457C107.095 81.5732 106.888 81.7018 106.67 81.7018ZM100.359 79.3674C100.3 79.3674 100.241 79.3575 100.171 79.3377L99.924 79.2487C99.2118 79.0014 98.4996 78.7541 97.7776 78.4969C97.5105 78.398 97.2335 78.2991 96.9764 78.1903C96.6895 78.0716 96.551 77.7452 96.6697 77.4583C96.7884 77.1715 97.1148 77.033 97.4017 77.1517C97.6391 77.2506 97.8963 77.3495 98.1435 77.4385C98.8656 77.6957 99.5778 77.943 100.29 78.1903L100.537 78.2793C100.834 78.3782 100.982 78.7046 100.883 78.9915C100.804 79.2289 100.587 79.3674 100.359 79.3674ZM94.2859 76.5582C94.1672 76.5582 94.0386 76.5186 93.9397 76.4395C92.9208 75.6383 92.1295 74.748 91.5756 73.7688C91.4272 73.5017 91.5163 73.1555 91.7932 73.0071C92.0603 72.8588 92.4065 72.9478 92.5549 73.2248C93.0198 74.0556 93.7418 74.8667 94.6321 75.5591C94.8794 75.7471 94.9189 76.1032 94.731 76.3505C94.6123 76.4889 94.454 76.5582 94.2859 76.5582ZM91.4272 70.831C91.3877 70.831 91.358 70.831 91.3184 70.8211C91.0118 70.7618 90.814 70.465 90.8733 70.1683C91.1107 68.9417 91.8625 67.9031 93.0494 67.1613C93.3165 66.9931 93.6627 67.0722 93.821 67.3393C93.9891 67.6064 93.91 67.9526 93.6429 68.1109C92.723 68.6846 92.1493 69.466 91.9713 70.376C91.9218 70.6431 91.6844 70.831 91.4272 70.831ZM96.5115 67.1217C96.2345 67.1217 95.9971 66.9239 95.9575 66.637C95.9081 66.3304 96.1257 66.0435 96.4323 66.004C96.551 65.9842 96.6598 65.9743 96.7785 65.9545C97.6984 65.8457 98.7074 65.7765 99.8548 65.7567C100.161 65.7468 100.419 65.9941 100.428 66.3007C100.438 66.6073 100.191 66.8645 99.8844 66.8744C98.7766 66.9041 97.8072 66.9634 96.917 67.0722C96.8082 67.0821 96.6994 67.1019 96.6005 67.1118C96.5708 67.1217 96.5411 67.1217 96.5115 67.1217ZM106.591 66.9733C105.829 66.9634 105.077 66.9437 104.276 66.9239C103.93 66.914 103.574 66.9041 103.218 66.8942C102.911 66.8843 102.664 66.6271 102.674 66.3205C102.684 66.0139 102.941 65.7666 103.248 65.7765C103.604 65.7864 103.96 65.7962 104.306 65.8061C105.107 65.8259 105.859 65.8457 106.601 65.8556C106.907 65.8556 107.155 66.1128 107.155 66.4194C107.155 66.726 106.898 66.9733 106.591 66.9733ZM109.954 66.8645C109.667 66.8645 109.42 66.6469 109.4 66.3601C109.37 66.0534 109.598 65.7765 109.905 65.7468C111.22 65.6182 112.209 65.3709 112.931 64.9851C113.208 64.8368 113.545 64.9357 113.693 65.2126C113.841 65.4896 113.742 65.8259 113.465 65.9743C112.615 66.4392 111.487 66.726 110.013 66.8645C109.994 66.8645 109.974 66.8645 109.954 66.8645ZM115.028 63.3926C114.999 63.3926 114.979 63.3926 114.949 63.3827C114.643 63.3432 114.425 63.0563 114.474 62.7497C114.504 62.542 114.514 62.3243 114.514 62.0968C114.514 61.9979 114.514 61.899 114.504 61.7902C114.484 61.4836 114.722 61.2165 115.038 61.2066C115.345 61.1868 115.612 61.4242 115.622 61.7407C115.632 61.8594 115.632 61.988 115.632 62.0968C115.632 62.3738 115.612 62.6508 115.582 62.9079C115.543 63.1849 115.305 63.3926 115.028 63.3926Z" fill="#2C2858"/>
<path d="M193.824 58.4025L125.438 56.9379L124.78 87.6547L193.166 89.1193L193.824 58.4025Z" fill="white"/>
<path d="M190.223 61.5528L189.699 85.8067L128.372 84.4912L128.896 60.2372L190.223 61.5528ZM191.638 60.1878L190.243 60.1581L128.916 58.8425L127.521 58.8129L127.491 60.2076L126.967 84.4615L126.938 85.8562L128.332 85.8859L189.659 87.2014L191.054 87.2311L191.084 85.8364L191.608 61.5825L191.638 60.1878Z" fill="#95A6DB"/>
<path d="M157.532 82.8286L130.32 82.245C130.004 82.2351 129.747 81.9779 129.757 81.6515C129.767 81.335 130.024 81.0778 130.35 81.0877L157.562 81.6713C157.878 81.6812 158.135 81.9383 158.125 82.2648C158.116 82.5813 157.848 82.8286 157.532 82.8286Z" fill="#95A6DB"/>
<path d="M186.989 83.4615L172.765 83.1549C172.448 83.145 172.191 82.8878 172.201 82.5614C172.211 82.2449 172.468 81.9877 172.794 81.9976L187.018 82.3042C187.335 82.3141 187.592 82.5713 187.582 82.8977C187.572 83.2142 187.315 83.4615 186.989 83.4615Z" fill="#95A6DB"/>
<path d="M133.142 74.706L133.349 66.1521L139.515 66.3014L139.457 68.7144L136.252 68.6368L136.219 70.0156L138.657 70.0747L138.599 72.4876L136.161 72.4286L136.104 74.7777L133.142 74.706ZM140.821 74.892L141.028 66.338L143.99 66.4098L143.783 74.9637L140.821 74.892ZM145.57 75.007L145.777 66.4531L148.688 66.5236L150.576 69.814L150.755 69.8183L150.833 66.5755L153.795 66.6472L153.588 75.2011L150.664 75.1303L148.808 71.5979L148.616 71.5933L148.532 75.0787L145.57 75.007ZM158.294 71.0356C158.276 71.7591 158.332 72.2842 158.46 72.6109C158.597 72.9294 158.887 73.0939 159.329 73.1047C159.78 73.1156 160.078 72.9652 160.222 72.6536C160.366 72.342 160.446 71.8202 160.464 71.0882C160.482 70.3477 160.427 69.8226 160.298 69.5129C160.178 69.1949 159.892 69.0304 159.441 69.0195C158.99 69.0086 158.688 69.1631 158.536 69.483C158.392 69.7946 158.311 70.3122 158.294 71.0356ZM163.452 71.1606C163.414 72.7181 163.063 73.8423 162.399 74.5331C161.735 75.2154 160.693 75.5393 159.271 75.5049C157.858 75.4706 156.833 75.0924 156.195 74.3701C155.565 73.648 155.269 72.5124 155.306 70.9633C155.344 69.4057 155.695 68.2858 156.358 67.6035C157.022 66.9128 158.065 66.5846 159.486 66.619C160.908 66.6534 161.933 67.0317 162.563 67.7538C163.193 68.4674 163.489 69.603 163.452 71.1606ZM172.278 67.0949L170.399 75.6083L166.033 75.5025L164.503 66.9066L167.644 66.9826L168.173 72.5651L168.403 72.5707L169.138 67.0188L172.278 67.0949ZM173.42 75.6815L173.627 67.1275L180.036 67.2828L179.979 69.6447L176.532 69.5612L176.515 70.2889L179.196 70.3538L179.139 72.6902L176.458 72.6253L176.439 73.3913L179.886 73.4748L179.829 75.8367L173.42 75.6815ZM187.194 76.015L181.449 75.8759L181.656 67.322L184.618 67.3937L184.469 73.5347L187.252 73.6021L187.194 76.015Z" fill="#1769E9"/>
<path d="M211.608 103.215C214.239 103.532 215.614 100.169 215.614 100.169C217.227 99.9015 216.95 98.299 216.95 98.299C217.711 98.0616 218.73 97.2407 218.404 95.7866C218.127 94.5502 216.92 94.6095 216.762 93.1654C216.633 92.0081 217.464 89.1593 213.765 88.9417C213.765 88.9417 213.676 86.7853 211.45 86.271C208.72 85.6379 208.047 87.2799 206.85 87.5767C205.515 87.9031 202.647 86.6765 202.271 89.7726C202.271 89.7726 200.362 89.822 199.491 91.2068C198.68 92.5026 199.155 94.1545 199.699 94.7579C199.699 94.7579 198.176 95.2821 197.82 96.7263C197.582 97.6957 197.958 98.9519 198.927 99.5553C199.541 99.941 200.124 99.9806 200.124 99.9806C200.747 100.08 200.787 101.751 201.341 102.078C202.221 102.592 203.181 102.958 204.16 103.255L211.608 103.215Z" fill="#2C2858"/>
<path d="M201.499 96.796C201.193 101.326 203.685 105.184 207.058 105.411C210.431 105.639 213.409 102.147 213.715 97.6071C214.022 93.0768 211.321 90.1489 207.948 89.9214C204.575 89.6939 201.806 92.2657 201.499 96.796Z" fill="#F37A50"/>
<path d="M210.757 98.5128C210.782 98.153 210.509 97.8419 210.15 97.8178C209.79 97.7938 209.479 98.0659 209.455 98.4257C209.431 98.7854 209.703 99.0966 210.063 99.1206C210.422 99.1447 210.733 98.8725 210.757 98.5128Z" fill="black"/>
<path d="M205.585 98.169C205.609 97.8092 205.337 97.4981 204.977 97.4741C204.617 97.45 204.306 97.7222 204.282 98.0819C204.258 98.4417 204.53 98.7528 204.89 98.7769C205.25 98.8009 205.561 98.5288 205.585 98.169Z" fill="black"/>
<path d="M206.831 99.1101C205.95 99.6541 205.673 99.8915 205.337 100.07C205.515 100.831 206.662 101.286 206.999 101.217C206.207 100.762 206.128 100.208 206.128 100.208L206.831 99.1101Z" fill="#DE623C"/>
<path d="M215.153 100.063C215.783 99.1238 215.726 97.9826 215.028 97.5142C214.329 97.0459 213.252 97.4277 212.622 98.3671C211.993 99.3065 212.049 100.448 212.748 100.916C213.447 101.384 214.524 101.003 215.153 100.063Z" fill="#F37A50"/>
<path d="M213.24 100.139C213.27 100.139 213.3 100.139 213.319 100.129C213.428 100.09 213.487 99.9709 213.448 99.8621C213.319 99.4961 213.339 99.2191 213.497 99.0213C213.735 98.7147 214.259 98.6553 214.635 98.6949C214.754 98.7048 214.852 98.6256 214.862 98.5069C214.872 98.3882 214.793 98.2893 214.674 98.2794C214.17 98.23 213.517 98.3289 213.171 98.7641C213.003 98.9817 212.844 99.3675 213.062 100.001C213.092 100.08 213.161 100.129 213.24 100.139Z" fill="#DE623C"/>
<path d="M215.851 94.3823L208.641 88.3287L200.47 92.2952L201.351 98.1509C201.608 95.4604 203.24 96.3606 204.11 95.589C204.991 94.8076 205.396 93.5712 207.404 94.7087C207.404 94.7087 209.076 93.6008 209.897 95.223C210.53 96.4793 211.42 96.2518 212.31 96.3408C213.359 96.4397 213.082 97.4486 213.725 97.4288L215.851 94.3823Z" fill="#2C2858"/>
<path d="M204.081 97.2209C205.021 97.2209 205.535 96.6471 205.565 96.6175C205.674 96.4988 205.654 96.3108 205.535 96.2119C205.417 96.1031 205.229 96.1229 205.13 96.2416C205.11 96.2713 204.635 96.7757 203.755 96.6175C203.596 96.5878 203.448 96.6966 203.418 96.8549C203.389 97.0131 203.498 97.1615 203.656 97.1912C203.794 97.211 203.943 97.2209 204.081 97.2209Z" fill="#2C2858"/>
<path d="M210.975 97.2209C210.035 97.2209 209.521 96.6471 209.491 96.6175C209.383 96.4988 209.402 96.3108 209.521 96.2119C209.64 96.1031 209.828 96.1229 209.927 96.2416C209.946 96.2713 210.421 96.7757 211.302 96.6175C211.46 96.5878 211.608 96.6966 211.638 96.8549C211.668 97.0131 211.559 97.1615 211.4 97.1912C211.252 97.211 211.104 97.2209 210.975 97.2209Z" fill="#2C2858"/>
<path d="M208.294 102.249C208.373 102.14 208.284 101.982 208.146 102.002C207.789 102.041 207.216 102.1 206.662 102.1C206.108 102.1 205.524 102.041 205.178 102.002C205.04 101.982 204.951 102.14 205.03 102.249C205.287 102.595 205.811 103.109 206.662 103.109C207.512 103.109 208.037 102.595 208.294 102.249Z" fill="white"/>
<path opacity="0.55" d="M246.97 45.6663C248.098 44.8156 249.443 44.3903 251.016 44.3903C254.409 44.3903 256.209 46.24 256.209 48.8315C256.209 50.3252 255.487 51.8484 254.013 53.3717C252.144 55.3401 250.789 56.3194 249.948 56.3194C249.127 56.3194 248.523 55.6666 248.523 54.895C248.523 54.1927 249.176 53.5003 250.294 52.4716C250.373 52.3925 250.442 52.3232 250.492 52.2936C251.768 51.1165 252.163 50.4735 252.163 49.6723C252.163 48.6733 251.491 48.1194 250.512 48.1194C250.066 48.1194 249.542 48.2183 248.909 48.4161C248.276 48.6139 247.831 48.7128 247.564 48.7128C246.862 48.7128 246.07 48.1095 246.07 47.1104C246.07 46.6158 246.367 46.1114 246.97 45.6663ZM250.383 62.3235C248.86 62.3235 247.841 61.1761 247.841 59.7814C247.841 58.5845 248.86 57.4371 250.383 57.4371C251.708 57.4371 252.727 58.5845 252.727 59.7814C252.737 61.1464 251.758 62.3235 250.383 62.3235Z" fill="white"/>
<path opacity="0.55" d="M262.105 60.8898C263.005 60.6623 263.925 60.7414 264.884 61.1469C266.942 62.0075 267.565 63.5901 266.912 65.1629C266.536 66.0729 265.705 66.8148 264.429 67.3588C262.797 68.0809 261.729 68.3282 261.215 68.1105C260.71 67.9028 260.512 67.3588 260.71 66.884C260.888 66.4587 261.462 66.2015 262.402 65.8652C262.471 65.8355 262.53 65.8157 262.57 65.8058C263.638 65.4201 264.044 65.1233 264.251 64.6386C264.509 64.0353 264.232 63.5308 263.648 63.2835C263.371 63.1648 263.035 63.0956 262.599 63.056C262.174 63.0164 261.868 62.967 261.709 62.8977C261.284 62.7197 260.948 62.1559 261.205 61.5525C261.314 61.236 261.62 61.0085 262.105 60.8898ZM259.949 71.8693C259.029 71.4835 258.692 70.5241 259.048 69.6734C259.355 68.9414 260.265 68.5062 261.185 68.892C261.986 69.2283 262.323 70.1878 262.016 70.9098C261.68 71.7506 260.789 72.2155 259.949 71.8693Z" fill="white"/>
</svg>
