<svg width="24" height="24" viewBox="0 0 24 24" fill="none" xmlns="http://www.w3.org/2000/svg">
<g clip-path="url(#clip0_0_776)">
<path d="M22.6957 8.08698H1.30434C0.585141 8.08698 0 8.67212 0 9.39132V21.1305C0 21.8497 0.585141 22.4348 1.30434 22.4348H22.6957C23.4149 22.4348 24 21.8497 24 21.1305V9.39132C24 8.67212 23.4149 8.08698 22.6957 8.08698ZM22.4348 20.8696H1.5652V9.65218H22.4347V20.8696H22.4348Z" fill="#1769E9"/>
<path d="M3.65217 8.08698C3.21989 8.08698 2.86955 8.43732 2.86955 8.8696V9.65222C2.86955 10.2374 2.4112 10.6957 1.82606 10.6957H0.782625C0.350344 10.6957 0 11.046 0 11.4783C0 11.9106 0.350344 12.2609 0.782625 12.2609H1.82611C3.26456 12.2609 4.4348 11.0906 4.4348 9.65222V8.8696C4.4348 8.43732 4.08445 8.08698 3.65217 8.08698Z" fill="#1769E9"/>
<path d="M23.2174 10.6956H22.4348C21.8496 10.6956 21.3913 10.2373 21.3913 9.65216V8.86954C21.3913 8.43726 21.041 8.08691 20.6087 8.08691C20.1764 8.08691 19.826 8.43726 19.826 8.86954V9.65216C19.826 11.0906 20.9963 12.2609 22.4347 12.2609H23.2174C23.6496 12.2609 24 11.9105 24 11.4782C24 11.0459 23.6497 10.6956 23.2174 10.6956Z" fill="#1769E9"/>
<path d="M1.82611 18.2609H0.782625C0.350344 18.2609 0 18.6112 0 19.0435C0 19.4758 0.350344 19.8261 0.782625 19.8261H1.82611C2.41125 19.8261 2.86959 20.2845 2.86959 20.8696V21.6522C2.86959 22.0845 3.21994 22.4348 3.65222 22.4348C4.0845 22.4348 4.43484 22.0845 4.43484 21.6522V20.8696C4.4348 19.4311 3.26452 18.2609 1.82611 18.2609Z" fill="#1769E9"/>
<path d="M23.2174 18.2609H22.1739C20.7354 18.2609 19.5652 19.4311 19.5652 20.8696V21.6522C19.5652 22.0845 19.9155 22.4348 20.3478 22.4348C20.7801 22.4348 21.1304 22.0845 21.1304 21.6522V20.8696C21.1304 20.2844 21.5888 19.8261 22.1739 19.8261H23.2174C23.6497 19.8261 24 19.4757 24 19.0434C24 18.6112 23.6496 18.2609 23.2174 18.2609Z" fill="#1769E9"/>
<path d="M21.1304 4.69531H2.86954C2.43726 4.69531 2.08691 5.04565 2.08691 5.47793C2.08691 5.91021 2.43726 6.26055 2.86954 6.26055H21.1304C21.5627 6.26055 21.913 5.91021 21.913 5.47793C21.913 5.04565 21.5627 4.69531 21.1304 4.69531Z" fill="#1769E9"/>
<path d="M18.7826 1.56522H5.21732C4.78504 1.56522 4.43469 1.91556 4.43469 2.34784C4.43469 2.78012 4.78504 3.13047 5.21732 3.13047H18.7825C19.2148 3.13047 19.5651 2.78012 19.5651 2.34784C19.5651 1.91556 19.2148 1.56522 18.7826 1.56522Z" fill="#1769E9"/>
<path d="M12 10.9305C9.62665 10.9305 7.69568 12.8612 7.69568 15.2348C7.69568 17.6082 9.62665 19.5392 12 19.5392C14.3734 19.5392 16.3044 17.6082 16.3044 15.2348C16.3044 12.8614 14.3734 10.9305 12 10.9305ZM12 17.9739C10.4896 17.9739 9.26089 16.7452 9.26089 15.2348C9.26089 13.7243 10.4896 12.4954 12 12.4954C13.5105 12.4954 14.7392 13.7244 14.7392 15.2348C14.7392 16.7452 13.5105 17.9739 12 17.9739Z" fill="#1769E9"/>
</g>
<defs>
<clipPath id="clip0_0_776">
<rect width="24" height="24" fill="white"/>
</clipPath>
</defs>
</svg>
