<svg width="26" height="26" viewBox="0 0 26 26" fill="none" xmlns="http://www.w3.org/2000/svg">
<g clip-path="url(#clip0_0_678)">
<path d="M13 0C5.83213 0 0 5.83213 0 13C0 20.1679 5.83213 26 13 26C20.1679 26 26 20.1679 26 13C26 5.83213 20.1679 0 13 0ZM13 24.375C6.72913 24.375 1.625 19.2725 1.625 13C1.625 6.7275 6.72913 1.625 13 1.625C19.2709 1.625 24.375 6.7275 24.375 13C24.375 19.2725 19.2709 24.375 13 24.375Z" fill="#1769E9"/>
<path d="M17.0625 9.75H16.1672C16.0453 9.1455 15.7755 8.5995 15.4164 8.125H17.0625C17.511 8.125 17.875 7.761 17.875 7.3125C17.875 6.864 17.511 6.5 17.0625 6.5H8.93754C8.48904 6.5 8.12504 6.864 8.12504 7.3125C8.12504 7.761 8.48904 8.125 8.93754 8.125H12.1875C13.2454 8.125 14.1392 8.80588 14.4755 9.75H8.93754C8.48904 9.75 8.12504 10.114 8.12504 10.5625C8.12504 11.011 8.48904 11.375 8.93754 11.375H14.4755C14.1392 12.3191 13.2454 13 12.1875 13H8.93754C8.83191 13 8.72629 13.0211 8.62716 13.0618C8.42803 13.1447 8.26974 13.303 8.18679 13.5021C8.14576 13.6005 8.12463 13.706 8.12463 13.8125C8.12463 13.919 8.14576 14.0245 8.18679 14.1229C8.22683 14.2225 8.28715 14.3127 8.36391 14.3878L14.8623 20.8861C15.0215 21.0454 15.2295 21.125 15.4375 21.125C15.6455 21.125 15.8535 21.0454 16.0128 20.8878C16.3297 20.5709 16.3297 20.0558 16.0128 19.7389L10.8989 14.625H12.1875C14.1505 14.625 15.7902 13.2275 16.1672 11.375H17.0625C17.511 11.375 17.875 11.011 17.875 10.5625C17.875 10.114 17.511 9.75 17.0625 9.75Z" fill="#1769E9"/>
</g>
<defs>
<clipPath id="clip0_0_678">
<rect width="26" height="26" fill="white"/>
</clipPath>
</defs>
</svg>
