<svg width="24" height="25" viewBox="0 0 24 25" fill="none" xmlns="http://www.w3.org/2000/svg">
<path d="M23.0671 17.7027C22.6546 16.3621 21.7452 15.2606 20.5077 14.5996C19.2702 13.9434 17.8452 13.8074 16.5046 14.2152C15.5437 14.5106 14.7046 15.059 14.0624 15.8043L11.0249 13.8402C11.1421 13.409 11.2031 12.9543 11.2031 12.4902C11.2031 12.0215 11.1421 11.5715 11.0249 11.1402L14.0671 9.17618C15.0327 10.2918 16.4577 10.9996 18.0421 10.9996C20.939 10.9996 23.2968 8.64181 23.2968 5.74493C23.2968 2.84806 20.9437 0.494934 18.0468 0.494934C15.1499 0.494934 12.7921 2.84806 12.7921 5.74493C12.7921 6.21368 12.8531 6.66368 12.9702 7.09493L9.92805 9.059C8.96243 7.94337 7.53743 7.23556 5.95305 7.23556C3.05618 7.23556 0.698364 9.59337 0.698364 12.4902C0.698364 15.3871 3.05618 17.7449 5.95305 17.7449C7.54211 17.7449 8.96712 17.0371 9.92805 15.9215L12.9702 17.8856C12.3562 20.1965 13.3874 22.709 15.5859 23.8762C16.3452 24.2793 17.1937 24.4902 18.0468 24.4902H18.1921C18.839 24.4715 19.3499 23.9324 19.3312 23.2856C19.3124 22.6387 18.7734 22.1277 18.1265 22.1465C17.6249 22.1606 17.1281 22.0434 16.6827 21.809C15.2671 21.0543 14.7234 19.2918 15.4781 17.8715C15.8437 17.1871 16.4531 16.6809 17.1937 16.4559C17.939 16.2262 18.7265 16.3012 19.4109 16.6668C20.0952 17.0324 20.6015 17.6418 20.8265 18.3824C21.0562 19.1277 20.9812 19.9152 20.6156 20.5996C20.3109 21.1715 20.5312 21.8793 21.1031 22.184C21.6749 22.4887 22.3827 22.2684 22.6874 21.6965C23.3437 20.4637 23.4796 19.0434 23.0671 17.7027ZM18.0468 2.83868C19.6499 2.83868 20.9577 4.1465 20.9577 5.74962C20.9577 7.35275 19.6499 8.66056 18.0468 8.66056C16.4437 8.66056 15.1359 7.35275 15.1359 5.74962C15.1359 4.1465 16.439 2.83868 18.0468 2.83868ZM5.95305 15.4012C4.34993 15.4012 3.04211 14.0934 3.04211 12.4902C3.04211 10.8871 4.34524 9.584 5.95305 9.584C7.56086 9.584 8.86399 10.8918 8.86399 12.4949C8.86399 14.0981 7.55618 15.4012 5.95305 15.4012Z" fill="#1769E9"/>
</svg>
