<svg width="53" height="52" viewBox="0 0 53 52" fill="none" xmlns="http://www.w3.org/2000/svg">
<circle opacity="0.5" cx="26.5" cy="26" r="25.5" fill="#E8F0FD" stroke="#D3E4FF"/>
<g clip-path="url(#clip0_0_170)">
<path d="M39.5628 20.488L30.6815 19.6643L27.1536 11.4722C26.9066 10.8986 26.0933 10.8986 25.8464 11.4722L22.3185 19.6642L13.4372 20.488C12.8153 20.5456 12.5641 21.3191 13.0332 21.7313L19.7341 27.618L17.7731 36.3191C17.6358 36.9284 18.2938 37.4064 18.8307 37.0876L26.5 32.5337L34.1693 37.0876C34.7063 37.4065 35.3642 36.9284 35.2269 36.3191L33.2658 27.618L39.9668 21.7313C40.436 21.3191 40.1846 20.5456 39.5628 20.488Z" fill="#FFDC64"/>
<path d="M17.4208 11.1902C17.8736 11.8191 19.1515 14.5198 19.8821 16.0938C19.997 16.3412 19.6865 16.5647 19.4883 16.3773C18.2274 15.1851 16.0716 13.1164 15.6188 12.4875C15.2605 11.9899 15.3735 11.2961 15.8711 10.9379C16.3687 10.5796 17.0625 10.6926 17.4208 11.1902ZM35.5792 11.1902C35.1264 11.8191 33.8485 14.5198 33.1179 16.0938C33.003 16.3412 33.3135 16.5647 33.5117 16.3773C34.7726 15.1851 36.9284 13.1164 37.3812 12.4875C37.7395 11.9899 37.6265 11.2961 37.1289 10.9379C36.6313 10.5796 35.9375 10.6926 35.5792 11.1902ZM42.7337 29.6316C41.997 29.3914 39.0356 28.9944 37.3142 28.7766C37.0436 28.7424 36.925 29.1061 37.1637 29.238C38.6826 30.077 41.3085 31.5023 42.0452 31.7426C42.6282 31.9327 43.2548 31.6143 43.445 31.0313C43.6351 30.4483 43.3167 29.8217 42.7337 29.6316ZM10.2663 29.6316C11.003 29.3914 13.9644 28.9944 15.6858 28.7766C15.9564 28.7424 16.075 29.1061 15.8363 29.238C14.3174 30.077 11.6915 31.5023 10.9548 31.7426C10.3718 31.9327 9.74517 31.6143 9.55505 31.0313C9.36493 30.4483 9.68335 29.8217 10.2663 29.6316ZM25.4238 42.1612C25.4238 41.3863 25.9647 38.4478 26.2914 36.7437C26.3428 36.4758 26.7253 36.4758 26.7766 36.7437C27.1034 38.4478 27.6442 41.3863 27.6442 42.1612C27.6442 42.7743 27.1472 43.2714 26.5341 43.2714C25.9209 43.2715 25.4238 42.7743 25.4238 42.1612Z" fill="#FFF082"/>
<path d="M28.4365 14.4512L27.1536 11.4722C26.9065 10.8986 26.0933 10.8986 25.8463 11.4722L22.3184 19.6642L13.4372 20.488C12.8153 20.5456 12.5641 21.3191 13.0332 21.7313L19.7341 27.618L17.7731 36.3191C17.6358 36.9284 18.2938 37.4064 18.8307 37.0876L19.8515 36.4815C21.5248 25.6493 26.2292 17.6977 28.4365 14.4512Z" fill="#FFC850"/>
</g>
<defs>
<clipPath id="clip0_0_170">
<rect width="34" height="34" fill="white" transform="translate(9.5 10)"/>
</clipPath>
</defs>
</svg>
