<svg width="25" height="25" viewBox="0 0 25 25" fill="none" xmlns="http://www.w3.org/2000/svg">
<g clip-path="url(#clip0_0_215)">
<path d="M0.662603 12.7056H0.663095L2.30302 12.7043C2.46611 12.7042 2.62246 12.6393 2.7377 12.5239C2.85293 12.4085 2.91761 12.252 2.9175 12.089C2.91602 10.0472 3.57314 8.10861 4.81776 6.48279C6.57568 4.18632 9.24966 2.86921 12.1539 2.86921C14.1945 2.86921 16.1295 3.52486 17.7498 4.76521C18.2795 5.16987 18.764 5.63046 19.195 6.13898L16.1667 5.60436C16.0872 5.59032 16.0056 5.59208 15.9268 5.60954C15.8479 5.627 15.7733 5.65982 15.7071 5.70613C15.641 5.75244 15.5846 5.81133 15.5412 5.87944C15.4978 5.94754 15.4682 6.02353 15.4542 6.10306L15.169 7.71798C15.1407 7.87859 15.1773 8.04388 15.2709 8.17749C15.3644 8.3111 15.5071 8.40209 15.6678 8.43044L22.935 9.71344C23.0956 9.74177 23.2609 9.70517 23.3946 9.61168C23.4607 9.56537 23.5171 9.50648 23.5605 9.43837C23.6039 9.37026 23.6335 9.29427 23.6475 9.21474L24.9305 1.94741C24.9589 1.7868 24.9223 1.62151 24.8287 1.4879C24.7352 1.35429 24.5924 1.2633 24.4318 1.23495L22.8169 0.949845C22.7374 0.935735 22.6559 0.937446 22.577 0.954881C22.4981 0.972317 22.4235 1.00513 22.3573 1.05145C22.2911 1.09777 22.2347 1.15669 22.1913 1.22483C22.1479 1.29296 22.1184 1.36899 22.1045 1.44855L21.5645 4.50701C20.9574 3.75345 20.2623 3.07513 19.4943 2.48645C17.3693 0.859813 14.8318 0 12.1559 0C8.34942 0 4.84417 1.72709 2.53892 4.73832C0.907198 6.86981 0.0457453 9.41235 0.0475492 12.0911C0.0477231 12.2541 0.112597 12.4104 0.227921 12.5256C0.343245 12.6408 0.499587 12.7055 0.662603 12.7056ZM24.772 12.4742C24.6566 12.359 24.5003 12.2944 24.3374 12.2944H24.3369L22.697 12.2956C22.5339 12.2957 22.3775 12.3606 22.2623 12.476C22.147 12.5914 22.0824 12.7479 22.0825 12.911C22.084 14.9527 21.4268 16.8913 20.1822 18.5171C18.4242 20.8136 15.7502 22.1307 12.846 22.1307C10.8055 22.1307 8.87051 21.4751 7.25018 20.2347C6.72049 19.83 6.23596 19.3695 5.805 18.8609L8.83328 19.3956C8.99389 19.4239 9.15918 19.3873 9.29279 19.2938C9.4264 19.2002 9.51739 19.0575 9.54575 18.8969L9.83077 17.2819C9.85911 17.1213 9.82249 16.956 9.72896 16.8224C9.63544 16.6888 9.49267 16.5978 9.33207 16.5695L2.06482 15.2865C1.90421 15.2581 1.73892 15.2948 1.60531 15.3883C1.4717 15.4818 1.38071 15.6246 1.35236 15.7852L0.0694422 23.0525C0.0411033 23.2131 0.0777229 23.3784 0.171246 23.512C0.264769 23.6456 0.407536 23.7366 0.568143 23.765L2.18306 24.0501C2.34367 24.0783 2.50894 24.0417 2.64254 23.9482C2.77615 23.8547 2.86717 23.712 2.89561 23.5514L3.43555 20.4929C4.04271 21.2465 4.73772 21.9248 5.50579 22.5135C7.63056 24.1401 10.1681 24.9999 12.8441 24.9999C16.6506 24.9999 20.1558 23.2728 22.461 20.2616C24.0927 18.1301 24.9542 15.5876 24.9524 12.9088C24.9522 12.7458 24.8873 12.5894 24.772 12.4742Z" fill="#9E9E9E"/>
</g>
<defs>
<clipPath id="clip0_0_215">
<rect width="25" height="25" fill="white"/>
</clipPath>
</defs>
</svg>
