<svg width="38" height="34" viewBox="0 0 38 34" fill="none" xmlns="http://www.w3.org/2000/svg">
<path d="M35.5359 33.6695H2.46406C1.10586 33.6695 0 32.571 0 31.2054V10.3203C0 8.95464 1.10586 7.8562 2.46406 7.8562H35.5285C36.8941 7.8562 37.9926 8.96206 37.9926 10.3203V31.2054C38 32.571 36.8941 33.6695 35.5359 33.6695Z" fill="url(#paint0_linear_882_8303)"/>
<path d="M38 22.9523V25.9656C36.2188 25.6241 34.482 25.4757 32.7602 25.6464C29.6504 25.9581 26.7633 27.4128 23.6684 30.2257C23.1711 30.6784 22.6664 31.146 22.184 31.5988C21.4418 32.289 20.6996 32.9866 19.9203 33.6695H15.1109C16.8922 32.482 18.4879 30.9902 20.1578 29.4316C20.6551 28.9714 21.1598 28.489 21.6719 28.0288C25.2641 24.7706 28.693 23.071 32.4633 22.6925C34.3262 22.507 36.2113 22.648 38 22.9523ZM19.8238 7.85618C19.5715 15.4784 13.2926 21.5941 5.61094 21.5941C3.62188 21.5941 1.72188 21.1859 0 20.4363V17.1187C1.65508 18.0761 3.56992 18.6179 5.61094 18.6179C11.6523 18.6179 16.5953 13.8308 16.8477 7.84875H19.8238V7.85618Z" fill="url(#paint1_linear_882_8303)"/>
<path d="M38 30.0922V31.2054C38 32.5711 36.8941 33.6695 35.5359 33.6695H2.46406C1.10586 33.6695 0 32.5711 0 31.2054V30.0922H38Z" fill="url(#paint2_linear_882_8303)"/>
<path d="M35.2168 33.6695H35.5359C36.9016 33.6695 38 32.5636 38 31.2054V10.3203C38 8.95464 36.8941 7.8562 35.5359 7.8562H35.2168V33.6695Z" fill="url(#paint3_linear_882_8303)"/>
<path d="M38 11.4261V10.3128C38 8.94719 36.8941 7.84875 35.5359 7.84875H2.46406C1.10586 7.85618 0 8.95461 0 10.3202V11.4335H38V11.4261Z" fill="url(#paint4_linear_882_8303)"/>
<path d="M2.7832 7.8562H2.46406C1.10586 7.8562 0 8.95464 0 10.3203V31.2054C0 32.571 1.10586 33.6695 2.46406 33.6695H2.7832V7.8562Z" fill="url(#paint5_linear_882_8303)"/>
<path d="M7.95627 20.4214H4.31956C3.76292 20.4214 3.31018 19.9687 3.31018 19.4121V16.9925C3.31018 16.4359 3.76292 15.9832 4.31956 15.9832H7.95627C8.51292 15.9832 8.96565 16.4359 8.96565 16.9925V19.4121C8.95823 19.9687 8.51292 20.4214 7.95627 20.4214Z" fill="url(#paint6_linear_882_8303)"/>
<path d="M7.9562 20.362H4.30464C3.78511 20.362 3.36206 19.939 3.36206 19.4195V16.9925C3.36206 16.473 3.78511 16.0499 4.30464 16.0499H7.9562C8.47573 16.0499 8.89878 16.473 8.89878 16.9925V19.4195C8.89878 19.939 8.47573 20.362 7.9562 20.362Z" fill="url(#paint7_linear_882_8303)"/>
<path d="M8.89878 18.2765V18.1281H6.96909V17.4749L7.46636 16.9777H8.89878C8.89878 16.9257 8.89136 16.8738 8.88393 16.8292H7.42925C7.40698 16.8292 7.39214 16.8366 7.3773 16.8515L6.85776 17.371H6.20464V16.0499H6.0562V17.371H5.4105L4.89097 16.8515C4.87612 16.8366 4.85386 16.8292 4.83901 16.8292H3.3769C3.36948 16.8738 3.36206 16.9257 3.36206 16.9777H4.80933L5.29917 17.4675V18.1281H3.36206V18.2765H5.29917V18.937L4.80933 19.4269H3.36206C3.36206 19.4788 3.36948 19.5308 3.3769 19.5753H4.83901C4.86128 19.5753 4.87612 19.5679 4.89097 19.5531L5.4105 19.0335H6.0562V20.3546H6.20464V19.0335H6.85776L7.3773 19.5531C7.39214 19.5679 7.40698 19.5753 7.42925 19.5753H8.88393C8.89136 19.5308 8.89878 19.4788 8.89878 19.4269H7.46636L6.96909 18.9296V18.2765H8.89878ZM6.82065 18.8925H5.44761V17.5195H6.82065V18.8925Z" fill="url(#paint8_linear_882_8303)"/>
<path d="M7.94885 16.0499H7.95627C8.47581 16.0499 8.89885 16.473 8.89885 16.9925V19.4195C8.89885 19.939 8.47581 20.362 7.95627 20.362H7.94885V16.0499Z" fill="url(#paint9_linear_882_8303)"/>
<path d="M8.89878 19.464C8.87651 19.9613 8.46089 20.362 7.9562 20.362H4.30464C3.79995 20.362 3.38433 19.9613 3.36206 19.464H8.89878Z" fill="url(#paint10_linear_882_8303)"/>
<path d="M4.31948 16.0499H4.30464C3.78511 16.0499 3.36206 16.473 3.36206 16.9925V19.4195C3.36206 19.939 3.78511 20.362 4.30464 20.362H4.31206V16.0499H4.31948Z" fill="url(#paint11_linear_882_8303)"/>
<path d="M8.89878 16.948C8.87651 16.4507 8.46089 16.0499 7.9562 16.0499H4.30464C3.79995 16.0499 3.38433 16.4507 3.36206 16.948H8.89878Z" fill="url(#paint12_linear_882_8303)"/>
<path d="M34.0218 20.3101C33.9847 20.3101 33.955 20.3027 33.9253 20.2879C33.814 20.2359 33.7695 20.1023 33.8289 19.991C34.4003 18.8554 34.4003 17.5566 33.8289 16.4211C33.7769 16.3097 33.8214 16.1761 33.9253 16.1242C34.0367 16.0722 34.1703 16.1168 34.2222 16.2207C34.8605 17.4824 34.8605 18.9297 34.2222 20.1914C34.1777 20.2656 34.1035 20.3101 34.0218 20.3101ZM33.2574 19.8871C33.8585 18.8183 33.8585 17.5863 33.2574 16.5175C33.198 16.4136 33.0644 16.3691 32.9531 16.4359C32.8492 16.4953 32.8046 16.6289 32.8714 16.7402C33.3984 17.6754 33.3984 18.7441 32.8714 19.6718C32.8121 19.7757 32.8492 19.9168 32.9531 19.9761C32.9902 19.9984 33.0273 20.0058 33.0644 20.0058C33.1386 20.0058 33.2128 19.9613 33.2574 19.8871ZM32.3074 19.5902C32.8937 18.7367 32.8937 17.6754 32.3074 16.8144C32.2406 16.7105 32.0996 16.6882 31.9956 16.755C31.8917 16.8218 31.8695 16.9629 31.9363 17.0668C32.4113 17.7644 32.4113 18.6402 31.9363 19.3379C31.8695 19.4418 31.8917 19.5754 31.9956 19.6496C32.0328 19.6793 32.0773 19.6867 32.1218 19.6867C32.196 19.6867 32.2628 19.657 32.3074 19.5902ZM31.3054 19.3007C31.632 19.0039 31.8101 18.6105 31.8101 18.2023C31.8101 17.7941 31.632 17.4007 31.3054 17.1039C31.2164 17.0222 31.0753 17.0222 30.9937 17.1187C30.9121 17.2078 30.9121 17.3488 31.0085 17.4304C31.2386 17.6457 31.3648 17.9203 31.3648 18.2023C31.3648 18.4843 31.2386 18.7589 31.0085 18.9742C30.9195 19.0558 30.9121 19.1968 30.9937 19.2859C31.0382 19.3304 31.0976 19.3601 31.157 19.3601C31.2089 19.3601 31.2609 19.3379 31.3054 19.3007Z" fill="url(#paint13_linear_882_8303)"/>
<path d="M18.7773 29.9288H3.58472C3.45854 29.9288 3.36206 29.8323 3.36206 29.7062C3.36206 29.58 3.45854 29.4835 3.58472 29.4835H18.7773C18.9035 29.4835 19 29.58 19 29.7062C19 29.8323 18.9035 29.9288 18.7773 29.9288Z" fill="url(#paint14_linear_882_8303)"/>
<path d="M34.4746 29.9288H31.6097C31.4836 29.9288 31.3871 29.8323 31.3871 29.7062C31.3871 29.58 31.4836 29.4835 31.6097 29.4835H34.4746C34.6008 29.4835 34.6972 29.58 34.6972 29.7062C34.6972 29.8323 34.5933 29.9288 34.4746 29.9288ZM30.3926 29.7062C30.3926 29.58 30.2961 29.4835 30.1699 29.4835H27.3051C27.1789 29.4835 27.0824 29.58 27.0824 29.7062C27.0824 29.8323 27.1789 29.9288 27.3051 29.9288H30.1699C30.2961 29.9288 30.3926 29.8323 30.3926 29.7062Z" fill="url(#paint15_linear_882_8303)"/>
<path d="M3.58472 12.9105C3.45854 12.9105 3.36206 12.814 3.36206 12.6878V11.8195C3.36206 11.6933 3.45854 11.5968 3.58472 11.5968C3.71089 11.5968 3.80737 11.6933 3.80737 11.8195V12.6878C3.80737 12.814 3.71089 12.9105 3.58472 12.9105ZM5.01714 12.6878V11.8195C5.01714 11.6933 4.92065 11.5968 4.79448 11.5968C4.66831 11.5968 4.57183 11.6933 4.57183 11.8195V12.6878C4.57183 12.814 4.66831 12.9105 4.79448 12.9105C4.92065 12.9105 5.01714 12.814 5.01714 12.6878ZM6.23433 12.6878V11.8195C6.23433 11.6933 6.13784 11.5968 6.01167 11.5968C5.8855 11.5968 5.78901 11.6933 5.78901 11.8195V12.6878C5.78901 12.814 5.8855 12.9105 6.01167 12.9105C6.13042 12.9105 6.23433 12.814 6.23433 12.6878ZM7.44409 12.6878V11.8195C7.44409 11.6933 7.34761 11.5968 7.22144 11.5968C7.09526 11.5968 6.99878 11.6933 6.99878 11.8195V12.6878C6.99878 12.814 7.09526 12.9105 7.22144 12.9105C7.34761 12.9105 7.44409 12.814 7.44409 12.6878Z" fill="url(#paint16_linear_882_8303)"/>
<path d="M4.07456 26.1511H4.03745C3.66636 26.1511 3.36206 25.8468 3.36206 25.4758V24.4219C3.36206 24.0508 3.66636 23.7465 4.03745 23.7465H4.07456C4.44565 23.7465 4.74995 24.0508 4.74995 24.4219V25.4758C4.74995 25.8543 4.45308 26.1511 4.07456 26.1511ZM4.03745 24.1992C3.91128 24.1992 3.80737 24.3031 3.80737 24.4293V25.4832C3.80737 25.6094 3.91128 25.7133 4.03745 25.7133H4.07456C4.20073 25.7133 4.30464 25.6094 4.30464 25.4832V24.4293C4.30464 24.3031 4.20073 24.1992 4.07456 24.1992H4.03745Z" fill="url(#paint17_linear_882_8303)"/>
<path d="M5.87815 26.1511H5.84104C5.46995 26.1511 5.16565 25.8468 5.16565 25.4758V24.4219C5.16565 24.0508 5.46995 23.7465 5.84104 23.7465H5.87815C6.24924 23.7465 6.55354 24.0508 6.55354 24.4219V25.4758C6.55354 25.8543 6.24924 26.1511 5.87815 26.1511ZM5.84104 24.1992C5.71487 24.1992 5.61096 24.3031 5.61096 24.4293V25.4832C5.61096 25.6094 5.71487 25.7133 5.84104 25.7133H5.87815C6.00432 25.7133 6.10823 25.6094 6.10823 25.4832V24.4293C6.10823 24.3031 6.00432 24.1992 5.87815 24.1992H5.84104Z" fill="url(#paint18_linear_882_8303)"/>
<path d="M7.68162 26.1511H7.64451C7.27341 26.1511 6.96912 25.8468 6.96912 25.4758V24.4219C6.96912 24.0508 7.27341 23.7465 7.64451 23.7465H7.68162C8.05271 23.7465 8.35701 24.0508 8.35701 24.4219V25.4758C8.35701 25.8543 8.05271 26.1511 7.68162 26.1511ZM7.64451 24.1992C7.51833 24.1992 7.41443 24.3031 7.41443 24.4293V25.4832C7.41443 25.6094 7.51833 25.7133 7.64451 25.7133H7.68162C7.80779 25.7133 7.91169 25.6094 7.91169 25.4832V24.4293C7.91169 24.3031 7.80779 24.1992 7.68162 24.1992H7.64451Z" fill="url(#paint19_linear_882_8303)"/>
<path d="M9.48521 26.1511H9.4481C9.077 26.1511 8.77271 25.8468 8.77271 25.4758V24.4219C8.77271 24.0508 9.077 23.7465 9.4481 23.7465H9.48521C9.8563 23.7465 10.1606 24.0508 10.1606 24.4219V25.4758C10.1606 25.8543 9.8563 26.1511 9.48521 26.1511ZM9.4481 24.1992C9.32192 24.1992 9.21802 24.3031 9.21802 24.4293V25.4832C9.21802 25.6094 9.32192 25.7133 9.4481 25.7133H9.48521C9.61138 25.7133 9.71528 25.6094 9.71528 25.4832V24.4293C9.71528 24.3031 9.61138 24.1992 9.48521 24.1992H9.4481Z" fill="url(#paint20_linear_882_8303)"/>
<path d="M12.2535 26.1511H12.2164C11.8453 26.1511 11.541 25.8468 11.541 25.4758V24.4219C11.541 24.0508 11.8453 23.7465 12.2164 23.7465H12.2535C12.6246 23.7465 12.9289 24.0508 12.9289 24.4219V25.4758C12.9289 25.8543 12.6246 26.1511 12.2535 26.1511ZM12.2164 24.1992C12.0902 24.1992 11.9863 24.3031 11.9863 24.4293V25.4832C11.9863 25.6094 12.0902 25.7133 12.2164 25.7133H12.2535C12.3797 25.7133 12.4836 25.6094 12.4836 25.4832V24.4293C12.4836 24.3031 12.3797 24.1992 12.2535 24.1992H12.2164Z" fill="url(#paint21_linear_882_8303)"/>
<path d="M14.057 26.1511H14.0199C13.6488 26.1511 13.3445 25.8468 13.3445 25.4758V24.4219C13.3445 24.0508 13.6488 23.7465 14.0199 23.7465H14.057C14.4281 23.7465 14.7324 24.0508 14.7324 24.4219V25.4758C14.7324 25.8543 14.4281 26.1511 14.057 26.1511ZM14.0199 24.1992C13.8937 24.1992 13.7898 24.3031 13.7898 24.4293V25.4832C13.7898 25.6094 13.8937 25.7133 14.0199 25.7133H14.057C14.1832 25.7133 14.2871 25.6094 14.2871 25.4832V24.4293C14.2871 24.3031 14.1832 24.1992 14.057 24.1992H14.0199Z" fill="url(#paint22_linear_882_8303)"/>
<path d="M15.8606 26.1511H15.8235C15.4524 26.1511 15.1481 25.8468 15.1481 25.4758V24.4219C15.1481 24.0508 15.4524 23.7465 15.8235 23.7465H15.8606C16.2317 23.7465 16.536 24.0508 16.536 24.4219V25.4758C16.536 25.8543 16.2317 26.1511 15.8606 26.1511ZM15.8235 24.1992C15.6973 24.1992 15.5934 24.3031 15.5934 24.4293V25.4832C15.5934 25.6094 15.6973 25.7133 15.8235 25.7133H15.8606C15.9867 25.7133 16.0906 25.6094 16.0906 25.4832V24.4293C16.0906 24.3031 15.9867 24.1992 15.8606 24.1992H15.8235Z" fill="url(#paint23_linear_882_8303)"/>
<path d="M17.664 26.1511H17.6269C17.2558 26.1511 16.9515 25.8468 16.9515 25.4758V24.4219C16.9515 24.0508 17.2558 23.7465 17.6269 23.7465H17.664C18.0351 23.7465 18.3394 24.0508 18.3394 24.4219V25.4758C18.3394 25.8543 18.0351 26.1511 17.664 26.1511ZM17.6269 24.1992C17.5008 24.1992 17.3969 24.3031 17.3969 24.4293V25.4832C17.3969 25.6094 17.5008 25.7133 17.6269 25.7133H17.664C17.7902 25.7133 17.8941 25.6094 17.8941 25.4832V24.4293C17.8941 24.3031 17.7902 24.1992 17.664 24.1992H17.6269Z" fill="url(#paint24_linear_882_8303)"/>
<path d="M20.4325 26.1511H20.3954C20.0243 26.1511 19.72 25.8468 19.72 25.4758V24.4219C19.72 24.0508 20.0243 23.7465 20.3954 23.7465H20.4325C20.8036 23.7465 21.1079 24.0508 21.1079 24.4219V25.4758C21.1079 25.8543 20.8036 26.1511 20.4325 26.1511ZM20.3954 24.1992C20.2692 24.1992 20.1653 24.3031 20.1653 24.4293V25.4832C20.1653 25.6094 20.2692 25.7133 20.3954 25.7133H20.4325C20.5586 25.7133 20.6625 25.6094 20.6625 25.4832V24.4293C20.6625 24.3031 20.5586 24.1992 20.4325 24.1992H20.3954Z" fill="url(#paint25_linear_882_8303)"/>
<path d="M22.2359 26.1511H22.1988C21.8277 26.1511 21.5234 25.8468 21.5234 25.4758V24.4219C21.5234 24.0508 21.8277 23.7465 22.1988 23.7465H22.2359C22.607 23.7465 22.9113 24.0508 22.9113 24.4219V25.4758C22.9113 25.8543 22.607 26.1511 22.2359 26.1511ZM22.1988 24.1992C22.0727 24.1992 21.9688 24.3031 21.9688 24.4293V25.4832C21.9688 25.6094 22.0727 25.7133 22.1988 25.7133H22.2359C22.3621 25.7133 22.466 25.6094 22.466 25.4832V24.4293C22.466 24.3031 22.3621 24.1992 22.2359 24.1992H22.1988Z" fill="url(#paint26_linear_882_8303)"/>
<path d="M24.0394 26.1511H24.0023C23.6312 26.1511 23.3269 25.8468 23.3269 25.4758V24.4219C23.3269 24.0508 23.6312 23.7465 24.0023 23.7465H24.0394C24.4105 23.7465 24.7148 24.0508 24.7148 24.4219V25.4758C24.7148 25.8543 24.4105 26.1511 24.0394 26.1511ZM24.0023 24.1992C23.8761 24.1992 23.7722 24.3031 23.7722 24.4293V25.4832C23.7722 25.6094 23.8761 25.7133 24.0023 25.7133H24.0394C24.1656 25.7133 24.2695 25.6094 24.2695 25.4832V24.4293C24.2695 24.3031 24.1656 24.1992 24.0394 24.1992H24.0023Z" fill="url(#paint27_linear_882_8303)"/>
<path d="M25.843 26.1511H25.8059C25.4348 26.1511 25.1305 25.8468 25.1305 25.4758V24.4219C25.1305 24.0508 25.4348 23.7465 25.8059 23.7465H25.843C26.2141 23.7465 26.5184 24.0508 26.5184 24.4219V25.4758C26.5184 25.8543 26.2141 26.1511 25.843 26.1511ZM25.8059 24.1992C25.6797 24.1992 25.5758 24.3031 25.5758 24.4293V25.4832C25.5758 25.6094 25.6797 25.7133 25.8059 25.7133H25.843C25.9692 25.7133 26.0731 25.6094 26.0731 25.4832V24.4293C26.0731 24.3031 25.9692 24.1992 25.843 24.1992H25.8059Z" fill="url(#paint28_linear_882_8303)"/>
<path d="M28.6113 26.1511H28.5742C28.2031 26.1511 27.8988 25.8468 27.8988 25.4758V24.4219C27.8988 24.0508 28.2031 23.7465 28.5742 23.7465H28.6113C28.9824 23.7465 29.2867 24.0508 29.2867 24.4219V25.4758C29.2867 25.8543 28.9824 26.1511 28.6113 26.1511ZM28.5742 24.1992C28.448 24.1992 28.3441 24.3031 28.3441 24.4293V25.4832C28.3441 25.6094 28.448 25.7133 28.5742 25.7133H28.6113C28.7375 25.7133 28.8414 25.6094 28.8414 25.4832V24.4293C28.8414 24.3031 28.7375 24.1992 28.6113 24.1992H28.5742Z" fill="url(#paint29_linear_882_8303)"/>
<path d="M30.4149 26.1511H30.3778C30.0067 26.1511 29.7024 25.8468 29.7024 25.4758V24.4219C29.7024 24.0508 30.0067 23.7465 30.3778 23.7465H30.4149C30.786 23.7465 31.0903 24.0508 31.0903 24.4219V25.4758C31.0903 25.8543 30.786 26.1511 30.4149 26.1511ZM30.3778 24.1992C30.2516 24.1992 30.1477 24.3031 30.1477 24.4293V25.4832C30.1477 25.6094 30.2516 25.7133 30.3778 25.7133H30.4149C30.5411 25.7133 30.645 25.6094 30.645 25.4832V24.4293C30.645 24.3031 30.5411 24.1992 30.4149 24.1992H30.3778Z" fill="url(#paint30_linear_882_8303)"/>
<path d="M32.2184 26.1511H32.1813C31.8102 26.1511 31.5059 25.8468 31.5059 25.4758V24.4219C31.5059 24.0508 31.8102 23.7465 32.1813 23.7465H32.2184C32.5895 23.7465 32.8938 24.0508 32.8938 24.4219V25.4758C32.8938 25.8543 32.5895 26.1511 32.2184 26.1511ZM32.1813 24.1992C32.0551 24.1992 31.9512 24.3031 31.9512 24.4293V25.4832C31.9512 25.6094 32.0551 25.7133 32.1813 25.7133H32.2184C32.3445 25.7133 32.4484 25.6094 32.4484 25.4832V24.4293C32.4484 24.3031 32.3445 24.1992 32.2184 24.1992H32.1813Z" fill="url(#paint31_linear_882_8303)"/>
<path d="M34.0218 26.1511H33.9847C33.6136 26.1511 33.3093 25.8468 33.3093 25.4758V24.4219C33.3093 24.0508 33.6136 23.7465 33.9847 23.7465H34.0218C34.3929 23.7465 34.6972 24.0508 34.6972 24.4219V25.4758C34.6972 25.8543 34.3929 26.1511 34.0218 26.1511ZM33.9773 24.1992C33.8511 24.1992 33.7472 24.3031 33.7472 24.4293V25.4832C33.7472 25.6094 33.8511 25.7133 33.9773 25.7133H34.0144C34.1406 25.7133 34.2445 25.6094 34.2445 25.4832V24.4293C34.2445 24.3031 34.1406 24.1992 34.0144 24.1992H33.9773Z" fill="url(#paint32_linear_882_8303)"/>
<path d="M16.9515 9.95654H21.0484V33.6694H16.9515V9.95654Z" fill="url(#paint33_linear_882_8303)"/>
<path d="M16.9515 31.4503H21.0484V33.6769H16.9515V31.4503Z" fill="url(#paint34_linear_882_8303)"/>
<path d="M25.8801 7.8562H12.12C11.7563 8.21987 11.4668 8.6355 11.2961 9.14019C10.9918 10.0308 10.8731 11.0476 11.1848 11.9531C11.3407 12.391 11.6004 12.7992 11.9641 13.0515C12.0754 13.2074 27.8321 28.9714 32.5672 33.6695H35.5285C36.8942 33.6695 37.9926 32.5636 37.9926 31.2054V19.9761L25.8801 7.8562Z" fill="url(#paint35_linear_882_8303)"/>
<path d="M19.668 8.7617C19.3934 9.68943 18.4211 10.3871 17.6493 10.8992C16.8032 11.4633 15.8754 11.8863 14.9848 12.3687C14.3169 12.7324 13.634 13.289 12.8473 13.3113C12.0161 13.3336 11.4446 12.6879 11.1922 11.9531C10.8805 11.0476 10.9993 10.0308 11.3036 9.14021C11.593 8.30154 12.209 7.68553 12.929 7.19568C14.6731 6.00076 16.7364 5.73357 18.8219 5.85974C19.3786 5.89685 19.9426 5.95623 20.4993 6.03045C20.4919 6.02303 19.6754 8.7617 19.668 8.7617Z" fill="url(#paint36_linear_882_8303)"/>
<path d="M17.716 6.70581C17.716 5.74097 16.9886 4.79097 16.3949 4.07846C15.7492 3.29917 14.9773 2.6312 14.2648 1.91128C13.7304 1.3769 13.2332 0.642136 12.4836 0.397215C11.1254 -0.048098 10.7543 1.83706 10.5984 2.77221C10.4871 3.45503 10.4425 4.16753 10.5539 4.85776C10.7765 6.2605 11.7043 7.448 12.9511 8.11597C14.4132 8.90268 16.0906 9.31089 17.7234 9.56323C17.716 9.57065 17.716 6.71323 17.716 6.70581Z" fill="url(#paint37_linear_882_8303)"/>
<path d="M17.4637 7.49258C17.4637 7.49258 15.9867 3.56641 12.5875 3.56641C12.5949 3.56641 12.8992 6.09727 17.4637 7.49258Z" fill="url(#paint38_linear_882_8303)"/>
<path d="M17.4636 7.49256C17.4636 7.49256 14.5914 4.43475 11.4594 5.741C11.4594 5.741 12.7136 7.96014 17.4636 7.49256Z" fill="url(#paint39_linear_882_8303)"/>
<path d="M18.3247 8.7617C18.5993 9.68943 19.5715 10.3871 20.3434 10.8992C21.1895 11.4633 22.1172 11.8863 23.0079 12.3687C23.6758 12.7324 24.3586 13.289 25.1454 13.3113C25.9766 13.3336 26.5481 12.6879 26.8004 11.9531C27.1122 11.0476 26.9934 10.0308 26.6891 9.14021C26.3997 8.30154 25.7836 7.68553 25.0637 7.19568C23.3196 6.00076 21.2563 5.73357 19.1708 5.85974C18.6141 5.89685 18.05 5.95623 17.4934 6.03045C17.5083 6.02303 18.3247 8.7617 18.3247 8.7617Z" fill="url(#paint40_linear_882_8303)"/>
<path d="M20.2766 6.70581C20.2766 5.74096 21.004 4.79096 21.5977 4.07846C22.2508 3.29917 23.0153 2.62378 23.7352 1.91128C24.2696 1.3769 24.7668 0.642136 25.5165 0.397215C26.8747 -0.0480979 27.2458 1.83706 27.4016 2.77221C27.5129 3.45503 27.5575 4.16753 27.4461 4.85776C27.2235 6.2605 26.2958 7.448 25.0489 8.11596C23.5868 8.90268 21.9094 9.31089 20.2766 9.56323V6.70581Z" fill="url(#paint41_linear_882_8303)"/>
<path d="M19 11.0105C20.529 11.0105 21.7684 9.77104 21.7684 8.24211C21.7684 6.71319 20.529 5.47375 19 5.47375C17.4711 5.47375 16.2317 6.71319 16.2317 8.24211C16.2317 9.77104 17.4711 11.0105 19 11.0105Z" fill="url(#paint42_linear_882_8303)"/>
<path d="M19 10.2386C20.1027 10.2386 20.9965 9.34472 20.9965 8.24209C20.9965 7.13946 20.1027 6.24561 19 6.24561C17.8974 6.24561 17.0035 7.13946 17.0035 8.24209C17.0035 9.34472 17.8974 10.2386 19 10.2386Z" fill="url(#paint43_linear_882_8303)"/>
<path d="M20.5289 7.49258C20.5289 7.49258 22.0059 3.56641 25.4051 3.56641C25.4051 3.56641 25.1008 6.09727 20.5289 7.49258Z" fill="url(#paint44_linear_882_8303)"/>
<path d="M20.5289 7.49256C20.5289 7.49256 23.4012 4.43475 26.5332 5.741C26.5406 5.741 25.2864 7.96014 20.5289 7.49256Z" fill="url(#paint45_linear_882_8303)"/>
<defs>
<linearGradient id="paint0_linear_882_8303" x1="-0.13775" y1="8.6473" x2="37.4578" y2="32.4477" gradientUnits="userSpaceOnUse">
<stop stop-color="#7B7DA1"/>
<stop offset="0.31" stop-color="#6D6F93"/>
<stop offset="0.899" stop-color="#494C6D"/>
<stop offset="1" stop-color="#424566"/>
</linearGradient>
<linearGradient id="paint1_linear_882_8303" x1="0.11066" y1="9.68945" x2="36.5502" y2="32.9403" gradientUnits="userSpaceOnUse">
<stop stop-color="#8587AE"/>
<stop offset="0.31" stop-color="#7779A0"/>
<stop offset="0.899" stop-color="#51557A"/>
<stop offset="1" stop-color="#4A4E73"/>
</linearGradient>
<linearGradient id="paint2_linear_882_8303" x1="18.9999" y1="33.8477" x2="18.9999" y2="31.3966" gradientUnits="userSpaceOnUse">
<stop stop-color="#32365C"/>
<stop offset="1" stop-color="#32365C" stop-opacity="0"/>
</linearGradient>
<linearGradient id="paint3_linear_882_8303" x1="38.0347" y1="20.7626" x2="35.6718" y2="20.7626" gradientUnits="userSpaceOnUse">
<stop stop-color="#32365C"/>
<stop offset="1" stop-color="#32365C" stop-opacity="0"/>
</linearGradient>
<linearGradient id="paint4_linear_882_8303" x1="18.9999" y1="7.67746" x2="18.9999" y2="10.1286" gradientUnits="userSpaceOnUse">
<stop stop-color="#A1A4C7"/>
<stop offset="1" stop-color="#A1A4C7" stop-opacity="0"/>
</linearGradient>
<linearGradient id="paint5_linear_882_8303" x1="-0.0350312" y1="20.7626" x2="2.03471" y2="20.7626" gradientUnits="userSpaceOnUse">
<stop stop-color="#A1A4C7"/>
<stop offset="1" stop-color="#A1A4C7" stop-opacity="0"/>
</linearGradient>
<linearGradient id="paint6_linear_882_8303" x1="1.58356" y1="13.6551" x2="9.59258" y2="21.6642" gradientUnits="userSpaceOnUse">
<stop stop-color="#7B7DA1"/>
<stop offset="0.496" stop-color="#616386"/>
<stop offset="1" stop-color="#424566"/>
</linearGradient>
<linearGradient id="paint7_linear_882_8303" x1="3.6674" y1="16.3253" x2="8.6068" y2="20.0899" gradientUnits="userSpaceOnUse">
<stop stop-color="#FFED81"/>
<stop offset="0.235" stop-color="#FFD968"/>
<stop offset="0.73" stop-color="#FFA629"/>
<stop offset="1" stop-color="#FF8804"/>
</linearGradient>
<linearGradient id="paint8_linear_882_8303" x1="3.68001" y1="16.413" x2="8.62833" y2="20.0269" gradientUnits="userSpaceOnUse">
<stop stop-color="#EFA33D"/>
<stop offset="1" stop-color="#A05223"/>
</linearGradient>
<linearGradient id="paint9_linear_882_8303" x1="8.90175" y1="18.204" x2="8.26977" y2="18.204" gradientUnits="userSpaceOnUse">
<stop stop-color="#FF8804"/>
<stop offset="1" stop-color="#FF8804" stop-opacity="0"/>
</linearGradient>
<linearGradient id="paint10_linear_882_8303" x1="6.13235" y1="20.3526" x2="6.13235" y2="19.6694" gradientUnits="userSpaceOnUse">
<stop stop-color="#FF8804"/>
<stop offset="1" stop-color="#FF8804" stop-opacity="0"/>
</linearGradient>
<linearGradient id="paint11_linear_882_8303" x1="3.36288" y1="18.204" x2="3.90237" y2="18.204" gradientUnits="userSpaceOnUse">
<stop stop-color="#FFF0A9"/>
<stop offset="1" stop-color="#FFF0A9" stop-opacity="0"/>
</linearGradient>
<linearGradient id="paint12_linear_882_8303" x1="6.13235" y1="16.0553" x2="6.13235" y2="16.7386" gradientUnits="userSpaceOnUse">
<stop stop-color="#FFF0A9"/>
<stop offset="1" stop-color="#FFF0A9" stop-opacity="0"/>
</linearGradient>
<linearGradient id="paint13_linear_882_8303" x1="31.4746" y1="16.6152" x2="34.6584" y2="19.799" gradientUnits="userSpaceOnUse">
<stop stop-color="#E9EDFF"/>
<stop offset="1" stop-color="#C4CBFF"/>
</linearGradient>
<linearGradient id="paint14_linear_882_8303" x1="11.1813" y1="29.4511" x2="11.1813" y2="29.9155" gradientUnits="userSpaceOnUse">
<stop stop-color="#C4CBFF"/>
<stop offset="0.525" stop-color="#E9EDFF"/>
<stop offset="1" stop-color="#C4CBFF"/>
</linearGradient>
<linearGradient id="paint15_linear_882_8303" x1="30.8898" y1="29.4417" x2="30.8898" y2="29.942" gradientUnits="userSpaceOnUse">
<stop stop-color="#C4CBFF"/>
<stop offset="0.525" stop-color="#E9EDFF"/>
<stop offset="1" stop-color="#C4CBFF"/>
</linearGradient>
<linearGradient id="paint16_linear_882_8303" x1="3.24524" y1="11.6004" x2="7.49939" y2="12.889" gradientUnits="userSpaceOnUse">
<stop stop-color="#E9EDFF"/>
<stop offset="1" stop-color="#C4CBFF"/>
</linearGradient>
<linearGradient id="paint17_linear_882_8303" x1="3.36265" y1="24.9532" x2="4.75225" y2="24.9532" gradientUnits="userSpaceOnUse">
<stop stop-color="#C4CBFF"/>
<stop offset="0.525" stop-color="#E9EDFF"/>
<stop offset="1" stop-color="#C4CBFF"/>
</linearGradient>
<linearGradient id="paint18_linear_882_8303" x1="5.16587" y1="24.9532" x2="6.55547" y2="24.9532" gradientUnits="userSpaceOnUse">
<stop stop-color="#C4CBFF"/>
<stop offset="0.525" stop-color="#E9EDFF"/>
<stop offset="1" stop-color="#C4CBFF"/>
</linearGradient>
<linearGradient id="paint19_linear_882_8303" x1="6.96889" y1="24.9532" x2="8.35849" y2="24.9532" gradientUnits="userSpaceOnUse">
<stop stop-color="#C4CBFF"/>
<stop offset="0.525" stop-color="#E9EDFF"/>
<stop offset="1" stop-color="#C4CBFF"/>
</linearGradient>
<linearGradient id="paint20_linear_882_8303" x1="8.77211" y1="24.9532" x2="10.1616" y2="24.9532" gradientUnits="userSpaceOnUse">
<stop stop-color="#C4CBFF"/>
<stop offset="0.525" stop-color="#E9EDFF"/>
<stop offset="1" stop-color="#C4CBFF"/>
</linearGradient>
<linearGradient id="paint21_linear_882_8303" x1="11.5407" y1="24.9532" x2="12.9303" y2="24.9532" gradientUnits="userSpaceOnUse">
<stop stop-color="#C4CBFF"/>
<stop offset="0.525" stop-color="#E9EDFF"/>
<stop offset="1" stop-color="#C4CBFF"/>
</linearGradient>
<linearGradient id="paint22_linear_882_8303" x1="13.3437" y1="24.9532" x2="14.7333" y2="24.9532" gradientUnits="userSpaceOnUse">
<stop stop-color="#C4CBFF"/>
<stop offset="0.525" stop-color="#E9EDFF"/>
<stop offset="1" stop-color="#C4CBFF"/>
</linearGradient>
<linearGradient id="paint23_linear_882_8303" x1="15.147" y1="24.9532" x2="16.5366" y2="24.9532" gradientUnits="userSpaceOnUse">
<stop stop-color="#C4CBFF"/>
<stop offset="0.525" stop-color="#E9EDFF"/>
<stop offset="1" stop-color="#C4CBFF"/>
</linearGradient>
<linearGradient id="paint24_linear_882_8303" x1="16.95" y1="24.9532" x2="18.3396" y2="24.9532" gradientUnits="userSpaceOnUse">
<stop stop-color="#C4CBFF"/>
<stop offset="0.525" stop-color="#E9EDFF"/>
<stop offset="1" stop-color="#C4CBFF"/>
</linearGradient>
<linearGradient id="paint25_linear_882_8303" x1="19.7188" y1="24.9532" x2="21.1083" y2="24.9532" gradientUnits="userSpaceOnUse">
<stop stop-color="#C4CBFF"/>
<stop offset="0.525" stop-color="#E9EDFF"/>
<stop offset="1" stop-color="#C4CBFF"/>
</linearGradient>
<linearGradient id="paint26_linear_882_8303" x1="21.5218" y1="24.9532" x2="22.9114" y2="24.9532" gradientUnits="userSpaceOnUse">
<stop stop-color="#C4CBFF"/>
<stop offset="0.525" stop-color="#E9EDFF"/>
<stop offset="1" stop-color="#C4CBFF"/>
</linearGradient>
<linearGradient id="paint27_linear_882_8303" x1="23.3249" y1="24.9532" x2="24.7144" y2="24.9532" gradientUnits="userSpaceOnUse">
<stop stop-color="#C4CBFF"/>
<stop offset="0.525" stop-color="#E9EDFF"/>
<stop offset="1" stop-color="#C4CBFF"/>
</linearGradient>
<linearGradient id="paint28_linear_882_8303" x1="25.128" y1="24.9532" x2="26.5176" y2="24.9532" gradientUnits="userSpaceOnUse">
<stop stop-color="#C4CBFF"/>
<stop offset="0.525" stop-color="#E9EDFF"/>
<stop offset="1" stop-color="#C4CBFF"/>
</linearGradient>
<linearGradient id="paint29_linear_882_8303" x1="27.8967" y1="24.9532" x2="29.2862" y2="24.9532" gradientUnits="userSpaceOnUse">
<stop stop-color="#C4CBFF"/>
<stop offset="0.525" stop-color="#E9EDFF"/>
<stop offset="1" stop-color="#C4CBFF"/>
</linearGradient>
<linearGradient id="paint30_linear_882_8303" x1="29.6999" y1="24.9532" x2="31.0895" y2="24.9532" gradientUnits="userSpaceOnUse">
<stop stop-color="#C4CBFF"/>
<stop offset="0.525" stop-color="#E9EDFF"/>
<stop offset="1" stop-color="#C4CBFF"/>
</linearGradient>
<linearGradient id="paint31_linear_882_8303" x1="31.5029" y1="24.9532" x2="32.8925" y2="24.9532" gradientUnits="userSpaceOnUse">
<stop stop-color="#C4CBFF"/>
<stop offset="0.525" stop-color="#E9EDFF"/>
<stop offset="1" stop-color="#C4CBFF"/>
</linearGradient>
<linearGradient id="paint32_linear_882_8303" x1="33.306" y1="24.9532" x2="34.6955" y2="24.9532" gradientUnits="userSpaceOnUse">
<stop stop-color="#C4CBFF"/>
<stop offset="0.525" stop-color="#E9EDFF"/>
<stop offset="1" stop-color="#C4CBFF"/>
</linearGradient>
<linearGradient id="paint33_linear_882_8303" x1="19.0024" y1="9.52689" x2="19.0024" y2="33.9504" gradientUnits="userSpaceOnUse">
<stop stop-color="#FF7044"/>
<stop offset="0.206" stop-color="#FE6A40"/>
<stop offset="0.485" stop-color="#FD5935"/>
<stop offset="0.803" stop-color="#FA3D22"/>
<stop offset="0.996" stop-color="#F82814"/>
</linearGradient>
<linearGradient id="paint34_linear_882_8303" x1="19.0024" y1="33.8377" x2="19.0024" y2="31.5655" gradientUnits="userSpaceOnUse">
<stop stop-color="#F27F00"/>
<stop offset="1" stop-color="#F27F00" stop-opacity="0"/>
</linearGradient>
<linearGradient id="paint35_linear_882_8303" x1="13.9744" y1="5.52039" x2="27.3781" y2="18.9241" gradientUnits="userSpaceOnUse">
<stop stop-color="#32365C"/>
<stop offset="1" stop-color="#32365C" stop-opacity="0"/>
</linearGradient>
<linearGradient id="paint36_linear_882_8303" x1="15.7477" y1="6.82147" x2="15.7477" y2="13.1976" gradientUnits="userSpaceOnUse">
<stop stop-color="#FF7044"/>
<stop offset="0.206" stop-color="#FE6A40"/>
<stop offset="0.485" stop-color="#FD5935"/>
<stop offset="0.803" stop-color="#FA3D22"/>
<stop offset="0.996" stop-color="#F82814"/>
</linearGradient>
<linearGradient id="paint37_linear_882_8303" x1="14.1035" y1="0.438777" x2="14.1035" y2="9.16015" gradientUnits="userSpaceOnUse">
<stop stop-color="#FF7044"/>
<stop offset="0.206" stop-color="#FE6A40"/>
<stop offset="0.485" stop-color="#FD5935"/>
<stop offset="0.803" stop-color="#FA3D22"/>
<stop offset="0.996" stop-color="#F82814"/>
</linearGradient>
<linearGradient id="paint38_linear_882_8303" x1="15.8217" y1="4.4429" x2="15.1596" y2="5.35654" gradientUnits="userSpaceOnUse">
<stop stop-color="#EF0B00"/>
<stop offset="0.816" stop-color="#EF0B00" stop-opacity="0"/>
</linearGradient>
<linearGradient id="paint39_linear_882_8303" x1="14.7391" y1="5.32269" x2="14.4788" y2="6.42065" gradientUnits="userSpaceOnUse">
<stop stop-color="#EF0B00"/>
<stop offset="0.816" stop-color="#EF0B00" stop-opacity="0"/>
</linearGradient>
<linearGradient id="paint40_linear_882_8303" x1="22.2522" y1="6.82147" x2="22.2522" y2="13.1976" gradientUnits="userSpaceOnUse">
<stop stop-color="#FF7044"/>
<stop offset="0.206" stop-color="#FE6A40"/>
<stop offset="0.485" stop-color="#FD5935"/>
<stop offset="0.803" stop-color="#FA3D22"/>
<stop offset="0.996" stop-color="#F82814"/>
</linearGradient>
<linearGradient id="paint41_linear_882_8303" x1="23.8964" y1="0.438777" x2="23.8964" y2="9.16015" gradientUnits="userSpaceOnUse">
<stop stop-color="#FF7044"/>
<stop offset="0.206" stop-color="#FE6A40"/>
<stop offset="0.485" stop-color="#FD5935"/>
<stop offset="0.803" stop-color="#FA3D22"/>
<stop offset="0.996" stop-color="#F82814"/>
</linearGradient>
<linearGradient id="paint42_linear_882_8303" x1="19" y1="6.21045" x2="19" y2="10.923" gradientUnits="userSpaceOnUse">
<stop stop-color="#FF7044"/>
<stop offset="0.206" stop-color="#FE6A40"/>
<stop offset="0.485" stop-color="#FD5935"/>
<stop offset="0.803" stop-color="#FA3D22"/>
<stop offset="0.996" stop-color="#F82814"/>
</linearGradient>
<linearGradient id="paint43_linear_882_8303" x1="16.0126" y1="5.25449" x2="18.6658" y2="7.90766" gradientUnits="userSpaceOnUse">
<stop stop-color="#FFB7A3"/>
<stop offset="1" stop-color="#FFB7A3" stop-opacity="0"/>
</linearGradient>
<linearGradient id="paint44_linear_882_8303" x1="22.1859" y1="4.44318" x2="22.848" y2="5.35682" gradientUnits="userSpaceOnUse">
<stop stop-color="#EF0B00"/>
<stop offset="0.816" stop-color="#EF0B00" stop-opacity="0"/>
</linearGradient>
<linearGradient id="paint45_linear_882_8303" x1="23.2461" y1="5.32406" x2="23.5064" y2="6.42195" gradientUnits="userSpaceOnUse">
<stop stop-color="#EF0B00"/>
<stop offset="0.816" stop-color="#EF0B00" stop-opacity="0"/>
</linearGradient>
</defs>
</svg>
