<svg width="34" height="34" viewBox="0 0 34 34" fill="none" xmlns="http://www.w3.org/2000/svg">
<path d="M32.9311 25.2C31.5141 27.1873 32.5265 25.7674 27.9259 32.2205C27.9259 32.2205 25.9106 35.6965 22.4851 32.926L1.17619 10.5344C1.17619 10.5344 -0.233963 7.96512 2.13337 6.5802C11.6705 2.7981 9.54885 3.63958 12.3601 2.52429C12.3601 2.52429 14.1229 1.89531 16.7925 5.11884C19.0473 7.84105 29.5784 19.4693 32.8034 23.0239C33.3523 23.629 33.4057 24.535 32.9311 25.2Z" fill="#52528C"/>
<path d="M31.8397 26.7307L27.9259 32.2205C27.9259 32.2205 25.9106 35.6965 22.4851 32.926L1.17619 10.5344C1.17619 10.5344 -0.233963 7.96511 2.13337 6.5802L10.2438 3.36389C12.997 8.90786 20.1387 21.1318 31.8397 26.7307Z" fill="#404077"/>
<path d="M31.3161 24.8661C30.4226 26.1193 26.6914 31.3531 26.6867 31.3615C26.2619 32.0633 25.2787 32.1556 24.7248 31.5505L4.12783 9.03917C3.54573 8.40225 3.78088 7.37872 4.5837 7.06062L5.64185 6.64154L6.26146 7.16881C6.51428 7.38394 6.82346 7.52211 7.15237 7.56698C7.48129 7.61185 7.81617 7.56154 8.11738 7.42199L10.8331 6.16403C11.574 5.82047 11.9819 5.00446 11.7968 4.19919L12.3464 3.98136C12.3464 3.98136 13.9715 3.40214 16.4319 6.37393C18.5129 8.88553 28.2433 19.6294 31.2007 22.889C31.4427 23.1559 31.5861 23.4975 31.6071 23.8572C31.6281 24.2169 31.5254 24.5729 31.3161 24.8661Z" fill="#BAEDFE"/>
<path d="M30.4794 26.0397C26.5868 31.5004 26.6919 31.3521 26.6867 31.3615C26.2619 32.0633 25.2787 32.1556 24.7248 31.5505L4.12783 9.03917C3.54573 8.40226 3.78088 7.37872 4.5837 7.06063L5.64185 6.64155L6.26146 7.16882C6.51428 7.38394 6.82346 7.52212 7.15237 7.56699C7.48129 7.61186 7.81617 7.56154 8.11738 7.422L10.8331 6.16404C11.082 6.04863 11.2919 5.88057 11.4549 5.67932C14.6654 11.5306 20.974 20.9278 30.4794 26.0397Z" fill="#9AE1FF"/>
<path d="M11.1309 30.0126C9.42533 33.5802 5.3612 35.1315 2.50626 33.0897C0.281025 31.4949 -0.406381 28.1444 1.01315 25.1748C2.43413 22.2044 5.47372 20.6356 8.11227 21.3677C11.5101 22.3126 12.8301 26.4602 11.1309 30.0126Z" fill="#EDD15A"/>
<path d="M9.60465 29.2826C8.1844 32.253 5.14408 33.8218 2.50626 33.0897C0.281025 31.4949 -0.406381 28.1444 1.01315 25.1748C2.43413 22.2044 5.47372 20.6356 8.11227 21.3677C10.3375 22.9619 11.0249 26.3131 9.60465 29.2826Z" fill="#FAE26B"/>
<path d="M7.64568 28.5747C8.71993 26.3265 8.30052 23.8875 6.70892 23.127C5.11732 22.3665 2.95622 23.5724 1.88198 25.8206C0.807736 28.0687 1.22714 30.5078 2.81874 31.2683C4.41035 32.0288 6.57144 30.8228 7.64568 28.5747Z" fill="#EDD15A"/>
<path d="M30.3682 20.1906C30.3704 20.4438 30.3192 20.6941 30.2175 20.9263C28.9942 23.707 26.5583 26.2229 24.6995 27.8653C23.6666 28.7776 22.0325 28.2328 21.7573 26.8858C19.7456 17.0774 14.6582 12.4625 12.0759 10.6939C11.2406 10.1219 11.0473 8.96345 11.6546 8.15342C13.8676 5.20219 16.8127 2.46425 19.778 0.336606C20.5368 -0.20726 21.587 -0.0803096 22.1901 0.632343C29.8222 9.64501 30.3495 18.29 30.3682 20.1906Z" fill="#79E9B3"/>
<path d="M30.3682 20.1906C30.3704 20.4438 30.3191 20.6941 30.2174 20.9263C28.9941 23.707 26.5582 26.2229 24.6994 27.8653C23.9211 28.5527 22.801 28.4135 22.1785 27.7247C24.7593 16.2826 21.3771 5.5632 19.374 0.6309C19.5154 0.52631 19.6503 0.428212 19.778 0.336606C20.5368 -0.20726 21.587 -0.0803096 22.19 0.632343C29.8222 9.64501 30.3494 18.29 30.3682 20.1906Z" fill="#14D2AA"/>
<path d="M28.1935 20.3861C27.2421 21.8345 26.0166 23.1163 25.0053 24.0525C24.4826 22.6095 22.5047 22.8119 22.4814 22.7881C20.8001 16.8322 17.0817 12.6681 14.8918 10.6268C16.0387 9.17049 15.2691 7.68387 14.7324 6.95174C16.1209 5.19103 17.6198 3.84219 18.8172 2.90881C19.9133 3.73832 21.224 3.83923 22.4836 2.99826C26.1998 7.932 28.0276 13.551 28.7849 16.455C28.1827 17.0955 27.3632 18.4177 28.1935 20.3861Z" fill="#B4FFC6"/>
<path d="M28.1935 20.3861C27.2421 21.8345 26.0166 23.1163 25.0053 24.0525C24.6706 23.1286 23.7351 22.8559 22.9481 22.7996C23.6377 15.1531 22.0148 8.19604 20.4618 3.57173C21.0511 3.62366 21.7392 3.49527 22.4836 2.99829C26.1998 7.93204 28.0276 13.551 28.785 16.455C28.1827 17.0955 27.3633 18.4177 28.1935 20.3861Z" fill="#79E9B3"/>
<path d="M31.9111 11.032C29.484 12.9683 25.6865 11.7942 24.0763 8.42667C22.5334 5.20026 23.8167 1.69601 26.564 0.803171C28.9516 0.0162245 31.7712 1.41268 33.0688 4.12624C34.2943 6.68904 33.754 9.57074 31.9111 11.032Z" fill="#EDD15A"/>
<path d="M31.9112 11.032C29.5236 11.8183 26.7055 10.4204 25.4079 7.70753C24.1831 5.14544 24.7226 2.26454 26.5641 0.803171C28.9516 0.0162246 31.7712 1.41268 33.0689 4.12624C34.2944 6.68904 33.7541 9.57074 31.9112 11.032Z" fill="#FAE26B"/>
<path d="M31.4623 9.55628C32.8769 8.88035 33.2497 6.71265 32.295 4.7146C31.3402 2.71654 29.4195 1.64474 28.0049 2.32067C26.5903 2.9966 26.2176 5.1643 27.1723 7.16236C28.127 9.16042 30.0478 10.2322 31.4623 9.55628Z" fill="#EDD15A"/>
</svg>
