<?xml version="1.0" standalone="no"?>
<!DOCTYPE svg PUBLIC "-//W3C//DTD SVG 20010904//EN"
 "http://www.w3.org/TR/2001/REC-SVG-20010904/DTD/svg10.dtd">
<svg version="1.0" xmlns="http://www.w3.org/2000/svg"
 width="200.000000pt" height="200.000000pt" viewBox="0 0 200.000000 200.000000"
 preserveAspectRatio="xMidYMid meet">

<g transform="translate(0.000000,200.000000) scale(0.100000,-0.100000)"
fill="#000000" stroke="none">
<path d="M551 1986 c-36 -20 -50 -54 -51 -122 l0 -62 -87 -4 c-141 -7 -227
-58 -280 -166 l-28 -57 0 -675 0 -675 28 -57 c32 -64 80 -111 146 -142 45 -21
56 -21 721 -21 665 0 676 0 721 21 66 31 114 78 146 142 l28 57 0 675 0 675
-28 57 c-53 108 -139 159 -279 166 l-88 4 0 60 c0 68 -18 109 -55 126 -34 16
-60 15 -94 -2 -36 -19 -51 -55 -51 -126 l0 -60 -300 0 -300 0 0 60 c0 71 -15
107 -51 126 -34 17 -67 17 -98 0z m1094 -398 c38 -17 55 -58 55 -128 l0 -60
-700 0 -700 0 0 63 c1 68 15 103 51 123 33 18 1254 20 1294 2z m55 -848 c0
-493 -1 -499 -51 -526 -41 -21 -1257 -21 -1298 0 -50 27 -51 33 -51 526 l0
460 700 0 700 0 0 -460z"/>
<path d="M500 900 l0 -100 100 0 100 0 0 100 0 100 -100 0 -100 0 0 -100z"/>
<path d="M900 900 l0 -100 100 0 100 0 0 100 0 100 -100 0 -100 0 0 -100z"/>
<path d="M1300 900 l0 -100 100 0 100 0 0 100 0 100 -100 0 -100 0 0 -100z"/>
<path d="M500 500 l0 -100 100 0 100 0 0 100 0 100 -100 0 -100 0 0 -100z"/>
<path d="M900 500 l0 -100 100 0 100 0 0 100 0 100 -100 0 -100 0 0 -100z"/>
<path d="M1300 500 l0 -100 100 0 100 0 0 100 0 100 -100 0 -100 0 0 -100z"/>
</g>
</svg>
