<svg width="30" height="34" viewBox="0 0 30 34" fill="none" xmlns="http://www.w3.org/2000/svg">
<path d="M6.76978 22.4098H0.996094C0.445918 22.4098 0 22.8557 0 23.4059V33.0039C0 33.5541 0.445918 34 0.996094 34H6.77012C7.31996 34 7.76621 33.5541 7.76621 33.0039V23.4059C7.76588 22.8557 7.31996 22.4098 6.76978 22.4098Z" fill="#FFD74A"/>
<path d="M17.4846 17.0449H11.7106C11.1604 17.0449 10.7145 17.4908 10.7145 18.041V33.0039C10.7145 33.5541 11.1604 34 11.7106 34H17.4846C18.0345 34 18.4807 33.5541 18.4807 33.0039V18.041C18.4807 17.4908 18.0345 17.0449 17.4846 17.0449Z" fill="#FDBF00"/>
<path d="M28.1987 8.94226H22.425C21.8749 8.94226 21.429 9.38818 21.429 9.93835V33.0039C21.429 33.5541 21.8749 34 22.425 34H28.1988C28.749 34 29.1949 33.5541 29.1949 33.0039V9.93835C29.1949 9.38818 28.7489 8.94226 28.1987 8.94226Z" fill="#FF7816"/>
<path d="M29.0052 1.24949C28.9351 1.12286 28.8383 1.01303 28.7214 0.92765C28.6045 0.842268 28.4704 0.783383 28.3285 0.755092L24.6354 0.0194434C24.0962 -0.0882011 23.5714 0.261959 23.464 0.80151C23.3563 1.34106 23.7065 1.8656 24.246 1.97325L25.2753 2.17818L16.5102 7.0694L12.3834 4.92985C12.2409 4.85598 12.0827 4.81766 11.9222 4.81816C11.7616 4.81866 11.6036 4.85796 11.4616 4.93271L0.597383 10.6452C0.110492 10.9016 -0.0765076 11.5035 0.179488 11.9904C0.357723 12.3295 0.703766 12.5233 1.06203 12.5233C1.2233 12.5233 1.38213 12.4839 1.52475 12.4086L11.9285 6.93791L16.0692 9.08469C16.2155 9.16053 16.3783 9.19892 16.543 9.19643C16.7078 9.19394 16.8693 9.15064 17.0132 9.07042L26.2385 3.92207L25.8836 4.85853C25.6886 5.37292 25.9474 5.94799 26.4618 6.1431C26.578 6.18719 26.6974 6.20791 26.8149 6.20791C27.2167 6.20791 27.5954 5.9628 27.7464 5.56463L29.0654 2.08528C29.1167 1.94995 29.1378 1.80508 29.1275 1.66075C29.1171 1.51641 29.0754 1.37607 29.0052 1.24949Z" fill="#127793"/>
<path d="M17.4846 34C18.0345 34 18.4806 33.5541 18.4806 33.0039V18.041C18.4806 17.4908 18.0345 17.0449 17.4846 17.0449H14.5974V34H17.4846Z" fill="#FF9F00"/>
<path d="M29.0052 1.24949C28.9351 1.12286 28.8383 1.01303 28.7214 0.92765C28.6045 0.842268 28.4704 0.783383 28.3285 0.755092L24.6354 0.0194434C24.0962 -0.0882011 23.5714 0.261959 23.464 0.80151C23.3563 1.34106 23.7065 1.8656 24.246 1.97325L25.2753 2.17818L16.5102 7.0694L14.5974 6.07769V8.32175L16.0692 9.08469C16.2155 9.16053 16.3782 9.19892 16.5429 9.19643C16.7076 9.19394 16.8691 9.15064 17.0129 9.07042L26.2385 3.92207L25.8836 4.85853C25.6886 5.37292 25.9474 5.94799 26.4618 6.1431C26.578 6.18719 26.6974 6.20791 26.8146 6.20791C27.2167 6.20791 27.5954 5.9628 27.7464 5.56463L29.0652 2.08528C29.1166 1.94998 29.1378 1.80511 29.1275 1.66076C29.1171 1.51642 29.0754 1.37607 29.0052 1.24949Z" fill="#0D5E7B"/>
</svg>
