<svg width="38" height="34" viewBox="0 0 38 34" fill="none" xmlns="http://www.w3.org/2000/svg">
<g clip-path="url(#clip0_882_5882)">
<path fill-rule="evenodd" clip-rule="evenodd" d="M11.5108 11.3791C12.445 9.88604 16.886 10.6374 21.4275 13.0557C25.9711 15.4741 28.8954 18.6438 27.9611 20.1368C27.4411 20.9642 26.9223 21.7922 26.4047 22.6208C25.4704 24.1139 21.0295 23.3625 16.488 20.9442C11.9465 18.5259 9.02217 15.3563 9.95646 13.8631C10.4738 13.0364 10.9933 12.2077 11.5108 11.3791Z" fill="#FE9923"/>
<path fill-rule="evenodd" clip-rule="evenodd" d="M21.4275 13.0557C25.9711 15.474 28.8954 18.6437 27.9611 20.1368C27.0248 21.6299 22.5859 20.8804 18.0423 18.4622C13.5008 16.0438 10.5765 12.8722 11.5108 11.3791C12.445 9.88606 16.886 10.6374 21.4275 13.0557Z" fill="#FECD3D"/>
<path fill-rule="evenodd" clip-rule="evenodd" d="M20.6378 14.319C24.2513 16.2428 26.7755 18.4467 26.279 19.2425C25.7804 20.0364 22.4476 19.1209 18.8341 17.1989C15.2206 15.2751 12.6943 13.0693 13.1929 12.2754C13.6893 11.4796 17.0243 12.3951 20.6378 14.319Z" fill="#FEA832"/>
<path d="M23.8512 21.9621L23.0238 23.2852C23.3338 23.3316 23.6271 23.3625 23.9057 23.376L24.5572 22.3368L23.8512 21.9621ZM20.8829 22.7889C20.6218 22.7099 20.3627 22.6256 20.1058 22.5359L20.8934 21.2765L21.5952 21.6512L20.8829 22.7889ZM18.1429 21.7555C17.8994 21.6463 17.6578 21.5336 17.4181 21.4175L18.1701 20.2141L18.8719 20.5908L18.1429 21.7555ZM15.5789 20.4382C15.3485 20.303 15.1202 20.1678 14.8981 20.0287L15.6292 18.862L16.333 19.2368L15.5789 20.4382ZM13.1845 18.8523C12.9718 18.6918 12.763 18.527 12.5582 18.3579L13.2704 17.2183L13.9722 17.593L13.1845 18.8523ZM11.0228 16.8957C10.8259 16.6716 10.6478 16.4514 10.4949 16.239L11.1463 15.1979L11.8502 15.5726L11.0228 16.8957Z" fill="#C85929"/>
<path fill-rule="evenodd" clip-rule="evenodd" d="M5.39819 21.4773H10.9117C13.1321 23.0554 15.3526 24.6354 17.5731 26.2154C18.4675 26.8509 18.7127 27.9886 18.2057 28.8829L24.8001 25.9353C25.9417 25.4253 27.3264 25.8677 27.8794 26.9204C28.4325 27.9711 27.9506 29.2498 26.8111 29.7597C15.0112 35.0349 17.2924 35.2338 5.39819 29.5126V21.4773Z" fill="#FFCEBF"/>
<path d="M11.5024 25.9875L11.0541 25.6688L10.3649 26.4936L15.1598 29.9047C15.7841 30.349 16.5487 30.517 17.2777 30.432C18.0066 30.3451 18.7021 30.0032 19.1839 29.4257C19.2656 29.3272 19.3411 29.2248 19.4059 29.1186C19.4751 29.0065 19.5337 28.8964 19.5798 28.7883L19.8647 28.1412L18.2056 28.8829C17.9275 29.1677 17.5476 29.3508 17.1351 29.3986C16.6932 29.4507 16.2281 29.3503 15.849 29.0799L11.5024 25.9875Z" fill="#FFB09E"/>
<path fill-rule="evenodd" clip-rule="evenodd" d="M0.557129 20.0189H5.39818V30.9708H0.557129V20.0189Z" fill="#435469"/>
<path fill-rule="evenodd" clip-rule="evenodd" d="M32.5193 12.5226H27.0038C24.7831 10.9443 22.5633 9.3649 20.3444 7.78449C19.4478 7.14898 19.2028 6.01131 19.7118 5.11702L13.1153 8.06459C11.9757 8.57452 10.589 8.13219 10.036 7.07952C9.48293 6.02877 9.96473 4.75005 11.1043 4.24012C22.9042 -1.03493 20.6251 -1.23388 32.5193 4.48735L32.5193 12.5226Z" fill="#FFCEBF"/>
<path d="M26.4131 8.01244L26.8614 8.33112L27.5506 7.50636L22.7577 4.09527C22.1314 3.65101 21.3668 3.48293 20.6399 3.56793C19.9088 3.65486 19.2155 3.99672 18.7316 4.57425C18.6506 4.67222 18.5765 4.7748 18.5095 4.88138C18.444 4.98794 18.3859 5.09827 18.3357 5.21169L18.0508 5.85875L19.7119 5.11706C19.9889 4.83192 20.3683 4.64876 20.7803 4.60135C21.2244 4.54922 21.6873 4.64963 22.0664 4.92003L26.4131 8.01244Z" fill="#FFB09E"/>
<path fill-rule="evenodd" clip-rule="evenodd" d="M32.5194 3.02905H37.3584V13.981H32.5194V3.02905Z" fill="#435469"/>
<path d="M6.34293 11.6997V13.0344H7.79042V13.9886H6.34293V15.3253H5.3081V13.9886H3.85852V13.0344H5.3081V11.6997H6.34293ZM32.3371 16.2466V17.5832H33.7847V18.5374H32.3371V19.8741H31.3023V18.5374H29.8527V17.5832H31.3023V16.2466H32.3371Z" fill="#FEA832"/>
</g>
<defs>
<clipPath id="clip0_882_5882">
<rect width="36.8732" height="34" fill="white" transform="translate(0.521118)"/>
</clipPath>
</defs>
</svg>
