<?xml version="1.0" standalone="no"?>
<!DOCTYPE svg PUBLIC "-//W3C//DTD SVG 20010904//EN"
 "http://www.w3.org/TR/2001/REC-SVG-20010904/DTD/svg10.dtd">
<svg version="1.0" xmlns="http://www.w3.org/2000/svg"
 width="512.000000pt" height="512.000000pt" viewBox="0 0 512.000000 512.000000"
 preserveAspectRatio="xMidYMid meet">

<g transform="translate(0.000000,512.000000) scale(0.100000,-0.100000)"
fill="#000000" stroke="none">
<path d="M930 4670 c-119 -43 -215 -135 -263 -252 l-22 -53 -3 -1779 c-3
-1948 -6 -1842 55 -1945 40 -69 111 -134 188 -172 l70 -34 765 -3 766 -2 44
23 c25 13 59 43 75 66 27 39 30 50 30 121 0 71 -3 82 -30 121 -16 23 -50 53
-74 66 l-44 23 -709 0 -708 0 0 1710 0 1710 1385 0 1385 0 0 -602 c0 -677 -2
-649 75 -716 48 -43 74 -52 141 -52 85 0 147 39 190 120 18 33 19 72 22 640 2
399 -1 627 -8 670 -24 143 -130 281 -257 332 l-58 23 -1480 2 c-1451 2 -1481
2 -1535 -17z"/>
<path d="M1629 3285 c-58 -19 -123 -86 -139 -146 -26 -96 21 -198 111 -243
l53 -26 574 0 c402 0 586 3 613 11 177 54 200 304 36 392 -42 22 -42 22 -622
24 -480 2 -588 -1 -626 -12z"/>
<path d="M3214 2721 c-97 -24 -186 -100 -232 -199 -35 -75 -37 -193 -6 -262
12 -25 105 -177 208 -337 117 -183 184 -298 180 -305 -4 -7 -89 -139 -187
-293 -99 -154 -189 -300 -201 -325 -32 -71 -29 -187 8 -267 33 -73 103 -144
174 -176 47 -22 51 -22 662 -22 l615 0 57 28 c163 80 241 280 170 440 -12 26
-109 175 -216 332 -108 157 -196 289 -196 294 0 4 86 134 191 287 106 153 203
300 216 326 47 94 39 232 -21 327 -32 50 -99 108 -154 134 -47 22 -53 22 -642
24 -327 1 -609 -2 -626 -6z m1095 -393 c-24 -35 -124 -182 -224 -328 -100
-146 -190 -281 -200 -299 -12 -24 -16 -49 -13 -86 5 -54 40 -110 416 -653 l64
-92 -531 0 -530 0 136 213 c329 513 313 484 313 547 0 56 -2 59 -156 301 -86
134 -187 292 -225 352 l-69 107 531 0 530 0 -42 -62z"/>
<path d="M1601 2224 c-129 -65 -157 -223 -59 -330 66 -72 90 -76 470 -72 l323
3 45 25 c128 72 148 250 37 345 -22 19 -57 40 -76 45 -21 6 -177 10 -362 10
l-325 0 -53 -26z"/>
</g>
</svg>
