<svg width="38" height="38" viewBox="0 0 38 38" fill="none" xmlns="http://www.w3.org/2000/svg">
<g clip-path="url(#clip0_882_5517)">
<path d="M36.881 33.7081H26.1269C25.5089 33.7081 25.0079 33.2071 25.0079 32.5891V30.9891C25.0079 30.3711 25.5089 29.8701 26.1269 29.8701H36.881C37.499 29.8701 38 30.3711 38 30.9891V32.5891C38 33.2071 37.499 33.7081 36.881 33.7081Z" fill="url(#paint0_linear_882_5517)"/>
<path d="M35.179 33.7081H27.829C27.3079 33.7081 26.8855 33.2856 26.8855 32.7646V30.8136C26.8855 30.2925 27.308 29.8701 27.829 29.8701H35.179C35.7002 29.8701 36.1226 30.2926 36.1226 30.8136V32.7646C36.1226 33.2857 35.7002 33.7081 35.179 33.7081Z" fill="url(#paint1_linear_882_5517)"/>
<path d="M32.6439 33.7081H30.3642C30.2118 33.7081 30.0655 33.6475 29.9577 33.5397C29.8499 33.4319 29.7893 33.2857 29.7893 33.1332V30.445C29.7893 30.3695 29.8042 30.2948 29.8331 30.225C29.862 30.1553 29.9043 30.0919 29.9577 30.0385C30.0111 29.9851 30.0745 29.9428 30.1442 29.9139C30.214 29.885 30.2887 29.8701 30.3642 29.8701H32.6439C32.7963 29.8701 32.9425 29.9307 33.0504 30.0385C33.1582 30.1463 33.2187 30.2926 33.2188 30.445V33.1332C33.2188 33.2857 33.1582 33.4319 33.0504 33.5397C32.9426 33.6475 32.7963 33.7081 32.6439 33.7081Z" fill="url(#paint2_linear_882_5517)"/>
<path d="M36.881 29.8701H26.1269C25.5089 29.8701 25.0079 29.3691 25.0079 28.7511V27.1511C25.0079 26.5331 25.5089 26.0321 26.1269 26.0321H36.881C37.499 26.0321 38 26.5331 38 27.1511V28.7511C38 29.3691 37.499 29.8701 36.881 29.8701Z" fill="url(#paint3_linear_882_5517)"/>
<path d="M35.179 29.8701H27.829C27.3079 29.8701 26.8855 29.4476 26.8855 28.9266V26.9756C26.8855 26.4545 27.308 26.0321 27.829 26.0321H35.179C35.7002 26.0321 36.1226 26.4546 36.1226 26.9756V28.9266C36.1226 29.4476 35.7002 29.8701 35.179 29.8701Z" fill="url(#paint4_linear_882_5517)"/>
<path d="M32.6439 29.8701H30.3642C30.2118 29.8701 30.0655 29.8095 29.9577 29.7017C29.8499 29.5939 29.7893 29.4477 29.7893 29.2952V26.607C29.7893 26.5315 29.8042 26.4568 29.8331 26.387C29.862 26.3173 29.9043 26.2539 29.9577 26.2005C30.0111 26.1471 30.0745 26.1048 30.1442 26.0759C30.214 26.047 30.2887 26.0321 30.3642 26.0321H32.6439C32.7963 26.0321 32.9425 26.0927 33.0504 26.2005C33.1582 26.3083 33.2187 26.4546 33.2188 26.607V29.2952C33.2187 29.4477 33.1582 29.5939 33.0504 29.7017C32.9425 29.8095 32.7963 29.8701 32.6439 29.8701Z" fill="url(#paint5_linear_882_5517)"/>
<path d="M36.881 26.0321H26.1269C25.5089 26.0321 25.0079 25.5311 25.0079 24.9131V23.3131C25.0079 22.6951 25.5089 22.1941 26.1269 22.1941H36.881C37.499 22.1941 38 22.6951 38 23.3131V24.9131C38 25.5311 37.499 26.0321 36.881 26.0321Z" fill="url(#paint6_linear_882_5517)"/>
<path d="M35.179 26.0321H27.829C27.3079 26.0321 26.8855 25.6096 26.8855 25.0886V23.1376C26.8855 22.6165 27.308 22.1941 27.829 22.1941H35.179C35.7002 22.1941 36.1226 22.6166 36.1226 23.1376V25.0886C36.1226 25.6097 35.7002 26.0321 35.179 26.0321Z" fill="url(#paint7_linear_882_5517)"/>
<path d="M32.6439 26.0321H30.3642C30.2118 26.0321 30.0655 25.9715 29.9577 25.8637C29.8499 25.7559 29.7893 25.6096 29.7893 25.4572V22.769C29.7893 22.6935 29.8042 22.6188 29.8331 22.549C29.862 22.4792 29.9043 22.4159 29.9577 22.3625C30.0111 22.3091 30.0745 22.2667 30.1442 22.2379C30.214 22.209 30.2887 22.1941 30.3642 22.1941H32.6439C32.7963 22.1941 32.9425 22.2547 33.0504 22.3625C33.1582 22.4703 33.2187 22.6165 33.2188 22.769V25.4572C33.2188 25.6097 33.1582 25.7559 33.0504 25.8637C32.9426 25.9715 32.7963 26.0321 32.6439 26.0321Z" fill="url(#paint8_linear_882_5517)"/>
<path d="M38 24.9131V23.3131C38 22.6951 37.499 22.1941 36.881 22.1941H26.1269C25.5089 22.1941 25.0079 22.6951 25.0079 23.3131V24.9131C25.0079 25.5311 25.5089 26.0321 26.1269 26.0321C25.5089 26.0321 25.0079 26.5331 25.0079 27.1511V28.7511C25.0079 29.3691 25.5089 29.8701 26.1269 29.8701C25.5089 29.8701 25.0079 30.3711 25.0079 30.9891V32.5891C25.0079 33.2071 25.5089 33.7081 26.1269 33.7081H36.881C37.4991 33.7081 38 33.2071 38 32.5891V30.9891C38 30.371 37.499 29.8701 36.881 29.8701C37.4991 29.8701 38 29.3691 38 28.7511V27.1511C38 26.5331 37.499 26.0321 36.881 26.0321C37.499 26.0321 38 25.5311 38 24.9131Z" fill="url(#paint9_linear_882_5517)"/>
<path d="M18.8498 33.7082C26.9729 33.7082 33.5579 27.1231 33.5579 19.0001C33.5579 10.877 26.9729 4.29199 18.8498 4.29199C10.7268 4.29199 4.14172 10.877 4.14172 19.0001C4.14172 27.1231 10.7268 33.7082 18.8498 33.7082Z" fill="url(#paint10_linear_882_5517)"/>
<path d="M33.5579 19C33.5579 17.9166 33.4397 16.8609 33.2173 15.8441H26.4689L31.2407 11.0723C30.679 10.1961 30.0161 9.36599 29.25 8.59988C28.4839 7.83377 27.6538 7.17085 26.7776 6.60912L22.0058 11.381V4.63245C20.989 4.41012 19.9333 4.29187 18.8498 4.29187C17.7664 4.29187 16.7107 4.41012 15.6939 4.63245V11.3809L10.922 6.60905C10.0287 7.18182 9.19975 7.84929 8.44961 8.59988C7.69907 9.35004 7.03163 10.179 6.45886 11.0723L11.2307 15.8441H4.48219C4.25985 16.8609 4.1416 17.9166 4.1416 19C4.1416 20.0835 4.25985 21.1392 4.48219 22.156H11.2306L6.45878 26.9278C7.02051 27.804 7.68343 28.6341 8.44954 29.4002C9.21564 30.1663 10.0458 30.8292 10.9219 31.391L15.6938 26.6192V33.3676C16.7105 33.5899 17.7662 33.7082 18.8497 33.7082C19.9331 33.7082 20.9889 33.5899 22.0056 33.3676V26.6192L26.7775 31.391C27.6708 30.8182 28.4997 30.1508 29.2498 29.4002C30.0004 28.65 30.6678 27.8211 31.2406 26.9278L26.4688 22.156H33.2172C33.444 21.1193 33.5582 20.0612 33.5579 19Z" fill="url(#paint11_linear_882_5517)"/>
<path d="M18.8498 32.4928C26.3017 32.4928 32.3426 26.4519 32.3426 19.0001C32.3426 11.5482 26.3017 5.50732 18.8498 5.50732C11.398 5.50732 5.35706 11.5482 5.35706 19.0001C5.35706 26.4519 11.398 32.4928 18.8498 32.4928Z" fill="url(#paint12_linear_882_5517)"/>
<path d="M18.8498 29.639C24.7256 29.639 29.4889 24.8758 29.4889 19C29.4889 13.1242 24.7256 8.36096 18.8498 8.36096C12.9741 8.36096 8.21082 13.1242 8.21082 19C8.21082 24.8758 12.9741 29.639 18.8498 29.639Z" fill="url(#paint13_linear_882_5517)"/>
<path d="M18.8498 33.7081C26.9729 33.7081 33.5579 27.1231 33.5579 19H4.14172C4.14172 27.1231 10.7268 33.7081 18.8498 33.7081Z" fill="url(#paint14_linear_882_5517)"/>
<path d="M18.8498 33.7081C22.3934 33.7081 25.6442 32.4547 28.1834 30.3673L12.7059 14.8898H4.72449C4.34554 16.1943 4.1416 17.5732 4.1416 19C4.14168 27.1231 10.7267 33.7081 18.8498 33.7081Z" fill="url(#paint15_linear_882_5517)"/>
<path d="M33.1194 22.5753L23.3328 12.7887L14.2865 13.8564L16.7274 16.2974L14.449 17.4482L16.7495 19.7487V21.8164L20.4 25.4668L19.887 26.4096L25.5659 32.0885C29.2854 30.176 32.0832 26.7245 33.1194 22.5753Z" fill="url(#paint16_linear_882_5517)"/>
<path d="M22.6048 15.8294H21.2482C21.1206 15.2876 20.8907 14.7752 20.5709 14.3196H22.6049C23.1234 14.3196 23.5437 13.8993 23.5437 13.3809C23.5437 12.8624 23.1234 12.4421 22.6049 12.4421H15.095C14.5766 12.4421 14.1562 12.8624 14.1562 13.3809C14.1562 13.8993 14.5766 14.3196 15.095 14.3196H16.9725C18.0021 14.3196 18.8888 14.9416 19.2778 15.8294H15.095C14.5766 15.8294 14.1562 16.2497 14.1562 16.7682C14.1562 17.2866 14.5766 17.7069 15.095 17.7069H19.3324C18.9772 18.6659 18.0534 19.3513 16.9724 19.3513H15.0949C14.9093 19.3513 14.7278 19.4064 14.5734 19.5095C14.4191 19.6127 14.2988 19.7593 14.2277 19.9308C14.1567 20.1024 14.1381 20.2911 14.1743 20.4732C14.2105 20.6553 14.2999 20.8225 14.4311 20.9538L19.887 26.4097C20.0702 26.593 20.3105 26.6846 20.5508 26.6846C20.7911 26.6846 21.0313 26.593 21.2146 26.4097C21.5812 26.0431 21.5812 25.4487 21.2146 25.0821L17.3456 21.213C19.302 21.0477 20.8968 19.5946 21.2782 17.7069H22.6048C23.1232 17.7069 23.5435 17.2865 23.5435 16.7681C23.5435 16.2497 23.1233 15.8294 22.6048 15.8294Z" fill="url(#paint17_linear_882_5517)"/>
<path d="M11.8731 33.7081H1.11899C0.501004 33.7081 0 33.2071 0 32.5891V30.9891C0 30.3711 0.501004 29.8701 1.11899 29.8701H11.8731C12.491 29.8701 12.9921 30.3711 12.9921 30.9891V32.5891C12.9921 33.2071 12.4911 33.7081 11.8731 33.7081Z" fill="url(#paint18_linear_882_5517)"/>
<path d="M10.1711 33.7081H2.82096C2.29984 33.7081 1.87744 33.2856 1.87744 32.7646V30.8136C1.87744 30.2925 2.29991 29.8701 2.82096 29.8701H10.171C10.6921 29.8701 11.1145 30.2926 11.1145 30.8136V32.7646C11.1146 33.2857 10.6921 33.7081 10.1711 33.7081Z" fill="url(#paint19_linear_882_5517)"/>
<path d="M7.63587 33.7081H5.35617C5.2037 33.7081 5.05748 33.6475 4.94966 33.5397C4.84185 33.4319 4.78127 33.2857 4.78125 33.1332V30.445C4.78125 30.2926 4.84182 30.1463 4.94964 30.0385C5.05746 29.9307 5.20369 29.8701 5.35617 29.8701H7.6358C7.78827 29.8701 7.93449 29.9307 8.0423 30.0385C8.15012 30.1463 8.21069 30.2926 8.21071 30.445V33.1332C8.21073 33.2087 8.19588 33.2835 8.167 33.3532C8.13812 33.423 8.09578 33.4864 8.04239 33.5397C7.98901 33.5931 7.92563 33.6355 7.85588 33.6644C7.78613 33.6933 7.71137 33.7081 7.63587 33.7081Z" fill="url(#paint20_linear_882_5517)"/>
<path d="M11.8731 29.8701H1.11899C0.501004 29.8701 0 29.3691 0 28.7511V27.1511C0 26.5331 0.501004 26.0321 1.11899 26.0321H11.8731C12.491 26.0321 12.9921 26.5331 12.9921 27.1511V28.7511C12.9921 29.3691 12.4911 29.8701 11.8731 29.8701Z" fill="url(#paint21_linear_882_5517)"/>
<path d="M10.1711 29.8701H2.82096C2.29984 29.8701 1.87744 29.4476 1.87744 28.9266V26.9756C1.87744 26.4545 2.29991 26.0321 2.82096 26.0321H10.171C10.6921 26.0321 11.1145 26.4546 11.1145 26.9756V28.9266C11.1146 29.4476 10.6921 29.8701 10.1711 29.8701Z" fill="url(#paint22_linear_882_5517)"/>
<path d="M7.63587 29.8701H5.35617C5.2037 29.8701 5.05748 29.8095 4.94966 29.7017C4.84185 29.5939 4.78127 29.4477 4.78125 29.2952V26.607C4.78125 26.4545 4.84182 26.3083 4.94964 26.2005C5.05746 26.0927 5.20369 26.0321 5.35617 26.0321H7.6358C7.78827 26.0321 7.93449 26.0927 8.0423 26.2005C8.15012 26.3083 8.21069 26.4546 8.21071 26.607V29.2952C8.21072 29.3707 8.19586 29.4454 8.16698 29.5152C8.13809 29.5849 8.09575 29.6483 8.04237 29.7017C7.98899 29.7551 7.92562 29.7974 7.85587 29.8263C7.78612 29.8552 7.71137 29.8701 7.63587 29.8701Z" fill="url(#paint23_linear_882_5517)"/>
<path d="M11.8731 26.0321H1.11899C0.501004 26.0321 0 25.5311 0 24.9131V23.3131C0 22.6951 0.501004 22.1941 1.11899 22.1941H11.8731C12.491 22.1941 12.9921 22.6951 12.9921 23.3131V24.9131C12.9921 25.5311 12.4911 26.0321 11.8731 26.0321Z" fill="url(#paint24_linear_882_5517)"/>
<path d="M10.1711 26.0321H2.82096C2.29984 26.0321 1.87744 25.6096 1.87744 25.0886V23.1376C1.87744 22.6165 2.29991 22.1941 2.82096 22.1941H10.171C10.6921 22.1941 11.1145 22.6166 11.1145 23.1376V25.0886C11.1146 25.6097 10.6921 26.0321 10.1711 26.0321Z" fill="url(#paint25_linear_882_5517)"/>
<path d="M7.63587 26.0321H5.35617C5.2037 26.0321 5.05748 25.9715 4.94966 25.8637C4.84185 25.7559 4.78127 25.6096 4.78125 25.4572V22.769C4.78125 22.6935 4.79612 22.6188 4.82501 22.549C4.85391 22.4792 4.89625 22.4159 4.94964 22.3625C5.00303 22.3091 5.0664 22.2667 5.13616 22.2379C5.20591 22.209 5.28067 22.1941 5.35617 22.1941H7.6358C7.78827 22.1941 7.93449 22.2547 8.0423 22.3625C8.15012 22.4703 8.21069 22.6165 8.21071 22.769V25.4572C8.21073 25.5327 8.19588 25.6074 8.167 25.6772C8.13812 25.7469 8.09578 25.8103 8.04239 25.8637C7.98901 25.9171 7.92563 25.9595 7.85588 25.9883C7.78613 26.0172 7.71137 26.0321 7.63587 26.0321Z" fill="url(#paint26_linear_882_5517)"/>
<path d="M11.8731 22.1941H1.11899C0.501004 22.1941 0 21.6931 0 21.0751V19.4751C0 18.8571 0.501004 18.3561 1.11899 18.3561H11.8731C12.491 18.3561 12.9921 18.8571 12.9921 19.4751V21.0751C12.9921 21.6931 12.4911 22.1941 11.8731 22.1941Z" fill="url(#paint27_linear_882_5517)"/>
<path d="M10.1711 22.1941H2.82096C2.29984 22.1941 1.87744 21.7716 1.87744 21.2506V19.2996C1.87744 18.7785 2.29991 18.3561 2.82096 18.3561H10.171C10.6921 18.3561 11.1145 18.7785 11.1145 19.2996V21.2506C11.1146 21.7716 10.6921 22.1941 10.1711 22.1941Z" fill="url(#paint28_linear_882_5517)"/>
<path d="M7.63587 22.1941H5.35617C5.2037 22.1941 5.05748 22.1335 4.94966 22.0257C4.84185 21.9179 4.78127 21.7716 4.78125 21.6192V18.931C4.78125 18.7785 4.84182 18.6323 4.94964 18.5245C5.05746 18.4167 5.20369 18.3561 5.35617 18.3561H7.6358C7.78827 18.3561 7.93449 18.4167 8.0423 18.5245C8.15012 18.6323 8.21069 18.7785 8.21071 18.931V21.6192C8.21072 21.6947 8.19586 21.7694 8.16698 21.8392C8.13809 21.9089 8.09575 21.9723 8.04237 22.0257C7.98899 22.0791 7.92562 22.1214 7.85587 22.1503C7.78612 22.1792 7.71137 22.1941 7.63587 22.1941Z" fill="url(#paint29_linear_882_5517)"/>
<path d="M11.8731 18.3559H1.11899C0.501004 18.3559 0 17.8549 0 17.237V15.6369C0 15.0189 0.501004 14.5179 1.11899 14.5179H11.8731C12.491 14.5179 12.9921 15.0189 12.9921 15.6369V17.237C12.9921 17.8549 12.4911 18.3559 11.8731 18.3559Z" fill="url(#paint30_linear_882_5517)"/>
<path d="M10.1711 18.3559H2.82096C2.29984 18.3559 1.87744 17.9335 1.87744 17.4124V15.4615C1.87744 14.9403 2.29991 14.5179 2.82096 14.5179H10.171C10.6921 14.5179 11.1145 14.9404 11.1145 15.4615V17.4124C11.1146 17.9335 10.6921 18.3559 10.1711 18.3559Z" fill="url(#paint31_linear_882_5517)"/>
<path d="M7.63587 18.3559H5.35617C5.2037 18.3559 5.05748 18.2953 4.94966 18.1875C4.84185 18.0797 4.78127 17.9335 4.78125 17.781V15.0929C4.78127 14.9404 4.84185 14.7942 4.94966 14.6864C5.05748 14.5785 5.2037 14.518 5.35617 14.5179H7.6358C7.78827 14.518 7.93449 14.5785 8.0423 14.6864C8.15012 14.7942 8.21069 14.9404 8.21071 15.0929V17.781C8.21073 17.8565 8.19588 17.9313 8.167 18.001C8.13812 18.0708 8.09578 18.1342 8.04239 18.1876C7.98901 18.241 7.92563 18.2833 7.85588 18.3122C7.78613 18.3411 7.71137 18.356 7.63587 18.3559Z" fill="url(#paint32_linear_882_5517)"/>
</g>
<defs>
<linearGradient id="paint0_linear_882_5517" x1="31.5039" y1="30.8314" x2="31.5039" y2="33.5444" gradientUnits="userSpaceOnUse">
<stop stop-color="#FEE45A"/>
<stop offset="1" stop-color="#FEA613"/>
</linearGradient>
<linearGradient id="paint1_linear_882_5517" x1="31.1756" y1="29.4009" x2="32.2771" y2="37.4115" gradientUnits="userSpaceOnUse">
<stop stop-color="#FEA613" stop-opacity="0"/>
<stop offset="1" stop-color="#E94444"/>
</linearGradient>
<linearGradient id="paint2_linear_882_5517" x1="31.2232" y1="29.7465" x2="32.1652" y2="36.5979" gradientUnits="userSpaceOnUse">
<stop stop-color="#FEA613" stop-opacity="0"/>
<stop offset="1" stop-color="#E94444"/>
</linearGradient>
<linearGradient id="paint3_linear_882_5517" x1="31.5039" y1="26.9934" x2="31.5039" y2="29.7063" gradientUnits="userSpaceOnUse">
<stop stop-color="#FEE45A"/>
<stop offset="1" stop-color="#FEA613"/>
</linearGradient>
<linearGradient id="paint4_linear_882_5517" x1="31.1756" y1="25.5629" x2="32.2771" y2="33.5735" gradientUnits="userSpaceOnUse">
<stop stop-color="#FEA613" stop-opacity="0"/>
<stop offset="1" stop-color="#E94444"/>
</linearGradient>
<linearGradient id="paint5_linear_882_5517" x1="31.2232" y1="25.9085" x2="32.1652" y2="32.7599" gradientUnits="userSpaceOnUse">
<stop stop-color="#FEA613" stop-opacity="0"/>
<stop offset="1" stop-color="#E94444"/>
</linearGradient>
<linearGradient id="paint6_linear_882_5517" x1="31.5039" y1="23.1554" x2="31.5039" y2="25.8684" gradientUnits="userSpaceOnUse">
<stop stop-color="#FEE45A"/>
<stop offset="1" stop-color="#FEA613"/>
</linearGradient>
<linearGradient id="paint7_linear_882_5517" x1="31.1756" y1="21.7249" x2="32.2771" y2="29.7355" gradientUnits="userSpaceOnUse">
<stop stop-color="#FEA613" stop-opacity="0"/>
<stop offset="1" stop-color="#E94444"/>
</linearGradient>
<linearGradient id="paint8_linear_882_5517" x1="31.2232" y1="22.0705" x2="32.1652" y2="28.9219" gradientUnits="userSpaceOnUse">
<stop stop-color="#FEA613" stop-opacity="0"/>
<stop offset="1" stop-color="#E94444"/>
</linearGradient>
<linearGradient id="paint9_linear_882_5517" x1="35.7292" y1="30.2558" x2="29.6713" y2="26.9515" gradientUnits="userSpaceOnUse">
<stop stop-color="#FEA613" stop-opacity="0"/>
<stop offset="1" stop-color="#E94444"/>
</linearGradient>
<linearGradient id="paint10_linear_882_5517" x1="11.2594" y1="11.4097" x2="28.9955" y2="29.1457" gradientUnits="userSpaceOnUse">
<stop stop-color="#FEE45A"/>
<stop offset="1" stop-color="#FEA613"/>
</linearGradient>
<linearGradient id="paint11_linear_882_5517" x1="12.184" y1="-13.3532" x2="30.6584" y2="76.3148" gradientUnits="userSpaceOnUse">
<stop stop-color="#FEA613" stop-opacity="0"/>
<stop offset="1" stop-color="#E94444"/>
</linearGradient>
<linearGradient id="paint12_linear_882_5517" x1="11.8866" y1="12.0369" x2="28.1571" y2="28.3074" gradientUnits="userSpaceOnUse">
<stop stop-color="#FEE45A"/>
<stop offset="1" stop-color="#FEA613"/>
</linearGradient>
<linearGradient id="paint13_linear_882_5517" x1="26.6351" y1="26.7852" x2="11.5652" y2="11.7153" gradientUnits="userSpaceOnUse">
<stop stop-color="#FEE45A"/>
<stop offset="1" stop-color="#FEA613"/>
</linearGradient>
<linearGradient id="paint14_linear_882_5517" x1="18.8498" y1="22.4546" x2="18.8498" y2="36.4998" gradientUnits="userSpaceOnUse">
<stop stop-color="#FEA613" stop-opacity="0"/>
<stop offset="1" stop-color="#E94444"/>
</linearGradient>
<linearGradient id="paint15_linear_882_5517" x1="18.8247" y1="24.2989" x2="11.2147" y2="24.2989" gradientUnits="userSpaceOnUse">
<stop stop-color="#FEA613" stop-opacity="0"/>
<stop offset="1" stop-color="#E94444"/>
</linearGradient>
<linearGradient id="paint16_linear_882_5517" x1="31.3148" y1="29.1809" x2="11.7892" y2="10.0056" gradientUnits="userSpaceOnUse">
<stop stop-color="#FEA613" stop-opacity="0"/>
<stop offset="1" stop-color="#E94444"/>
</linearGradient>
<linearGradient id="paint17_linear_882_5517" x1="14.6753" y1="12.6608" x2="24.5322" y2="22.5177" gradientUnits="userSpaceOnUse">
<stop stop-color="#D9B1EE"/>
<stop offset="1" stop-color="#814AA0"/>
</linearGradient>
<linearGradient id="paint18_linear_882_5517" x1="6.49606" y1="30.8314" x2="6.49606" y2="33.5444" gradientUnits="userSpaceOnUse">
<stop stop-color="#FEE45A"/>
<stop offset="1" stop-color="#FEA613"/>
</linearGradient>
<linearGradient id="paint19_linear_882_5517" x1="6.16764" y1="29.4009" x2="7.26905" y2="37.4115" gradientUnits="userSpaceOnUse">
<stop stop-color="#FEA613" stop-opacity="0"/>
<stop offset="1" stop-color="#E94444"/>
</linearGradient>
<linearGradient id="paint20_linear_882_5517" x1="6.21512" y1="29.7465" x2="7.15722" y2="36.5979" gradientUnits="userSpaceOnUse">
<stop stop-color="#FEA613" stop-opacity="0"/>
<stop offset="1" stop-color="#E94444"/>
</linearGradient>
<linearGradient id="paint21_linear_882_5517" x1="6.49606" y1="26.9934" x2="6.49606" y2="29.7063" gradientUnits="userSpaceOnUse">
<stop stop-color="#FEE45A"/>
<stop offset="1" stop-color="#FEA613"/>
</linearGradient>
<linearGradient id="paint22_linear_882_5517" x1="6.16764" y1="25.5629" x2="7.26905" y2="33.5735" gradientUnits="userSpaceOnUse">
<stop stop-color="#FEA613" stop-opacity="0"/>
<stop offset="1" stop-color="#E94444"/>
</linearGradient>
<linearGradient id="paint23_linear_882_5517" x1="6.21512" y1="25.9085" x2="7.15722" y2="32.7599" gradientUnits="userSpaceOnUse">
<stop stop-color="#FEA613" stop-opacity="0"/>
<stop offset="1" stop-color="#E94444"/>
</linearGradient>
<linearGradient id="paint24_linear_882_5517" x1="6.49606" y1="23.1554" x2="6.49606" y2="25.8684" gradientUnits="userSpaceOnUse">
<stop stop-color="#FEE45A"/>
<stop offset="1" stop-color="#FEA613"/>
</linearGradient>
<linearGradient id="paint25_linear_882_5517" x1="6.16764" y1="21.7249" x2="7.26905" y2="29.7355" gradientUnits="userSpaceOnUse">
<stop stop-color="#FEA613" stop-opacity="0"/>
<stop offset="1" stop-color="#E94444"/>
</linearGradient>
<linearGradient id="paint26_linear_882_5517" x1="6.21512" y1="22.0705" x2="7.15722" y2="28.9219" gradientUnits="userSpaceOnUse">
<stop stop-color="#FEA613" stop-opacity="0"/>
<stop offset="1" stop-color="#E94444"/>
</linearGradient>
<linearGradient id="paint27_linear_882_5517" x1="6.49606" y1="19.3174" x2="6.49606" y2="22.0303" gradientUnits="userSpaceOnUse">
<stop stop-color="#FEE45A"/>
<stop offset="1" stop-color="#FEA613"/>
</linearGradient>
<linearGradient id="paint28_linear_882_5517" x1="6.16764" y1="17.8869" x2="7.26905" y2="25.8974" gradientUnits="userSpaceOnUse">
<stop stop-color="#FEA613" stop-opacity="0"/>
<stop offset="1" stop-color="#E94444"/>
</linearGradient>
<linearGradient id="paint29_linear_882_5517" x1="6.21512" y1="18.2325" x2="7.15722" y2="25.0839" gradientUnits="userSpaceOnUse">
<stop stop-color="#FEA613" stop-opacity="0"/>
<stop offset="1" stop-color="#E94444"/>
</linearGradient>
<linearGradient id="paint30_linear_882_5517" x1="6.49606" y1="15.4793" x2="6.49606" y2="18.1922" gradientUnits="userSpaceOnUse">
<stop stop-color="#FEE45A"/>
<stop offset="1" stop-color="#FEA613"/>
</linearGradient>
<linearGradient id="paint31_linear_882_5517" x1="6.16764" y1="14.0488" x2="7.26905" y2="22.0593" gradientUnits="userSpaceOnUse">
<stop stop-color="#FEA613" stop-opacity="0"/>
<stop offset="1" stop-color="#E94444"/>
</linearGradient>
<linearGradient id="paint32_linear_882_5517" x1="6.21512" y1="14.3943" x2="7.15722" y2="21.2457" gradientUnits="userSpaceOnUse">
<stop stop-color="#FEA613" stop-opacity="0"/>
<stop offset="1" stop-color="#E94444"/>
</linearGradient>
<clipPath id="clip0_882_5517">
<rect width="38" height="38" fill="white"/>
</clipPath>
</defs>
</svg>
