<svg width="122" height="122" viewBox="0 0 122 122" fill="none" xmlns="http://www.w3.org/2000/svg">
<path d="M73.9515 10.8116C72.5718 9.82289 70.9552 9.21658 69.2655 9.05417C67.5759 8.89177 65.8734 9.17904 64.3306 9.88686C49.0977 16.8921 -1.18097 41.6117 9.41107 58.1379C21.8551 77.5603 66.0191 108.202 82.2133 106.74C98.4076 105.279 116.769 78.1093 112.645 60.2265C109.18 45.201 85.888 19.3955 73.9515 10.8116Z" fill="#1769E9"/>
<path opacity="0.7" d="M73.9515 10.8116C72.5718 9.82289 70.9552 9.21658 69.2655 9.05417C67.5759 8.89177 65.8734 9.17904 64.3306 9.88686C49.0977 16.8921 -1.18097 41.6117 9.41107 58.1379C21.8551 77.5603 66.0191 108.202 82.2133 106.74C98.4076 105.279 116.769 78.1093 112.645 60.2265C109.18 45.201 85.888 19.3955 73.9515 10.8116Z" fill="white"/>
<path d="M88.0694 61.4733C88.4427 62.3664 90.0433 63.8279 90.0458 63.8279C90.0482 63.8279 90.6875 62.4811 90.7168 62.3908C91.0608 61.344 91.1096 59.1163 90.1092 58.3916C89.94 58.2761 89.7483 58.1973 89.5467 58.1605C89.3451 58.1237 89.138 58.1297 88.9388 58.178C88.7396 58.2263 88.5528 58.3158 88.3904 58.4409C88.228 58.566 88.0937 58.7238 87.9962 58.904C87.5594 59.658 87.7522 60.7145 88.0694 61.4733Z" fill="#263238"/>
<path d="M113.689 75.7522C112.894 74.8079 110.678 75.0202 109.659 75.435C109.571 75.4716 108.256 76.1938 108.273 76.2109L108.292 76.228C107.941 76.2573 107.56 76.2939 107.158 76.3427C106.401 76.4379 105.55 76.5525 104.632 76.738C103.643 76.9257 102.665 77.1701 101.704 77.47C100.625 77.8095 99.5784 78.2439 98.576 78.7681L98.5394 78.79C98.7956 78.5314 99.4813 77.7896 99.5276 77.7262C100.182 76.838 100.921 74.7372 100.199 73.7368C100.074 73.574 99.916 73.4393 99.7357 73.3414C99.5555 73.2435 99.3566 73.1846 99.1521 73.1685C98.9475 73.1524 98.7419 73.1795 98.5485 73.2479C98.3551 73.3164 98.1783 73.4248 98.0295 73.566C97.378 74.1443 97.234 75.2081 97.2975 76.0304C97.3707 76.9551 98.3467 78.7144 98.4248 78.8559C97.4173 79.4133 96.4473 80.036 95.5212 80.7201C94.9795 81.1178 94.4476 81.5326 93.9181 81.9571C94.1304 81.7278 94.3207 81.5204 94.3426 81.4887C94.9966 80.6005 95.7334 78.4997 95.0112 77.4993C94.8863 77.3369 94.7287 77.2025 94.5486 77.1049C94.3686 77.0072 94.17 76.9484 93.9658 76.9323C93.7616 76.9162 93.5563 76.9432 93.3631 77.0114C93.17 77.0796 92.9933 77.1877 92.8445 77.3285C92.193 77.9067 92.0466 78.9706 92.1125 79.7928C92.1784 80.6151 92.9811 82.1426 93.1983 82.5427L92.5932 83.0307C91.6294 83.8262 90.6729 84.6216 89.7091 85.3731C89.3699 85.6391 89.0259 85.888 88.6843 86.1368C88.8722 85.9343 89.0283 85.7611 89.0503 85.7318C89.7042 84.8436 90.4435 82.7428 89.7213 81.7424C89.5964 81.5797 89.4387 81.445 89.2584 81.3471C89.0781 81.2492 88.8792 81.1902 88.6747 81.1741C88.4702 81.158 88.2646 81.1851 88.0712 81.2536C87.8778 81.322 87.7009 81.4304 87.5521 81.5716C86.9006 82.1499 86.7567 83.2137 86.8201 84.0336C86.8836 84.8534 87.6107 86.2296 87.8669 86.7176C87.5082 86.9616 87.1495 87.2056 86.7908 87.4325C86.5468 87.5764 86.3028 87.735 86.0588 87.8668L85.3098 88.2743C84.8218 88.5183 84.3338 88.7623 83.8458 88.9868C83.5115 89.1454 83.1918 89.2893 82.8698 89.4357C83.2114 89.1747 83.8677 88.6525 83.9165 88.6012C84.5782 87.8919 85.0455 87.0237 85.2732 86.0807C85.3506 86.0062 85.4209 85.9245 85.483 85.8367C85.6045 85.6717 85.6901 85.4829 85.7341 85.2827C85.778 85.0825 85.7795 84.8753 85.7383 84.6745C85.6972 84.4737 85.6143 84.2838 85.4951 84.1171C85.3758 83.9504 85.2229 83.8105 85.0462 83.7066C83.9653 83.1137 81.9718 84.1043 81.1691 84.8607C81.1227 84.9071 80.664 85.4488 80.3785 85.7952C80.5152 85.5659 80.6494 85.3438 80.786 85.1072C81.0617 84.6387 81.3204 84.1629 81.6034 83.6432C81.7303 83.3992 81.8474 83.1405 81.9865 82.8843C82.1256 82.6281 82.2305 82.35 82.3549 82.0816C82.6306 81.452 82.8795 80.8006 83.1138 80.1296C83.5237 80.3736 84.995 81.1959 85.8173 81.2837C86.6396 81.3715 87.7034 81.2593 88.3012 80.6249C88.4463 80.4801 88.5594 80.3065 88.6331 80.1152C88.7068 79.924 88.7396 79.7194 88.7292 79.5147C88.7189 79.31 88.6656 79.1097 88.573 78.9269C88.4804 78.744 88.3503 78.5827 88.1914 78.4533C87.2154 77.7018 85.0926 78.3801 84.1849 79.0072C84.1288 79.0462 83.5286 79.5684 83.2089 79.8612C83.348 79.4634 83.4871 79.0657 83.614 78.6583C83.9824 77.4797 84.3167 76.2768 84.6534 75.0763C84.7583 74.7103 84.8657 74.3443 84.973 73.9783C85.117 74.0662 86.8421 75.0885 87.7644 75.1983C88.5818 75.2862 89.6505 75.1715 90.2483 74.5371C90.3935 74.3925 90.5068 74.219 90.5807 74.0278C90.6547 73.8367 90.6876 73.6321 90.6775 73.4274C90.6674 73.2227 90.6144 73.0224 90.522 72.8395C90.4295 72.6566 90.2997 72.4951 90.141 72.3655C89.165 71.614 87.0397 72.2923 86.132 72.9194C86.0637 72.9657 85.2024 73.7197 84.9926 73.9222C85.2366 73.117 85.4684 72.3167 85.7246 71.5383C86.0843 70.484 86.5113 69.4538 87.0031 68.4542C87.0714 68.4956 88.8673 69.5692 89.8091 69.6742C90.629 69.7644 91.6952 69.6498 92.293 69.0154C92.4383 68.8708 92.5515 68.6973 92.6254 68.5061C92.6994 68.3149 92.7324 68.1104 92.7222 67.9057C92.7121 67.701 92.6591 67.5007 92.5667 67.3178C92.4743 67.1348 92.3445 66.9734 92.1857 66.8438C91.2097 66.0923 89.0869 66.7706 88.1792 67.3977C88.1084 67.4465 87.1812 68.2565 87.0226 68.4151C87.0519 68.359 87.0739 68.2956 87.1056 68.237C87.6276 67.2499 88.2359 66.3109 88.9234 65.431C89.2967 64.943 89.6822 64.4916 90.0653 64.0646C90.3801 64.3086 91.827 65.3529 92.6639 65.5408C93.5008 65.7287 94.5427 65.7214 95.2064 65.1577C95.3668 65.0299 95.4986 64.8698 95.5933 64.6878C95.6879 64.5059 95.7432 64.306 95.7556 64.1013C95.768 63.8965 95.7373 63.6914 95.6654 63.4993C95.5935 63.3072 95.482 63.1324 95.3382 62.9861C94.4476 62.1321 92.2638 62.5738 91.2951 63.0959C91.2414 63.1252 90.7363 63.4741 90.3728 63.7328C90.5484 63.5425 90.7266 63.3424 90.8998 63.1642C91.5464 62.4884 92.1808 61.9125 92.7444 61.405C93.069 61.1195 93.3666 60.8682 93.6472 60.6364C94.0767 60.7047 95.8042 60.9634 96.6192 60.7438C97.4341 60.5242 98.3711 60.041 98.698 59.2334C98.7812 59.0462 98.8242 58.8436 98.8242 58.6387C98.8242 58.4338 98.7811 58.2312 98.6979 58.044C98.6146 57.8568 98.493 57.6891 98.3409 57.5519C98.1888 57.4147 98.0095 57.3109 97.8148 57.2472C96.6314 56.8983 94.8868 58.2964 94.2768 59.1992C94.2231 59.2798 93.5277 60.6071 93.5448 60.612H93.5692C93.2959 60.8292 93.0031 61.0659 92.6883 61.3318C92.11 61.8198 91.4683 62.3932 90.7998 63.0545C90.0774 63.7613 89.3963 64.5092 88.7599 65.2944C88.0432 66.1703 87.4063 67.1086 86.8567 68.0979C86.8567 68.0979 86.8567 68.1223 86.8396 68.1345C86.9104 67.7783 87.0836 66.7803 87.0836 66.7023C87.1373 65.6018 86.5956 63.44 85.4391 63.0057C85.2453 62.9392 85.0397 62.9142 84.8357 62.9323C84.6316 62.9503 84.4336 63.0109 84.2544 63.1103C84.0753 63.2096 83.919 63.3455 83.7956 63.509C83.6723 63.6726 83.5846 63.8602 83.5383 64.0597C83.3138 64.9015 83.7823 65.8678 84.2874 66.5168C84.8584 67.2488 86.6444 68.1785 86.786 68.2517C86.2526 69.2723 85.7872 70.3271 85.3927 71.409C85.1487 72.0385 84.9438 72.6803 84.7364 73.3244C84.7876 73.017 84.8315 72.7388 84.834 72.6998C84.8876 71.5993 84.346 69.4399 83.1894 69.0032C82.9956 68.9368 82.79 68.9117 82.586 68.9298C82.3819 68.9478 82.1839 69.0084 82.0048 69.1078C81.8256 69.2071 81.6693 69.343 81.5459 69.5065C81.4226 69.6701 81.3349 69.8577 81.2886 70.0573C81.0642 70.899 81.5326 71.8677 82.0377 72.5143C82.5428 73.1609 84.058 73.9979 84.4606 74.2101C84.3826 74.4541 84.302 74.6981 84.2166 74.9543C83.8506 76.1475 83.4846 77.3407 83.104 78.4997C82.9674 78.9071 82.8161 79.3048 82.6697 79.7026C82.7136 79.4268 82.7502 79.1975 82.7502 79.1609C82.8063 78.0604 82.2622 75.8986 81.1081 75.4643C80.9145 75.3979 80.709 75.3728 80.5051 75.3906C80.3012 75.4085 80.1033 75.4689 79.9242 75.568C79.7451 75.6671 79.5887 75.8027 79.4652 75.966C79.3418 76.1292 79.2539 76.3166 79.2073 76.5159C78.9828 77.3602 79.4513 78.3264 79.9564 78.9755C80.4615 79.6245 81.8303 80.376 82.3061 80.6322C82.1426 81.0348 81.9792 81.4374 81.801 81.8205C81.6742 82.0791 81.5692 82.3378 81.4277 82.5915C81.2862 82.8453 81.1593 83.0942 81.0251 83.3431C80.7543 83.8115 80.4737 84.2971 80.198 84.7485C80.0052 85.0632 79.8173 85.3585 79.6294 85.6586C79.771 85.2536 80.0296 84.4557 80.0442 84.3874C80.2638 83.3065 80.0442 81.0885 78.9804 80.4834C78.7988 80.3881 78.5993 80.3321 78.3947 80.3189C78.1901 80.3057 77.9851 80.3356 77.7928 80.4066C77.6005 80.4777 77.4252 80.5884 77.2784 80.7315C77.1316 80.8746 77.0165 81.0469 76.9406 81.2373C76.5916 82.0352 76.9064 83.0624 77.309 83.7798C77.7531 84.5704 79.3074 85.7318 79.505 85.8636C79.1927 86.3516 78.8828 86.8396 78.5827 87.2812C78.4314 87.5081 78.285 87.7277 78.141 87.9376L78.6705 88.4963C78.8413 88.2353 79.017 87.9644 79.1976 87.6814C79.5172 87.1934 79.849 86.6395 80.1736 86.0807C80.751 86.3131 81.3417 86.5111 81.9426 86.6737C81.9279 87.6033 82.5452 89.3015 82.6258 89.5211C82.0914 89.7651 81.5717 89.9872 81.0764 90.1946C80.8716 90.2687 80.6621 90.329 80.4493 90.3751L81.0154 90.9681C81.1353 90.9444 81.2529 90.9101 81.3667 90.8656C81.9084 90.6216 82.4842 90.3581 83.0747 90.075C83.2089 90.2727 84.3167 91.8635 85.095 92.3296C85.8002 92.7541 86.8177 93.0982 87.6278 92.7712C87.8198 92.7005 87.995 92.5903 88.1418 92.4477C88.2887 92.3051 88.404 92.1333 88.4803 91.9434C88.5566 91.7534 88.5923 91.5496 88.585 91.3451C88.5777 91.1405 88.5275 90.9398 88.4378 90.7558C87.8644 89.6627 85.6538 89.3894 84.568 89.5773C84.5046 89.5895 83.8238 89.7871 83.3944 89.9213C83.6384 89.8042 83.8677 89.6944 84.1142 89.5724C84.6022 89.3284 85.0902 89.0844 85.5952 88.8087L86.3272 88.389C86.5712 88.2523 86.8152 88.0766 87.0763 87.9205C87.6546 87.5472 88.2207 87.1421 88.7843 86.72C88.9942 87.1446 89.7603 88.6476 90.3996 89.1747C91.0389 89.7017 91.9856 90.1946 92.8396 89.9945C93.0406 89.9539 93.2308 89.8716 93.3979 89.7529C93.565 89.6341 93.7053 89.4816 93.8098 89.3052C93.9142 89.1287 93.9804 88.9323 94.0041 88.7287C94.0278 88.5251 94.0085 88.3187 93.9474 88.123C93.5448 86.9567 91.4024 86.3516 90.2996 86.3735C90.2312 86.3735 89.4431 86.4809 89.0112 86.5468C89.3455 86.2906 89.6822 86.0368 90.0116 85.766C90.9681 84.9852 91.9124 84.1678 92.8567 83.3528C93.1446 83.1088 93.435 82.8648 93.7253 82.6208C93.7985 82.7721 94.6745 84.5728 95.387 85.1682C96.0214 85.6928 96.9754 86.1881 97.827 85.988C98.0279 85.9474 98.2181 85.8651 98.3852 85.7464C98.5524 85.6276 98.6927 85.4751 98.7971 85.2987C98.9015 85.1223 98.9678 84.9259 98.9915 84.7222C99.0152 84.5186 98.9958 84.3122 98.9347 84.1165C98.5321 82.9502 96.3898 82.3451 95.2747 82.3671C95.1918 82.3671 94.0547 82.5232 93.7692 82.5745C94.4085 82.0328 95.0527 81.4984 95.7066 80.9982C96.5877 80.317 97.512 79.6935 98.4736 79.1316C98.5077 79.2024 99.413 81.0836 100.143 81.6961C100.777 82.2207 101.731 82.716 102.583 82.5159C102.784 82.4756 102.974 82.3935 103.142 82.2749C103.309 82.1563 103.45 82.0038 103.554 81.8273C103.659 81.6508 103.725 81.4544 103.749 81.2506C103.773 81.0468 103.754 80.8403 103.693 80.6444C103.29 79.4781 101.145 78.873 100.045 78.8949C99.9571 78.8949 98.7371 79.0633 98.5175 79.1072C98.5736 79.0755 98.6273 79.0365 98.6834 79.0047C99.6631 78.4701 100.689 78.0242 101.748 77.6725C102.331 77.4675 102.9 77.3065 103.456 77.1625C103.588 77.531 104.212 79.2097 104.81 79.827C105.408 80.4443 106.274 81.0153 107.14 80.9079C107.345 80.8898 107.543 80.829 107.722 80.7295C107.901 80.63 108.057 80.4939 108.181 80.3302C108.304 80.1664 108.392 79.9786 108.438 79.7788C108.484 79.5791 108.487 79.3719 108.448 79.1707C108.177 77.9677 106.113 77.1308 105.015 77.0332C104.954 77.0332 104.342 77.0332 103.895 77.0552C104.139 76.9942 104.408 76.9259 104.649 76.8697C105.559 76.6648 106.406 76.533 107.158 76.4232C107.585 76.3622 107.972 76.3158 108.336 76.2793C108.653 76.5721 109.954 77.7432 110.754 78.0092C111.554 78.2752 112.601 78.3874 113.321 77.897C113.495 77.7875 113.643 77.6427 113.757 77.4721C113.871 77.3015 113.948 77.1089 113.983 76.9066C114.017 76.7044 114.009 76.4971 113.959 76.2982C113.908 76.0994 113.816 75.9133 113.689 75.7522Z" fill="#263238"/>
<path d="M103.588 76.96C103.588 76.9819 104.869 76.1914 104.944 76.1328C105.808 75.4472 107.075 73.6172 106.652 72.4728C106.574 72.2836 106.457 72.1129 106.309 71.9717C106.161 71.8305 105.985 71.7219 105.793 71.6529C105.6 71.584 105.395 71.5561 105.191 71.5713C104.987 71.5864 104.788 71.6442 104.608 71.7408C103.824 72.1288 103.405 73.1145 103.251 73.9246C103.061 74.8567 103.588 76.96 103.588 76.96Z" fill="#263238"/>
<path d="M32.674 61.4733C32.3007 62.3664 30.7 63.8279 30.7 63.8279C30.7 63.8279 30.0559 62.4811 30.0266 62.3908C29.6826 61.344 29.6362 59.1163 30.6342 58.3916C30.8034 58.2761 30.9951 58.1973 31.1967 58.1605C31.3983 58.1237 31.6054 58.1297 31.8046 58.178C32.0038 58.2263 32.1906 58.3158 32.353 58.4409C32.5154 58.566 32.6497 58.7238 32.7472 58.904C33.184 59.658 32.9912 60.7145 32.674 61.4733Z" fill="#263238"/>
<path d="M7.05403 75.7522C7.84947 74.8079 10.0674 75.0202 11.0873 75.435C11.1752 75.4716 12.4879 76.1938 12.4733 76.2109L12.4537 76.228C12.8027 76.2573 13.1857 76.2939 13.5883 76.3427C14.3423 76.4379 15.1939 76.5525 16.1137 76.738C17.1029 76.926 18.0805 77.1704 19.0417 77.47C20.122 77.8061 21.1704 78.2373 22.1747 78.7583L22.2089 78.7803C21.9649 78.5216 21.267 77.7799 21.2329 77.7164C20.5814 76.8283 19.8421 74.7274 20.5643 73.727C20.6892 73.5646 20.8468 73.4303 21.0268 73.3326C21.2069 73.235 21.4055 73.1762 21.6097 73.1601C21.8139 73.144 22.0192 73.1709 22.2124 73.2392C22.4056 73.3074 22.5822 73.4154 22.731 73.5562C23.3825 74.1345 23.5289 75.1983 23.463 76.0206C23.3898 76.9454 22.4138 78.7046 22.3357 78.8461C23.3436 79.403 24.3135 80.0257 25.2393 80.7103C25.781 81.108 26.3154 81.5228 26.8449 81.9474C26.6301 81.718 26.4423 81.5106 26.4203 81.4789C25.7664 80.5907 25.0271 78.4899 25.7493 77.4895C25.8742 77.3267 26.0319 77.192 26.2122 77.0941C26.3925 76.9962 26.5913 76.9373 26.7959 76.9212C27.0004 76.9051 27.206 76.9322 27.3994 77.0007C27.5928 77.0691 27.7696 77.1775 27.9185 77.3187C28.5699 77.897 28.7139 78.9608 28.6505 79.7831C28.587 80.6054 27.7818 82.1328 27.5647 82.533L28.1673 83.021C29.1433 83.8164 30.0901 84.6119 31.0514 85.3634C31.3906 85.6293 31.7346 85.8782 32.0787 86.1271C31.8908 85.9246 31.7322 85.7513 31.7102 85.7221C31.0587 84.8339 30.3194 82.7331 31.0417 81.7327C31.1666 81.5703 31.3241 81.4359 31.5042 81.3383C31.6843 81.2406 31.8829 81.1818 32.0871 81.1657C32.2913 81.1496 32.4966 81.1766 32.6898 81.2448C32.8829 81.313 33.0596 81.421 33.2084 81.5618C33.8599 82.1401 34.0063 83.204 33.9404 84.0238C33.8745 84.8436 33.1498 86.2198 32.8936 86.7078C33.2523 86.9518 33.6256 87.1958 33.9721 87.4227C34.2161 87.5667 34.4601 87.7253 34.7041 87.8571L35.4556 88.2645C35.9436 88.5085 36.4316 88.7525 36.9196 88.977C37.2515 89.1356 37.5711 89.2796 37.8956 89.426C37.5565 89.1649 36.9001 88.6427 36.8489 88.5915C36.1889 87.8809 35.7219 87.0132 35.4922 86.071C35.4156 85.9963 35.3462 85.9146 35.2848 85.827C35.1632 85.6621 35.0775 85.4735 35.0333 85.2734C34.9892 85.0733 34.9875 84.8661 35.0284 84.6654C35.0694 84.4646 35.152 84.2746 35.271 84.1078C35.39 83.941 35.5426 83.801 35.7191 83.6968C36.8025 83.1039 38.796 84.0946 39.5963 84.851C39.6451 84.8973 40.1038 85.439 40.3869 85.7855C40.2502 85.5561 40.116 85.3341 39.9794 85.0974C39.7061 84.6289 39.445 84.1531 39.1644 83.6334L38.7789 82.8746C38.6447 82.6306 38.5349 82.3402 38.4105 82.0718C38.1372 81.4423 37.8883 80.7908 37.6516 80.1198C37.2417 80.3638 35.7728 81.1861 34.9505 81.2739C34.1283 81.3618 33.0644 81.2495 32.4666 80.6151C32.3214 80.4705 32.2082 80.297 32.1342 80.1059C32.0603 79.9147 32.0273 79.7102 32.0374 79.5055C32.0476 79.3008 32.1005 79.1005 32.193 78.9175C32.2854 78.7346 32.4152 78.5731 32.574 78.4435C33.55 77.692 35.6752 78.3703 36.5805 78.9974C36.639 79.0365 37.2393 79.5586 37.5565 79.8514C37.4198 79.4537 37.2783 79.056 37.1514 78.6485C36.7854 77.47 36.4511 76.267 36.112 75.0666C36.0095 74.7006 35.8997 74.3346 35.7948 73.9686C35.6484 74.0564 33.9233 75.0788 33.0034 75.1886C32.1836 75.2764 31.1173 75.1617 30.5195 74.5273C30.3743 74.3827 30.261 74.2092 30.1871 74.0181C30.1132 73.8269 30.0802 73.6224 30.0903 73.4177C30.1004 73.213 30.1534 73.0127 30.2458 72.8297C30.3383 72.6468 30.4681 72.4853 30.6269 72.3557C31.6029 71.6042 33.7281 72.2825 34.6333 72.9096C34.7017 72.956 35.5654 73.7099 35.7753 73.9125C35.5313 73.1073 35.2995 72.3069 35.0286 71.5286C34.6699 70.4738 34.2429 69.4436 33.7501 68.4444C33.6842 68.4859 31.8883 69.5595 30.9441 69.6644C30.1267 69.7547 29.0579 69.64 28.4601 69.0056C28.3149 68.861 28.2017 68.6875 28.1277 68.4963C28.0538 68.3052 28.0208 68.1006 28.031 67.8959C28.0411 67.6912 28.0941 67.4909 28.1865 67.308C28.2789 67.1251 28.4087 66.9636 28.5675 66.834C29.5435 66.0825 31.6687 66.7608 32.5764 67.3879C32.6472 67.4367 33.5744 68.2468 33.7305 68.4054C33.7037 68.3493 33.6793 68.2858 33.65 68.2273C33.128 67.2401 32.5197 66.3012 31.8322 65.4213C31.4589 64.9332 31.0734 64.4818 30.6879 64.0548C30.3755 64.2988 28.9286 65.3432 28.0893 65.5311C27.2865 65.7092 26.2129 65.7116 25.5492 65.148C25.3888 65.0202 25.257 64.8601 25.1624 64.6781C25.0678 64.4961 25.0124 64.2962 25 64.0915C24.9876 63.8868 25.0183 63.6817 25.0903 63.4896C25.1622 63.2975 25.2736 63.1226 25.4175 62.9764C26.3081 62.1224 28.4894 62.564 29.4605 63.0862C29.5142 63.1154 30.0169 63.4644 30.3804 63.723C30.2047 63.5327 30.0266 63.3326 29.8534 63.1545C29.2092 62.4786 28.5748 61.9028 28.0087 61.3952C27.6867 61.1098 27.389 60.8585 27.1059 60.6267C26.6789 60.695 24.949 60.9536 24.134 60.734C23.3191 60.5144 22.3845 60.0313 22.0551 59.2237C21.9735 59.0371 21.9317 58.8355 21.9325 58.6319C21.9332 58.4282 21.9763 58.227 22.0592 58.041C22.1421 57.855 22.2629 57.6883 22.4139 57.5516C22.5649 57.415 22.7427 57.3113 22.936 57.2472C24.1218 56.8983 25.864 58.2964 26.474 59.1992C26.5277 59.2798 27.2255 60.6071 27.206 60.612H27.1791C27.4549 60.8292 27.7477 61.0659 28.0624 61.3318C28.6383 61.8198 29.2824 62.3932 29.951 63.0545C30.6725 63.7614 31.3528 64.5093 31.9884 65.2944C32.7051 66.1703 33.342 67.1086 33.8916 68.0979C33.8987 68.1094 33.9045 68.1217 33.9087 68.1345C33.8379 67.7783 33.6647 66.7803 33.6647 66.7023C33.611 65.6018 34.1527 63.44 35.3068 63.0057C35.5007 62.9388 35.7065 62.9135 35.9109 62.9313C36.1152 62.9492 36.3135 63.0097 36.493 63.1091C36.6724 63.2085 36.829 63.3445 36.9525 63.5082C37.076 63.672 37.1637 63.8599 37.21 64.0597C37.432 64.9015 36.966 65.8678 36.4609 66.5168C35.8875 67.2488 34.1039 68.1785 33.9599 68.2517C34.494 69.2723 34.9603 70.327 35.3556 71.409C35.5874 72.0385 35.8021 72.6803 36.0095 73.3244C35.9607 73.017 35.9168 72.7388 35.9143 72.6998C35.8607 71.5993 36.4023 69.4399 37.5565 69.0032C37.7504 68.9363 37.9562 68.911 38.1606 68.9289C38.3649 68.9467 38.5632 69.0072 38.7427 69.1066C38.9221 69.206 39.0787 69.342 39.2022 69.5058C39.3257 69.6695 39.4134 69.8574 39.4597 70.0573C39.6841 70.899 39.2157 71.8677 38.7106 72.5143C38.2055 73.1609 36.6903 73.9979 36.2877 74.2101C36.3657 74.4541 36.4438 74.6981 36.5317 74.9543C36.8977 76.1475 37.2637 77.3407 37.6467 78.4997C37.7834 78.9071 37.9322 79.3048 38.0811 79.7026C38.0347 79.4268 38.0005 79.1975 37.9981 79.1609C37.9444 78.0604 38.4861 75.8986 39.6402 75.4643C39.834 75.3974 40.0396 75.372 40.2438 75.3897C40.4481 75.4074 40.6463 75.4677 40.8257 75.5669C41.0051 75.666 41.1617 75.8017 41.2853 75.9652C41.409 76.1287 41.4969 76.3163 41.5434 76.5159C41.7679 77.3602 41.2994 78.3264 40.7943 78.9755C40.2893 79.6245 38.9204 80.376 38.4446 80.6322C38.6081 81.0348 38.7716 81.4374 38.9497 81.8205C39.0766 82.0791 39.1791 82.3378 39.3206 82.5915C39.4621 82.8453 39.5914 83.0942 39.7232 83.3431C39.9965 83.8115 40.2746 84.2971 40.5528 84.7485C40.7431 85.0632 40.931 85.3585 41.1189 85.6586C40.9773 85.2536 40.7187 84.4557 40.7065 84.3874C40.4845 83.3065 40.7065 81.0885 41.7703 80.4834C41.9518 80.3886 42.1511 80.3328 42.3554 80.3198C42.5597 80.3068 42.7645 80.3368 42.9565 80.4079C43.1485 80.4789 43.3234 80.5895 43.4701 80.7323C43.6167 80.8752 43.7317 81.0472 43.8077 81.2373C44.1567 82.0352 43.8443 83.0624 43.4417 83.7798C42.9977 84.5704 41.4434 85.7318 41.2457 85.8636C41.5581 86.3516 41.8679 86.8396 42.1656 87.2812C42.3169 87.5081 42.4657 87.7277 42.6097 87.9376L42.0802 88.4963C41.907 88.2353 41.7337 87.9644 41.5532 87.6814C41.2335 87.1934 40.9017 86.6395 40.565 86.0807C39.9877 86.3135 39.397 86.5115 38.796 86.6737C38.8131 87.6033 38.1957 89.3015 38.1128 89.5211C38.6471 89.7651 39.1693 89.9872 39.6646 90.1946C39.8685 90.2687 40.0772 90.3291 40.2893 90.3751L39.7256 90.9681C39.6056 90.9447 39.488 90.9104 39.3743 90.8656C38.8301 90.6216 38.2543 90.3581 37.6663 90.075C37.5321 90.2727 36.4267 91.8635 35.6484 92.3296C34.9408 92.7541 33.9233 93.0982 33.1157 92.7712C32.9234 92.7007 32.748 92.5907 32.6009 92.4482C32.4538 92.3057 32.3382 92.134 32.2616 91.944C32.185 91.7541 32.1492 91.5502 32.1563 91.3455C32.1635 91.1408 32.2135 90.9399 32.3031 90.7558C32.879 89.6627 35.0872 89.3894 36.173 89.5773C36.2389 89.5895 36.9196 89.7871 37.3466 89.9213C37.1026 89.8042 36.8733 89.6944 36.6293 89.5724C36.1413 89.3284 35.6533 89.0844 35.1482 88.8087L34.4162 88.389C34.1722 88.2523 33.9282 88.0766 33.6647 87.9205C33.0888 87.5472 32.5227 87.1421 31.9567 86.72C31.7468 87.1446 30.9807 88.6476 30.3414 89.1747C29.7021 89.7017 28.7529 90.1946 27.9014 89.9945C27.7004 89.9539 27.5102 89.8716 27.3431 89.7529C27.176 89.6341 27.0357 89.4816 26.9312 89.3052C26.8268 89.1287 26.7606 88.9323 26.7369 88.7287C26.7132 88.5251 26.7325 88.3187 26.7936 88.123C27.1962 86.9567 29.3385 86.3516 30.4536 86.3735C30.5219 86.3735 31.3125 86.4809 31.7444 86.5468C31.4077 86.2906 31.0734 86.0368 30.7415 85.766C29.7851 84.9852 28.8432 84.1678 27.8989 83.3528C27.611 83.1088 27.3182 82.8648 27.0279 82.6208C26.9547 82.7721 26.0787 84.5728 25.3662 85.1682C24.7318 85.6928 23.7802 86.1881 22.9262 85.988C22.7253 85.9474 22.5351 85.8651 22.3679 85.7464C22.2008 85.6276 22.0605 85.4751 21.9561 85.2987C21.8516 85.1223 21.7854 84.9259 21.7617 84.7222C21.738 84.5186 21.7573 84.3122 21.8185 84.1165C22.2211 82.9502 24.3634 82.3451 25.4785 82.3671C25.5614 82.3671 26.6985 82.5232 26.9815 82.5745C26.3422 82.0328 25.7005 81.4984 25.0441 80.9982C24.1638 80.3159 23.2395 79.6924 22.2772 79.1316C22.2455 79.2024 21.3402 81.0836 20.6082 81.6961C19.9763 82.2207 19.0222 82.716 18.1682 82.5159C17.9673 82.4753 17.7771 82.393 17.6099 82.2743C17.4428 82.1555 17.3025 82.003 17.1981 81.8266C17.0936 81.6501 17.0274 81.4537 17.0037 81.2501C16.98 81.0465 16.9993 80.8401 17.0605 80.6444C17.4631 79.4781 19.6054 78.873 20.7205 78.8949C20.8059 78.8949 22.0283 79.0633 22.2479 79.1072L22.0795 79.0047C21.1002 78.468 20.0745 78.0204 19.0149 77.6676C18.4317 77.4627 17.8632 77.3016 17.3069 77.1577C17.1751 77.5261 16.5505 79.2048 15.9551 79.8221C15.3598 80.4395 14.4911 81.0104 13.6225 80.9031C13.4185 80.8846 13.2207 80.8236 13.0418 80.7239C12.8629 80.6243 12.7069 80.4882 12.5838 80.3244C12.4608 80.1607 12.3735 79.973 12.3275 79.7734C12.2816 79.5738 12.278 79.3668 12.3171 79.1658C12.5879 77.9629 14.6522 77.1259 15.7502 77.0283C15.8087 77.0283 16.4212 77.0283 16.8677 77.0503C16.6237 76.9893 16.3577 76.921 16.1137 76.8648C15.2036 76.6599 14.3569 76.5281 13.6079 76.4183C13.1784 76.3573 12.7929 76.311 12.4293 76.2744C12.1097 76.5672 10.8092 77.7384 10.0089 78.0043C9.20855 78.2703 8.16179 78.3825 7.44199 77.8921C7.26766 77.7842 7.11795 77.6409 7.00254 77.4714C6.88713 77.302 6.80859 77.1102 6.77202 76.9084C6.73545 76.7067 6.74165 76.4996 6.79023 76.3004C6.83881 76.1012 6.92868 75.9144 7.05403 75.7522Z" fill="#263238"/>
<path d="M17.1557 76.96C17.1557 76.9819 15.8747 76.1914 15.8015 76.1328C14.9377 75.4472 13.6689 73.6172 14.0935 72.4728C14.1715 72.2836 14.2884 72.1129 14.4365 71.9717C14.5846 71.8305 14.7607 71.7219 14.9533 71.6529C15.146 71.584 15.351 71.5561 15.5551 71.5713C15.7591 71.5864 15.9578 71.6442 16.1382 71.7408C16.919 72.1288 17.3411 73.1145 17.4948 73.9246C17.6851 74.8567 17.1557 76.96 17.1557 76.96Z" fill="#263238"/>
<path d="M60.8927 112.194C71.3175 112.194 79.7685 111.172 79.7685 109.912C79.7685 108.652 71.3175 107.631 60.8927 107.631C50.4678 107.631 42.0168 108.652 42.0168 109.912C42.0168 111.172 50.4678 112.194 60.8927 112.194Z" fill="#263238"/>
<path d="M104.388 22.3113C107.894 22.3113 110.737 19.4689 110.737 15.9625C110.737 12.4561 107.894 9.61359 104.388 9.61359C100.882 9.61359 98.0392 12.4561 98.0392 15.9625C98.0392 19.4689 100.882 22.3113 104.388 22.3113Z" stroke="#263238" stroke-linecap="round" stroke-linejoin="round"/>
<path d="M101.806 17.2V16.4272H102.602C103.177 16.4272 103.621 16.3077 103.934 16.0688C104.248 15.8224 104.405 15.4416 104.405 14.9264C104.405 14.456 104.248 14.1237 103.934 13.9296C103.621 13.728 103.177 13.6272 102.602 13.6272H101.806V12.8544H106.051V13.448H104.506C104.752 13.5824 104.95 13.7765 105.099 14.0304C105.249 14.2843 105.323 14.5829 105.323 14.9264C105.323 15.4416 105.211 15.8672 104.987 16.2032C104.763 16.5392 104.457 16.7893 104.069 16.9536C103.688 17.1179 103.251 17.2 102.758 17.2H101.806ZM101.806 15.1392V14.6016L102.579 14.5456H106.051V15.1392H101.806ZM104.651 20L102.557 17.0208L103.218 16.5728L105.726 20H104.651Z" fill="#263238"/>
<path d="M80.9103 22.0332V96.0774C80.9103 97.0533 80.5226 97.9892 79.8326 98.6792C79.1425 99.3693 78.2066 99.7569 77.2308 99.7569H45.2375C44.2616 99.7569 43.3257 99.3693 42.6357 98.6792C41.9456 97.9892 41.558 97.0533 41.558 96.0774V22.0332C41.558 21.0577 41.9453 20.1222 42.6348 19.4322C43.3243 18.7423 44.2596 18.3543 45.2351 18.3537H58.9674L58.9796 18.3976C59.3212 19.6176 60.1093 20.4301 60.9828 20.4301H61.4708C62.3468 20.4301 63.1349 19.6273 63.4765 18.3976L63.4887 18.3537H77.2186C77.7028 18.3521 78.1826 18.446 78.6304 18.6302C79.0782 18.8144 79.4853 19.0852 79.8283 19.427C80.1712 19.7689 80.4434 20.175 80.629 20.6223C80.8147 21.0695 80.9103 21.5489 80.9103 22.0332Z" fill="white" stroke="#263238" stroke-linecap="round" stroke-linejoin="round"/>
<path d="M83.4113 39.7183V32.3227H82.7428V22.8555C82.7428 21.3075 82.1279 19.823 81.0333 18.7284C79.9388 17.6339 78.4542 17.019 76.9063 17.019H45.5596C44.0117 17.019 42.5272 17.6339 41.4326 18.7284C40.3381 19.823 39.7231 21.3075 39.7231 22.8555V98.088C39.7231 99.6359 40.3381 101.12 41.4326 102.215C42.5272 103.31 44.0117 103.924 45.5596 103.924H76.9063C78.4542 103.924 79.9388 103.31 81.0333 102.215C82.1279 101.12 82.7428 99.6359 82.7428 98.088V46.0208H83.4113V41.6508H82.7428V39.7183H83.4113ZM80.9103 93.9205C80.9097 95.4682 80.2946 96.9524 79.2002 98.0468C78.1058 99.1412 76.6216 99.7563 75.0739 99.757H47.3945C45.8466 99.757 44.362 99.142 43.2675 98.0475C42.1729 96.9529 41.558 95.4684 41.558 93.9205V24.1901C41.558 22.6422 42.1729 21.1577 43.2675 20.0631C44.362 18.9686 45.8466 18.3537 47.3945 18.3537H58.9674L58.9796 18.3976C59.3212 19.6176 60.1093 20.4301 60.9829 20.4301H61.4709C62.3468 20.4301 63.1349 19.6273 63.4765 18.3976L63.4887 18.3537H75.0617C75.8291 18.3524 76.5892 18.5024 77.2986 18.7951C78.0079 19.0878 78.6527 19.5175 79.1959 20.0595C79.739 20.6016 80.1701 21.2454 80.4643 21.9542C80.7584 22.6629 80.91 23.4227 80.9103 24.1901V93.9205Z" fill="#1769E9" stroke="#263238" stroke-linecap="round" stroke-linejoin="round"/>
<path d="M76.4403 17.8242H46.0281C45.2889 17.8242 44.5569 17.9698 43.874 18.2526C43.191 18.5355 42.5705 18.9502 42.0478 19.4729C41.5251 19.9956 41.1104 20.6161 40.8275 21.2991C40.5446 21.982 40.399 22.714 40.399 23.4532V97.4926C40.399 98.9855 40.9921 100.417 42.0478 101.473C43.1034 102.529 44.5352 103.122 46.0281 103.122H76.4403C77.1794 103.122 77.9113 102.976 78.5941 102.693C79.2769 102.41 79.8973 101.996 80.4198 101.473C80.9423 100.95 81.3567 100.33 81.6393 99.6466C81.9219 98.9636 82.0672 98.2317 82.0669 97.4926V23.4532C82.0672 22.7141 81.9219 21.9822 81.6393 21.2993C81.3567 20.6163 80.9423 19.9958 80.4198 19.473C79.8973 18.9503 79.2769 18.5356 78.5941 18.2527C77.9113 17.9698 77.1794 17.8242 76.4403 17.8242ZM80.9104 94.1278C80.9104 95.6208 80.3173 97.0525 79.2616 98.1082C78.206 99.1639 76.7742 99.7569 75.2813 99.7569H47.1871C45.6942 99.7569 44.2624 99.1639 43.2068 98.1082C42.1511 97.0525 41.558 95.6208 41.558 94.1278V23.9803C41.558 22.488 42.1508 21.0568 43.206 20.0016C44.2612 18.9464 45.6924 18.3536 47.1847 18.3536H58.9674L58.9796 18.3976C59.3212 19.6176 60.1094 20.4301 60.9829 20.4301H61.4709C62.3468 20.4301 63.135 19.6273 63.4766 18.3976L63.4888 18.3536H75.2691C76.0093 18.352 76.7426 18.4964 77.427 18.7786C78.1113 19.0608 78.7333 19.4752 79.2573 19.998C79.7813 20.5209 80.1971 21.142 80.4807 21.8257C80.7644 22.5095 80.9104 23.2425 80.9104 23.9827V94.1278Z" fill="#263238" stroke="#263238" stroke-linecap="round" stroke-linejoin="round"/>
<path d="M61.6612 18.6343C61.6617 18.5255 61.6299 18.419 61.5697 18.3283C61.5096 18.2377 61.4239 18.1669 61.3234 18.1251C61.223 18.0832 61.1124 18.0721 61.0057 18.0933C60.899 18.1144 60.801 18.1667 60.724 18.2436C60.6471 18.3205 60.5948 18.4186 60.5737 18.5253C60.5526 18.632 60.5636 18.7426 60.6055 18.843C60.6473 18.9435 60.7181 19.0292 60.8087 19.0893C60.8994 19.1495 61.0059 19.1813 61.1147 19.1808C61.2596 19.1808 61.3986 19.1232 61.5011 19.0207C61.6036 18.9182 61.6612 18.7792 61.6612 18.6343Z" fill="white"/>
<path d="M45.0546 20.74C45.0546 21.2938 44.4324 21.4939 44.4299 21.916V21.9453H45.0351V22.1332H44.2274V21.96C44.2274 21.367 44.8496 21.2499 44.8496 20.74C44.8496 20.5521 44.7886 20.452 44.6349 20.452C44.4812 20.452 44.4202 20.5594 44.4202 20.7229V20.8864H44.2274V20.74C44.2274 20.4594 44.3567 20.2739 44.6398 20.2739C44.9228 20.2739 45.0546 20.452 45.0546 20.74Z" fill="#263238"/>
<path d="M46.0623 20.74V20.7863C46.0717 20.8653 46.0548 20.9452 46.0142 21.0135C45.9736 21.0819 45.9116 21.135 45.8378 21.1645C45.912 21.195 45.9742 21.2489 46.0147 21.3181C46.0553 21.3874 46.072 21.468 46.0623 21.5476V21.6891C46.0623 21.9697 45.9305 22.1527 45.6475 22.1527C45.3644 22.1527 45.2351 21.9697 45.2351 21.6891V21.5622H45.4254V21.7013C45.4254 21.8672 45.4937 21.9673 45.6426 21.9673C45.7914 21.9673 45.8573 21.8697 45.8573 21.6842V21.5403C45.8573 21.3597 45.7817 21.2743 45.6255 21.267H45.5157V21.084H45.6279C45.659 21.0842 45.6898 21.0778 45.7183 21.0653C45.7468 21.0528 45.7723 21.0344 45.7933 21.0114C45.8142 20.9884 45.8301 20.9613 45.8398 20.9317C45.8496 20.9022 45.8531 20.871 45.85 20.84V20.74C45.85 20.5521 45.7841 20.4545 45.6353 20.4545C45.4864 20.4545 45.4181 20.557 45.4181 20.7229V20.818H45.2278V20.74C45.2278 20.4594 45.3595 20.2788 45.6401 20.2788C45.9207 20.2788 46.0623 20.4496 46.0623 20.74Z" fill="#263238"/>
<path d="M46.4575 20.8693V21.1133H46.2623V20.8693H46.4575ZM46.4575 21.8697V22.1259H46.2623V21.8697H46.4575Z" fill="#263238"/>
<path d="M46.8748 21.0352C46.9014 20.9868 46.9412 20.9469 46.9895 20.9201C47.0379 20.8933 47.0928 20.8808 47.148 20.8839C47.392 20.8839 47.4872 21.0572 47.4872 21.3183V21.6794C47.4872 21.96 47.3554 22.143 47.0724 22.143C46.7894 22.143 46.66 21.96 46.66 21.6794V21.5549H46.8479V21.6916C46.8479 21.8575 46.9162 21.9575 47.0626 21.9575C47.209 21.9575 47.2798 21.8575 47.2798 21.6916V21.3353C47.2798 21.1694 47.2115 21.0694 47.0626 21.0694C47.036 21.0684 47.0093 21.0728 46.9844 21.0822C46.9594 21.0917 46.9366 21.1061 46.9173 21.1245C46.8979 21.1429 46.8825 21.165 46.8718 21.1895C46.8612 21.214 46.8555 21.2403 46.8552 21.267V21.3085H46.6649L46.7137 20.2861H47.4457V20.4691H46.904L46.8748 21.0352Z" fill="#263238"/>
<path d="M48.5095 20.74V20.7741H48.3119V20.7156C48.3119 20.5496 48.2436 20.452 48.0947 20.452C47.9459 20.452 47.8702 20.5521 47.8702 20.7497V21.1621C47.8914 21.1011 47.932 21.0488 47.9858 21.0131C48.0396 20.9774 48.1035 20.9603 48.1679 20.9644C48.4119 20.9644 48.5095 21.1352 48.5095 21.4012V21.6794C48.5095 21.96 48.368 22.143 48.0874 22.143C47.8068 22.143 47.6653 21.96 47.6653 21.6794V20.74C47.6653 20.4496 47.797 20.269 48.0874 20.269C48.3778 20.269 48.5095 20.4472 48.5095 20.74ZM47.8776 21.428V21.6916C47.8776 21.8575 47.9459 21.9575 48.0947 21.9575C48.2436 21.9575 48.3143 21.8575 48.3143 21.6916V21.4158C48.3143 21.2499 48.2436 21.1499 48.0947 21.1499C47.9459 21.1499 47.8776 21.2499 47.8776 21.4158V21.428Z" fill="#263238"/>
<path d="M68.5859 20.8083H68.0662V22.1064H68.5859V20.8083Z" fill="#263238"/>
<path d="M69.2789 20.5497H68.7592V22.1088H69.2789V20.5497Z" fill="#263238"/>
<path d="M69.9694 20.3642H69.4497V22.1064H69.9694V20.3642Z" fill="#263238"/>
<path d="M70.6623 20.0421H70.1426V22.1064H70.6623V20.0421Z" fill="#263238"/>
<path d="M77.0868 22.0698H73.9709V20.1666H77.0868V22.0698ZM74.1442 21.899H76.9136V20.3398H74.1442V21.899Z" fill="#263238"/>
<path d="M76.0498 20.5277H74.4053V21.7087H76.0498V20.5277Z" fill="#263238"/>
<path d="M77.3723 20.8937H76.9795V21.3426H77.3723V20.8937Z" fill="#263238"/>
<path d="M72.829 21.6574C72.8082 21.6575 72.7879 21.6516 72.7704 21.6403C72.136 21.2646 71.7164 21.6135 71.6993 21.6403C71.6886 21.6512 71.6759 21.6598 71.6619 21.6657C71.6478 21.6715 71.6328 21.6746 71.6175 21.6746C71.6023 21.6746 71.5873 21.6715 71.5732 21.6657C71.5592 21.6598 71.5465 21.6512 71.5358 21.6403C71.5145 21.6185 71.5026 21.5891 71.5026 21.5586C71.5026 21.528 71.5145 21.4987 71.5358 21.4768C71.5602 21.4573 72.0946 20.9888 72.8802 21.4768C72.8933 21.4846 72.9047 21.4949 72.9137 21.5071C72.9228 21.5193 72.9293 21.5332 72.9329 21.548C72.9366 21.5627 72.9372 21.5781 72.9349 21.5931C72.9325 21.6081 72.9272 21.6225 72.9193 21.6354C72.9065 21.6449 72.8919 21.6518 72.8764 21.6556C72.8609 21.6593 72.8448 21.66 72.829 21.6574Z" fill="#263238"/>
<path d="M73.0633 21.2646C73.0429 21.2644 73.0229 21.2594 73.0048 21.2499C72.0873 20.7034 71.4725 21.2329 71.4651 21.2499C71.4415 21.2674 71.4122 21.2753 71.3829 21.2722C71.3537 21.269 71.3268 21.255 71.3074 21.2328C71.2881 21.2107 71.2777 21.1821 71.2785 21.1528C71.2792 21.1234 71.291 21.0954 71.3114 21.0743C71.3114 21.0743 72.0629 20.4301 73.1243 21.0743C73.1374 21.082 73.1488 21.0923 73.1578 21.1045C73.1669 21.1167 73.1734 21.1306 73.177 21.1454C73.1807 21.1601 73.1813 21.1755 73.179 21.1905C73.1766 21.2055 73.1713 21.2199 73.1634 21.2329C73.1504 21.2457 73.1346 21.2553 73.1172 21.2608C73.0998 21.2663 73.0813 21.2676 73.0633 21.2646Z" fill="#263238"/>
<path d="M73.278 20.8132C73.2564 20.8136 73.2352 20.8076 73.217 20.7961C72.0555 20.1056 71.2845 20.757 71.2528 20.7961C71.2413 20.8062 71.228 20.8139 71.2135 20.8187C71.199 20.8236 71.1837 20.8255 71.1685 20.8244C71.1532 20.8232 71.1384 20.8191 71.1248 20.8121C71.1112 20.8052 71.0991 20.7956 71.0893 20.7839C71.0785 20.7732 71.0698 20.7605 71.064 20.7465C71.0581 20.7324 71.0551 20.7174 71.0551 20.7021C71.0551 20.6869 71.0581 20.6719 71.064 20.6578C71.0698 20.6438 71.0785 20.6311 71.0893 20.6204C71.0893 20.6204 72.0165 19.8298 73.3268 20.6204C73.3532 20.6366 73.3724 20.6625 73.3801 20.6925C73.3878 20.7226 73.3836 20.7545 73.3683 20.7814C73.3563 20.7928 73.3421 20.8015 73.3265 20.8069C73.3109 20.8124 73.2944 20.8145 73.278 20.8132Z" fill="#263238"/>
<path d="M72.4801 21.8526C72.4801 21.9105 72.463 21.9671 72.4308 22.0153C72.3986 22.0634 72.3529 22.101 72.2994 22.1231C72.2459 22.1453 72.187 22.1511 72.1302 22.1398C72.0734 22.1285 72.0212 22.1006 71.9803 22.0597C71.9393 22.0187 71.9115 21.9665 71.9002 21.9097C71.8889 21.8529 71.8947 21.7941 71.9168 21.7406C71.939 21.6871 71.9765 21.6413 72.0247 21.6092C72.0728 21.577 72.1294 21.5598 72.1873 21.5598C72.2259 21.5595 72.2641 21.5669 72.2998 21.5815C72.3354 21.5961 72.3678 21.6176 72.3951 21.6449C72.4224 21.6721 72.4439 21.7045 72.4585 21.7402C72.4731 21.7759 72.4805 21.8141 72.4801 21.8526Z" fill="#263238"/>
<path d="M22.5651 31.8444H25.4101" stroke="#263238" stroke-linecap="round" stroke-linejoin="round"/>
<path d="M44.6202 31.8444H47.4653" stroke="#263238" stroke-linecap="round" stroke-linejoin="round"/>
<path d="M25.4102 24.3755L27.0108 25.6199" stroke="#263238" stroke-linecap="round" stroke-linejoin="round"/>
<path d="M44.264 24.3755L42.6633 25.6199" stroke="#263238" stroke-linecap="round" stroke-linejoin="round"/>
<path d="M31.8126 21.3524L31.9907 24.0193" stroke="#263238" stroke-linecap="round" stroke-linejoin="round"/>
<path d="M38.0396 21.7062L37.6833 24.0194" stroke="#263238" stroke-linecap="round" stroke-linejoin="round"/>
<path d="M42.0753 28.5138H26.7179V41.7654H42.0753V28.5138Z" fill="white" stroke="#263238" stroke-linecap="round" stroke-linejoin="round"/>
<path d="M32.4202 28.5138H29.5239V41.7654H32.4202V28.5138Z" fill="#1769E9" stroke="#263238" stroke-linecap="round" stroke-linejoin="round"/>
<path d="M42.0753 28.5138H35.3434V41.7654H42.0753V28.5138Z" fill="white" stroke="#263238" stroke-linecap="round" stroke-linejoin="round"/>
<path d="M33.3133 27.4329L31.0612 26.4569C31.006 26.4522 30.9505 26.4522 30.8953 26.4569L30.8587 26.4374H28.5919L30.3585 27.267C30.3674 27.3911 30.3862 27.5143 30.4146 27.6354C30.4737 27.8205 30.5781 27.988 30.7183 28.1226C30.8585 28.2573 31.03 28.3548 31.2174 28.4065L31.232 28.4772H31.476L35.3971 28.5309C35.3971 28.5309 34.382 27.9721 33.3133 27.4329Z" fill="#1769E9" stroke="#263238" stroke-linecap="round" stroke-linejoin="round"/>
<path d="M33.1327 28.5138C33.1327 28.5138 30.6927 27.1986 29.3703 26.6204C28.0478 26.0421 28.0014 26.9351 28.1503 27.6183C28.2991 28.3015 29.2019 28.4601 29.2019 28.4601L33.1327 28.5138Z" fill="#1769E9" stroke="#263238" stroke-linecap="round" stroke-linejoin="round"/>
<path d="M33.7134 27.5549H32.8521C32.7293 27.5546 32.6076 27.5785 32.4941 27.6254C32.3806 27.6722 32.2774 27.741 32.1906 27.8279C32.1038 27.9147 32.0349 28.0179 31.9881 28.1314C31.9412 28.2449 31.9173 28.3666 31.9176 28.4894H34.648C34.648 28.2415 34.5495 28.0038 34.3743 27.8286C34.199 27.6533 33.9613 27.5549 33.7134 27.5549Z" fill="#1769E9" stroke="#263238" stroke-linecap="round" stroke-linejoin="round"/>
<path d="M39.096 26.4472H37.105L36.8463 27.4232C35.7776 27.9624 34.7723 28.5041 34.7723 28.5041L38.6934 28.4504H38.9374L38.9496 28.3796C39.1374 28.3284 39.3095 28.231 39.4501 28.0963C39.5907 27.9617 39.6954 27.794 39.7548 27.6086C39.8744 27.0523 39.8597 26.352 39.096 26.4472Z" fill="#1769E9" stroke="#263238" stroke-linecap="round" stroke-linejoin="round"/>
<path d="M32.4202 28.5138C32.4202 28.5138 34.8602 27.1986 36.1851 26.6204C37.51 26.0421 37.5515 26.9351 37.3929 27.6183C37.2343 28.3015 36.3412 28.4601 36.3412 28.4601L32.4202 28.5138Z" fill="#1769E9" stroke="#263238" stroke-linecap="round" stroke-linejoin="round"/>
<path d="M27.2181 42.7C27.2181 42.7 25.9347 41.846 26.2153 41.5752C26.4959 41.3043 27.8745 41.8997 28.1892 42.3072C28.504 42.7146 28.3454 42.9879 28.0843 43.0123C27.8232 43.0367 27.2181 42.7 27.2181 42.7Z" fill="white" stroke="#263238" stroke-linecap="round" stroke-linejoin="round"/>
<path d="M28.304 41.7044C28.304 41.7044 26.3154 40.6723 26.7936 41.6264C27.2718 42.5804 28.4626 43.4564 28.9408 43.6955C29.419 43.9346 32.0445 43.8541 32.0445 43.8541C32.0445 43.8541 31.5565 42.9781 31.088 42.739C30.6195 42.4999 28.304 41.7044 28.304 41.7044Z" fill="white" stroke="#263238" stroke-linecap="round" stroke-linejoin="round"/>
<path d="M30.2121 41.7044C30.2121 41.7044 27.5866 40.2746 27.5061 40.8309C27.4256 41.3872 29.5752 43.2172 30.2901 43.5344C30.8511 43.7419 31.444 43.8501 32.0421 43.8541L30.2121 41.7044Z" fill="white" stroke="#263238" stroke-linecap="round" stroke-linejoin="round"/>
<path d="M40.5528 44.164C40.5528 44.164 39.5987 41.9363 38.8814 41.6191C38.164 41.3019 31.7224 41.9363 31.7224 41.9363C31.7224 41.9363 28.6187 39.3913 28.8579 40.6626C29.097 41.9338 31.0856 43.4491 31.6419 43.8346C32.1982 44.2201 36.3365 44.0786 36.3365 44.0786L37.6101 45.2717L40.5528 44.164Z" fill="white" stroke="#263238" stroke-linecap="round" stroke-linejoin="round"/>
<path d="M79.7196 47.741C79.5706 48.0296 79.5308 48.3623 79.6074 48.678C79.7323 48.9897 79.9238 49.2703 80.1686 49.5003L80.3564 50.6617L82.9038 50.7739L81.8546 46.8699L79.7196 47.741Z" fill="white" stroke="#263238" stroke-linecap="round" stroke-linejoin="round"/>
<path d="M77.9896 40.504C77.9896 40.504 79.051 47.4092 79.2096 47.824C79.3682 48.2388 80.5907 48.7268 81.0177 48.5145C81.4447 48.3022 80.698 47.2945 80.698 47.2945L80.9103 40.6553C80.9103 40.6553 79.1047 39.9672 77.9896 40.504Z" fill="#263238" stroke="#263238" stroke-linecap="round" stroke-linejoin="round"/>
<path d="M80.9641 42.6756C80.9641 42.6756 79.4757 42.5706 79.422 42.8366C79.3683 43.1026 79.3707 44.0029 79.6367 44.1103C79.9027 44.2176 81.7083 44.3762 82.0255 44.2689C82.1317 44.215 82.2259 44.1402 82.3026 44.049C82.3792 43.9578 82.4367 43.8521 82.4715 43.7383C82.5064 43.6244 82.5179 43.5046 82.5054 43.3862C82.4929 43.2677 82.4566 43.153 82.3988 43.0489C82.0791 42.5706 80.9641 42.6756 80.9641 42.6756Z" fill="white" stroke="#263238" stroke-linecap="round" stroke-linejoin="round"/>
<path d="M80.9641 44.3763C80.9641 44.3763 79.5293 44.3763 79.583 44.6935C79.6367 45.0107 79.4757 45.7036 80.071 45.811C80.7773 45.8987 81.4928 45.8807 82.1938 45.7573C82.3131 45.7351 82.4235 45.6789 82.5114 45.5952C82.5994 45.5116 82.6612 45.4043 82.6894 45.2862C82.7175 45.1682 82.7108 45.0445 82.6701 44.9302C82.6293 44.8159 82.5563 44.7158 82.4598 44.6422C82.0255 44.2689 80.9641 44.3763 80.9641 44.3763Z" fill="white" stroke="#263238" stroke-linecap="round" stroke-linejoin="round"/>
<path d="M78.6582 44.7837C78.6582 44.7837 78.4752 43.4466 78.0433 43.4832C77.7212 43.5101 76.9526 43.7541 77.0234 44.3421C77.1448 45.0441 77.3718 45.7236 77.6968 46.3575C77.753 46.4652 77.8392 46.5542 77.945 46.6138C78.0508 46.6734 78.1716 46.701 78.2928 46.6933C78.414 46.6855 78.5303 46.6428 78.6277 46.5702C78.725 46.4976 78.7992 46.3983 78.8412 46.2843C79.073 45.7695 78.6582 44.7837 78.6582 44.7837Z" fill="white" stroke="#263238" stroke-linecap="round" stroke-linejoin="round"/>
<path d="M81.0446 45.8085C81.0446 45.8085 79.7465 45.8085 79.7953 46.116C79.8441 46.4234 79.6977 47.092 80.2272 47.1896C80.8668 47.2733 81.5156 47.256 82.1499 47.1383C82.261 47.1113 82.3625 47.0539 82.4428 46.9724C82.523 46.8909 82.579 46.7886 82.6044 46.6771C82.6297 46.5655 82.6234 46.4491 82.5863 46.341C82.5491 46.2328 82.4825 46.1371 82.3939 46.0647C82.0059 45.7085 81.0446 45.8085 81.0446 45.8085Z" fill="white" stroke="#263238" stroke-linecap="round" stroke-linejoin="round"/>
<path d="M81.1055 46.9749C81.1055 46.9749 80.0197 46.9749 80.0612 47.2189C80.1027 47.4629 79.9807 48.0314 80.4223 48.1168C80.9571 48.1889 81.5 48.1749 82.0303 48.0753C82.1228 48.052 82.2071 48.0034 82.2736 47.9351C82.3401 47.8667 82.3864 47.7811 82.4071 47.688C82.4279 47.5949 82.4223 47.4978 82.3911 47.4076C82.3599 47.3175 82.3043 47.2377 82.2304 47.1774C81.9107 46.8895 81.1055 46.9749 81.1055 46.9749Z" fill="white" stroke="#263238" stroke-linecap="round" stroke-linejoin="round"/>
<path d="M77.6945 33.511C77.0062 33.5135 76.3328 33.7114 75.7526 34.0818C75.1725 34.4521 74.7095 34.9797 74.4175 35.603C74.1256 36.2263 74.0167 36.9197 74.1035 37.6024C74.1903 38.2852 74.4693 38.9293 74.908 39.4597C75.5741 40.2624 76.6648 40.8383 77.7042 40.7724C80.8909 40.5772 89.2454 45.0522 89.2454 45.0522V29.2312C89.2454 29.2312 81.008 33.5768 77.6945 33.511Z" fill="white" stroke="#263238" stroke-linecap="round" stroke-linejoin="round"/>
<path d="M77.0454 37.271C77.0454 36.4542 77.2657 35.6525 77.6831 34.9504C78.1005 34.2483 78.6995 33.6717 79.4171 33.2816C78.8541 33.4261 78.2758 33.5031 77.6945 33.5109C77.0062 33.5134 76.3328 33.7114 75.7526 34.0817C75.1725 34.4521 74.7095 34.9796 74.4175 35.6029C74.1256 36.2262 74.0167 36.9196 74.1035 37.6024C74.1903 38.2852 74.4693 38.9293 74.908 39.4596C75.5741 40.2624 76.6648 40.8382 77.7042 40.7724C78.0735 40.7579 78.4433 40.7833 78.8071 40.848C78.26 40.4257 77.8168 39.8838 77.5114 39.2638C77.2061 38.6438 77.0467 37.9621 77.0454 37.271Z" fill="#1769E9" stroke="#263238" stroke-linecap="round" stroke-linejoin="round"/>
<path d="M96.9179 39.0088C97.9511 34.7638 95.3475 30.4851 91.1026 29.4519C86.8577 28.4186 82.579 31.0222 81.5457 35.2671C80.5125 39.512 83.1161 43.7908 87.361 44.824C91.6059 45.8572 95.8847 43.2537 96.9179 39.0088Z" fill="white" stroke="#263238" stroke-linecap="round" stroke-linejoin="round"/>
<path d="M95.9773 37.1417C95.9778 38.4757 95.5827 39.7798 94.8419 40.8892C94.1012 41.9986 93.048 42.8634 91.8157 43.3742C90.5835 43.885 89.2273 44.0189 87.9189 43.759C86.6105 43.499 85.4086 42.8569 84.4652 41.9138C83.5218 40.9707 82.8792 39.769 82.6188 38.4607C82.3584 37.1524 82.4918 35.7963 83.0021 34.5638C83.5125 33.3313 84.3769 32.2779 85.4861 31.5367C86.5952 30.7956 87.8992 30.4 89.2332 30.4C91.0212 30.4006 92.7359 31.111 94.0004 32.3751C95.265 33.6392 95.976 35.3536 95.9773 37.1417Z" fill="#A6A6A6" stroke="#263238" stroke-linecap="round" stroke-linejoin="round"/>
<path d="M89.2332 35.4947V38.796L84.0458 41.4531C83.2556 40.4988 82.7432 39.3455 82.5646 38.1194C82.386 36.8933 82.5481 35.6417 83.0332 34.5016L89.2332 35.4947Z" fill="white" stroke="#263238" stroke-linecap="round" stroke-linejoin="round"/>
<path d="M90.8802 37.1416C90.8802 37.4675 90.7835 37.786 90.6024 38.0569C90.4214 38.3278 90.164 38.5389 89.8629 38.6635C89.5618 38.7881 89.2305 38.8205 88.911 38.7568C88.5914 38.6931 88.298 38.536 88.0677 38.3054C87.8375 38.0748 87.6808 37.7811 87.6175 37.4614C87.5543 37.1418 87.5872 36.8106 87.7123 36.5097C87.8373 36.2087 88.0488 35.9517 88.3199 35.771C88.5911 35.5903 88.9098 35.4941 89.2356 35.4946C89.672 35.4953 90.0903 35.6691 90.3987 35.9779C90.707 36.2867 90.8802 36.7052 90.8802 37.1416Z" fill="white" stroke="#263238" stroke-linecap="round" stroke-linejoin="round"/>
<path d="M79.8221 50.7666L79.5586 49.6613L82.9795 49.2392L82.9038 50.774L79.8221 50.7666Z" fill="white" stroke="#263238" stroke-linecap="round" stroke-linejoin="round"/>
<path d="M37.4052 45.7134L36.6171 44.4494L40.2478 42.6072L40.5528 44.1566L37.4052 45.7134Z" fill="white" stroke="#263238" stroke-linecap="round" stroke-linejoin="round"/>
<path d="M59.475 43.8858C59.475 43.8858 53.6385 43.2368 53.131 43.4954C52.6235 43.7541 45.2205 52.5088 45.2205 52.5088L40.6724 43.432L36.844 45.1156C36.844 45.1156 41.641 61.4636 42.4194 61.649C43.1978 61.8345 50.5885 56.9179 50.5885 56.9179L50.1347 63.4009C50.1347 63.4009 51.4962 68.847 57.5279 69.884C63.5596 70.921 67.122 66.2533 67.9003 64.6966C68.4798 63.4558 68.9778 62.1786 69.3912 60.8731L72.1801 52.6381C72.1801 52.6381 80.032 59.048 81.779 59.8337C83.5261 60.6193 85.1487 61.3269 85.3439 60.9365C85.5391 60.5461 83.5944 50.1737 83.5944 50.1737L79.4464 50.3689L79.6416 51.9891C79.6416 51.9891 74.259 44.9131 73.8051 44.2079C73.3513 43.5027 71.9898 43.6247 70.3696 43.1709C68.7494 42.7171 59.475 43.8858 59.475 43.8858Z" fill="#1769E9" stroke="#263238" stroke-linecap="round" stroke-linejoin="round"/>
<path d="M50.5909 56.9179L54.9366 53.6751" stroke="#263238" stroke-linecap="round" stroke-linejoin="round"/>
<path d="M53.3799 54.9073L55.5832 54.5169" stroke="#263238" stroke-linecap="round" stroke-linejoin="round"/>
<path d="M72.1825 52.6381L73.6733 47.3848" stroke="#263238" stroke-linecap="round" stroke-linejoin="round"/>
<path d="M72.7656 50.9521L74.3858 48.6829" stroke="#263238" stroke-linecap="round" stroke-linejoin="round"/>
<path d="M79.8319 55.7637L79.8978 57.0472" stroke="#263238" stroke-linecap="round" stroke-linejoin="round"/>
<path d="M79.6392 51.9891L79.7563 54.2998" stroke="#263238" stroke-linecap="round" stroke-linejoin="round"/>
<path d="M45.2107 52.5088L46.5722 55.3611" stroke="#263238" stroke-linecap="round" stroke-linejoin="round"/>
<path d="M61.6782 43.1709L58.8259 43.6906C58.8259 43.6906 57.7889 44.5324 57.2057 46.4771C56.8515 47.665 56.5913 48.879 56.4274 50.1078L58.8918 50.2396L56.9398 52.1916C56.9398 52.1916 57.5254 53.0334 58.7551 54.8487C59.7268 56.2173 60.7864 57.5214 61.9271 58.7527L58.3159 63.4009C58.3159 63.4009 62.725 62.4249 65.4481 59.4457C68.1711 56.4664 69.7839 51.989 69.7839 51.989L67.6441 50.303L69.9132 49.8492C69.9132 49.8492 70.3671 46.155 67.9612 43.7492C65.5554 41.3433 61.6782 43.1709 61.6782 43.1709Z" fill="#1769E9" stroke="#263238" stroke-linecap="round" stroke-linejoin="round"/>
<path d="M68.0979 44.7276C68.0979 44.7276 67.3415 46.2258 67.1903 49.0074C67.0731 51.179 65.9337 53.9459 64.9284 55.9028C64.1305 57.4595 63.4156 58.5038 63.3643 58.3428C63.3643 58.3428 62.9447 57.6694 62.2737 55.7076C62.1102 55.2391 61.9345 54.6926 61.7442 54.0606C60.7682 50.8178 59.9288 45.567 60.3168 44.53C60.4988 44.0188 60.7157 43.5207 60.9658 43.0391C64.0793 47.2554 68.0979 44.7276 68.0979 44.7276Z" fill="white" stroke="#263238" stroke-linecap="round" stroke-linejoin="round"/>
<path d="M64.1427 53.6116L64.9284 55.9028C64.1305 57.4595 63.4156 58.5038 63.3644 58.3428C63.3644 58.3428 62.9447 57.6694 62.2737 55.7076L63.3644 53.7385L62.281 51.7109L63.5596 50.4299L65.309 52.1818L64.1427 53.6116Z" fill="#263238" stroke="#263238" stroke-linecap="round" stroke-linejoin="round"/>
<path d="M61.4197 52.6381L63.5596 50.4323L66.1655 52.8918" stroke="#263238" stroke-linecap="round" stroke-linejoin="round"/>
<path d="M60.9658 43.0416C61.0388 44.3478 61.301 45.6366 61.7442 46.8675C62.2352 48.1105 62.843 49.3042 63.5595 50.4323L66.612 46.0891C66.612 46.0891 63.3009 46.4136 60.9658 43.0416Z" stroke="#263238" stroke-linecap="round" stroke-linejoin="round"/>
<path d="M70.2402 36.1705C70.2402 36.1705 71.1674 36.0266 71.1674 37.2929C71.1674 38.5593 70.6306 40.1184 70.6306 40.1184L70.2402 36.1705Z" fill="white" stroke="#263238" stroke-linecap="round" stroke-linejoin="round"/>
<path d="M69.9133 31.5004C69.9133 31.5004 70.5623 37.4003 70.6257 39.1522C70.6892 40.9041 70.4964 42.4584 69.9133 43.2368C69.3301 44.0151 66.9853 47.1261 65.7653 47.2554C64.5453 47.3848 63.1715 46.7382 62.6543 46.2794C62.137 45.8207 59.6701 41.9338 59.6701 41.9338C59.6701 41.9338 57.7913 41.8045 57.3375 39.3401C56.8837 36.8757 59.4115 37.4613 59.4115 37.4613C59.4115 37.4613 58.05 35.3214 57.9207 33.2474C57.7913 31.1734 57.4009 30.3926 62.9788 30.2633C68.5566 30.134 69.9133 31.5004 69.9133 31.5004Z" fill="white" stroke="#263238" stroke-linecap="round" stroke-linejoin="round"/>
<path d="M66.995 35.6508L68.5517 41.031L66.1532 40.3185" stroke="#263238" stroke-linecap="round" stroke-linejoin="round"/>
<path d="M63.7547 39.6695L61.8734 40.0599" stroke="#263238" stroke-linecap="round" stroke-linejoin="round"/>
<path d="M62.847 39.994C63.0274 40.5446 63.361 41.0324 63.8087 41.4002C64.2565 41.7679 64.7997 42.0004 65.3749 42.0705C67.4489 42.3925 68.4859 42.0046 68.4859 42.0046" stroke="#263238" stroke-linecap="round" stroke-linejoin="round"/>
<path d="M63.3643 41.031C63.3643 41.031 63.3008 44.2738 64.4671 44.4031C65.6335 44.5324 65.3748 42.0704 65.3748 42.0704C64.6384 41.8708 63.953 41.5164 63.3643 41.031Z" fill="#263238" stroke="#263238" stroke-linecap="round" stroke-linejoin="round"/>
<path d="M63.6034 43.2734C63.762 43.8639 64.0279 44.3543 64.4671 44.4031C64.5777 44.4187 64.6904 44.4043 64.7934 44.3613C64.8964 44.3184 64.986 44.2486 65.0527 44.1591C64.8258 43.7614 64.0426 43.432 63.6034 43.2734Z" fill="white" stroke="#263238" stroke-linecap="round" stroke-linejoin="round"/>
<path d="M64.172 37.1417C64.172 37.5003 64.0134 37.7907 63.8157 37.7907C63.6181 37.7907 63.4595 37.5003 63.4595 37.1417C63.4595 36.783 63.6181 36.4926 63.8157 36.4926C64.0134 36.4926 64.172 36.783 64.172 37.1417Z" fill="#263238"/>
<path d="M68.52 36.5585C68.52 36.9172 68.3589 37.2076 68.1613 37.2076C67.9637 37.2076 67.8051 36.9172 67.8051 36.5585C67.8051 36.1998 67.9661 35.9095 68.1613 35.9095C68.3565 35.9095 68.52 36.1998 68.52 36.5585Z" fill="#263238"/>
<path d="M62.6519 36.0388C62.9547 35.6945 63.3387 35.4312 63.769 35.2727C64.1994 35.1142 64.6624 35.0655 65.1163 35.1311" stroke="#263238" stroke-linecap="round" stroke-linejoin="round"/>
<path d="M67.1902 34.8725C67.1902 34.8725 68.032 33.3157 69.3862 34.0941" stroke="#263238" stroke-linecap="round" stroke-linejoin="round"/>
<path d="M63.0398 31.6297C63.0398 31.6297 61.0317 31.3052 61.4855 31.8908C61.9394 32.4764 62.9764 33.1864 62.4615 33.6403C61.9467 34.0941 60.6462 34.8603 60.7121 35.2604C60.7779 35.6606 60.9048 37.271 60.7121 37.6614C60.5193 38.0518 60.063 38.1152 59.6092 38.0494C59.1553 37.9835 58.5063 36.8172 58.2477 36.4926C57.989 36.1681 55.6539 33.8355 56.1078 31.9542C56.5616 30.073 61.4245 28.5822 61.4245 28.5822C61.4245 28.5822 64.5307 25.0832 66.612 25.0173C68.6933 24.9514 67.9076 26.8986 67.832 27.0913C67.7563 27.2841 70.8137 26.8986 71.3968 28.7774C71.98 30.6562 71.7872 31.1759 69.1276 31.8908C66.468 32.6057 63.0398 31.6297 63.0398 31.6297Z" fill="#263238" stroke="#263238" stroke-linecap="round" stroke-linejoin="round"/>
<path d="M103.939 29.0408L98.654 30.4072L99.7472 30.9538L96.7411 31.8664L102.844 31.0465L101.297 30.317L103.939 29.0408Z" fill="#263238"/>
<path d="M105.022 41.907L99.6764 40.8016L100.418 41.7728L97.3169 41.2652L103.156 43.2221L102.087 41.885L105.022 41.907Z" fill="#263238"/>
<path d="M99.2738 50.7178L94.772 47.6287L95.0794 48.8121L92.4174 47.1432L97.0436 51.2107L96.5776 49.5637L99.2738 50.7178Z" fill="#263238"/>
<path d="M50.5665 82.4232V74.9543H52.355C52.7881 74.9434 53.22 75.0035 53.6336 75.1325C53.9621 75.2376 54.243 75.4554 54.4266 75.7473C54.6262 76.1068 54.7209 76.5152 54.6999 76.9258C54.7022 77.1989 54.6743 77.4714 54.6169 77.7384C54.5679 77.9613 54.4714 78.171 54.3339 78.3532C54.1893 78.5304 53.9997 78.6653 53.7849 78.7437L54.8268 82.4232H53.4628L52.56 79.0072H51.9329V82.4232H50.5665ZM51.9329 78.1434H52.355C52.5717 78.1537 52.7878 78.1145 52.987 78.0287C53.1432 77.9548 53.2642 77.8225 53.3237 77.6603C53.3986 77.4524 53.4334 77.2321 53.4262 77.0112C53.4479 76.715 53.3753 76.4195 53.2188 76.167C53.0797 75.9791 52.8162 75.884 52.4307 75.884H51.9427L51.9329 78.1434Z" fill="#1769E9"/>
<path d="M55.7223 82.4232V74.9543H58.8577V75.9133H57.096V78.0605H58.4868V79.0121H57.096V81.496H58.8845V82.4354L55.7223 82.4232Z" fill="#1769E9"/>
<path d="M59.6702 82.4232V74.9543H62.7421V75.884H61.0341V78.08H62.4274V79.0316H61.0341V82.4232H59.6702Z" fill="#1769E9"/>
<path d="M63.4521 82.4232V74.9543H66.5875V75.9133H64.8161V78.0605H66.2094V79.0121H64.8161V81.496H66.612V82.4354L63.4521 82.4232Z" fill="#1769E9"/>
<path d="M67.4001 82.4232V74.9543H69.1887C69.6209 74.9433 70.0521 75.0035 70.4648 75.1325C70.7942 75.2371 71.076 75.4549 71.2602 75.7473C71.459 76.1071 71.5529 76.5154 71.5311 76.9259C71.5346 77.199 71.5067 77.4716 71.4481 77.7384C71.3999 77.9611 71.3042 78.1709 71.1675 78.3533C71.0229 78.5304 70.8333 78.6653 70.6185 78.7437L71.6604 82.4232H70.294L69.3912 79.0072H68.7641V82.4232H67.4001ZM68.7641 78.1434H69.1887C69.4053 78.1534 69.6213 78.1142 69.8206 78.0287C69.9758 77.9534 70.0962 77.8216 70.1573 77.6603C70.2301 77.4519 70.264 77.2319 70.2574 77.0113C70.279 76.715 70.2064 76.4195 70.05 76.167C69.9133 75.9791 69.6498 75.884 69.2619 75.884H68.7739L68.7641 78.1434Z" fill="#1769E9"/>
<path d="M44.8813 92.027L46.3746 84.5582H47.8386L49.3343 92.027H48.068L47.7727 90.3044H46.4722L46.1672 92.027H44.8813ZM46.604 89.4357H47.6166L47.1091 86.3003L46.604 89.4357Z" fill="#1769E9"/>
<path d="M52.277 92.027V84.5582H55.3489V85.4976H53.6409V87.6741H55.0317V88.6256H53.6409V92.027H52.277Z" fill="#1769E9"/>
<path d="M56.059 92.027V84.5582H57.8475C58.2805 84.5474 58.7124 84.6076 59.126 84.7363C59.4546 84.8414 59.7354 85.0592 59.919 85.3512C60.1178 85.7109 60.2117 86.1193 60.1899 86.5297C60.1929 86.8027 60.1659 87.0751 60.1094 87.3422C60.0604 87.5652 59.9638 87.7749 59.8263 87.9571C59.6818 88.1342 59.4921 88.2691 59.2773 88.3475L60.3192 92.027H58.9552L58.0524 88.611H57.4254V92.027H56.059ZM57.4254 87.7497H57.8475C58.0643 87.7593 58.2805 87.7192 58.4794 87.6326C58.6352 87.558 58.7559 87.426 58.8162 87.2641C58.8911 87.0562 58.9258 86.836 58.9186 86.6151C58.9388 86.319 58.8663 86.0239 58.7112 85.7709C58.5722 85.583 58.3086 85.4878 57.9231 85.4878H57.4351L57.4254 87.7497Z" fill="#1769E9"/>
<path d="M61.244 92.027V84.5582H62.5909V92.027H61.244Z" fill="#1769E9"/>
<path d="M63.7523 92.027V84.5582H66.8877V85.5171H65.1163V87.6643H66.5095V88.6159H65.1163V91.0876H66.9048V92.027H63.7523Z" fill="#1769E9"/>
<path d="M67.6978 92.027V84.5582H68.6494L70.4647 88.816V84.5582H71.592V92.027H70.6868L68.8616 87.5642V92.027H67.6978Z" fill="#1769E9"/>
<path d="M72.7242 92.027V84.5582H74.4859C74.9739 84.5338 75.4612 84.6171 75.9133 84.8022C76.244 84.9566 76.505 85.229 76.6453 85.5659C76.8027 85.9842 76.8765 86.4294 76.8625 86.8762V89.6065C76.8758 90.0667 76.8021 90.5254 76.6453 90.9583C76.5095 91.3075 76.2486 91.5937 75.9133 91.761C75.4806 91.9549 75.0084 92.0443 74.5347 92.0221L72.7242 92.027ZM74.0906 91.0778H74.5054C74.7421 91.0984 74.9789 91.04 75.1789 90.9119C75.3201 90.7868 75.4075 90.6119 75.4229 90.4239C75.4571 90.1651 75.4726 89.9042 75.4692 89.6431V86.7883C75.4751 86.5426 75.453 86.297 75.4034 86.0563C75.3909 85.9743 75.3623 85.8957 75.3192 85.8249C75.276 85.7541 75.2192 85.6926 75.152 85.644C74.9487 85.5432 74.7221 85.4986 74.4957 85.5146H74.1004L74.0906 91.0778Z" fill="#1769E9"/>
</svg>
