<svg width="36" height="36" viewBox="0 0 36 36" fill="none" xmlns="http://www.w3.org/2000/svg">
<path fill-rule="evenodd" clip-rule="evenodd" d="M7.05017 24.4987V30.8844H8.66286C8.90073 30.8844 9.09711 31.0302 9.09711 31.2088V33.2539H14.8258V31.2088C14.8258 31.0302 15.0222 30.8844 15.2629 30.8844H16.8756V24.4987H15.2629C15.0222 24.4987 14.8258 24.3529 14.8258 24.1763V22.1292H9.09711V24.1763C9.09711 24.3529 8.90073 24.4987 8.66286 24.4987H7.05017ZM18.8947 24.4987V30.8844H20.5822C20.834 30.8844 21.0395 31.0302 21.0395 31.2088V33.2539H27.0341V31.2088C27.0341 31.0302 27.2396 30.8844 27.4914 30.8844H29.1789V24.4987H27.4914C27.2396 24.4987 27.0341 24.3529 27.0341 24.1763V22.1292H21.0395V24.1763C21.0395 24.3529 20.834 24.4987 20.5822 24.4987H18.8947Z" fill="#B6B1B7"/>
<path fill-rule="evenodd" clip-rule="evenodd" d="M2.44202 10.6615V19.9109H33.5587V10.6615L17.9993 1.67847L2.44202 10.6615Z" fill="#ECEAEC"/>
<path fill-rule="evenodd" clip-rule="evenodd" d="M0.189685 11.7642C0.581818 12.4438 1.45651 12.6779 2.13615 12.2857L2.44208 12.1092L17.9993 3.12603L33.5587 12.1092L33.8646 12.2857C34.5421 12.6779 35.4188 12.4438 35.809 11.7642C36.2011 11.0866 35.9671 10.2099 35.2875 9.81767L18.7816 0.288431C18.5558 0.157017 18.2786 0.0933838 17.9993 0.0933838C17.7222 0.0933838 17.4429 0.157017 17.2171 0.288431L0.711192 9.81767C0.0336613 10.2099 -0.202448 11.0866 0.189685 11.7642Z" fill="#9FD4FE"/>
<path fill-rule="evenodd" clip-rule="evenodd" d="M27.6845 23.4001H32.4644V31.9828H27.6845V23.4001ZM15.6095 23.4001H20.3894V31.9828H15.6095V23.4001ZM3.53442 23.4001H8.31638V31.9828H3.53442V23.4001Z" fill="#FFE07D"/>
<path fill-rule="evenodd" clip-rule="evenodd" d="M2.01501 33.2539L5.51707 34.5803L9.83573 33.2539V31.2088C9.83573 31.0302 9.68997 30.8844 9.51335 30.8844H2.3374C2.16084 30.8844 2.01501 31.0302 2.01501 31.2088V33.2539ZM26.163 33.2539L30.3863 34.5803L33.9858 33.2539V31.2088C33.9856 31.1228 33.9514 31.0404 33.8906 30.9796C33.8297 30.9188 33.7473 30.8846 33.6613 30.8844H26.4874C26.4014 30.8846 26.319 30.9188 26.2582 30.9796C26.1974 31.0404 26.1632 31.1228 26.163 31.2088V33.2539ZM14.088 33.2539L18.0004 34.2013L21.9107 33.2539V31.2088C21.9105 31.1228 21.8763 31.0404 21.8155 30.9796C21.7547 30.9188 21.6723 30.8846 21.5863 30.8844H14.4124C14.3264 30.8846 14.244 30.9188 14.1832 30.9796C14.1224 31.0404 14.0881 31.1228 14.088 31.2088V33.2539Z" fill="#ECEAEC"/>
<path fill-rule="evenodd" clip-rule="evenodd" d="M0.333381 35.9067H35.6673C35.8501 35.9067 36 35.7568 36 35.574V33.5864C36 33.4037 35.8501 33.2538 35.6673 33.2538H0.333381C0.150639 33.2538 0.000732422 33.4037 0.000732422 33.5864V35.574C0.000732422 35.7568 0.150639 35.9067 0.333381 35.9067Z" fill="#9FD4FE"/>
<path fill-rule="evenodd" clip-rule="evenodd" d="M16.3403 8.07651C16.3403 9.03747 17.1185 9.81562 18.0794 9.81562C19.0383 9.81562 19.8186 9.0374 19.8186 8.07651C19.8186 7.11562 19.0383 6.3374 18.0794 6.3374C17.1186 6.33733 16.3403 7.11555 16.3403 8.07651Z" fill="#FFE07D"/>
<path fill-rule="evenodd" clip-rule="evenodd" d="M17.9993 3.12598L2.44202 12.1091V14.1295L17.9993 5.14641L33.5587 14.1295V12.1091L17.9993 3.12598Z" fill="#DAD8DB"/>
<path fill-rule="evenodd" clip-rule="evenodd" d="M18.0795 6.3374C17.1186 6.3374 16.3404 7.11562 16.3404 8.07651C16.3404 8.27571 16.3732 8.46457 16.4348 8.64323C16.6914 8.00465 17.3177 7.555 18.0466 7.555C18.8083 7.555 19.4571 8.04572 19.6912 8.72739C19.7755 8.52076 19.8187 8.29968 19.8185 8.07651C19.8186 7.11562 19.0383 6.3374 18.0795 6.3374ZM3.53442 24.4987H8.31638V26.2358H3.53442V24.4987ZM15.6095 24.4987H20.3894V26.2358H15.6095V24.4987ZM27.6845 24.4987H32.4644V26.2358H27.6845V24.4987Z" fill="#FFC269"/>
<path fill-rule="evenodd" clip-rule="evenodd" d="M3.5344 24.4986H9.51335C9.6899 24.4986 9.83573 24.3528 9.83573 24.1762V21.6945H2.01501V24.1762C2.01501 24.3528 2.16077 24.4986 2.3374 24.4986H3.5344ZM15.6094 24.4986H21.5864C21.765 24.4986 21.9108 24.3528 21.9108 24.1762V21.6945H14.088V24.1762C14.088 24.3528 14.2337 24.4986 14.4124 24.4986H15.6094ZM26.4874 24.4986H33.6613C33.8399 24.4986 33.9858 24.3528 33.9858 24.1762V21.6945H26.163V24.1762C26.163 24.3528 26.3088 24.4986 26.4874 24.4986Z" fill="#ECEAEC"/>
<path fill-rule="evenodd" clip-rule="evenodd" d="M2.01501 22.1292H9.83573V23.4001H2.01501V22.1292ZM14.088 22.1292H21.9107V23.4001H14.088V22.1292ZM26.163 22.1292H33.9858V23.4001H26.163V22.1292Z" fill="#DAD8DB"/>
<path fill-rule="evenodd" clip-rule="evenodd" d="M2.01497 22.1292H35.6673C35.8501 22.1292 36 21.9793 36 21.7966V19.809C36 19.6262 35.8501 19.4763 35.6673 19.4763H0.333381C0.150639 19.4763 0.000732422 19.6262 0.000732422 19.809V21.7966C0.000732422 21.9793 0.150639 22.1292 0.333381 22.1292H2.01497Z" fill="#9FD4FE"/>
<path d="M11.4467 14.3243C11.6012 14.0826 11.6833 13.8017 11.6834 13.5149C11.6834 12.6801 11.0042 12.0009 10.1693 12.0009H8.94387C8.87253 12.0008 8.80188 12.0149 8.73597 12.0422C8.67006 12.0695 8.61017 12.1095 8.55972 12.1599C8.50928 12.2104 8.46926 12.2703 8.44197 12.3362C8.41467 12.4021 8.40063 12.4727 8.40063 12.5441V16.763C8.40063 16.9075 8.45822 17.0461 8.56067 17.1479C8.66246 17.2493 8.80028 17.3062 8.94394 17.3062H8.94633C8.94633 17.3062 10.0729 17.3012 10.3834 17.3012C11.3091 17.3012 12.0622 16.5481 12.0622 15.6224C12.0622 15.0999 11.8222 14.6324 11.4467 14.3243ZM10.1693 13.0874C10.4051 13.0874 10.5968 13.2791 10.5968 13.5149C10.5968 13.7507 10.4051 13.9424 10.1693 13.9424C10.0797 13.9424 9.48717 13.9435 9.48717 13.9435V13.0874H10.1693ZM10.3834 16.2147C10.2181 16.2147 9.82228 16.2161 9.48717 16.2174V15.0309C9.56726 15.0306 10.3834 15.03 10.3834 15.03C10.71 15.03 10.9757 15.2957 10.9757 15.6224C10.9757 15.949 10.71 16.2147 10.3834 16.2147ZM15.832 12.4116C15.7861 12.2906 15.7044 12.1865 15.5979 12.1131C15.4913 12.0397 15.3649 12.0006 15.2355 12.0009H15.2352C15.106 12.0006 14.9799 12.0397 14.8735 12.1128C14.7671 12.1859 14.6854 12.2896 14.6393 12.4102L13.0552 16.5696C13.0059 16.7038 13.0115 16.8521 13.0707 16.9822C13.13 17.1123 13.2382 17.2138 13.3718 17.2647C13.5054 17.3156 13.6537 17.3117 13.7845 17.254C13.9153 17.1963 14.0181 17.0893 14.0706 16.9563L14.3318 16.2703H16.1272L16.3855 16.9548C16.4245 17.0581 16.494 17.1471 16.5848 17.2099C16.6756 17.2727 16.7834 17.3064 16.8938 17.3064C16.9817 17.3064 17.0683 17.2851 17.1461 17.2442C17.2239 17.2034 17.2906 17.1443 17.3406 17.072C17.3906 16.9997 17.4223 16.9164 17.433 16.8292C17.4436 16.742 17.433 16.6535 17.402 16.5712L15.832 12.4116ZM14.7455 15.1838L15.2335 13.9026L15.717 15.1838H14.7455ZM22.0274 12.0009L22.0221 12.0009C21.9507 12.0016 21.8802 12.0163 21.8146 12.0443C21.7489 12.0722 21.6894 12.1128 21.6395 12.1637C21.5895 12.2146 21.5501 12.2749 21.5234 12.3411C21.4967 12.4072 21.4833 12.478 21.484 12.5494L21.5084 15.0684L19.5575 12.2433C19.4916 12.148 19.397 12.0763 19.2876 12.0386C19.1781 12.0008 19.0594 11.999 18.9488 12.0335C18.8382 12.068 18.7416 12.1369 18.6729 12.2301C18.6043 12.3234 18.5672 12.4362 18.5671 12.552V16.7629C18.5671 16.907 18.6244 17.0452 18.7262 17.147C18.8281 17.2489 18.9663 17.3061 19.1104 17.3061C19.2544 17.3061 19.3926 17.2489 19.4945 17.147C19.5964 17.0452 19.6536 16.907 19.6536 16.7629V14.2946L21.5106 16.9837C21.6695 17.2134 21.9351 17.3111 22.1869 17.2325C22.4439 17.1522 22.6099 16.9121 22.6099 16.6155L22.5705 12.5388C22.5691 12.3957 22.5113 12.2589 22.4096 12.1581C22.3079 12.0574 22.1705 12.0009 22.0274 12.0009ZM27.5578 16.372L25.6602 14.5413L27.3966 12.9453C27.4502 12.8973 27.4938 12.8391 27.5247 12.7742C27.5557 12.7092 27.5734 12.6388 27.5769 12.5669C27.5804 12.4951 27.5696 12.4232 27.5451 12.3556C27.5206 12.2879 27.4829 12.2258 27.4342 12.1728C27.3856 12.1199 27.3268 12.0771 27.2615 12.047C27.1961 12.0169 27.1254 12.0001 27.0535 11.9975C26.9816 11.995 26.9099 12.0067 26.8426 12.0321C26.7753 12.0575 26.7137 12.096 26.6614 12.1453L25.2744 13.4202V12.4914C25.2744 12.3473 25.2172 12.2091 25.1153 12.1072C25.0135 12.0054 24.8753 11.9481 24.7312 11.9481C24.5871 11.9481 24.449 12.0054 24.3471 12.1072C24.2452 12.2091 24.188 12.3473 24.188 12.4914V16.763C24.188 16.9071 24.2452 17.0452 24.3471 17.1471C24.449 17.249 24.5871 17.3062 24.7312 17.3062C24.8753 17.3062 25.0135 17.249 25.1153 17.1471C25.2172 17.0452 25.2744 16.9071 25.2744 16.763V15.6788L26.8035 17.154C26.9046 17.2518 27.0398 17.3065 27.1805 17.3063C27.3229 17.3063 27.465 17.2507 27.5716 17.1402C27.6211 17.0889 27.6601 17.0283 27.6862 16.9619C27.7123 16.8955 27.7251 16.8246 27.7238 16.7533C27.7226 16.6819 27.7072 16.6116 27.6788 16.5462C27.6503 16.4807 27.6092 16.4216 27.5578 16.372Z" fill="#6F6571"/>
</svg>
