<svg width="24" height="24" viewBox="0 0 24 24" fill="none" xmlns="http://www.w3.org/2000/svg">
<path d="M17.4166 23.6458H2.24996C1.74733 23.6453 1.26545 23.4453 0.910036 23.0899C0.554623 22.7345 0.354699 22.2526 0.354126 21.75V2.25001C0.354699 1.74737 0.554623 1.2655 0.910036 0.910082C1.26545 0.554668 1.74733 0.354745 2.24996 0.354172H17.4166C17.9193 0.354745 18.4011 0.554668 18.7565 0.910082C19.112 1.2655 19.3119 1.74737 19.3125 2.25001V14.1667C19.3125 14.3822 19.2269 14.5888 19.0745 14.7412C18.9221 14.8936 18.7154 14.9792 18.5 14.9792C18.2845 14.9792 18.0778 14.8936 17.9254 14.7412C17.7731 14.5888 17.6875 14.3822 17.6875 14.1667V2.25001C17.6866 2.17844 17.6578 2.11004 17.6072 2.05943C17.5566 2.00882 17.4882 1.98002 17.4166 1.97917H2.24996C2.17839 1.98002 2.10999 2.00882 2.05938 2.05943C2.00877 2.11004 1.97997 2.17844 1.97913 2.25001V21.75C1.97997 21.8216 2.00877 21.89 2.05938 21.9406C2.10999 21.9912 2.17839 22.02 2.24996 22.0208H17.4166C17.6202 21.9401 17.8472 21.9419 18.0495 22.0259C18.2518 22.1098 18.4133 22.2693 18.5 22.4704C18.5421 22.5672 18.5645 22.6715 18.566 22.7771C18.5674 22.8827 18.5477 22.9875 18.5082 23.0854C18.4687 23.1834 18.41 23.2724 18.3357 23.3474C18.2614 23.4224 18.1728 23.4819 18.0753 23.5223C17.8657 23.6053 17.6421 23.6473 17.4166 23.6458Z" fill="#1769E9"/>
<path d="M14.7083 6.3125H4.95825C4.74276 6.3125 4.5361 6.2269 4.38373 6.07452C4.23135 5.92215 4.14575 5.71549 4.14575 5.5C4.14575 5.28451 4.23135 5.07785 4.38373 4.92548C4.5361 4.7731 4.74276 4.6875 4.95825 4.6875H14.7083C14.9237 4.6875 15.1304 4.7731 15.2828 4.92548C15.4351 5.07785 15.5208 5.28451 15.5208 5.5C15.5208 5.71549 15.4351 5.92215 15.2828 6.07452C15.1304 6.2269 14.9237 6.3125 14.7083 6.3125ZM14.7083 10.6458H4.95825C4.74276 10.6458 4.5361 10.5602 4.38373 10.4079C4.23135 10.2555 4.14575 10.0488 4.14575 9.83333C4.14575 9.61784 4.23135 9.41118 4.38373 9.25881C4.5361 9.10644 4.74276 9.02083 4.95825 9.02083H14.7083C14.9237 9.02083 15.1304 9.10644 15.2828 9.25881C15.4351 9.41118 15.5208 9.61784 15.5208 9.83333C15.5208 10.0488 15.4351 10.2555 15.2828 10.4079C15.1304 10.5602 14.9237 10.6458 14.7083 10.6458ZM11.9999 14.9792H4.95825C4.74276 14.9792 4.5361 14.8936 4.38373 14.7412C4.23135 14.5888 4.14575 14.3822 4.14575 14.1667C4.14575 13.9512 4.23135 13.7445 4.38373 13.5921C4.5361 13.4398 4.74276 13.3542 4.95825 13.3542H11.9999C12.2154 13.3542 12.4221 13.4398 12.5744 13.5921C12.7268 13.7445 12.8124 13.9512 12.8124 14.1667C12.8124 14.3822 12.7268 14.5888 12.5744 14.7412C12.4221 14.8936 12.2154 14.9792 11.9999 14.9792ZM10.9166 19.3125H4.95825C4.74276 19.3125 4.5361 19.2269 4.38373 19.0745C4.23135 18.9222 4.14575 18.7155 4.14575 18.5C4.14575 18.2845 4.23135 18.0778 4.38373 17.9255C4.5361 17.7731 4.74276 17.6875 4.95825 17.6875H10.9166C11.1321 17.6875 11.3387 17.7731 11.4911 17.9255C11.6435 18.0778 11.7291 18.2845 11.7291 18.5C11.7291 18.7155 11.6435 18.9222 11.4911 19.0745C11.3387 19.2269 11.1321 19.3125 10.9166 19.3125ZM18.4999 23.6458C17.4822 23.6458 16.4873 23.344 15.641 22.7786C14.7948 22.2132 14.1353 21.4095 13.7458 20.4692C13.3563 19.5289 13.2544 18.4943 13.453 17.4961C13.6515 16.4979 14.1416 15.581 14.8613 14.8613C15.5809 14.1417 16.4978 13.6516 17.496 13.453C18.4942 13.2545 19.5289 13.3564 20.4691 13.7459C21.4094 14.1353 22.2131 14.7949 22.7785 15.6411C23.344 16.4874 23.6458 17.4822 23.6458 18.5C23.6443 19.8643 23.1017 21.1723 22.137 22.1371C21.1723 23.1018 19.8642 23.6444 18.4999 23.6458ZM18.4999 14.9792C17.8036 14.9792 17.1228 15.1857 16.5438 15.5725C15.9649 15.9594 15.5136 16.5093 15.2471 17.1526C14.9806 17.796 14.9109 18.5039 15.0467 19.1869C15.1826 19.8699 15.5179 20.4972 16.0103 20.9896C16.5027 21.482 17.1301 21.8173 17.813 21.9532C18.496 22.089 19.2039 22.0193 19.8473 21.7528C20.4906 21.4863 21.0405 21.0351 21.4274 20.4561C21.8143 19.8771 22.0208 19.1964 22.0208 18.5C22.0196 17.5666 21.6483 16.6717 20.9883 16.0117C20.3282 15.3516 19.4334 14.9803 18.4999 14.9792Z" fill="#1769E9"/>
<path d="M17.9583 20.3958C17.8517 20.3959 17.746 20.3748 17.6475 20.3339C17.549 20.293 17.4595 20.2331 17.3842 20.1575L16.3008 19.0742C16.221 18.9998 16.157 18.9101 16.1126 18.8104C16.0682 18.7108 16.0443 18.6032 16.0424 18.4941C16.0404 18.385 16.0605 18.2766 16.1014 18.1754C16.1422 18.0743 16.2031 17.9824 16.2802 17.9052C16.3574 17.8281 16.4493 17.7672 16.5504 17.7264C16.6516 17.6855 16.76 17.6654 16.8691 17.6674C16.9782 17.6693 17.0858 17.6932 17.1854 17.7376C17.2851 17.782 17.3748 17.846 17.4492 17.9258L17.9583 18.435L19.5508 16.8425C19.7049 16.699 19.9086 16.6208 20.1191 16.6246C20.3296 16.6283 20.5304 16.7135 20.6793 16.8624C20.8281 17.0113 20.9134 17.2121 20.9171 17.4226C20.9208 17.6331 20.8427 17.8368 20.6992 17.9908L18.5325 20.1575C18.4572 20.2331 18.3677 20.293 18.2692 20.3339C18.1707 20.3748 18.065 20.3959 17.9583 20.3958Z" fill="#1769E9"/>
</svg>
