<svg width="38" height="38" viewBox="0 0 38 38" fill="none" xmlns="http://www.w3.org/2000/svg">
<path d="M17.9106 19.7262C17.8008 19.7262 17.6995 19.684 17.6235 19.608L16.8972 18.9155L12.3288 18.24C12.2444 18.2315 12.1683 18.1893 12.1092 18.1386L2.70213 9.57595C2.56702 9.44928 2.52479 9.24662 2.60924 9.07773C2.69368 8.90884 2.87102 8.81595 3.05679 8.84128L10.4035 10.0573C10.6061 10.0911 10.7581 10.2684 10.7581 10.4711V12.8524L15.9599 14.4231C16.0106 14.44 16.0612 14.4653 16.095 14.4991L21.0941 18.4426C21.2208 18.544 21.2799 18.7044 21.2461 18.8648C21.2124 19.0253 21.0941 19.1435 20.9337 19.1857C20.8239 19.2111 20.7141 19.1942 20.6212 19.1435C20.3341 18.9746 20.0132 18.8902 19.6839 18.8902C19.1266 18.8902 18.603 19.1351 18.2484 19.5657C18.1724 19.6586 18.0626 19.7093 17.9444 19.7177C17.9275 19.7262 17.919 19.7262 17.9106 19.7262ZM12.5821 17.4293L17.1506 18.1048C17.235 18.1217 17.3195 18.1555 17.3786 18.2146L17.9021 18.7128C18.2821 18.3835 18.755 18.164 19.2532 18.088L15.6221 15.2253L10.2008 13.5871C10.0235 13.5364 9.89679 13.3675 9.89679 13.1817V10.8426L4.31502 9.92217L12.5821 17.4293Z" fill="#474747"/>
<path d="M15.5039 17.0747C15.487 17.0747 15.4616 17.0747 15.4448 17.0662L13.055 16.7115C12.9705 16.7031 12.8945 16.6609 12.8354 16.6102L11.8728 15.7404C11.7039 15.58 11.687 15.3182 11.8474 15.1409C12.0079 14.9635 12.2696 14.9551 12.447 15.1155L13.3083 15.9009L15.563 16.2387C15.791 16.2724 15.9514 16.4835 15.9176 16.72C15.8923 16.9227 15.715 17.0747 15.5039 17.0747ZM26.0172 14.9213C25.8061 14.9213 25.6203 14.7609 25.595 14.5498C25.4683 13.4689 24.5816 12.6413 23.2221 12.3458C20.5874 11.7715 15.9683 13.3 14.1359 14.6004C13.9501 14.7355 13.6799 14.6933 13.5448 14.4991C13.4096 14.3049 13.4519 14.0431 13.6461 13.908C15.5714 12.5315 20.4439 10.868 23.3994 11.5098C25.1305 11.8898 26.2621 12.9791 26.431 14.44C26.4563 14.668 26.2874 14.8791 26.0594 14.9044C26.0425 14.9213 26.0341 14.9213 26.0172 14.9213Z" fill="#474747"/>
<path d="M24.5479 26.0172H16.0866C16.0528 26.0172 16.0106 26.0088 15.9768 26.0003C15.3266 25.823 14.8368 25.3417 14.6088 24.6408C14.6088 24.6323 14.6088 24.6323 14.6003 24.6239L14.2541 23.4079C14.2035 23.239 14.271 23.0617 14.4061 22.9603L17.1675 20.8661C17.3532 20.7226 17.615 20.7648 17.7586 20.9506C17.9021 21.1363 17.8599 21.3981 17.6741 21.5417L15.1408 23.467L15.4026 24.3959C15.5377 24.8097 15.791 25.0714 16.1372 25.1812H24.455C24.8266 25.0208 25.0461 24.5479 25.1221 24.3452C25.2066 24.1257 25.4515 24.0159 25.671 24.1003C25.8906 24.1848 26.0003 24.4297 25.9159 24.6492C25.7639 25.0546 25.3924 25.7639 24.6746 26.0088C24.6408 26.0172 24.5986 26.0172 24.5479 26.0172ZM31.7848 17.3617C31.6497 17.3617 31.5146 17.2941 31.4301 17.1674C31.3035 16.9732 31.3626 16.7114 31.5568 16.5848C31.8186 16.4159 32.0466 16.3483 32.2408 16.2892C32.3759 16.247 32.4857 16.2132 32.5955 16.1541C32.8066 16.0359 32.9417 15.9092 32.967 15.8079C33.0092 15.6306 32.7981 15.3266 32.6124 15.0563C32.5701 14.9972 32.5279 14.9381 32.4941 14.879C31.8946 13.967 31.3035 12.903 30.7377 11.8728C30.4843 11.4168 30.2479 10.9861 30.0115 10.5723C29.9101 10.395 29.7328 10.2768 29.5977 10.2092C29.4372 10.1248 29.1332 10.1163 28.8546 10.1248L29.8003 12.5399C30.0368 13.1732 30.003 13.7728 29.7075 14.2288C29.4203 14.6594 28.9221 14.9043 28.3057 14.9297H19.9372L17.7079 16.171C17.6741 16.2554 17.5981 16.3314 17.5137 16.3821C17.3026 16.4834 17.0492 16.4074 16.9479 16.1963L16.9057 16.1203C16.8043 15.9177 16.8803 15.6728 17.0746 15.563L19.6248 14.1443C19.6839 14.1106 19.7599 14.0937 19.8275 14.0937H28.2803C28.5252 14.0852 28.8377 14.0177 29.0066 13.7728C29.1501 13.5532 29.1586 13.2239 29.015 12.8608L27.8581 9.88833C27.8075 9.76167 27.8243 9.60967 27.9003 9.49989C27.9763 9.38167 28.1115 9.31411 28.2466 9.31411C28.3395 9.31411 28.4492 9.30567 28.5675 9.30567C29.0403 9.28878 29.5723 9.26345 29.9861 9.47456C30.2226 9.59278 30.5435 9.81234 30.7461 10.167C30.9826 10.5892 31.2275 11.0199 31.4808 11.4843C32.0381 12.4977 32.6208 13.5532 33.2035 14.4314C33.2372 14.4906 33.2795 14.5412 33.3217 14.6003C33.6088 15.0141 33.9297 15.487 33.803 16.019C33.7186 16.3737 33.4652 16.6608 33.0261 16.9057C32.8319 17.0154 32.6546 17.0661 32.5026 17.1168C32.3337 17.1674 32.1986 17.2097 32.0297 17.3194C31.9452 17.3363 31.8608 17.3617 31.7848 17.3617Z" fill="#474747"/>
<path d="M33.1106 16.7198C33.0768 16.7198 33.0515 16.7198 33.0177 16.7114C31.5568 16.3905 30.5013 15.0731 30.5013 13.5785C30.5013 12.9789 30.6702 12.3962 30.9826 11.8896C31.1093 11.6954 31.3626 11.6278 31.5653 11.7545C31.7595 11.8811 31.8271 12.1345 31.7004 12.3371C31.4724 12.7087 31.3457 13.1394 31.3457 13.5869C31.3457 14.6931 32.1226 15.6642 33.2035 15.9007C33.4315 15.9514 33.5751 16.1794 33.5244 16.4074C33.4822 16.5847 33.3048 16.7198 33.1106 16.7198ZM19.6755 23.4669C18.1808 23.4669 16.9648 22.2509 16.9648 20.7562C16.9648 19.2616 18.1808 18.0456 19.6755 18.0456C21.1702 18.0456 22.3862 19.2616 22.3862 20.7562C22.3862 22.2509 21.1702 23.4669 19.6755 23.4669ZM19.6755 18.8985C18.6453 18.8985 17.8093 19.7345 17.8093 20.7647C17.8093 21.7949 18.6453 22.6309 19.6755 22.6309C20.7057 22.6309 21.5417 21.7949 21.5417 20.7647C21.5417 19.7345 20.7057 18.8985 19.6755 18.8985Z" fill="#474747"/>
<path d="M4.74986 16.8889L10.0276 17.9445L11.0832 19V19.5278L10.5554 21.1111L11.0832 21.6389L11.611 22.6945L12.6665 23.2222L12.1388 25.3334L11.611 26.9167L8.97209 28.5H6.86097L3.16653 27.4445L1.05542 25.3334V21.6389L2.11098 19L4.74986 16.8889Z" fill="#F0F6FF"/>
<path d="M29.0277 16.8889L33.7777 17.4167L35.361 19H35.8888L36.4166 20.0556L36.9444 21.6389V22.6945V23.2222L36.4166 25.3334L35.8888 26.9167L33.2499 28.5H31.1388L27.4444 27.4445L25.3333 25.3334V21.6389L26.3888 19L29.0277 16.8889Z" fill="#F0F6FF"/>
<path d="M19.6755 21.8878C19.0506 21.8878 18.5439 21.3811 18.5439 20.7562C18.5439 20.1314 19.0506 19.6247 19.6755 19.6247C20.3004 19.6247 20.807 20.1314 20.807 20.7562C20.807 21.3811 20.3004 21.8878 19.6755 21.8878ZM19.6755 20.4776C19.515 20.4776 19.3884 20.6042 19.3884 20.7647C19.3884 20.9251 19.515 21.0518 19.6755 21.0518C19.8359 21.0518 19.9626 20.9251 19.9626 20.7647C19.9626 20.6042 19.8359 20.4776 19.6755 20.4776ZM31.2866 29.2851C27.7568 29.2851 24.8941 26.414 24.8941 22.8927C24.8941 19.3714 27.7653 16.5002 31.2866 16.5002C34.8164 16.5002 37.679 19.3714 37.679 22.8927C37.679 26.414 34.8164 29.2851 31.2866 29.2851ZM31.2866 17.3362C28.2213 17.3362 25.7386 19.8274 25.7386 22.8842C25.7386 25.9411 28.2297 28.4322 31.2866 28.4322C34.3519 28.4322 36.8346 25.9411 36.8346 22.8842C36.8346 19.8274 34.3519 17.3362 31.2866 17.3362ZM6.75548 29.2851C3.2257 29.2851 0.363037 26.414 0.363037 22.8927C0.363037 19.3714 3.23415 16.5002 6.75548 16.5002C8.80748 16.5002 10.7497 17.4967 11.9488 19.1687C12.0839 19.3545 12.0417 19.6247 11.8559 19.7598C11.6701 19.8949 11.3999 19.8527 11.2648 19.6669C10.2261 18.2145 8.53726 17.3531 6.75548 17.3531C3.69015 17.3531 1.20748 19.8442 1.20748 22.9011C1.20748 25.958 3.69859 28.4491 6.75548 28.4491C9.78704 28.4491 12.2781 25.9834 12.3035 22.9518C12.3035 22.7238 12.4977 22.538 12.7257 22.538H12.7341C12.9706 22.538 13.1564 22.7322 13.1479 22.9687C13.1141 26.4478 10.243 29.2851 6.75548 29.2851Z" fill="#474747"/>
<path d="M6.75545 26.1693C4.94834 26.1693 3.479 24.7 3.479 22.8929C3.479 21.0858 4.94834 19.6165 6.75545 19.6165C8.56256 19.6165 10.0319 21.0858 10.0319 22.8929C10.0319 24.7 8.56256 26.1693 6.75545 26.1693ZM6.75545 20.4525C5.41278 20.4525 4.32345 21.5418 4.32345 22.8845C4.32345 24.2271 5.41278 25.3165 6.75545 25.3165C8.09812 25.3165 9.18745 24.2271 9.18745 22.8845C9.18745 21.5418 8.09812 20.4525 6.75545 20.4525Z" fill="#474747"/>
<path d="M14.9297 24.641C14.8622 24.641 14.7862 24.6241 14.7186 24.5819L10.1417 21.9388C9.98127 21.8459 9.87149 21.7023 9.82082 21.525C9.77015 21.3477 9.79549 21.1619 9.88838 21.0014L10.8764 19.2872C10.9693 19.1268 11.1128 19.017 11.2902 18.9663C11.4675 18.9157 11.6533 18.941 11.8137 19.0339L16.4666 21.7192C16.6693 21.8374 16.7368 22.0908 16.6186 22.2934C16.5004 22.4961 16.247 22.5637 16.0444 22.4454L11.535 19.8361L10.699 21.2801L15.1324 23.8388C15.335 23.957 15.4026 24.2103 15.2844 24.413C15.2168 24.565 15.0733 24.641 14.9297 24.641ZM31.2866 26.1694C29.4795 26.1694 28.0102 24.7001 28.0102 22.893C28.0102 21.0859 29.4795 19.6166 31.2866 19.6166C33.0937 19.6166 34.563 21.0859 34.563 22.893C34.563 24.7001 33.0937 26.1694 31.2866 26.1694ZM31.2866 20.4526C29.9439 20.4526 28.8546 21.5419 28.8546 22.8846C28.8546 24.2272 29.9439 25.3165 31.2866 25.3165C32.6293 25.3165 33.7186 24.2272 33.7186 22.8846C33.7186 21.5419 32.6293 20.4526 31.2866 20.4526Z" fill="#474747"/>
<path d="M31.2866 24.489C30.4084 24.489 29.6821 23.7713 29.6821 22.8846C29.6821 21.9979 30.3999 21.2802 31.2866 21.2802C32.1732 21.2802 32.891 21.9979 32.891 22.8846C32.891 23.7713 32.1732 24.489 31.2866 24.489ZM31.2866 22.133C30.8728 22.133 30.5266 22.4708 30.5266 22.893C30.5266 23.3153 30.8644 23.653 31.2866 23.653C31.7088 23.653 32.0466 23.3153 32.0466 22.893C32.0466 22.4708 31.7004 22.133 31.2866 22.133Z" fill="#1769E9"/>
<path d="M31.2867 23.3149C31.1178 23.3149 30.9573 23.2136 30.8982 23.0531L28.6773 17.5051C28.5929 17.2856 28.6942 17.0407 28.9138 16.9563C29.1333 16.8718 29.3782 16.9731 29.4627 17.1927L31.6836 22.7407C31.768 22.9603 31.6667 23.2051 31.4471 23.2896C31.3965 23.298 31.3373 23.3149 31.2867 23.3149ZM6.75557 24.4887C5.87735 24.4887 5.15112 23.7709 5.15112 22.8843C5.15112 21.9976 5.8689 21.2798 6.74712 21.2798C7.62535 21.2798 8.35157 21.9976 8.35157 22.8843C8.35157 23.7709 7.64223 24.4887 6.75557 24.4887ZM6.75557 22.1327C6.34179 22.1327 6.00401 22.4705 6.00401 22.8927C6.00401 23.3149 6.34179 23.6527 6.75557 23.6527C7.16935 23.6527 7.51557 23.3149 7.51557 22.8927C7.51557 22.4705 7.16935 22.1327 6.75557 22.1327ZM28.8125 11.518H27.2418C27.0053 11.518 26.8196 11.3323 26.8196 11.0958C26.8196 10.8594 27.0053 10.6736 27.2418 10.6736H28.8125C29.0489 10.6736 29.2347 10.8594 29.2347 11.0958C29.2347 11.3323 29.0405 11.518 28.8125 11.518ZM22.1667 17.7754C22.0062 17.7754 21.8542 17.6825 21.7867 17.5305L20.8916 15.6051C20.7902 15.394 20.8831 15.1407 21.0942 15.0478C21.3053 14.9465 21.5587 15.0394 21.6516 15.2505L22.5467 17.1758C22.648 17.3869 22.5551 17.6403 22.344 17.7331C22.2849 17.7585 22.2258 17.7754 22.1667 17.7754ZM23.9907 17.7754C23.8302 17.7754 23.6782 17.6825 23.6107 17.5305L22.7156 15.6051C22.6142 15.394 22.7071 15.1407 22.9182 15.0478C23.1293 14.9465 23.3827 15.0394 23.4756 15.2505L24.3707 17.1758C24.472 17.3869 24.3791 17.6403 24.168 17.7331C24.1089 17.7585 24.0498 17.7754 23.9907 17.7754ZM25.8147 17.7754C25.6542 17.7754 25.5022 17.6825 25.4347 17.5305L24.5396 15.6051C24.4382 15.394 24.5311 15.1407 24.7422 15.0478C24.9533 14.9465 25.2067 15.0394 25.2996 15.2505L26.1947 17.1758C26.296 17.3869 26.2031 17.6403 25.992 17.7331C25.9329 17.7585 25.8738 17.7754 25.8147 17.7754Z" fill="#1769E9"/>
<path d="M31.2864 23.3149C31.1175 23.3149 30.9571 23.2136 30.898 23.0532L28.6771 17.5052C28.5927 17.2856 28.694 17.0407 28.9135 16.9563C29.1331 16.8718 29.378 16.9732 29.4624 17.1927L31.6833 22.7407C31.7678 22.9603 31.6664 23.2052 31.4469 23.2896C31.3962 23.298 31.3371 23.3149 31.2864 23.3149Z" fill="#474747"/>
<path fill-rule="evenodd" clip-rule="evenodd" d="M12.616 20.9675C12.8102 21.0772 12.8778 21.3306 12.768 21.5248C12.6582 21.719 12.4049 21.7866 12.2107 21.6768C12.0165 21.567 11.9489 21.3137 12.0587 21.1195C12.1685 20.9252 12.4218 20.8492 12.616 20.9675ZM14.288 21.9048C14.4907 22.023 14.5667 22.2848 14.4485 22.4959C14.3302 22.6986 14.0685 22.7746 13.8574 22.6564C13.6547 22.5381 13.5787 22.2764 13.6969 22.0652C13.8236 21.8541 14.0853 21.7866 14.288 21.9048Z" fill="#474747"/>
</svg>
