<svg width="30" height="30" viewBox="0 0 30 30" fill="none" xmlns="http://www.w3.org/2000/svg">
<path d="M8.5 22.5L4.5 23L2.5 25L1 26.5L1.5 28.5H6H14.5V27L12 24.5L8.5 22.5Z" fill="#F0F6FF"/>
<path d="M23.5 22.5L19.5 23L17.5 25L16 26.5L16.5 28.5H21H29.5V27L27 24.5L23.5 22.5Z" fill="#F0F6FF"/>
<path fill-rule="evenodd" clip-rule="evenodd" d="M9.77326 22.2758C12.5185 23.1106 14.5756 25.5238 14.8891 28.4582C14.8961 28.5238 14.8892 28.5902 14.8689 28.653C14.8485 28.7158 14.8152 28.7736 14.7711 28.8227C14.727 28.8718 14.673 28.9111 14.6127 28.938C14.5524 28.9649 14.4872 28.9788 14.4211 28.9788H0.882321C0.816284 28.9788 0.750984 28.9649 0.690669 28.938C0.630355 28.9111 0.576376 28.8718 0.532244 28.8227C0.488112 28.7736 0.454815 28.7157 0.434518 28.6529C0.414222 28.59 0.40738 28.5236 0.414439 28.4579C0.729557 25.5235 2.78709 23.1104 5.5315 22.2757C4.45473 21.5771 3.74015 20.364 3.74015 18.9896C3.74015 16.8347 5.49685 15.0762 7.65173 15.0762C9.80868 15.0762 11.5651 16.8348 11.5651 18.9896C11.5651 20.3641 10.8506 21.5772 9.77326 22.2758ZM7.65173 22.903C4.56356 22.903 1.99114 25.1127 1.42814 28.0376H13.8756C13.3141 25.1126 10.7415 22.903 7.65173 22.903ZM7.65173 21.9618C9.28991 21.9618 10.624 20.6262 10.624 18.9896C10.624 17.353 9.28991 16.0174 7.65173 16.0174C6.0152 16.0174 4.68132 17.3531 4.68132 18.9896C4.68132 20.6262 6.0152 21.9618 7.65173 21.9618ZM24.4697 22.2758C27.2149 23.1106 29.272 25.5238 29.5856 28.4582C29.5926 28.5238 29.5857 28.5902 29.5653 28.653C29.545 28.7158 29.5117 28.7736 29.4676 28.8227C29.4234 28.8718 29.3695 28.9111 29.3092 28.938C29.2489 28.9649 29.1836 28.9788 29.1176 28.9788H15.5788C15.5128 28.9788 15.4475 28.9649 15.3871 28.938C15.3268 28.9111 15.2729 28.8718 15.2287 28.8227C15.1846 28.7735 15.1513 28.7157 15.131 28.6528C15.1107 28.59 15.1038 28.5236 15.1109 28.4579C15.426 25.5235 17.4835 23.1104 20.2279 22.2757C19.1512 21.5771 18.4366 20.364 18.4366 18.9896C18.4366 16.8347 20.1933 15.0762 22.3482 15.0762C24.5051 15.0762 26.2616 16.8348 26.2616 18.9896C26.2616 20.3641 25.547 21.5772 24.4697 22.2758ZM22.3482 21.9618C23.9864 21.9618 25.3204 20.6262 25.3204 18.9896C25.3204 17.353 23.9864 16.0174 22.3482 16.0174C20.7117 16.0174 19.3778 17.3531 19.3778 18.9896C19.3778 20.6262 20.7117 21.9618 22.3482 21.9618ZM22.3482 22.903C19.26 22.903 16.6876 25.1127 16.1246 28.0376H28.5721C28.0106 25.1126 25.438 22.903 22.3482 22.903ZM18.3001 8.33653C18.8038 9.65924 18.2881 11.1893 17.023 11.9197L12.6101 14.4675C11.2063 15.278 9.41115 14.797 8.60068 13.3932C7.79015 11.9894 8.27109 10.1941 9.67491 9.38365L12.8574 7.54618C12.3537 6.22347 12.8694 4.69341 14.1345 3.963L18.5474 1.41518C19.9513 0.604706 21.7464 1.08571 22.5569 2.48953C23.3674 3.89335 22.8864 5.68859 21.4826 6.49906L18.3001 8.33653ZM17.8296 7.52141L21.012 5.684C21.9657 5.13341 22.2925 3.91394 21.7419 2.96024C21.1913 2.00653 19.9717 1.67971 19.018 2.23029L14.6051 4.77812C13.7918 5.24765 13.4344 6.20371 13.6884 7.06647L14.0879 6.83582C15.353 6.10541 16.9359 6.42388 17.8296 7.52141ZM13.328 8.3613L10.1455 10.1987C9.19179 10.7493 8.86509 11.9688 9.41568 12.9225C9.41598 12.923 9.41629 12.9236 9.41662 12.9241C9.96768 13.8766 11.1863 14.2027 12.1395 13.6524L16.5524 11.1046C17.3657 10.6351 17.7231 9.679 17.4691 8.81624L17.0697 9.04688C15.8046 9.7773 14.2217 9.45883 13.328 8.3613ZM16.9986 8.00118C16.3784 7.34988 15.3717 7.18135 14.5584 7.65088L14.159 7.88153C14.7791 8.53282 15.7858 8.70135 16.5991 8.23182L16.9986 8.00118ZM9.61585 5.18582C9.50781 5.12338 9.42897 5.0206 9.39668 4.90006C9.36438 4.77953 9.38126 4.6511 9.44362 4.543C9.50606 4.43496 9.60884 4.35612 9.72937 4.32381C9.84991 4.29151 9.97834 4.30837 10.0864 4.37071L11.2823 5.06118C11.3904 5.12362 11.4692 5.2264 11.5015 5.34694C11.5338 5.46748 11.5169 5.59591 11.4546 5.704C11.3921 5.81205 11.2893 5.89088 11.1688 5.92318C11.0483 5.95547 10.9198 5.93859 10.8117 5.87624L9.61585 5.18582ZM10.9272 2.81394C10.8649 2.70585 10.848 2.57742 10.8803 2.45688C10.9126 2.33634 10.9914 2.23356 11.0994 2.17112C11.2075 2.10876 11.336 2.09188 11.4565 2.12418C11.577 2.15647 11.6798 2.23531 11.7423 2.34335L12.4327 3.53924C12.5626 3.76418 12.4854 4.05224 12.2604 4.18206C12.1523 4.24441 12.0239 4.2613 11.9034 4.229C11.7828 4.1967 11.6801 4.11787 11.6176 4.00982L10.9272 2.81394ZM8.68803 7.63347C8.42826 7.63347 8.21744 7.42259 8.21744 7.16288C8.21744 6.90318 8.42826 6.69229 8.68803 6.69229H10.0689C10.3286 6.69229 10.5395 6.90318 10.5395 7.16288C10.5395 7.42259 10.3286 7.63347 10.0689 7.63347H8.68803ZM21.4232 10.4916C21.5313 10.5541 21.6101 10.6569 21.6424 10.7774C21.6747 10.8979 21.6578 11.0264 21.5954 11.1345C21.533 11.2425 21.4302 11.3214 21.3097 11.3537C21.1892 11.386 21.0607 11.3691 20.9526 11.3068L19.7567 10.6163C19.6487 10.5539 19.5699 10.4511 19.5375 10.3305C19.5052 10.21 19.5221 10.0816 19.5844 9.97347C19.6469 9.86542 19.7497 9.78659 19.8702 9.75429C19.9908 9.72199 20.1192 9.73888 20.2273 9.80124L21.4232 10.4916ZM20.1119 12.8635C20.2417 13.0885 20.1646 13.3765 19.9396 13.5064C19.7147 13.6362 19.4266 13.5591 19.2968 13.3341L18.6063 12.1382C18.544 12.0301 18.5271 11.9017 18.5594 11.7812C18.5917 11.6606 18.6705 11.5579 18.7786 11.4954C18.8867 11.4331 19.0151 11.4162 19.1357 11.4485C19.2562 11.4808 19.359 11.5596 19.4214 11.6676L20.1119 12.8635ZM22.351 8.044C22.6107 8.044 22.8216 8.25482 22.8216 8.51459C22.8216 8.77429 22.6107 8.98518 22.351 8.98518H20.9701C20.7104 8.98518 20.4996 8.77429 20.4996 8.51459C20.4996 8.25482 20.7104 8.044 20.9701 8.044H22.351Z" fill="#474747"/>
<path fill-rule="evenodd" clip-rule="evenodd" d="M18.3001 8.33653C18.8038 9.65924 18.2881 11.1893 17.023 11.9197L12.6101 14.4675C11.2063 15.278 9.41115 14.797 8.60068 13.3932C7.79015 11.9894 8.27109 10.1941 9.67491 9.38365L12.8574 7.54618C12.3537 6.22347 12.8694 4.69341 14.1345 3.963L18.5474 1.41518C19.9513 0.604706 21.7464 1.08571 22.5569 2.48953C23.3674 3.89335 22.8864 5.68859 21.4826 6.49906L18.3001 8.33653ZM17.8296 7.52141L21.012 5.684C21.9657 5.13341 22.2925 3.91394 21.7419 2.96024C21.1913 2.00653 19.9717 1.67971 19.018 2.23029L14.6051 4.77812C13.7918 5.24765 13.4344 6.20371 13.6884 7.06647L14.0879 6.83582C15.353 6.10541 16.9359 6.42388 17.8296 7.52141ZM13.328 8.3613L10.1455 10.1987C9.19179 10.7493 8.86509 11.9688 9.41568 12.9225L9.41662 12.9241C9.96768 13.8766 11.1863 14.2027 12.1395 13.6524L16.5524 11.1046C17.3657 10.6351 17.7231 9.679 17.4691 8.81624L17.0697 9.04688C15.8046 9.7773 14.2217 9.45883 13.328 8.3613ZM16.9986 8.00118C16.3784 7.34988 15.3717 7.18135 14.5584 7.65088L14.159 7.88153C14.7791 8.53282 15.7858 8.70135 16.5991 8.23182L16.9986 8.00118Z" fill="#1769E9"/>
</svg>
