<svg width="30" height="30" viewBox="0 0 30 30" fill="none" xmlns="http://www.w3.org/2000/svg">
<g clip-path="url(#clip0_1050_335)">
<rect x="1" y="19" width="28" height="8" rx="2" fill="#F0F6FF"/>
<path d="M22.4987 2.34214V13.5924C22.3757 13.5924 22.2539 13.6166 22.1403 13.6637C22.0267 13.7109 21.9235 13.7799 21.8366 13.867C21.7497 13.954 21.6809 14.0574 21.6339 14.1711C21.587 14.2848 21.563 14.4066 21.5633 14.5296L21.5615 18.7515H2.81347C1.76463 18.7515 0.937256 19.5966 0.937256 20.6277V25.3121C0.937256 26.3432 1.76818 27.1883 2.81347 27.1883H3.2812V28.5932C3.27943 28.8519 3.49026 29.0645 3.7507 29.0627H7.03364C7.2923 29.0627 7.50313 28.8501 7.50136 28.5932V27.1883H22.5005V28.5932C22.5005 28.8537 22.7113 29.0645 22.9717 29.0627H26.2511C26.3129 29.063 26.3742 29.051 26.4314 29.0275C26.4885 29.004 26.5405 28.9695 26.5843 28.9259C26.6281 28.8822 26.6628 28.8304 26.6865 28.7733C26.7102 28.7162 26.7224 28.6551 26.7224 28.5932V27.1883H27.1901C28.239 27.1883 29.0646 26.3432 29.0646 25.3121V20.6277C29.0646 19.5966 28.239 18.7497 27.1901 18.7497H26.2511V14.5314C26.2507 14.2834 26.152 14.0457 25.9766 13.8704C25.8013 13.6951 25.5636 13.5964 25.3157 13.5959L25.3139 2.34569C25.3139 1.9726 25.1657 1.61479 24.9019 1.35098C24.6381 1.08717 24.2803 0.938965 23.9072 0.938965C23.5341 0.938965 23.1763 1.08717 22.9125 1.35098C22.6487 1.61479 22.5005 1.9726 22.5005 2.34569L22.4987 2.34214ZM23.9072 1.87619C24.1623 1.87619 24.3749 2.07462 24.3749 2.34214V13.5924H23.4377V2.34214C23.4377 2.07639 23.6521 1.87619 23.9072 1.87619ZM10.577 6.23631C8.98217 6.23878 7.4037 6.55797 5.93321 7.17537C4.46272 7.79276 3.12949 8.69606 2.0109 9.83284C1.5538 10.2598 2.25716 10.9561 2.67883 10.4901C3.71007 9.44252 4.93913 8.61019 6.29467 8.04145C7.65021 7.47271 9.10522 7.1789 10.5752 7.17708C13.5375 7.17708 16.3793 8.36942 18.4752 10.4901C18.9004 10.9579 19.5949 10.2563 19.1414 9.83284C18.0226 8.69683 16.6896 7.79414 15.2195 7.17707C13.7494 6.56001 12.1714 6.23908 10.577 6.23631ZM10.577 9.18617C9.36609 9.18714 8.16742 9.42868 7.05062 9.89675C5.93382 10.3648 4.92113 11.0501 4.07137 11.9128C3.58593 12.3238 4.34067 13.0431 4.73576 12.5683C5.49883 11.7938 6.4081 11.1786 7.41083 10.7583C8.41355 10.338 9.48976 10.121 10.577 10.1199C12.7668 10.1199 14.8663 11.0004 16.4183 12.5701C16.847 13.0237 17.5309 12.3486 17.0862 11.9128C16.2357 11.0499 15.2225 10.3644 14.1051 9.89607C12.9878 9.42772 11.7886 9.18759 10.577 9.18617ZM10.577 12.1307C8.90631 12.1307 7.31002 12.7986 6.13007 13.991C5.67475 14.4109 6.36748 15.1178 6.79446 14.6518C7.2889 14.1507 7.87797 13.7528 8.52746 13.4812C9.17695 13.2096 9.87392 13.0698 10.5779 13.0698C11.2819 13.0698 11.9789 13.2096 12.6283 13.4812C13.2778 13.7528 13.8669 14.1507 14.3613 14.6518C14.7972 15.1125 15.4775 14.4251 15.0293 13.991C14.4471 13.4018 13.7538 12.9341 12.9895 12.6147C12.2253 12.2954 11.4053 12.1309 10.577 12.1307ZM22.5005 14.5314H25.3121V18.7515H22.4987L22.5005 14.5314ZM10.5752 15.077C9.677 15.077 8.81773 15.4367 8.18346 16.0763C7.72282 16.5227 8.41024 17.2031 8.85139 16.7371C9.07647 16.5081 9.3449 16.3262 9.64102 16.2021C9.93715 16.0779 10.255 16.014 10.5761 16.014C10.8972 16.014 11.2151 16.0779 11.5112 16.2021C11.8074 16.3262 12.0758 16.5081 12.3009 16.7371C12.742 17.1977 13.4241 16.5192 12.9652 16.0763C12.6525 15.7598 12.28 15.5086 11.8695 15.3371C11.4589 15.1655 11.0202 15.0772 10.5752 15.077ZM2.81347 19.6905H27.1884C27.7163 19.6905 28.1256 20.1069 28.1256 20.6277V25.3121C28.1256 25.84 27.7022 26.2511 27.1866 26.2511H2.81525C2.69161 26.2523 2.56897 26.2288 2.45451 26.182C2.34005 26.1352 2.23607 26.0661 2.14864 25.9787C2.06121 25.8913 1.99209 25.7873 1.94532 25.6728C1.89855 25.5584 1.87507 25.4357 1.87625 25.3121V20.6277C1.87625 20.1069 2.28728 19.6887 2.81525 19.6887L2.81347 19.6905ZM5.15387 20.6277C4.78126 20.6277 4.4239 20.7758 4.16043 21.0392C3.89695 21.3027 3.74893 21.6601 3.74893 22.0327C3.74893 22.4053 3.89695 22.7627 4.16043 23.0261C4.4239 23.2896 4.78126 23.4376 5.15387 23.4376C5.34431 23.4472 5.5347 23.418 5.71349 23.3517C5.89227 23.2854 6.05571 23.1834 6.19388 23.052C6.33205 22.9206 6.44206 22.7625 6.51724 22.5873C6.59241 22.412 6.63117 22.2234 6.63117 22.0327C6.63117 21.842 6.59241 21.6533 6.51724 21.4781C6.44206 21.3029 6.33205 21.1447 6.19388 21.0133C6.05571 20.8819 5.89227 20.78 5.71349 20.7137C5.5347 20.6474 5.34431 20.6182 5.15387 20.6277ZM8.90985 20.6277C8.11968 20.6277 7.49959 21.2602 7.49959 22.0309C7.49959 22.8016 8.12854 23.4376 8.90985 23.4376C9.28247 23.4376 9.63982 23.2896 9.9033 23.0261C10.1668 22.7627 10.3148 22.4053 10.3148 22.0327C10.3148 21.6601 10.1668 21.3027 9.9033 21.0392C9.63982 20.7758 9.28247 20.6277 8.90985 20.6277ZM12.6587 20.6277C12.47 20.6206 12.2817 20.6515 12.1051 20.7187C11.9285 20.7859 11.7673 20.888 11.631 21.0188C11.4948 21.1497 11.3863 21.3067 11.312 21.4804C11.2377 21.6541 11.1992 21.841 11.1987 22.0299C11.1982 22.2188 11.2358 22.4059 11.3092 22.58C11.3826 22.7541 11.4903 22.9116 11.6259 23.0431C11.7615 23.1747 11.9222 23.2776 12.0985 23.3456C12.2747 23.4137 12.4628 23.4456 12.6517 23.4394C13.0159 23.4274 13.3613 23.2745 13.6151 23.0129C13.8689 22.7513 14.0112 22.4015 14.0121 22.037C14.013 21.6725 13.8725 21.3219 13.62 21.0591C13.3676 20.7962 13.0229 20.6416 12.6587 20.6277ZM5.15387 21.5614C5.40368 21.5614 5.62514 21.7669 5.62514 22.0309C5.62514 22.1554 5.57568 22.2749 5.48763 22.3629C5.39958 22.4509 5.28016 22.5004 5.15565 22.5004C5.03113 22.5004 4.91171 22.4509 4.82366 22.3629C4.73561 22.2749 4.68615 22.1554 4.68615 22.0309C4.68615 21.7669 4.90407 21.5614 5.15387 21.5614ZM8.90985 21.5614C9.16143 21.5614 9.37581 21.7669 9.37581 22.0309C9.37581 22.2949 9.16321 22.4986 8.90985 22.4986C8.6565 22.4986 8.43681 22.2967 8.43681 22.0309C8.43681 21.7652 8.65827 21.5614 8.90985 21.5614ZM12.6587 21.5614C12.905 21.5614 13.1247 21.7669 13.1247 22.0309C13.1247 22.2949 12.9121 22.4986 12.6587 22.4986C12.4036 22.4986 12.1875 22.2967 12.1875 22.0309C12.1875 21.7652 12.4125 21.5614 12.6587 21.5614ZM15.4669 21.5614C14.8556 21.5614 14.8556 22.4986 15.4669 22.4986H19.6906C20.3018 22.4986 20.3018 21.5596 19.6906 21.5596L15.4669 21.5614ZM21.7971 21.5614C21.1841 21.5614 21.1841 22.4986 21.7971 22.4986H22.97C23.5812 22.4986 23.5812 21.5596 22.97 21.5596L21.7971 21.5614ZM4.21665 27.1883H6.5606V28.1255H4.21842L4.21665 27.1883ZM23.4359 27.1883H25.7799V28.1255H23.4395L23.4359 27.1883Z" fill="#474747"/>
<path d="M10.577 6.23633C8.98211 6.2388 7.40364 6.55799 5.93315 7.17538C4.46266 7.79278 3.12943 8.69607 2.01084 9.83286C1.55374 10.2598 2.2571 10.9561 2.67877 10.4902C3.71001 9.44254 4.93907 8.6102 6.29461 8.04147C7.65015 7.47273 9.10516 7.17892 10.5752 7.17709C13.5374 7.17709 16.3792 8.36944 18.4751 10.4902C18.9003 10.9579 19.5948 10.2563 19.1413 9.83286C18.0226 8.69684 16.6895 7.79415 15.2194 7.17709C13.7493 6.56003 12.1713 6.23909 10.577 6.23633ZM10.577 9.18619C9.36603 9.18716 8.16736 9.42869 7.05056 9.89676C5.93376 10.3648 4.92107 11.0501 4.07131 11.9128C3.58587 12.3238 4.34061 13.0432 4.7357 12.5683C5.49877 11.7938 6.40804 11.1786 7.41077 10.7583C8.41349 10.338 9.4897 10.121 10.577 10.1199C12.7668 10.1199 14.8662 11.0004 16.4182 12.5701C16.847 13.0237 17.5308 12.3487 17.0861 11.9128C16.2357 11.0499 15.2224 10.3644 14.1051 9.89609C12.9877 9.42773 11.7885 9.18761 10.577 9.18619ZM10.577 12.1307C8.90625 12.1307 7.30996 12.7987 6.13001 13.991C5.67469 14.4109 6.36742 15.1178 6.7944 14.6518C7.28884 14.1507 7.87791 13.7528 8.5274 13.4812C9.17689 13.2097 9.87386 13.0698 10.5778 13.0698C11.2818 13.0698 11.9788 13.2097 12.6283 13.4812C13.2778 13.7528 13.8668 14.1507 14.3613 14.6518C14.7971 15.1125 15.4774 14.4251 15.0292 13.991C14.447 13.4019 13.7537 12.9341 12.9895 12.6147C12.2252 12.2954 11.4052 12.1309 10.577 12.1307ZM10.5752 15.0771C9.67693 15.0771 8.81767 15.4367 8.1834 16.0763C7.72276 16.5228 8.41018 17.2031 8.85133 16.7371C9.07641 16.5081 9.34484 16.3262 9.64096 16.2021C9.93709 16.0779 10.255 16.014 10.5761 16.014C10.8972 16.014 11.215 16.0779 11.5112 16.2021C11.8073 16.3262 12.0757 16.5081 12.3008 16.7371C12.742 17.1978 13.4241 16.5192 12.9652 16.0763C12.6524 15.7599 12.2799 15.5086 11.8694 15.3371C11.4588 15.1656 11.0201 15.0772 10.5752 15.0771ZM5.15381 20.6278C4.7812 20.6278 4.42384 20.7758 4.16037 21.0393C3.89689 21.3027 3.74887 21.6601 3.74887 22.0327C3.74887 22.4053 3.89689 22.7627 4.16037 23.0261C4.42384 23.2896 4.7812 23.4377 5.15381 23.4377C5.34425 23.4472 5.53464 23.418 5.71343 23.3517C5.89221 23.2854 6.05565 23.1835 6.19382 23.0521C6.33199 22.9206 6.442 22.7625 6.51718 22.5873C6.59235 22.4121 6.63111 22.2234 6.63111 22.0327C6.63111 21.842 6.59235 21.6533 6.51718 21.4781C6.442 21.3029 6.33199 21.1448 6.19382 21.0134C6.05565 20.882 5.89221 20.78 5.71343 20.7137C5.53464 20.6474 5.34425 20.6182 5.15381 20.6278ZM8.90979 20.6278C8.11962 20.6278 7.49953 21.2602 7.49953 22.0309C7.49953 22.8016 8.12848 23.4377 8.90979 23.4377C9.28241 23.4377 9.63976 23.2896 9.90324 23.0261C10.1667 22.7627 10.3147 22.4053 10.3147 22.0327C10.3147 21.6601 10.1667 21.3027 9.90324 21.0393C9.63976 20.7758 9.28241 20.6278 8.90979 20.6278ZM12.6587 20.6278C12.4699 20.6206 12.2816 20.6515 12.105 20.7187C11.9285 20.7859 11.7672 20.888 11.631 21.0189C11.4947 21.1497 11.3862 21.3067 11.3119 21.4804C11.2376 21.6541 11.1991 21.841 11.1986 22.0299C11.1982 22.2188 11.2357 22.4059 11.3091 22.58C11.3825 22.7541 11.4903 22.9116 11.6259 23.0431C11.7615 23.1747 11.9222 23.2776 12.0984 23.3457C12.2746 23.4137 12.4628 23.4456 12.6516 23.4394C13.0159 23.4274 13.3613 23.2745 13.615 23.0129C13.8688 22.7514 14.0112 22.4015 14.0121 22.037C14.013 21.6725 13.8724 21.3219 13.62 21.0591C13.3675 20.7962 13.0229 20.6416 12.6587 20.6278ZM5.15381 21.5614C5.40362 21.5614 5.62508 21.7669 5.62508 22.0309C5.62508 22.1554 5.57562 22.2749 5.48757 22.3629C5.39952 22.451 5.2801 22.5004 5.15559 22.5004C5.03107 22.5004 4.91165 22.451 4.8236 22.3629C4.73555 22.2749 4.68609 22.1554 4.68609 22.0309C4.68609 21.7669 4.90401 21.5614 5.15381 21.5614ZM8.90979 21.5614C9.16137 21.5614 9.37575 21.7669 9.37575 22.0309C9.37575 22.2949 9.16315 22.4987 8.90979 22.4987C8.65644 22.4987 8.43675 22.2967 8.43675 22.0309C8.43675 21.7652 8.65821 21.5614 8.90979 21.5614ZM12.6587 21.5614C12.905 21.5614 13.1246 21.7669 13.1246 22.0309C13.1246 22.2949 12.912 22.4987 12.6587 22.4987C12.4036 22.4987 12.1874 22.2967 12.1874 22.0309C12.1874 21.7652 12.4124 21.5614 12.6587 21.5614Z" fill="#1769E9"/>
</g>
<defs>
<clipPath id="clip0_1050_335">
<rect width="30" height="30" fill="white"/>
</clipPath>
</defs>
</svg>
