<svg width="30" height="30" viewBox="0 0 30 30" fill="none" xmlns="http://www.w3.org/2000/svg">
<g filter="url(#filter0_d_963_1026)">
<path d="M16 0.5L11 1.5L8.5 3.5L7 5.5L6 9.5L7 14L9.5 17.5L11 21.5L12.5 22L14 21.5L17.5 22L19.5 20.5L20.5 17.5L23.5 13L24 8.5L23 4.5L18 1.5L16 0.5Z" fill="#F0F6FF"/>
<path d="M21.8043 2.80154C19.9831 0.993223 17.572 0 15.0072 0C14.984 0 14.9603 5.85937e-05 14.9371 0.000234375C12.4331 0.0178711 10.0624 0.998906 8.26144 2.76264C6.46015 4.52672 5.4306 6.87656 5.36257 9.37916C5.29162 11.9871 6.24687 14.4571 8.05238 16.3343C9.47415 17.8125 10.2571 19.7786 10.2571 21.8706V25.8949C10.2571 26.7217 10.8312 27.4166 11.6015 27.603V28.1396C11.6015 29.1654 12.436 29.9999 13.4618 29.9999H16.538C17.5638 29.9999 18.3983 29.1654 18.3983 28.1396V27.6061C19.1753 27.4245 19.756 26.7265 19.756 25.8949V21.8707C19.756 19.8061 20.5605 17.8172 22.0214 16.2706C23.7192 14.4731 24.6543 12.1211 24.6543 9.64764C24.6543 7.05779 23.6421 4.62645 21.8043 2.80154ZM17.2265 28.1396C17.2265 28.5193 16.9177 28.8281 16.538 28.8281H13.4619C13.0822 28.8281 12.7734 28.5193 12.7734 28.1396V27.6526H17.2265V28.1396ZM18.5842 25.8949C18.5842 26.2179 18.3215 26.4807 17.9984 26.4807H12.0148C11.6918 26.4807 11.4291 26.2179 11.4291 25.8949V22.5624H18.5842V25.8949ZM14.0862 21.3905V13.9792H15.9116V21.3905H14.0862V21.3905ZM21.1696 15.4659C19.6156 17.1112 18.7123 19.1991 18.5968 21.3905H17.0835V13.9792H17.6101C18.5467 13.9792 19.3087 13.2172 19.3087 12.2806V12.1898C19.3087 11.2532 18.5467 10.4912 17.6101 10.4912C16.6736 10.4912 15.9116 11.2532 15.9116 12.1898V12.8073H14.0862V12.1898C14.0862 11.2532 13.3242 10.4912 12.3877 10.4912H12.2722C11.3357 10.4912 10.5737 11.2532 10.5737 12.1898V12.2806C10.5737 13.2172 11.3357 13.9792 12.2722 13.9792H12.9143V21.3905H11.417C11.3052 19.1743 10.4203 17.1056 8.89701 15.5219C7.31087 13.8728 6.47164 11.7026 6.53404 9.41103C6.65673 4.8999 10.43 1.20393 14.9453 1.17205C17.2243 1.15605 19.3641 2.03004 20.9786 3.63311C22.5933 5.23635 23.4825 7.37238 23.4825 9.64764C23.4825 11.8206 22.661 13.8869 21.1696 15.4659ZM17.0835 12.8073V12.1898C17.0835 11.8993 17.3197 11.6631 17.6101 11.6631C17.9006 11.6631 18.1368 11.8994 18.1368 12.1898V12.2806C18.1368 12.5711 17.9006 12.8073 17.6101 12.8073H17.0835ZM12.9143 12.1898V12.8073H12.2722C11.9818 12.8073 11.7455 12.5711 11.7455 12.2806V12.1898C11.7455 11.8993 11.9818 11.6631 12.2722 11.6631H12.3876C12.678 11.6631 12.9143 11.8995 12.9143 12.1898Z" fill="#474747"/>
<path d="M21.2875 7.11141C20.7842 5.86184 19.9281 4.79842 18.812 4.03612C17.6679 3.25477 16.3268 2.84696 14.9371 2.85674C14.6135 2.85903 14.353 3.12323 14.3553 3.44684C14.3576 3.76905 14.6195 4.02862 14.9411 4.02862H14.9453L14.9862 4.0285C17.2936 4.0285 19.3375 5.40692 20.2006 7.54928C20.2443 7.65771 20.3194 7.75061 20.4162 7.81603C20.5131 7.88146 20.6273 7.91642 20.7442 7.91643C20.8192 7.91642 20.8935 7.90196 20.963 7.87383C21.2631 7.7529 21.4085 7.41153 21.2875 7.11141ZM21.6059 9.23344C21.4969 9.12446 21.3457 9.06176 21.1916 9.06176C21.0375 9.06176 20.8863 9.12446 20.7773 9.23344C20.6676 9.34342 20.6059 9.49235 20.6057 9.6477C20.6057 9.80239 20.6678 9.95297 20.7773 10.062C20.8863 10.1715 21.0369 10.2336 21.1916 10.2336C21.3457 10.2336 21.4969 10.1715 21.6059 10.062C21.7154 9.95187 21.7771 9.80301 21.7775 9.6477C21.7775 9.4936 21.7148 9.34243 21.6059 9.23344ZM27.2127 2.91868C26.9838 2.68987 26.6129 2.68987 26.384 2.91868L25.2923 4.01034C25.0635 4.23915 25.0635 4.61016 25.2923 4.83903C25.4068 4.95346 25.5567 5.01065 25.7067 5.01065C25.8567 5.01065 26.0066 4.95346 26.121 4.83903L27.2127 3.74737C27.4415 3.51856 27.4415 3.14754 27.2127 2.91868ZM27.2126 15.5485L26.121 14.4568C25.8922 14.228 25.5213 14.228 25.2923 14.4568C25.0635 14.6856 25.0635 15.0567 25.2923 15.2855L26.384 16.3771C26.4984 16.4916 26.6484 16.5488 26.7983 16.5488C26.9483 16.5488 27.0982 16.4915 27.2126 16.3771C27.4414 16.1483 27.4414 15.7773 27.2126 15.5485ZM29.4141 9.062H27.8702C27.5466 9.062 27.2842 9.32432 27.2842 9.64793C27.2842 9.97155 27.5466 10.2339 27.8702 10.2339H29.4141C29.7376 10.2339 30 9.97155 30 9.64793C30 9.32432 29.7376 9.062 29.4141 9.062ZM4.7076 4.0104L3.616 2.91874C3.38713 2.68993 3.01623 2.68993 2.7873 2.91874C2.5585 3.14754 2.5585 3.51856 2.7873 3.74743L3.87896 4.83909C3.93331 4.89358 3.99789 4.93679 4.06899 4.96625C4.1401 4.9957 4.21632 5.01081 4.29328 5.01071C4.37024 5.01081 4.44646 4.9957 4.51757 4.96625C4.58867 4.93679 4.65325 4.89358 4.7076 4.83909C4.93641 4.61022 4.93641 4.23926 4.7076 4.0104ZM4.7076 14.4568C4.47879 14.2279 4.10783 14.2279 3.87896 14.4568L2.7873 15.5485C2.5585 15.7773 2.5585 16.1483 2.7873 16.3771C2.84165 16.4316 2.90623 16.4748 2.97733 16.5043C3.04844 16.5337 3.12466 16.5489 3.20162 16.5488C3.27858 16.5488 3.3548 16.5337 3.4259 16.5043C3.497 16.4748 3.56158 16.4316 3.61594 16.3771L4.7076 15.2855C4.93641 15.0566 4.93641 14.6856 4.7076 14.4568ZM2.12982 9.062H0.585938C0.262383 9.062 0 9.32432 0 9.64793C0 9.97155 0.262383 10.2339 0.585938 10.2339H2.12982C2.45338 10.2339 2.71576 9.97155 2.71576 9.64793C2.71576 9.32432 2.45338 9.062 2.12982 9.062Z" fill="#1769E9"/>
</g>
<defs>
<filter id="filter0_d_963_1026" x="-4" y="0" width="38" height="37.9999" filterUnits="userSpaceOnUse" color-interpolation-filters="sRGB">
<feFlood flood-opacity="0" result="BackgroundImageFix"/>
<feColorMatrix in="SourceAlpha" type="matrix" values="0 0 0 0 0 0 0 0 0 0 0 0 0 0 0 0 0 0 127 0" result="hardAlpha"/>
<feOffset dy="4"/>
<feGaussianBlur stdDeviation="2"/>
<feComposite in2="hardAlpha" operator="out"/>
<feColorMatrix type="matrix" values="0 0 0 0 0 0 0 0 0 0 0 0 0 0 0 0 0 0 0.25 0"/>
<feBlend mode="normal" in2="BackgroundImageFix" result="effect1_dropShadow_963_1026"/>
<feBlend mode="normal" in="SourceGraphic" in2="effect1_dropShadow_963_1026" result="shape"/>
</filter>
</defs>
</svg>
