<svg width="46" height="18" viewBox="0 0 46 18" fill="none" xmlns="http://www.w3.org/2000/svg">
<path d="M10.35 4.97512L8.62495 3.25012L7.47495 3.82512L4.59995 4.97512L1.72495 5.55012L0.574951 6.12512V9.00012V11.8751L1.72495 13.0251L4.59995 13.6001H5.74995L6.32495 11.8751L7.47495 10.1501H9.19995L11.5 10.7251L12.65 12.4501V14.7501H33.3499V13.6001L33.9249 12.4501L35.075 10.7251L36.7999 9.57512L38.525 10.1501L40.825 11.3001V13.6001L40.25 14.7501H44.275L45.4249 14.1751V10.7251L43.7 7.85012L34.5 6.12512H17.825H13.8L10.35 4.97512Z" fill="#F0F6FF"/>
<path d="M12.917 13.3216C12.917 15.3104 11.3049 16.9226 9.31601 16.9226C7.32733 16.9226 5.71509 15.3104 5.71509 13.3216C5.71509 11.3328 7.32733 9.72057 9.31601 9.72057C11.3049 9.72057 12.917 11.3328 12.917 13.3216Z" stroke="#474747" stroke-miterlimit="10" stroke-linecap="round" stroke-linejoin="round"/>
<path d="M12.917 14.762H33.8027" stroke="#474747" stroke-miterlimit="10" stroke-linecap="round" stroke-linejoin="round"/>
<path d="M9.82535 12.8123L8.80688 13.8308" stroke="#1769E9" stroke-miterlimit="10" stroke-linecap="round" stroke-linejoin="round"/>
<path d="M41.0047 13.3216C41.0047 15.3104 39.3925 16.9226 37.4037 16.9226C35.415 16.9226 33.8027 15.3104 33.8027 13.3216C33.8027 11.3328 35.415 9.72057 37.4037 9.72057C39.3925 9.72057 41.0047 11.3328 41.0047 13.3216Z" stroke="#474747" stroke-miterlimit="10" stroke-linecap="round" stroke-linejoin="round"/>
<path d="M36.8945 12.8123L37.913 13.8308" stroke="#1769E9" stroke-miterlimit="10" stroke-linecap="round" stroke-linejoin="round"/>
<path d="M5.71522 14.0418L2.24088 13.0491C1.78943 12.9201 1.39228 12.6476 1.10954 12.2727C0.826792 11.8979 0.67384 11.4412 0.673828 10.9716V6.67093C0.673828 5.94455 1.21478 5.33181 1.93559 5.2417L4.59927 4.90874C5.81453 4.75685 6.9951 4.39938 8.0905 3.85164L11.5084 2.14273C12.9085 1.44269 14.4523 1.07825 16.0176 1.07826H22.4341C24.2148 1.07826 25.9584 1.58606 27.4607 2.54199L33.0827 6.11965C33.0827 6.11965 39.6112 6.11965 43.6841 8.01104C44.6926 8.47948 45.326 9.50289 45.326 10.6151V13.006C45.326 14.1208 44.6812 14.762 43.8857 14.762" stroke="#474747" stroke-miterlimit="10" stroke-linecap="round" stroke-linejoin="round"/>
<path d="M14.3575 6.11951H12.9684C12.0133 6.11949 11.0974 5.74009 10.422 5.06474L9.31616 3.95895" stroke="#474747" stroke-miterlimit="10" stroke-linecap="round" stroke-linejoin="round"/>
<path d="M33.0825 6.11951H17.2383" stroke="#474747" stroke-miterlimit="10" stroke-linecap="round" stroke-linejoin="round"/>
<path d="M15.7979 11.8812H30.9219" stroke="#1769E9" stroke-miterlimit="10" stroke-linecap="round" stroke-linejoin="round"/>
<path d="M0.673828 8.28015H2.1142" stroke="#474747" stroke-miterlimit="10" stroke-linecap="round" stroke-linejoin="round"/>
<path d="M43.1655 9.72058H44.906" stroke="#474747" stroke-miterlimit="10" stroke-linecap="round" stroke-linejoin="round"/>
<path d="M20.1191 6.11951V1.07812" stroke="#474747" stroke-miterlimit="10" stroke-linecap="round" stroke-linejoin="round"/>
<path d="M11.8369 5.82703L12.7745 1.68542" stroke="#474747" stroke-miterlimit="10" stroke-linecap="round" stroke-linejoin="round"/>
</svg>
