<svg width="30" height="26" viewBox="0 0 30 26" fill="none" xmlns="http://www.w3.org/2000/svg">
<path d="M26.5065 25.8733H3.73982C3.18649 25.8733 2.73315 25.42 2.73315 24.8667V24.1267C2.73315 23.5733 3.18649 23.12 3.73982 23.12H26.4998C27.0532 23.12 27.5065 23.5733 27.5065 24.1267V24.8667C27.5065 25.42 27.0598 25.8733 26.5065 25.8733ZM3.73982 23.7867C3.55315 23.7867 3.39982 23.94 3.39982 24.1267V24.8667C3.39982 25.0533 3.55315 25.2067 3.73982 25.2067H26.4998C26.6865 25.2067 26.8398 25.0533 26.8398 24.8667V24.1267C26.8398 23.94 26.6865 23.7867 26.4998 23.7867H3.73982Z" fill="#474747"/>
<path d="M18.1865 23.7867C17.9998 23.7867 17.8532 23.64 17.8532 23.4533V16.96C17.8532 15.9733 17.0398 15.1667 16.0398 15.1667H13.9532C12.9532 15.1667 12.1398 15.9733 12.1398 16.96V23.4533C12.1398 23.64 11.9932 23.7867 11.8065 23.7867C11.6198 23.7867 11.4732 23.64 11.4732 23.4533V16.96C11.4732 15.6 12.5865 14.5 13.9532 14.5H16.0398C17.4065 14.5 18.5198 15.6067 18.5198 16.96V23.4533C18.5198 23.64 18.3732 23.7867 18.1865 23.7867ZM26.2598 23.7867C26.0732 23.7867 25.9265 23.64 25.9265 23.4533V7.54C25.9265 7.35333 26.0732 7.20667 26.2598 7.20667C26.4465 7.20667 26.5932 7.35333 26.5932 7.54V23.4533C26.5932 23.64 26.4398 23.7867 26.2598 23.7867ZM3.73983 23.7867C3.55316 23.7867 3.40649 23.64 3.40649 23.4533V7.54C3.40649 7.35333 3.55316 7.20667 3.73983 7.20667C3.92649 7.20667 4.07316 7.35333 4.07316 7.54V23.4533C4.07316 23.64 3.92649 23.7867 3.73983 23.7867Z" fill="#474747"/>
<path d="M26.2599 7.87338H3.73992C1.85992 7.87338 0.333252 6.34671 0.333252 4.46671V3.54004C0.333252 1.66004 1.85992 0.126709 3.73992 0.126709H26.2533C28.1333 0.126709 29.6599 1.65338 29.6599 3.54004V4.46671C29.6666 6.34671 28.1399 7.87338 26.2599 7.87338ZM3.73992 0.793376C2.23325 0.793376 0.999919 2.02671 0.999919 3.53338V4.46671C0.999919 5.98004 2.23325 7.20671 3.73992 7.20671H26.2533C27.7666 7.20671 28.9933 5.97338 28.9933 4.46671V3.53338C28.9933 2.02004 27.7599 0.786709 26.2533 0.786709L3.73992 0.793376ZM24.1066 20.7867H20.4999C20.0066 20.7867 19.6066 20.3867 19.6066 19.8934V11.0934C19.6066 10.6 20.0066 10.2 20.4999 10.2H24.1066C24.5999 10.2 24.9999 10.6 24.9999 11.0934V19.8934C24.9999 20.3934 24.5999 20.7867 24.1066 20.7867ZM20.4999 10.8734C20.3799 10.8734 20.2733 10.9734 20.2733 11.1V19.9C20.2733 20.02 20.3733 20.1267 20.4999 20.1267H24.1066C24.2266 20.1267 24.3333 20.0267 24.3333 19.9V11.1C24.3333 10.98 24.2333 10.8734 24.1066 10.8734H20.4999Z" fill="#474747"/>
<path d="M22.3 20.7867C22.1133 20.7867 21.9667 20.6401 21.9667 20.4534V10.5401C21.9667 10.3534 22.1133 10.2067 22.3 10.2067C22.4867 10.2067 22.6333 10.3534 22.6333 10.5401V20.4534C22.6333 20.6401 22.4867 20.7867 22.3 20.7867ZM9.5 20.7867H5.89333C5.4 20.7867 5 20.3867 5 19.8934V11.0934C5 10.6001 5.4 10.2001 5.89333 10.2001H9.5C9.99333 10.2001 10.3933 10.6001 10.3933 11.0934V19.8934C10.3933 20.3934 9.99333 20.7867 9.5 20.7867ZM5.89333 10.8734C5.77333 10.8734 5.66667 10.9734 5.66667 11.1001V19.9001C5.66667 20.0201 5.76667 20.1267 5.89333 20.1267H9.5C9.62 20.1267 9.72667 20.0267 9.72667 19.9001V11.1001C9.72667 10.9801 9.62667 10.8734 9.5 10.8734H5.89333Z" fill="#474747"/>
<path d="M7.70003 20.7868C7.51337 20.7868 7.3667 20.6401 7.3667 20.4534V10.5401C7.3667 10.3534 7.51337 10.2068 7.70003 10.2068C7.8867 10.2068 8.03337 10.3534 8.03337 10.5401V20.4534C8.03337 20.6401 7.88003 20.7868 7.70003 20.7868ZM16.8334 5.98009C16.48 5.98009 16.18 5.91343 15.94 5.78676C15.68 5.64676 15.4934 5.44009 15.3867 5.17343C15.2867 4.94009 15.24 4.63343 15.24 4.24676V2.40676C15.24 2.22009 15.3867 2.07343 15.5734 2.07343C15.76 2.07343 15.9067 2.22009 15.9067 2.40676V4.24676C15.9067 4.54009 15.94 4.76676 16 4.91343C16.0534 5.04009 16.1334 5.12676 16.26 5.19343C16.4 5.26676 16.5934 5.30676 16.8334 5.30676C17.0734 5.30676 17.2667 5.26676 17.4 5.18009C17.5267 5.10009 17.6134 5.00676 17.66 4.88676C17.72 4.74009 17.7467 4.52009 17.7467 4.24676V2.40676C17.7467 2.22009 17.8934 2.07343 18.08 2.07343C18.2667 2.07343 18.4134 2.22009 18.4134 2.40676V4.24676C18.4134 4.61343 18.3734 4.90009 18.28 5.12676C18.18 5.38676 18.0067 5.59343 17.7534 5.74676C17.5134 5.90676 17.2 5.98009 16.8334 5.98009ZM14.2067 5.92676H12.2134C12.0267 5.92676 11.88 5.78009 11.88 5.59343V2.40676C11.88 2.22009 12.0267 2.07343 12.2134 2.07343C12.4 2.07343 12.5467 2.22009 12.5467 2.40676V5.26009H14.2067C14.3934 5.26009 14.54 5.40676 14.54 5.59343C14.54 5.78009 14.3934 5.92676 14.2067 5.92676ZM9.4067 5.98009C9.00003 5.98009 8.65337 5.89343 8.3867 5.72009C8.11337 5.54009 7.9067 5.28676 7.7667 4.96009C7.64003 4.65343 7.57337 4.32009 7.57337 3.97343C7.57337 3.58676 7.6467 3.24676 7.80003 2.95343C7.96003 2.64676 8.1867 2.40676 8.48003 2.24676C8.76003 2.09343 9.07337 2.01343 9.41337 2.01343C9.8067 2.01343 10.14 2.12009 10.42 2.32676C10.6934 2.53343 10.8867 2.82009 10.9934 3.18676C11.0467 3.36676 10.94 3.54676 10.7667 3.60009C10.5934 3.65343 10.4067 3.54676 10.3534 3.37343C10.2867 3.14676 10.18 2.98009 10.02 2.86009C9.86003 2.74009 9.66003 2.68009 9.41337 2.68009C9.1867 2.68009 8.9867 2.72676 8.80003 2.83343C8.6267 2.92676 8.49337 3.06676 8.39337 3.25343C8.29337 3.45343 8.24003 3.69343 8.24003 3.96676C8.24003 4.22676 8.2867 4.46676 8.38003 4.69343C8.4667 4.90009 8.5867 5.04676 8.7467 5.15343C8.9067 5.25343 9.1267 5.30676 9.40003 5.30676C9.66003 5.30676 9.8667 5.24009 10.0334 5.10676C10.2067 4.96676 10.3267 4.76676 10.3934 4.49343C10.44 4.31343 10.62 4.20676 10.8 4.25343C10.98 4.30009 11.0867 4.48009 11.04 4.66009C10.9334 5.07343 10.7334 5.40009 10.4467 5.63343C10.1667 5.86676 9.81337 5.98009 9.4067 5.98009ZM20.9 5.92676H19.6867C19.5 5.92676 19.3534 5.78009 19.3534 5.59343V2.40676C19.3534 2.22009 19.5 2.07343 19.6867 2.07343H20.88C21.1734 2.07343 21.4067 2.11343 21.6 2.20009C21.8134 2.29343 21.98 2.43343 22.1 2.62676C22.2134 2.81343 22.2734 3.01343 22.2734 3.22009C22.2734 3.42009 22.22 3.60676 22.1134 3.78009L22.0734 3.84009C22.12 3.88676 22.1667 3.93343 22.2067 3.98009C22.3534 4.17343 22.4334 4.40676 22.4334 4.66676C22.4334 4.86676 22.3934 5.05343 22.3067 5.22676C22.22 5.40009 22.1067 5.54009 21.9734 5.64009C21.8467 5.73343 21.6867 5.80676 21.5067 5.85343C21.3267 5.90676 21.1334 5.92676 20.9 5.92676ZM20.02 5.26009H20.9C21.0734 5.26009 21.22 5.24676 21.3334 5.22009C21.4334 5.19343 21.5067 5.16009 21.5667 5.12009C21.62 5.08009 21.66 5.02009 21.7 4.94009C21.74 4.85343 21.76 4.76676 21.76 4.67343C21.76 4.56009 21.7334 4.47343 21.6734 4.39343C21.6134 4.31343 21.5267 4.26009 21.4 4.22009C21.2667 4.18009 21.1734 4.06676 21.16 3.92676C21.1467 3.78676 21.22 3.66009 21.3467 3.60009C21.44 3.55343 21.5067 3.50009 21.5467 3.43343C21.5867 3.36676 21.6067 3.29343 21.6067 3.22009C21.6067 3.13343 21.58 3.06009 21.5334 2.97343C21.4867 2.89343 21.42 2.84009 21.34 2.80676C21.2667 2.77343 21.1334 2.74009 20.8867 2.74009H20.0267L20.02 5.26009Z" fill="#474747"/>
<path d="M16.8335 5.98009C16.4802 5.98009 16.1802 5.91343 15.9402 5.78676C15.6802 5.64676 15.4935 5.44009 15.3868 5.17343C15.2868 4.94009 15.2402 4.63343 15.2402 4.24676V2.40676C15.2402 2.22009 15.3868 2.07343 15.5735 2.07343C15.7602 2.07343 15.9068 2.22009 15.9068 2.40676V4.24676C15.9068 4.54009 15.9402 4.76676 16.0002 4.91343C16.0535 5.04009 16.1335 5.12676 16.2602 5.19343C16.4002 5.26676 16.5935 5.30676 16.8335 5.30676C17.0735 5.30676 17.2668 5.26676 17.4002 5.18009C17.5268 5.10009 17.6135 5.00676 17.6602 4.88676C17.7202 4.74009 17.7468 4.52009 17.7468 4.24676V2.40676C17.7468 2.22009 17.8935 2.07343 18.0802 2.07343C18.2668 2.07343 18.4135 2.22009 18.4135 2.40676V4.24676C18.4135 4.61343 18.3735 4.90009 18.2802 5.12676C18.1802 5.38676 18.0068 5.59343 17.7535 5.74676C17.5135 5.90676 17.2002 5.98009 16.8335 5.98009ZM14.2068 5.92676H12.2135C12.0268 5.92676 11.8802 5.78009 11.8802 5.59343V2.40676C11.8802 2.22009 12.0268 2.07343 12.2135 2.07343C12.4002 2.07343 12.5468 2.22009 12.5468 2.40676V5.26009H14.2068C14.3935 5.26009 14.5402 5.40676 14.5402 5.59343C14.5402 5.78009 14.3935 5.92676 14.2068 5.92676ZM9.40682 5.98009C9.00015 5.98009 8.65349 5.89343 8.38682 5.72009C8.11349 5.54009 7.90682 5.28676 7.76682 4.96009C7.64015 4.65343 7.57349 4.32009 7.57349 3.97343C7.57349 3.58676 7.64682 3.24676 7.80015 2.95343C7.96015 2.64676 8.18682 2.40676 8.48015 2.24676C8.76015 2.09343 9.07349 2.01343 9.41349 2.01343C9.80682 2.01343 10.1402 2.12009 10.4202 2.32676C10.6935 2.53343 10.8868 2.82009 10.9935 3.18676C11.0468 3.36676 10.9402 3.54676 10.7668 3.60009C10.5935 3.65343 10.4068 3.54676 10.3535 3.37343C10.2868 3.14676 10.1802 2.98009 10.0202 2.86009C9.86015 2.74009 9.66015 2.68009 9.41349 2.68009C9.18682 2.68009 8.98682 2.72676 8.80015 2.83343C8.62682 2.92676 8.49349 3.06676 8.39349 3.25343C8.29349 3.45343 8.24015 3.69343 8.24015 3.96676C8.24015 4.22676 8.28682 4.46676 8.38015 4.69343C8.46682 4.90009 8.58682 5.04676 8.74682 5.15343C8.90682 5.25343 9.12682 5.30676 9.40015 5.30676C9.66015 5.30676 9.86682 5.24009 10.0335 5.10676C10.2068 4.96676 10.3268 4.76676 10.3935 4.49343C10.4402 4.31343 10.6202 4.20676 10.8002 4.25343C10.9802 4.30009 11.0868 4.48009 11.0402 4.66009C10.9335 5.07343 10.7335 5.40009 10.4468 5.63343C10.1668 5.86676 9.81349 5.98009 9.40682 5.98009ZM20.9002 5.92676H19.6868C19.5002 5.92676 19.3535 5.78009 19.3535 5.59343V2.40676C19.3535 2.22009 19.5002 2.07343 19.6868 2.07343H20.8802C21.1735 2.07343 21.4068 2.11343 21.6002 2.20009C21.8135 2.29343 21.9802 2.43343 22.1002 2.62676C22.2135 2.81343 22.2735 3.01343 22.2735 3.22009C22.2735 3.42009 22.2202 3.60676 22.1135 3.78009L22.0735 3.84009C22.1202 3.88676 22.1668 3.93343 22.2068 3.98009C22.3535 4.17343 22.4335 4.40676 22.4335 4.66676C22.4335 4.86676 22.3935 5.05343 22.3068 5.22676C22.2202 5.40009 22.1068 5.54009 21.9735 5.64009C21.8468 5.73343 21.6868 5.80676 21.5068 5.85343C21.3268 5.90676 21.1335 5.92676 20.9002 5.92676ZM20.0202 5.26009H20.9002C21.0735 5.26009 21.2202 5.24676 21.3335 5.22009C21.4335 5.19343 21.5068 5.16009 21.5668 5.12009C21.6202 5.08009 21.6602 5.02009 21.7002 4.94009C21.7402 4.85343 21.7602 4.76676 21.7602 4.67343C21.7602 4.56009 21.7335 4.47343 21.6735 4.39343C21.6135 4.31343 21.5268 4.26009 21.4002 4.22009C21.2668 4.18009 21.1735 4.06676 21.1602 3.92676C21.1468 3.78676 21.2202 3.66009 21.3468 3.60009C21.4402 3.55343 21.5068 3.50009 21.5468 3.43343C21.5868 3.36676 21.6068 3.29343 21.6068 3.22009C21.6068 3.13343 21.5802 3.06009 21.5335 2.97343C21.4868 2.89343 21.4202 2.84009 21.3402 2.80676C21.2668 2.77343 21.1335 2.74009 20.8868 2.74009H20.0268L20.0202 5.26009Z" fill="#1769E9"/>
<path d="M21.4933 4.23332H19.6866C19.4999 4.23332 19.3533 4.08665 19.3533 3.89998C19.3533 3.71332 19.4999 3.56665 19.6866 3.56665H21.4933C21.6799 3.56665 21.8266 3.71332 21.8266 3.89998C21.8266 4.08665 21.6733 4.23332 21.4933 4.23332Z" fill="#1769E9"/>
</svg>
