<svg width="30" height="30" viewBox="0 0 30 30" fill="none" xmlns="http://www.w3.org/2000/svg">
<g clip-path="url(#clip0_1050_18)">
<rect x="1" y="4" width="18" height="16" fill="#F0F6FF"/>
<path d="M22 21.5C21.6022 21.5 21.2206 21.658 20.9393 21.9393C20.658 22.2206 20.5 22.6022 20.5 23C20.5 23.3978 20.658 23.7794 20.9393 24.0607C21.2206 24.342 21.6022 24.5 22 24.5C22.3978 24.5 22.7794 24.342 23.0607 24.0607C23.342 23.7794 23.5 23.3978 23.5 23C23.5 22.6022 23.342 22.2206 23.0607 21.9393C22.7794 21.658 22.3978 21.5 22 21.5ZM22 23.5C21.8674 23.5 21.7402 23.4473 21.6464 23.3536C21.5527 23.2598 21.5 23.1326 21.5 23C21.5 22.8674 21.5527 22.7402 21.6464 22.6464C21.7402 22.5527 21.8674 22.5 22 22.5C22.1326 22.5 22.2598 22.5527 22.3536 22.6464C22.4473 22.7402 22.5 22.8674 22.5 23C22.5 23.1326 22.4473 23.2598 22.3536 23.3536C22.2598 23.4473 22.1326 23.5 22 23.5ZM5.5 21.5C5.10218 21.5 4.72064 21.658 4.43934 21.9393C4.15804 22.2206 4 22.6022 4 23C4 23.3978 4.15804 23.7794 4.43934 24.0607C4.72064 24.342 5.10218 24.5 5.5 24.5C5.89783 24.5 6.27936 24.342 6.56066 24.0607C6.84197 23.7794 7 23.3978 7 23C7 22.6022 6.84197 22.2206 6.56066 21.9393C6.27936 21.658 5.89783 21.5 5.5 21.5ZM5.5 23.5C5.36739 23.5 5.24022 23.4473 5.14645 23.3536C5.05268 23.2598 5 23.1326 5 23C5 22.8674 5.05268 22.7402 5.14645 22.6464C5.24022 22.5527 5.36739 22.5 5.5 22.5C5.63261 22.5 5.75979 22.5527 5.85355 22.6464C5.94732 22.7402 6 22.8674 6 23C6 23.1326 5.94732 23.2598 5.85355 23.3536C5.75979 23.4473 5.63261 23.5 5.5 23.5Z" fill="#1769E9"/>
<path d="M26.7175 7.9285C26.6048 7.65332 26.4125 7.418 26.1654 7.25261C25.9182 7.08722 25.6274 6.99927 25.33 7H19.5V5C19.5 4.60218 19.342 4.22064 19.0607 3.93934C18.7794 3.65804 18.3978 3.5 18 3.5H1.5C1.10218 3.5 0.720644 3.65804 0.43934 3.93934C0.158035 4.22064 0 4.60218 0 5L0 19C0.00074894 19.2185 0.0495069 19.4341 0.142822 19.6316C0.236138 19.8291 0.37173 20.0037 0.54 20.143C0.274888 20.4274 0.0986101 20.783 0.0328174 21.1662C-0.0329753 21.5494 0.0145817 21.9435 0.169647 22.3001C0.324713 22.6566 0.580536 22.9601 0.905696 23.1733C1.23086 23.3864 1.61119 23.5 2 23.5H2.04C2.15955 24.3324 2.5752 25.0939 3.21072 25.6446C3.84624 26.1954 4.65903 26.4986 5.5 26.4986C6.34097 26.4986 7.15376 26.1954 7.78928 25.6446C8.4248 25.0939 8.84045 24.3324 8.96 23.5H18.54C18.6596 24.3324 19.0752 25.0939 19.7107 25.6446C20.3462 26.1954 21.159 26.4986 22 26.4986C22.841 26.4986 23.6538 26.1954 24.2893 25.6446C24.9248 25.0939 25.3404 24.3324 25.46 23.5H28.5C28.8978 23.5 29.2794 23.342 29.5607 23.0607C29.842 22.7794 30 22.3978 30 22V16.5935C30 16.136 29.911 15.6835 29.7365 15.2605L26.7175 7.9285ZM25.7925 8.3095L28.8115 15.642C28.8566 15.7585 28.8928 15.8781 28.92 16H23C22.8674 16 22.7402 15.9473 22.6464 15.8536C22.5527 15.7598 22.5 15.6326 22.5 15.5V8H25.33C25.4291 7.99996 25.5259 8.02936 25.6083 8.08446C25.6906 8.13956 25.7547 8.21789 25.7925 8.3095ZM7.945 20.5H19.555C19.0058 21.0368 18.6491 21.7398 18.54 22.5H8.96C8.85093 21.7398 8.49417 21.0368 7.945 20.5ZM1 5C1 4.86739 1.05268 4.74021 1.14645 4.64645C1.24021 4.55268 1.36739 4.5 1.5 4.5H18C18.1326 4.5 18.2598 4.55268 18.3536 4.64645C18.4473 4.74021 18.5 4.86739 18.5 5V19.5H1.5C1.36739 19.5 1.24021 19.4473 1.14645 19.3536C1.05268 19.2598 1 19.1326 1 19V5ZM1.2935 22.2065C1.15389 22.0667 1.05885 21.8886 1.02036 21.6948C0.981876 21.5009 1.00168 21.3001 1.07726 21.1175C1.15285 20.9349 1.28084 20.7788 1.44506 20.6689C1.60929 20.559 1.80239 20.5002 2 20.5H3.055C2.50583 21.0368 2.14907 21.7398 2.04 22.5H2C1.735 22.5005 1.48 22.395 1.2935 22.2065ZM5.5 25.5C4.83696 25.5 4.20107 25.2366 3.73223 24.7678C3.26339 24.2989 3 23.663 3 23C3 22.337 3.26339 21.7011 3.73223 21.2322C4.20107 20.7634 4.83696 20.5 5.5 20.5C6.16304 20.5 6.79893 20.7634 7.26777 21.2322C7.73661 21.7011 8 22.337 8 23C8 23.663 7.73661 24.2989 7.26777 24.7678C6.79893 25.2366 6.16304 25.5 5.5 25.5ZM22 25.5C21.337 25.5 20.7011 25.2366 20.2322 24.7678C19.7634 24.2989 19.5 23.663 19.5 23C19.5 22.337 19.7634 21.7011 20.2322 21.2322C20.7011 20.7634 21.337 20.5 22 20.5C22.663 20.5 23.2989 20.7634 23.7678 21.2322C24.2366 21.7011 24.5 22.337 24.5 23C24.5 23.663 24.2366 24.2989 23.7678 24.7678C23.2989 25.2366 22.663 25.5 22 25.5ZM28.5 22.5H25.46C25.3399 21.6677 24.9241 20.9065 24.2887 20.3556C23.6534 19.8047 22.8409 19.501 22 19.5H19.5V8H21.5V15.5C21.5 15.8978 21.658 16.2794 21.9393 16.5607C22.2206 16.842 22.6022 17 23 17H29V18H28.5C28.3674 18 28.2402 18.0527 28.1464 18.1464C28.0527 18.2402 28 18.3674 28 18.5C28 18.6326 28.0527 18.7598 28.1464 18.8536C28.2402 18.9473 28.3674 19 28.5 19H29V20H28.5C28.3674 20 28.2402 20.0527 28.1464 20.1464C28.0527 20.2402 28 20.3674 28 20.5C28 20.6326 28.0527 20.7598 28.1464 20.8536C28.2402 20.9473 28.3674 21 28.5 21H29V22C29 22.1326 28.9473 22.2598 28.8536 22.3536C28.7598 22.4473 28.6326 22.5 28.5 22.5Z" fill="#474747"/>
<path d="M2.5 6.5H4C4.13261 6.5 4.25979 6.44732 4.35355 6.35355C4.44732 6.25979 4.5 6.13261 4.5 6C4.5 5.86739 4.44732 5.74021 4.35355 5.64645C4.25979 5.55268 4.13261 5.5 4 5.5H2.5C2.36739 5.5 2.24021 5.55268 2.14645 5.64645C2.05268 5.74021 2 5.86739 2 6C2 6.13261 2.05268 6.25979 2.14645 6.35355C2.24021 6.44732 2.36739 6.5 2.5 6.5ZM6 6.5H17C17.1326 6.5 17.2598 6.44732 17.3536 6.35355C17.4473 6.25979 17.5 6.13261 17.5 6C17.5 5.86739 17.4473 5.74021 17.3536 5.64645C17.2598 5.55268 17.1326 5.5 17 5.5H6C5.86739 5.5 5.74022 5.55268 5.64645 5.64645C5.55268 5.74021 5.5 5.86739 5.5 6C5.5 6.13261 5.55268 6.25979 5.64645 6.35355C5.74022 6.44732 5.86739 6.5 6 6.5Z" fill="#1769E9"/>
</g>
<defs>
<clipPath id="clip0_1050_18">
<rect width="30" height="30" fill="white"/>
</clipPath>
</defs>
</svg>
