<svg width="30" height="30" viewBox="0 0 30 30" fill="none" xmlns="http://www.w3.org/2000/svg">
<g clip-path="url(#clip0_963_1045)">
<path d="M26.5 9.5L1 10H0.5V16V21.5L2.5 22H25.5L26.5 21V9.5Z" fill="#F0F6FF"/>
<path d="M15.9951 19.7486H23.9926C24.2925 19.7486 24.4924 19.5487 24.4924 19.2488V14.7502C24.4924 14.4503 24.2925 14.2504 23.9926 14.2504H15.9951C15.6952 14.2504 15.4953 14.4503 15.4953 14.7502V19.2488C15.4952 19.5487 15.6952 19.7486 15.9951 19.7486ZM16.4949 15.25H23.4928V18.7489H16.4949V15.25ZM2.49934 13.2506H6.49811C6.79801 13.2506 6.99793 13.0507 6.99793 12.7508C6.99793 12.4509 6.79801 12.251 6.49811 12.251H2.49934C2.19943 12.251 1.99951 12.4509 1.99951 12.7508C1.99951 13.0507 2.19943 13.2506 2.49934 13.2506ZM8.49746 13.2506H12.4962C12.7961 13.2506 12.9961 13.0507 12.9961 12.7508C12.9961 12.4509 12.7961 12.251 12.4962 12.251H8.49746C8.19756 12.251 7.99764 12.4509 7.99764 12.7508C7.99764 13.0507 8.19756 13.2506 8.49746 13.2506ZM2.49934 15.25H8.99729C9.29719 15.25 9.49711 15.0501 9.49711 14.7502C9.49711 14.4503 9.29719 14.2504 8.99729 14.2504H2.49934C2.19943 14.2504 1.99951 14.4503 1.99951 14.7502C1.99951 15.0501 2.19943 15.25 2.49934 15.25ZM12.4962 14.2503H10.9966C10.6967 14.2503 10.4968 14.4503 10.4968 14.7502C10.4968 15.0501 10.6967 15.25 10.9966 15.25H12.4962C12.7961 15.25 12.996 15.0501 12.996 14.7502C12.996 14.4503 12.7961 14.2503 12.4962 14.2503Z" fill="#1769E9"/>
<path d="M29.5408 8.05223C29.1909 7.60237 28.741 7.35243 28.1912 7.30247L26.9916 7.15708V4.75326C26.9916 3.65363 26.0918 2.75391 24.9922 2.75391H1.99936C0.899719 2.75385 0 3.65357 0 4.75326V20.7483C0 21.6511 0.606666 22.4187 1.43235 22.6648C1.40716 23.6759 2.17221 24.5537 3.19904 24.6471L26.2918 27.2462H26.4917C27.4914 27.2462 28.3912 26.4965 28.4911 25.5468L29.9906 9.5018C30.0406 9.00191 29.8906 8.45207 29.5408 8.05223ZM0.999707 6.25279H25.9919V9.25186H0.999707V6.25279ZM1.99936 3.75355H24.9921C25.542 3.75355 25.9919 4.20341 25.9919 4.75326V5.25309H0.999707V4.75326C0.999707 4.20341 1.44957 3.75355 1.99936 3.75355ZM0.999707 20.7482V10.2515H25.9919V20.7482C25.9919 21.2981 25.5421 21.7479 24.9922 21.7479H1.99941C1.44957 21.7479 0.999707 21.2981 0.999707 20.7482ZM28.9909 9.30182L27.4914 25.3468C27.4414 25.8967 26.9415 26.2965 26.3918 26.2465L3.34893 23.6474C2.84911 23.5974 2.49918 23.1975 2.44921 22.7476H24.9921C26.0918 22.7476 26.9915 21.8479 26.9915 20.7483V8.1022L28.1412 8.20218C28.3911 8.20218 28.641 8.35214 28.7909 8.55206C28.941 8.75197 29.0409 9.05188 28.9909 9.30182Z" fill="black"/>
</g>
<defs>
<clipPath id="clip0_963_1045">
<rect width="30" height="30" fill="white"/>
</clipPath>
</defs>
</svg>
