<svg width="30" height="30" viewBox="0 0 30 30" fill="none" xmlns="http://www.w3.org/2000/svg">
<g clip-path="url(#clip0_963_1034)">
<rect x="6" y="9" width="18" height="15" fill="#F0F6FF"/>
<path d="M22.4522 28.6519V27.1693C23.9736 26.8079 25.1091 25.4386 25.1091 23.8082V11.1092C25.1091 8.20066 23.1882 5.73234 20.5486 4.90605V1.69904C20.5486 0.762063 19.7863 -0.000183105 18.8494 -0.000183105H11.1509C10.2139 -0.000183105 9.45164 0.762063 9.45164 1.69904V4.90605C6.81193 5.7324 4.89111 8.20066 4.89111 11.1092V23.8082C4.89111 25.4386 6.02654 26.8079 7.54799 27.1692V28.6519C7.54805 29.395 8.15262 29.9995 8.89564 29.9995H21.1045C22.4727 29.9116 22.4522 28.6519 22.4522 28.6519ZM10.6235 1.69904C10.6235 1.40829 10.8601 1.17169 11.1509 1.17169H18.8493C19.1401 1.17169 19.3767 1.40829 19.3767 1.69904V4.65632C19.1225 4.62621 18.8668 4.61107 18.6108 4.61097H18.317V2.78777C18.317 2.43239 18.0278 2.14323 17.6725 2.14323H12.3277C11.9723 2.14323 11.6832 2.43239 11.6832 2.78777V4.61097H11.3893C11.1302 4.61097 10.8748 4.62667 10.6235 4.65632V1.69904ZM17.1451 4.61097H12.855V3.31511H17.1451V4.61097ZM11.3893 5.78285H18.6108C20.622 5.78285 22.3761 6.90339 23.2823 8.55286H10.8383C10.5147 8.55286 10.2524 8.81519 10.2524 9.1388C10.2524 9.46241 10.5147 9.72474 10.8383 9.72474H23.7543C23.8758 10.1762 23.9373 10.6417 23.9371 11.1093V23.0255H6.06299V11.1092C6.06299 10.6304 6.12686 10.1664 6.24586 9.72468H8.40668C8.73029 9.72468 8.99262 9.46236 8.99262 9.13874C8.99262 8.81513 8.73029 8.5528 8.40668 8.5528H6.71777C7.62398 6.90339 9.37816 5.78285 11.3893 5.78285ZM21.1045 28.8277H8.8957C8.80043 28.8277 8.71992 28.7471 8.71992 28.6519L8.71986 27.2634H17.238C17.5616 27.2634 17.8239 27.001 17.8239 26.6774C17.8239 26.3538 17.5616 26.0915 17.238 26.0915H8.34627C7.21998 26.0915 6.28219 25.2715 6.09686 24.1974H23.9033C23.7179 25.2716 22.7801 26.0915 21.6539 26.0915H19.6696C19.346 26.0915 19.0836 26.3538 19.0836 26.6774C19.0836 27.001 19.346 27.2634 19.6696 27.2634H21.2803V28.6519C21.2803 28.6519 21.2801 28.8112 21.1045 28.8277ZM16.0339 22.3866C16.3412 22.3402 18.8998 21.8728 19.9096 19.091C19.9768 18.9087 21.0115 15.9253 18.0659 12.7718C17.8799 12.5727 17.5806 12.5259 17.3446 12.6618C17.1085 12.7978 16.9966 13.0763 17.0756 13.337C17.0955 13.4068 17.1995 13.8153 17.049 14.2426C16.7919 13.2033 16.1955 11.6843 14.8133 10.3433C14.7248 10.2574 14.6115 10.2016 14.4895 10.1839C14.3675 10.1661 14.243 10.1873 14.1338 10.2445C14.0245 10.3016 13.9361 10.3917 13.881 10.502C13.8259 10.6123 13.8071 10.7372 13.8271 10.8588C13.8293 10.8725 14.0415 12.232 13.2764 13.5155C13.2033 13.6229 12.8245 14.1897 12.4811 14.8963C12.3636 14.6428 12.2701 14.3218 12.2621 13.9353C12.2596 13.8125 12.2185 13.6936 12.1447 13.5954C12.0709 13.4972 11.9681 13.4247 11.8509 13.3881C11.7336 13.3515 11.6078 13.3527 11.4913 13.3915C11.3747 13.4303 11.2733 13.5048 11.2014 13.6043C11.1711 13.6462 10.4569 14.6449 10.0848 16.0429C9.57609 17.9542 9.94647 19.6901 11.1558 21.063C11.1558 21.063 12.9075 23.0501 16.0339 22.3866ZM14.5212 21.3356C13.8833 20.6746 13.568 19.9584 13.5855 19.2053C13.6012 18.5335 13.8715 17.9127 14.1725 17.4254C14.3355 17.9676 14.663 18.4747 15.3081 18.606C15.3969 18.6241 15.4885 18.6213 15.576 18.5981C15.6305 18.5835 15.9429 18.4903 16.2545 18.1915C16.4712 18.6026 16.6736 19.1536 16.6226 19.7215C16.5707 20.2998 16.2701 20.8023 15.7052 21.2569C15.0847 21.3838 14.5212 21.3356 14.5212 21.3356ZM17.7023 20.3311C17.9436 19.5786 17.7022 18.7186 17.7022 18.7186C17.3964 17.5452 16.6778 16.7256 16.6778 16.7256C16.6091 16.6478 16.5209 16.5897 16.4223 16.5572C16.3237 16.5247 16.2182 16.5189 16.1167 16.5406C16.0151 16.5622 15.9212 16.6104 15.8444 16.6803C15.7676 16.7502 15.7108 16.8393 15.6797 16.9383C15.6113 17.1565 15.5078 17.289 15.4199 17.3673C15.2463 17.1341 15.1579 16.5073 15.2002 15.9968C15.2104 15.8796 15.185 15.762 15.1273 15.6594C15.0697 15.5568 14.9825 15.4739 14.8771 15.4216C14.7717 15.3692 14.653 15.3498 14.5364 15.3659C14.4199 15.382 14.3108 15.4328 14.2235 15.5117C14.1518 15.5766 12.4668 17.1228 12.4142 19.1692C12.3995 19.7432 12.5132 20.2946 12.7516 20.8199C11.2794 20.0044 11.0938 18.3493 11.0938 18.3493C10.8497 17.07 11.4911 15.5361 11.4911 15.5361C11.8246 16.1718 12.2491 16.5054 12.2779 16.5275C12.3524 16.5849 12.4396 16.6235 12.5322 16.64C12.6247 16.6565 12.7199 16.6505 12.8097 16.6225C12.8995 16.5945 12.9812 16.5452 13.0479 16.479C13.1146 16.4127 13.1644 16.3314 13.1931 16.2418C13.5131 15.2432 14.2448 14.1755 14.252 14.1651C14.259 14.155 14.2656 14.1447 14.272 14.1342C14.6475 13.5104 14.8426 12.8743 14.9394 12.3201C16.0079 13.9342 16.0713 15.5037 16.0719 15.5215C16.0744 15.6216 16.1025 15.7194 16.1535 15.8055C16.2045 15.8917 16.2767 15.9633 16.3632 16.0136C16.4498 16.0639 16.5478 16.0912 16.6479 16.0929C16.748 16.0945 16.8468 16.0705 16.935 16.0232C17.5611 15.6867 17.9213 15.2197 18.1127 14.7399C19.3776 16.7746 18.8908 18.4435 18.8184 18.6618C18.8183 18.6616 18.4513 19.7153 17.7023 20.3311Z" fill="#474747"/>
<path d="M16.0339 22.3866C16.3412 22.3402 18.8998 21.8728 19.9096 19.091C19.9768 18.9087 21.0115 15.9253 18.0659 12.7718C17.8799 12.5727 17.5806 12.5259 17.3446 12.6618C17.1085 12.7978 16.9966 13.0763 17.0756 13.3371C17.0955 13.4068 17.1995 13.8154 17.049 14.2426C16.7919 13.2033 16.1955 11.6844 14.8133 10.3433C14.7249 10.2574 14.6115 10.2016 14.4895 10.1839C14.3675 10.1662 14.243 10.1874 14.1338 10.2445C14.0245 10.3016 13.9361 10.3917 13.881 10.502C13.8259 10.6123 13.8071 10.7372 13.8271 10.8588C13.8293 10.8725 14.0415 12.232 13.2764 13.5155C13.2033 13.6229 12.8245 14.1897 12.4811 14.8964C12.3636 14.6428 12.2701 14.3218 12.2621 13.9354C12.2596 13.8125 12.2185 13.6936 12.1447 13.5954C12.0709 13.4972 11.9681 13.4247 11.8509 13.3881C11.7336 13.3515 11.6078 13.3527 11.4913 13.3915C11.3747 13.4303 11.2733 13.5048 11.2014 13.6044C11.1711 13.6462 10.4569 14.6449 10.0848 16.0429C9.5761 17.9542 9.94647 19.6901 11.1558 21.0631C11.1558 21.0631 12.9075 23.0501 16.0339 22.3866ZM14.5212 21.3356C13.8833 20.6746 13.568 19.9584 13.5855 19.2053C13.6012 18.5336 13.8715 17.9128 14.1725 17.4254C14.3355 17.9676 14.663 18.4747 15.3081 18.606C15.3969 18.6241 15.4885 18.6213 15.576 18.5981C15.6305 18.5835 15.9429 18.4903 16.2545 18.1915C16.4712 18.6026 16.6736 19.1537 16.6226 19.7215C16.5707 20.2998 16.2701 20.8023 15.7052 21.2569C15.0847 21.3839 14.5212 21.3356 14.5212 21.3356ZM17.7023 20.3311C17.9436 19.5786 17.7022 18.7187 17.7022 18.7187C17.3964 17.5452 16.6778 16.7257 16.6778 16.7257C16.6091 16.6479 16.5209 16.5897 16.4223 16.5572C16.3237 16.5247 16.2182 16.5189 16.1167 16.5406C16.0151 16.5622 15.9212 16.6105 15.8444 16.6803C15.7676 16.7502 15.7108 16.8393 15.6797 16.9383C15.6113 17.1565 15.5078 17.289 15.4199 17.3673C15.2463 17.1341 15.1579 16.5073 15.2002 15.9969C15.2104 15.8796 15.185 15.762 15.1273 15.6594C15.0697 15.5568 14.9825 15.4739 14.8771 15.4216C14.7717 15.3692 14.653 15.3498 14.5364 15.3659C14.4199 15.382 14.3108 15.4328 14.2235 15.5117C14.1518 15.5766 12.4668 17.1228 12.4142 19.1692C12.3995 19.7432 12.5132 20.2946 12.7516 20.8199C11.2794 20.0044 11.0938 18.3493 11.0938 18.3493C10.8497 17.07 11.4911 15.5361 11.4911 15.5361C11.8246 16.1718 12.2491 16.5054 12.2779 16.5275C12.3524 16.5849 12.4396 16.6235 12.5322 16.64C12.6248 16.6565 12.7199 16.6505 12.8097 16.6225C12.8995 16.5945 12.9812 16.5453 13.0479 16.479C13.1146 16.4127 13.1644 16.3314 13.1931 16.2418C13.5131 15.2432 14.2448 14.1755 14.2521 14.1651C14.259 14.155 14.2656 14.1447 14.272 14.1342C14.6475 13.5104 14.8426 12.8743 14.9394 12.3201C16.0079 13.9342 16.0713 15.5037 16.0719 15.5215C16.0744 15.6216 16.1025 15.7194 16.1535 15.8055C16.2045 15.8917 16.2767 15.9633 16.3632 16.0136C16.4498 16.0639 16.5478 16.0912 16.6479 16.0929C16.748 16.0945 16.8468 16.0705 16.935 16.0232C17.5611 15.6867 17.9213 15.2197 18.1127 14.7399C19.3776 16.7746 18.8908 18.4436 18.8184 18.6618C18.8184 18.6618 18.4513 19.7153 17.7023 20.3311Z" fill="#1769E9"/>
</g>
<defs>
<clipPath id="clip0_963_1034">
<rect width="30" height="30" fill="white" transform="translate(0 -0.000488281)"/>
</clipPath>
</defs>
</svg>
