<svg width="30" height="30" viewBox="0 0 30 30" fill="none" xmlns="http://www.w3.org/2000/svg">
<path d="M20.8601 11.0282C20.6548 10.7828 20.29 10.7473 20.0409 10.95C19.7904 11.1539 19.7523 11.5224 19.9557 11.7734C20.0105 11.8418 20.0801 11.8969 20.1591 11.9348C20.2382 11.9726 20.3248 11.9922 20.4124 11.992C20.553 11.992 20.6941 11.9417 20.8064 11.8396C21.0405 11.6268 21.0626 11.2679 20.8601 11.0282Z" fill="#1769E9"/>
<path d="M15 25.5L6 26L4 27L3.5 28.5L4.5 29L10.5 29.5H18L18.5 28.5L17.5 26.5L15 25.5Z" fill="#F0F6FF"/>
<path d="M8.5 8.5L7 5L5.5 8L6 13L8 17.5L12.5 21L18 22L21 20.5V20L16.5 18L13.5 15L10.5 11.5L8.5 8.5Z" fill="#F0F6FF"/>
<path d="M16.2326 22.6444C16.4642 22.659 16.694 22.6662 16.9223 22.6662C19.5422 22.6661 21.9268 21.713 23.6955 19.9444C24.1608 19.479 24.6163 18.5544 24.1436 16.7928C23.8183 15.5811 23.1 14.1447 22.0663 12.6388C21.8832 12.372 21.5185 12.3042 21.2517 12.4874C20.9849 12.6705 20.9171 13.0353 21.1002 13.3021C22.0596 14.6997 22.7205 16.0117 23.0116 17.0964C23.2673 18.0495 23.2158 18.7666 22.8666 19.1158C22.3392 19.6432 21.0261 19.486 19.3545 18.6952C18.1045 18.104 16.7486 17.2126 15.3992 16.1043C16.1942 15.1322 16.2535 13.7558 15.5775 12.7233L18.6269 9.67385C18.8922 9.80823 19.1854 9.87823 19.4827 9.87817C19.9666 9.87817 20.4506 9.69395 20.8189 9.32563C21.5556 8.58881 21.5556 7.39004 20.8189 6.65328C20.0822 5.91658 18.8833 5.91652 18.1465 6.65328C17.5544 7.24543 17.4386 8.13588 17.7983 8.84522L14.7491 11.8944C14.2868 11.5906 13.7461 11.4271 13.18 11.4271C12.5132 11.4271 11.8813 11.6536 11.3718 12.0696C10.2785 10.7332 9.39843 9.39166 8.8129 8.15369C8.02224 6.4819 7.86497 5.16898 8.39237 4.64158C9.18122 3.85262 11.9509 4.54707 15.5297 7.38799C15.7832 7.58914 16.1518 7.54684 16.353 7.29336C16.5542 7.03988 16.5118 6.67133 16.2584 6.47012C14.5014 5.07535 12.7863 4.06396 11.2987 3.54529C9.17442 2.80455 8.09548 3.28162 7.56427 3.81248L7.5638 3.81289C5.6411 5.73564 4.68216 8.38596 4.8638 11.2756C5.04362 14.1376 6.32384 16.8949 8.46854 19.0396C8.84534 19.4164 9.24493 19.7696 9.66503 20.0973C9.66351 20.1018 9.66157 20.106 9.66017 20.1105L8.02898 25.308H6.63403C4.36997 25.308 2.52808 27.15 2.52808 29.414C2.52808 29.7375 2.79046 29.9999 3.11401 29.9999H19.1579C19.4814 29.9999 19.7438 29.7375 19.7438 29.414C19.7438 27.1499 17.9018 25.308 15.6379 25.308H13.7168V22.1963C14.5372 22.4389 15.3802 22.5908 16.2326 22.6444ZM18.9752 7.4818C19.0418 7.41509 19.1209 7.3622 19.208 7.32617C19.2951 7.29014 19.3884 7.27168 19.4827 7.27186C19.6665 7.27186 19.8503 7.34182 19.9902 7.48174C20.2701 7.76158 20.2701 8.21697 19.9902 8.49682C19.7105 8.77666 19.255 8.77666 18.9752 8.49682C18.6953 8.21703 18.6953 7.76164 18.9752 7.4818ZM13.18 12.5989C13.632 12.5989 14.057 12.7748 14.3767 13.0943L14.3772 13.0948L14.3778 13.0954C14.9899 13.7081 15.0334 14.6767 14.5091 15.3405C14.0976 14.9722 13.6964 14.5926 13.306 14.2021C12.9035 13.7997 12.5126 13.3858 12.1338 12.9611C12.431 12.7265 12.7956 12.5989 13.18 12.5989ZM10.6699 20.8065C11.2656 21.185 11.8929 21.5114 12.5449 21.7818V25.308H9.2571L10.6699 20.8065ZM15.6378 26.4799C17.055 26.4799 18.2409 27.4899 18.513 28.828H3.7586C4.03083 27.4899 5.21665 26.4799 6.63392 26.4799H15.6378ZM9.29712 18.211C7.35433 16.2682 6.19517 13.779 6.03321 11.2021C5.92581 9.49215 6.26806 7.88123 7.01214 6.49813C7.1353 7.14611 7.38216 7.86951 7.75353 8.65467C8.70966 10.6762 10.3873 12.9406 12.4774 15.0307C14.5676 17.1209 16.8319 18.7985 18.8535 19.7546C19.6371 20.1253 20.3592 20.3718 21.0063 20.4953C17.4767 22.3846 12.6478 21.5617 9.29712 18.211ZM19.4916 3.12793C19.1681 3.12793 18.9057 3.39025 18.9057 3.71387C18.9057 4.03748 19.1681 4.29981 19.4916 4.29981C21.5211 4.29981 23.1722 5.95092 23.1722 7.98043C23.1722 8.30404 23.4346 8.56637 23.7582 8.56637C24.0817 8.56637 24.3441 8.30404 24.3441 7.98043C24.3442 5.30475 22.1673 3.12793 19.4916 3.12793Z" fill="#474747"/>
<path d="M19.4917 3.12793C19.1681 3.12793 18.9058 3.39025 18.9058 3.71387C18.9058 4.03748 19.1681 4.29981 19.4917 4.29981C21.5212 4.29981 23.1723 5.95092 23.1723 7.98043C23.1723 8.30404 23.4347 8.56637 23.7583 8.56637C24.0818 8.56637 24.3442 8.30404 24.3442 7.98043C24.3443 5.30475 22.1674 3.12793 19.4917 3.12793Z" fill="#1769E9"/>
<path d="M19.4917 0C19.1681 0 18.9058 0.262324 18.9058 0.585938C18.9058 0.909551 19.1681 1.17188 19.4917 1.17188C23.246 1.17188 26.3004 4.22619 26.3004 7.98053C26.3004 8.30414 26.5627 8.56647 26.8863 8.56647C27.2098 8.56647 27.4722 8.30414 27.4722 7.98053C27.4722 3.58008 23.8922 0 19.4917 0Z" fill="#1769E9"/>
</svg>
