<svg width="30" height="28" viewBox="0 0 30 28" fill="none" xmlns="http://www.w3.org/2000/svg">
<path d="M14.7713 12.7075C14.9184 12.7647 15.0816 12.7647 15.2288 12.7075L23.75 9.37251V11.0625C23.75 11.2283 23.8159 11.3872 23.9331 11.5045C24.0503 11.6217 24.2093 11.6875 24.375 11.6875C24.5408 11.6875 24.6997 11.6217 24.817 11.5045C24.9342 11.3872 25 11.2283 25 11.0625V8.88376L29.6038 7.08251C29.7211 7.03686 29.822 6.95682 29.8931 6.85288C29.9642 6.74894 30.0022 6.62594 30.0022 6.50001C30.0022 6.37407 29.9642 6.25108 29.8931 6.14713C29.822 6.04319 29.7211 5.96315 29.6038 5.91751L15.2275 0.292509C15.0805 0.234935 14.9171 0.234935 14.77 0.292509L0.396266 5.91751C0.278895 5.96315 0.178051 6.04319 0.106949 6.14713C0.0358466 6.25108 -0.00219727 6.37407 -0.00219727 6.50001C-0.00219727 6.62594 0.0358466 6.74894 0.106949 6.85288C0.178051 6.95682 0.278895 7.03686 0.396266 7.08251L1.87502 7.66126V15.7625L0.0400163 20.655C-0.00974677 20.7871 -0.0133612 20.9321 0.0297611 21.0664C0.0728835 21.2008 0.160205 21.3166 0.277516 21.395L2.15252 22.645C2.25522 22.7135 2.37592 22.7501 2.49939 22.7501C2.62286 22.7501 2.74356 22.7135 2.84627 22.645L4.72127 21.395C4.83858 21.3166 4.9259 21.2008 4.96902 21.0664C5.01214 20.9321 5.00853 20.7871 4.95877 20.655L3.12502 15.7625V8.15001L5.00002 8.88376V15.25C5.00012 15.3811 5.04145 15.5089 5.11817 15.6152C5.19489 15.7216 5.30311 15.8011 5.42752 15.8425L13.2475 18.45C13.3254 18.4759 13.4076 18.4863 13.4895 18.4804C13.5714 18.4746 13.6514 18.4527 13.7248 18.4159C13.7982 18.3792 13.8636 18.3284 13.9174 18.2663C13.9712 18.2043 14.0122 18.1323 14.0381 18.0544C14.0641 17.9765 14.0744 17.8943 14.0686 17.8124C14.0627 17.7305 14.0408 17.6506 14.0041 17.5771C13.9673 17.5037 13.9165 17.4383 13.8545 17.3845C13.7924 17.3307 13.7204 17.2897 13.6425 17.2638L6.25002 14.8V9.37251L14.7713 12.7075ZM2.50002 21.3738L1.38377 20.63L2.50002 17.655L3.61627 20.63L2.50002 21.3738ZM14.9988 1.54626L27.66 6.50001L15 11.4538L5.87002 7.88126L5.86627 7.88001L5.19252 7.61626L13.9775 7.17751C14.0868 7.35053 14.2376 7.49353 14.4161 7.5935C14.5947 7.69348 14.7954 7.74728 15 7.75001C15.2228 7.75322 15.4423 7.69684 15.636 7.58671C15.8296 7.47658 15.9903 7.3167 16.1014 7.12362C16.2126 6.93053 16.2701 6.71126 16.268 6.4885C16.2659 6.26573 16.2043 6.04757 16.0896 5.85659C15.9749 5.66561 15.8113 5.50875 15.6156 5.40224C15.42 5.29574 15.1994 5.24346 14.9767 5.25082C14.7541 5.25818 14.5374 5.32491 14.3492 5.4441C14.161 5.5633 14.0081 5.73062 13.9063 5.92876L2.46877 6.50126C2.44254 6.50576 2.41665 6.51202 2.39127 6.52001L2.34127 6.50001L14.9988 1.54626Z" fill="#474747"/>
<path d="M22.5 12.7498C21.0166 12.7498 19.5666 13.1897 18.3332 14.0138C17.0999 14.8379 16.1386 16.0092 15.5709 17.3797C15.0032 18.7501 14.8547 20.2581 15.1441 21.713C15.4335 23.1679 16.1478 24.5042 17.1967 25.5531C18.2456 26.602 19.582 27.3163 21.0368 27.6057C22.4917 27.8951 23.9997 27.7466 25.3701 27.1789C26.7406 26.6113 27.9119 25.65 28.736 24.4166C29.5601 23.1832 30 21.7332 30 20.2498C29.9977 18.2614 29.2068 16.3551 27.8007 14.9491C26.3947 13.5431 24.4884 12.7521 22.5 12.7498Z" fill="#F0F6FF"/>
<path d="M22.5 12.75C21.0166 12.75 19.5666 13.1899 18.3332 14.014C17.0999 14.8381 16.1386 16.0094 15.5709 17.3799C15.0032 18.7503 14.8547 20.2583 15.1441 21.7132C15.4335 23.168 16.1478 24.5044 17.1967 25.5533C18.2456 26.6022 19.582 27.3165 21.0368 27.6059C22.4917 27.8953 23.9997 27.7468 25.3701 27.1791C26.7406 26.6114 27.9119 25.6501 28.736 24.4168C29.5601 23.1834 30 21.7334 30 20.25C29.9977 18.2616 29.2068 16.3553 27.8007 14.9493C26.3947 13.5432 24.4884 12.7523 22.5 12.75ZM22.5 26.5C21.2639 26.5 20.0555 26.1334 19.0277 25.4467C17.9999 24.7599 17.1988 23.7838 16.7258 22.6418C16.2527 21.4997 16.1289 20.2431 16.3701 19.0307C16.6113 17.8183 17.2065 16.7047 18.0806 15.8306C18.9547 14.9565 20.0683 14.3612 21.2807 14.1201C22.4931 13.8789 23.7497 14.0027 24.8918 14.4758C26.0338 14.9488 27.0099 15.7499 27.6967 16.7777C28.3834 17.8055 28.75 19.0139 28.75 20.25C28.748 21.907 28.0889 23.4956 26.9172 24.6672C25.7456 25.8389 24.157 26.498 22.5 26.5Z" fill="#474747"/>
<path d="M20.6819 22.0233V20.8572H21.3242C21.7064 20.8572 21.9962 20.7716 22.1939 20.6003C22.3981 20.4224 22.5002 20.1556 22.5002 19.7998C22.5002 19.4572 22.3981 19.2201 22.1939 19.0883C21.9962 18.9565 21.7064 18.8906 21.3242 18.8906H20.6819V17.7245H24.5953V18.4855H23.3205C23.5115 18.6304 23.6598 18.8149 23.7652 19.0389C23.8772 19.2563 23.9332 19.5099 23.9332 19.7998C23.9332 20.3203 23.8179 20.7452 23.5873 21.0746C23.3633 21.3975 23.0635 21.6379 22.688 21.7961C22.3125 21.9476 21.8974 22.0233 21.4428 22.0233H20.6819ZM20.6819 20.1753V19.4737L21.4132 19.4144H24.5953V20.1753H20.6819ZM22.7967 23.9998L21.1661 21.717L22.1642 21.0153L24.4273 23.9998H22.7967Z" fill="#1769E9"/>
</svg>
