<svg width="30" height="30" viewBox="0 0 30 30" fill="none" xmlns="http://www.w3.org/2000/svg">
<path d="M22.9571 28.7607C23.9629 27.4937 24.5627 25.8905 24.5627 24.1474C24.5627 23.9746 24.5567 23.803 24.5453 23.6332C24.2811 19.7697 21.064 16.7177 17.1335 16.7177C13.2031 16.7177 9.98546 19.7697 9.72114 23.6332C9.70968 23.8044 9.70392 23.9759 9.70386 24.1474C9.70386 25.8905 10.3042 27.4937 11.3094 28.7607" fill="#F0F6FF"/>
<path d="M19.813 28.7607C21.4006 27.8369 22.4673 26.1166 22.4673 24.1474C22.4673 23.9741 22.4589 23.8024 22.4428 23.6332C22.1839 20.928 19.9057 18.813 17.1335 18.813C14.3607 18.813 12.0824 20.928 11.8235 23.6332C11.8072 23.8041 11.7991 23.9757 11.7991 24.1474C11.7991 26.1166 12.8658 27.8369 14.4534 28.7607" stroke="black" stroke-miterlimit="10" stroke-linecap="round" stroke-linejoin="round"/>
<path d="M10.5186 8.6696L15.7036 10.3301L15.866 10.3823C16.4067 10.5557 16.8309 10.9255 17.0841 11.3872C17.4867 12.0135 17.6173 12.8075 17.3729 13.5715C17.0225 14.6667 16.0095 15.3645 14.9179 15.3645C14.6572 15.3645 14.3923 15.3247 14.1309 15.2409L10.872 14.1973C10.1501 14.9485 9.12177 15.361 8.06006 15.2918" stroke="black" stroke-miterlimit="10" stroke-linecap="round" stroke-linejoin="round"/>
<path d="M4.70674 11.6496C4.70615 11.6965 4.70615 11.7428 4.70674 11.7891C4.73076 12.992 5.36533 14.1193 6.39833 14.7598" stroke="black" stroke-miterlimit="10" stroke-linecap="round" stroke-linejoin="round"/>
<path d="M2.57309 1.23946C3.75129 1.23946 4.70648 2.19459 4.70648 3.37285V12.2517H0.439697V3.37285C0.439697 2.19459 1.39483 1.23946 2.57309 1.23946Z" stroke="black" stroke-miterlimit="10" stroke-linecap="round" stroke-linejoin="round"/>
<path d="M13.974 9.77619L17.2268 9.24815L25.7001 13.3315C26.064 13.5076 26.4629 13.5991 26.8671 13.5994C27.7967 13.5994 28.696 13.1161 29.1927 12.2634C29.9808 10.9133 29.4567 9.17895 28.0536 8.49129L19.8783 4.48285C18.6433 3.87729 17.2859 3.56243 15.9104 3.5624H4.7063" stroke="black" stroke-miterlimit="10" stroke-linecap="round" stroke-linejoin="round"/>
<path d="M18.0912 22.1794L16.2351 26.0322" stroke="#1769E9" stroke-width="0.642611" stroke-miterlimit="10" stroke-linecap="round" stroke-linejoin="round"/>
<path d="M16.6998 22.8302C16.6998 23.2887 16.3327 23.6604 15.8797 23.6604C15.4268 23.6604 15.0596 23.2887 15.0596 22.8302C15.0596 22.3717 15.4268 22 15.8797 22C16.3327 22 16.6998 22.3717 16.6998 22.8302Z" stroke="#1769E9" stroke-width="0.642611" stroke-miterlimit="10" stroke-linecap="round" stroke-linejoin="round"/>
<path d="M19.2066 25.4643C19.2066 25.9228 18.8395 26.2946 18.3865 26.2946C17.9336 26.2946 17.5664 25.9228 17.5664 25.4643C17.5664 25.0058 17.9336 24.6341 18.3865 24.6341C18.8395 24.6341 19.2066 25.0058 19.2066 25.4643Z" stroke="#1769E9" stroke-width="0.642611" stroke-miterlimit="10" stroke-linecap="round" stroke-linejoin="round"/>
<path d="M9.72113 23.6332H8.37817C6.96196 23.6332 5.8147 24.7805 5.8147 26.1973C5.8147 26.9051 6.10175 27.5461 6.56469 28.0096C7.02876 28.4736 7.66977 28.7607 8.37817 28.7607H24.2084" stroke="black" stroke-miterlimit="10" stroke-linecap="round" stroke-linejoin="round"/>
<path d="M24.5454 23.6332H25.8884C26.5962 23.6332 27.2371 23.9203 27.7012 24.3843C28.1653 24.8478 28.4524 25.4888 28.4524 26.1972C28.4524 27.5871 27.3462 28.7185 25.9663 28.7595" stroke="black" stroke-miterlimit="10" stroke-linecap="round" stroke-linejoin="round"/>
<path d="M21.575 13.9551V16.3627" stroke="#1769E9" stroke-miterlimit="10" stroke-linecap="round" stroke-linejoin="round"/>
<path d="M19.0833 12.3956V14.8032" stroke="#1769E9" stroke-miterlimit="10" stroke-linecap="round" stroke-linejoin="round"/>
<path d="M11.1011 16.2548V17.4586" stroke="#1769E9" stroke-miterlimit="10" stroke-linecap="round" stroke-linejoin="round"/>
</svg>
