<svg width="30" height="30" viewBox="0 0 30 30" fill="none" xmlns="http://www.w3.org/2000/svg">
<g clip-path="url(#clip0_963_731)">
<path d="M14.5 13.5002C14.5 13.1002 10.1667 13.3335 8 13.5002L7 16.5L6.5 18.5L7 20H12.5L16 19.5C15.5 17.6667 14.5 13.9002 14.5 13.5002Z" fill="#F0F6FF"/>
<path d="M5.15625 12.1875C5.03193 12.1875 4.9127 12.1381 4.82479 12.0502C4.73689 11.9623 4.6875 11.8431 4.6875 11.7188C4.6875 10.9434 4.05656 10.3125 3.28125 10.3125C3.15693 10.3125 3.0377 10.2631 2.94979 10.1752C2.86189 10.0873 2.8125 9.96807 2.8125 9.84375C2.8125 9.71943 2.86189 9.6002 2.94979 9.51229C3.0377 9.42439 3.15693 9.375 3.28125 9.375C4.05656 9.375 4.6875 8.74406 4.6875 7.96875C4.6875 7.84443 4.73689 7.7252 4.82479 7.63729C4.9127 7.54939 5.03193 7.5 5.15625 7.5C5.28057 7.5 5.3998 7.54939 5.48771 7.63729C5.57561 7.7252 5.625 7.84443 5.625 7.96875C5.625 8.74406 6.25594 9.375 7.03125 9.375C7.15557 9.375 7.2748 9.42439 7.36271 9.51229C7.45061 9.6002 7.5 9.71943 7.5 9.84375C7.5 9.96807 7.45061 10.0873 7.36271 10.1752C7.2748 10.2631 7.15557 10.3125 7.03125 10.3125C6.25594 10.3125 5.625 10.9434 5.625 11.7188C5.625 11.8431 5.57561 11.9623 5.48771 12.0502C5.3998 12.1381 5.28057 12.1875 5.15625 12.1875ZM4.68609 9.84375C4.86422 9.97734 5.02266 10.1358 5.15625 10.3139C5.28984 10.1358 5.44828 9.97734 5.62641 9.84375C5.44821 9.71009 5.28991 9.55179 5.15625 9.37359C5.02266 9.55172 4.86422 9.71016 4.68609 9.84375ZM10.7812 7.96875C10.6569 7.96875 10.5377 7.91936 10.4498 7.83146C10.3619 7.74355 10.3125 7.62432 10.3125 7.5C10.3125 6.72469 9.68156 6.09375 8.90625 6.09375C8.78193 6.09375 8.6627 6.04436 8.57479 5.95646C8.48689 5.86855 8.4375 5.74932 8.4375 5.625C8.4375 5.50068 8.48689 5.38145 8.57479 5.29354C8.6627 5.20564 8.78193 5.15625 8.90625 5.15625C9.68156 5.15625 10.3125 4.52531 10.3125 3.75C10.3125 3.62568 10.3619 3.50645 10.4498 3.41854C10.5377 3.33064 10.6569 3.28125 10.7812 3.28125C10.9056 3.28125 11.0248 3.33064 11.1127 3.41854C11.2006 3.50645 11.25 3.62568 11.25 3.75C11.25 4.52531 11.8809 5.15625 12.6562 5.15625C12.7806 5.15625 12.8998 5.20564 12.9877 5.29354C13.0756 5.38145 13.125 5.50068 13.125 5.625C13.125 5.74932 13.0756 5.86855 12.9877 5.95646C12.8998 6.04436 12.7806 6.09375 12.6562 6.09375C11.8809 6.09375 11.25 6.72469 11.25 7.5C11.25 7.62432 11.2006 7.74355 11.1127 7.83146C11.0248 7.91936 10.9056 7.96875 10.7812 7.96875ZM10.3111 5.625C10.4892 5.75859 10.6477 5.91703 10.7812 6.09516C10.9148 5.91703 11.0733 5.75859 11.2514 5.625C11.0732 5.49134 10.9149 5.33304 10.7812 5.15484C10.6477 5.33297 10.4892 5.49141 10.3111 5.625ZM27.1875 9.375C27.0632 9.375 26.944 9.32561 26.856 9.23771C26.7681 9.1498 26.7188 9.03057 26.7188 8.90625C26.7188 8.13094 26.0878 7.5 25.3125 7.5C25.1882 7.5 25.069 7.45061 24.981 7.36271C24.8931 7.2748 24.8438 7.15557 24.8438 7.03125C24.8438 6.90693 24.8931 6.7877 24.981 6.69979C25.069 6.61189 25.1882 6.5625 25.3125 6.5625C26.0878 6.5625 26.7188 5.93156 26.7188 5.15625C26.7188 5.03193 26.7681 4.9127 26.856 4.82479C26.944 4.73689 27.0632 4.6875 27.1875 4.6875C27.3118 4.6875 27.431 4.73689 27.519 4.82479C27.6069 4.9127 27.6562 5.03193 27.6562 5.15625C27.6562 5.93156 28.2872 6.5625 29.0625 6.5625C29.1868 6.5625 29.306 6.61189 29.394 6.69979C29.4819 6.7877 29.5312 6.90693 29.5312 7.03125C29.5312 7.15557 29.4819 7.2748 29.394 7.36271C29.306 7.45061 29.1868 7.5 29.0625 7.5C28.2872 7.5 27.6562 8.13094 27.6562 8.90625C27.6562 9.03057 27.6069 9.1498 27.519 9.23771C27.431 9.32561 27.3118 9.375 27.1875 9.375ZM26.7173 7.03125C26.8955 7.16484 27.0539 7.32328 27.1875 7.50141C27.3211 7.32328 27.4795 7.16484 27.6577 7.03125C27.4795 6.89759 27.3212 6.73929 27.1875 6.56109C27.0539 6.73922 26.8955 6.89766 26.7173 7.03125ZM16.4062 20.1562H6.09375C6.02039 20.1563 5.94806 20.1391 5.88256 20.106C5.81706 20.073 5.76023 20.025 5.71664 19.966C5.67305 19.907 5.64392 19.8386 5.63158 19.7663C5.61925 19.694 5.62406 19.6198 5.64562 19.5497L7.52063 13.4559C7.5501 13.3601 7.60954 13.2762 7.69019 13.2167C7.77085 13.1571 7.86848 13.125 7.96875 13.125H14.5312C14.6315 13.125 14.7291 13.1571 14.8098 13.2167C14.8905 13.2762 14.9499 13.3601 14.9794 13.4559L16.8544 19.5497C16.8757 19.6198 16.8804 19.6939 16.868 19.7662C16.8555 19.8384 16.8264 19.9067 16.7828 19.9657C16.7393 20.0246 16.6826 20.0725 16.6172 20.1056C16.5518 20.1387 16.4795 20.1561 16.4062 20.1562ZM6.72844 19.2188H15.772L14.1853 14.0625H8.31516L6.72844 19.2188ZM24.8438 14.0625C24.6431 14.0625 24.458 13.9331 24.3956 13.7316L22.6228 7.96875H16.4062C16.2819 7.96875 16.1627 7.91936 16.0748 7.83146C15.9869 7.74355 15.9375 7.62432 15.9375 7.5C15.9375 7.37568 15.9869 7.25645 16.0748 7.16854C16.1627 7.08064 16.2819 7.03125 16.4062 7.03125H22.9688C23.069 7.03123 23.1666 7.06336 23.2473 7.12293C23.328 7.18249 23.3874 7.26635 23.4169 7.36219L25.2919 13.4559C25.3133 13.526 25.3181 13.6002 25.3057 13.6725C25.2933 13.7448 25.2642 13.8131 25.2206 13.8721C25.177 13.9311 25.1202 13.979 25.0548 14.0121C24.9894 14.0451 24.9171 14.0624 24.8438 14.0625Z" fill="#474747"/>
<path d="M5.15625 12.1875C5.03193 12.1875 4.9127 12.1381 4.82479 12.0502C4.73689 11.9623 4.6875 11.8431 4.6875 11.7188C4.6875 10.9434 4.05656 10.3125 3.28125 10.3125C3.15693 10.3125 3.0377 10.2631 2.94979 10.1752C2.86189 10.0873 2.8125 9.96807 2.8125 9.84375C2.8125 9.71943 2.86189 9.6002 2.94979 9.51229C3.0377 9.42439 3.15693 9.375 3.28125 9.375C4.05656 9.375 4.6875 8.74406 4.6875 7.96875C4.6875 7.84443 4.73689 7.7252 4.82479 7.63729C4.9127 7.54939 5.03193 7.5 5.15625 7.5C5.28057 7.5 5.3998 7.54939 5.48771 7.63729C5.57561 7.7252 5.625 7.84443 5.625 7.96875C5.625 8.74406 6.25594 9.375 7.03125 9.375C7.15557 9.375 7.2748 9.42439 7.36271 9.51229C7.45061 9.6002 7.5 9.71943 7.5 9.84375C7.5 9.96807 7.45061 10.0873 7.36271 10.1752C7.2748 10.2631 7.15557 10.3125 7.03125 10.3125C6.25594 10.3125 5.625 10.9434 5.625 11.7188C5.625 11.8431 5.57561 11.9623 5.48771 12.0502C5.3998 12.1381 5.28057 12.1875 5.15625 12.1875ZM4.68609 9.84375C4.86422 9.97734 5.02266 10.1358 5.15625 10.3139C5.28984 10.1358 5.44828 9.97734 5.62641 9.84375C5.44821 9.71009 5.28991 9.55179 5.15625 9.37359C5.02266 9.55172 4.86422 9.71016 4.68609 9.84375ZM10.7812 7.96875C10.6569 7.96875 10.5377 7.91936 10.4498 7.83146C10.3619 7.74355 10.3125 7.62432 10.3125 7.5C10.3125 6.72469 9.68156 6.09375 8.90625 6.09375C8.78193 6.09375 8.6627 6.04436 8.57479 5.95646C8.48689 5.86855 8.4375 5.74932 8.4375 5.625C8.4375 5.50068 8.48689 5.38145 8.57479 5.29354C8.6627 5.20564 8.78193 5.15625 8.90625 5.15625C9.68156 5.15625 10.3125 4.52531 10.3125 3.75C10.3125 3.62568 10.3619 3.50645 10.4498 3.41854C10.5377 3.33064 10.6569 3.28125 10.7812 3.28125C10.9056 3.28125 11.0248 3.33064 11.1127 3.41854C11.2006 3.50645 11.25 3.62568 11.25 3.75C11.25 4.52531 11.8809 5.15625 12.6562 5.15625C12.7806 5.15625 12.8998 5.20564 12.9877 5.29354C13.0756 5.38145 13.125 5.50068 13.125 5.625C13.125 5.74932 13.0756 5.86855 12.9877 5.95646C12.8998 6.04436 12.7806 6.09375 12.6562 6.09375C11.8809 6.09375 11.25 6.72469 11.25 7.5C11.25 7.62432 11.2006 7.74355 11.1127 7.83146C11.0248 7.91936 10.9056 7.96875 10.7812 7.96875ZM10.3111 5.625C10.4892 5.75859 10.6477 5.91703 10.7812 6.09516C10.9148 5.91703 11.0733 5.75859 11.2514 5.625C11.0732 5.49134 10.9149 5.33304 10.7812 5.15484C10.6477 5.33297 10.4892 5.49141 10.3111 5.625ZM27.1875 9.375C27.0632 9.375 26.944 9.32561 26.856 9.23771C26.7681 9.1498 26.7188 9.03057 26.7188 8.90625C26.7188 8.13094 26.0878 7.5 25.3125 7.5C25.1882 7.5 25.069 7.45061 24.981 7.36271C24.8931 7.2748 24.8438 7.15557 24.8438 7.03125C24.8438 6.90693 24.8931 6.7877 24.981 6.69979C25.069 6.61189 25.1882 6.5625 25.3125 6.5625C26.0878 6.5625 26.7188 5.93156 26.7188 5.15625C26.7188 5.03193 26.7681 4.9127 26.856 4.82479C26.944 4.73689 27.0632 4.6875 27.1875 4.6875C27.3118 4.6875 27.431 4.73689 27.519 4.82479C27.6069 4.9127 27.6562 5.03193 27.6562 5.15625C27.6562 5.93156 28.2872 6.5625 29.0625 6.5625C29.1868 6.5625 29.306 6.61189 29.394 6.69979C29.4819 6.7877 29.5312 6.90693 29.5312 7.03125C29.5312 7.15557 29.4819 7.2748 29.394 7.36271C29.306 7.45061 29.1868 7.5 29.0625 7.5C28.2872 7.5 27.6562 8.13094 27.6562 8.90625C27.6562 9.03057 27.6069 9.1498 27.519 9.23771C27.431 9.32561 27.3118 9.375 27.1875 9.375ZM26.7173 7.03125C26.8955 7.16484 27.0539 7.32328 27.1875 7.50141C27.3211 7.32328 27.4795 7.16484 27.6577 7.03125C27.4795 6.89759 27.3212 6.73929 27.1875 6.56109C27.0539 6.73922 26.8955 6.89766 26.7173 7.03125Z" fill="#1769E9"/>
<path d="M7.96926 14.0627C7.87018 14.0627 7.77363 14.0314 7.69347 13.9732C7.61332 13.9149 7.55367 13.8328 7.52311 13.7385C7.49254 13.6443 7.49263 13.5428 7.52335 13.4486C7.55407 13.3544 7.61385 13.2724 7.69411 13.2143L16.1316 7.1205C16.1815 7.08446 16.238 7.0586 16.2979 7.04439C16.3578 7.03019 16.4199 7.02792 16.4806 7.03771C16.5414 7.0475 16.5996 7.06917 16.652 7.10147C16.7044 7.13377 16.7499 7.17608 16.786 7.22597C16.822 7.27586 16.8479 7.33236 16.8621 7.39225C16.8763 7.45214 16.8786 7.51424 16.8688 7.575C16.859 7.63576 16.8373 7.69401 16.805 7.7464C16.7727 7.79879 16.7304 7.8443 16.6805 7.88034L8.24301 13.9741C8.16322 14.0318 8.06772 14.0628 7.96926 14.0627ZM14.5318 14.0627C14.4327 14.0627 14.3361 14.0314 14.256 13.9732C14.1758 13.9149 14.1162 13.8328 14.0856 13.7385C14.055 13.6443 14.0551 13.5428 14.0858 13.4486C14.1166 13.3544 14.1764 13.2724 14.2566 13.2143L22.6941 7.1205C22.744 7.08446 22.8005 7.0586 22.8604 7.04439C22.9203 7.03019 22.9824 7.02792 23.0431 7.03771C23.1039 7.0475 23.1621 7.06917 23.2145 7.10147C23.2669 7.13377 23.3124 7.17608 23.3485 7.22597C23.3845 7.27586 23.4104 7.33236 23.4246 7.39225C23.4388 7.45214 23.4411 7.51424 23.4313 7.575C23.4215 7.63576 23.3998 7.69401 23.3675 7.7464C23.3352 7.79879 23.2929 7.8443 23.243 7.88034L14.8055 13.9741C14.7257 14.0318 14.6302 14.0628 14.5318 14.0627ZM16.4068 20.1564C16.3077 20.1565 16.2111 20.1252 16.131 20.0669C16.0508 20.0087 15.9912 19.9265 15.9606 19.8323C15.93 19.738 15.9301 19.6365 15.9608 19.5423C15.9916 19.4481 16.0514 19.3661 16.1316 19.308L24.5691 13.2143C24.6699 13.1415 24.7954 13.1117 24.9181 13.1315C25.0409 13.1512 25.1507 13.219 25.2235 13.3197C25.2963 13.4205 25.3261 13.546 25.3063 13.6688C25.2865 13.7915 25.2188 13.9013 25.118 13.9741L16.6805 20.0678C16.6007 20.1255 16.5052 20.1565 16.4068 20.1564Z" fill="#474747"/>
<path d="M19 19.5L2 20L0.5 25.5L1.5 26.5L21 26V25.5L19 19.5Z" fill="#F0F6FF"/>
<path d="M21.0938 26.7188H10.7813C10.6346 26.7188 10.4959 26.6498 10.4068 26.5327C10.3632 26.4747 10.3337 26.4074 10.3204 26.3361C10.3072 26.2647 10.3106 26.1913 10.3304 26.1216L12.2054 19.5591C12.263 19.3575 12.4473 19.2188 12.6563 19.2188H19.2188C19.4279 19.2188 19.6121 19.3575 19.6698 19.5591L21.5448 26.1216C21.5644 26.1913 21.5677 26.2647 21.5543 26.3359C21.5409 26.4071 21.5112 26.4743 21.4675 26.5321C21.4239 26.5899 21.3674 26.6369 21.3026 26.6693C21.2377 26.7016 21.1663 26.7186 21.0938 26.7188ZM11.4029 25.7812H20.4723L18.8654 20.1562H13.0098L11.4029 25.7812ZM29.5309 20.625C29.429 20.6249 29.3299 20.5917 29.2486 20.5303C29.1674 20.4689 29.1083 20.3827 29.0804 20.2847L27.3029 14.0625H24.8438C24.7195 14.0625 24.6003 14.0131 24.5124 13.9252C24.4245 13.8373 24.3751 13.7181 24.3751 13.5938C24.3751 13.4694 24.4245 13.3502 24.5124 13.2623C24.6003 13.1744 24.7195 13.125 24.8438 13.125H27.6563C27.8654 13.125 28.0496 13.2637 28.1073 13.4653L29.9823 20.0278C30.0021 20.0976 30.0056 20.1711 29.9922 20.2424C29.9789 20.3137 29.9492 20.381 29.9054 20.4389C29.8616 20.4968 29.805 20.5437 29.74 20.576C29.675 20.6083 29.6034 20.6251 29.5309 20.625Z" fill="#474747"/>
<path d="M19.2193 20.1564C19.1202 20.1565 19.0237 20.1252 18.9435 20.0669C18.8633 20.0087 18.8037 19.9265 18.7731 19.8323C18.7426 19.738 18.7427 19.6365 18.7734 19.5423C18.8041 19.4481 18.8639 19.3661 18.9441 19.308L27.3816 13.2143C27.4824 13.1415 27.6079 13.1117 27.7307 13.1315C27.8534 13.1512 27.9632 13.219 28.036 13.3197C28.1088 13.4205 28.1386 13.546 28.1188 13.6688C28.099 13.7915 28.0313 13.9013 27.9305 13.9741L19.493 20.0678C19.4132 20.1255 19.3177 20.1565 19.2193 20.1564ZM21.0943 26.7189C20.9952 26.719 20.8987 26.6877 20.8185 26.6294C20.7383 26.5712 20.6787 26.489 20.6481 26.3948C20.6176 26.3005 20.6177 26.199 20.6484 26.1048C20.6791 26.0106 20.7389 25.9286 20.8191 25.8705L29.2566 19.7768C29.3065 19.7407 29.363 19.7148 29.4229 19.7006C29.4828 19.6864 29.5449 19.6842 29.6057 19.694C29.6664 19.7038 29.7247 19.7254 29.7771 19.7577C29.8294 19.79 29.875 19.8323 29.911 19.8822C29.9471 19.9321 29.9729 19.9886 29.9871 20.0485C30.0013 20.1084 30.0036 20.1705 29.9938 20.2313C29.984 20.292 29.9623 20.3503 29.93 20.4026C29.8977 20.455 29.8554 20.5006 29.8055 20.5366L21.368 26.6303C21.2882 26.688 21.1927 26.719 21.0943 26.7189ZM10.7813 26.7189H0.46882C0.322102 26.7189 0.183351 26.65 0.094289 26.5328C0.0507356 26.4748 0.021178 26.4076 0.007924 26.3363C-0.00533002 26.2649 -0.00192174 26.1915 0.0178827 26.1218L1.89288 19.5593C1.95054 19.3577 2.13476 19.2189 2.34382 19.2189H8.90632C9.11538 19.2189 9.2996 19.3577 9.35726 19.5593L11.2323 26.1218C11.2519 26.1915 11.2552 26.2649 11.2418 26.3361C11.2284 26.4073 11.1987 26.4745 11.155 26.5323C11.1114 26.5901 11.0549 26.6371 10.9901 26.6694C10.9252 26.7018 10.8538 26.7188 10.7813 26.7189ZM1.09038 25.7814H10.1598L8.55288 20.1564H2.69726L1.09038 25.7814Z" fill="#474747"/>
<path d="M2.34426 20.1563C2.24518 20.1564 2.14863 20.1251 2.06847 20.0668C1.98832 20.0086 1.92867 19.9264 1.89811 19.8322C1.86754 19.7379 1.86763 19.6364 1.89835 19.5422C1.92907 19.448 1.98885 19.366 2.06911 19.3079L6.79411 15.8954C6.844 15.8594 6.9005 15.8335 6.96039 15.8193C7.02027 15.8051 7.08237 15.8028 7.14314 15.8126C7.2039 15.8224 7.26214 15.8441 7.31453 15.8764C7.36692 15.9087 7.41244 15.951 7.44848 16.0009C7.48452 16.0508 7.51038 16.1073 7.52459 16.1672C7.53879 16.227 7.54107 16.2891 7.53127 16.3499C7.52148 16.4107 7.49981 16.4689 7.46751 16.5213C7.43521 16.5737 7.3929 16.6192 7.34301 16.6552L2.61801 20.0677C2.53822 20.1254 2.44272 20.1564 2.34426 20.1563Z" fill="#474747"/>
</g>
<defs>
<clipPath id="clip0_963_731">
<rect width="30" height="30" fill="white"/>
</clipPath>
</defs>
</svg>
