<svg width="30" height="30" viewBox="0 0 30 30" fill="none" xmlns="http://www.w3.org/2000/svg">
<g clip-path="url(#clip0_1050_787)">
<path d="M16.5186 14.4026L2.00851 28.9127C1.31488 28.2566 0.939941 27.3567 0.939941 26.3819V3.62319C0.939941 2.62961 1.33363 1.72976 2.04601 1.05487L16.5186 14.4026Z" fill="#2196F3"/>
<path d="M29.0602 15.0025C29.0602 16.3148 28.3478 17.4771 27.1668 18.1333L23.0425 20.4204L17.9246 15.6962L16.5186 14.4026L21.9364 8.9848L27.1668 11.8718C28.3478 12.528 29.0602 13.6903 29.0602 15.0025Z" fill="#FFC107"/>
<path d="M16.5185 14.4026L2.0459 1.05489C2.23337 0.867422 2.47708 0.6987 2.72079 0.548725C3.90184 -0.163655 5.3266 -0.182402 6.54514 0.492485L21.9363 8.98481L16.5185 14.4026Z" fill="#4CAF50"/>
<path d="M23.0425 20.4204L6.54528 29.5126C5.96413 29.8501 5.30799 30 4.6706 30C3.99571 30 3.32082 29.8313 2.72093 29.4564C2.46059 29.3073 2.22106 29.1245 2.00854 28.9127L16.5186 14.4026L17.9246 15.6962L23.0425 20.4204Z" fill="#F44336"/>
</g>
<defs>
<clipPath id="clip0_1050_787">
<rect width="30" height="30" fill="white"/>
</clipPath>
</defs>
</svg>
