<svg width="24" height="30" viewBox="0 0 24 30" fill="none" xmlns="http://www.w3.org/2000/svg">
<path d="M19.4634 18.271L19.4633 18.271C19.4159 18.271 19.3774 18.2325 19.3774 18.185C19.3775 18.1376 19.4159 18.0991 19.4634 18.0991L19.4634 18.271ZM19.4634 18.271C19.5108 18.271 19.5493 18.2326 19.5493 18.1851M19.4634 18.271L19.5493 18.1851M19.5493 18.1851C19.5493 18.1377 19.511 18.0992 19.4635 18.0991L19.5493 18.1851Z" fill="#474747" stroke="#474747"/>
<path d="M22.8006 5.52741C21.7732 5.90293 20.6481 6.11053 19.4682 6.11053C16.315 6.11053 13.5512 2.83527 12.0066 0.615335H11.9935C10.4489 2.83527 7.68507 6.11053 4.53186 6.11053C3.35202 6.11053 2.2269 5.90293 1.19946 5.52741V13.4804C1.19946 19.8337 4.87867 25.7399 10.9378 29.1135C11.5875 29.4752 12.4126 29.4752 13.0623 29.1135C19.1214 25.7399 22.8006 19.8337 22.8006 13.4804V5.52741Z" stroke="#474747" stroke-miterlimit="10" stroke-linecap="round" stroke-linejoin="round"/>
<path d="M16.9609 13.1915H13.8086V10.0391H10.1915V13.1915H7.03906V16.8085H10.1915V19.9609H13.8086V16.8085H16.9609V13.1915Z" stroke="#1769E9" stroke-miterlimit="10" stroke-linecap="round" stroke-linejoin="round"/>
<path d="M16.9609 13.1915H13.8086V10.0391H10.1915V13.1915H7.03906V16.8085H10.1915V19.9609H13.8086V16.8085H16.9609V13.1915Z" fill="#F0F6FF" stroke="#1769E9" stroke-miterlimit="10" stroke-linecap="round" stroke-linejoin="round"/>
<path d="M13.6772 26.1775C15.8654 24.724 17.5182 22.7836 18.5064 20.6059" stroke="#474747" stroke-miterlimit="10" stroke-linecap="round" stroke-linejoin="round"/>
</svg>
