<svg width="30" height="30" viewBox="0 0 30 30" fill="none" xmlns="http://www.w3.org/2000/svg">
<g clip-path="url(#clip0_963_1717)">
<path d="M15 3L12.5 4L10.5 4.5L10 6L9.5 7.5V12L10.5 13.5L14.5 16.5L16.5 16L19.5 13.5L20.5 12V7.5L20 5L19 4.5L15 3Z" fill="#F0F6FF"/>
<path d="M22.7 3.32523L15.2 0.0422307C15.1369 0.0146991 15.0688 0.000488281 15 0.000488281C14.9312 0.000488281 14.8631 0.0146991 14.8 0.0422307L7.3 3.32523C7.21087 3.36413 7.13502 3.42817 7.08174 3.50952C7.02846 3.59087 7.00005 3.68599 7 3.78323V11.6332C7.0025 13.3972 7.85 15.0532 9.28 16.0872L14.4635 19.8257C14.6196 19.9387 14.8073 19.9995 15 19.9995C15.1927 19.9995 15.3804 19.9387 15.5365 19.8257L20.72 16.0877C21.4247 15.5781 21.9988 14.9088 22.3951 14.1346C22.7914 13.3605 22.9987 12.5034 23 11.6337V3.78323C22.9999 3.68599 22.9715 3.59087 22.9183 3.50952C22.865 3.42817 22.7891 3.36413 22.7 3.32523ZM22 11.6337C21.9989 12.3451 21.8293 13.0461 21.5051 13.6793C21.181 14.3125 20.7114 14.8599 20.135 15.2767L15 18.9802L9.865 15.2767C9.28856 14.8599 8.81904 14.3125 8.49488 13.6793C8.17072 13.0461 8.00113 12.3451 8 11.6337V4.11023L15 1.04623L22 4.11023V11.6337Z" fill="#474747"/>
<path d="M14.8001 2.22534L9.30006 4.63334C9.21094 4.67223 9.13509 4.73628 9.0818 4.81762C9.02852 4.89897 9.00011 4.99409 9.00006 5.09134V11.6338C9.00082 12.1869 9.13263 12.7319 9.38467 13.2241C9.63671 13.7164 10.0018 14.1419 10.4501 14.4658L14.7076 17.5368C14.7927 17.5983 14.8951 17.6313 15.0001 17.6313C15.1051 17.6313 15.2074 17.5983 15.2926 17.5368L19.5501 14.4658C19.9983 14.1419 20.3634 13.7164 20.6155 13.2241C20.8675 12.7319 20.9993 12.1869 21.0001 11.6338V5.09134C21 4.99409 20.9716 4.89897 20.9183 4.81762C20.865 4.73628 20.7892 4.67223 20.7001 4.63334L15.2001 2.22534C15.137 2.1978 15.0689 2.18359 15.0001 2.18359C14.9312 2.18359 14.8631 2.1978 14.8001 2.22534ZM20.0001 5.41784V11.6338C19.9993 12.0285 19.9051 12.4174 19.7252 12.7686C19.5453 13.1199 19.2849 13.4236 18.9651 13.6548L15.0001 16.5148L11.0351 13.6548C10.7153 13.4236 10.4548 13.1199 10.2749 12.7686C10.095 12.4174 10.0008 12.0285 10.0001 11.6338V5.41784L15.0001 3.22934L20.0001 5.41784ZM4.14256 16.6003L3.06106 14.0733C2.97652 13.8818 2.85509 13.7089 2.70371 13.5643C2.55232 13.4197 2.37394 13.3064 2.17875 13.2307C1.98356 13.1551 1.77539 13.1187 1.56611 13.1235C1.35684 13.1283 1.15056 13.1743 0.959062 13.2588C0.767561 13.3434 0.594588 13.4648 0.450016 13.6162C0.305444 13.7676 0.192106 13.946 0.116473 14.1411C0.0408396 14.3363 0.00439218 14.5445 0.00921161 14.7538C0.014031 14.9631 0.060023 15.1693 0.144561 15.3608L2.10406 19.6713C2.36842 20.2549 2.73617 20.7858 3.18956 21.2383L6.27106 24.3203C6.09756 24.5043 6.00106 24.7473 6.00006 25.0003V29.0003C6.00006 29.2656 6.10542 29.5199 6.29296 29.7074C6.48049 29.895 6.73485 30.0003 7.00006 30.0003H12.5001C12.7653 30.0003 13.0196 29.895 13.2072 29.7074C13.3947 29.5199 13.5001 29.2656 13.5001 29.0003V25.0003C13.5001 24.7351 13.3947 24.4808 13.2072 24.2932C13.0196 24.1057 12.7653 24.0003 12.5001 24.0003V23.0698C12.5154 21.8857 12.129 20.7313 11.4041 19.7948C10.979 19.2358 10.3997 18.8133 9.73756 18.5793C8.68448 18.1369 7.716 17.5154 6.87506 16.7423C6.49484 16.4292 6.02413 16.2464 5.53222 16.2208C5.04031 16.1953 4.55319 16.3283 4.14256 16.6003ZM12.5001 29.0003H7.00006V25.0003H12.5001V29.0003ZM10.6236 20.4193C11.2064 21.1787 11.5153 22.1128 11.5001 23.0698V24.0003H7.36556L3.89656 20.5313C3.52813 20.1634 3.22916 19.732 3.01406 19.2578L1.05456 14.9473C1.01976 14.8755 0.99979 14.7974 0.995837 14.7176C0.991884 14.6379 1.00403 14.5582 1.03155 14.4832C1.05907 14.4083 1.10141 14.3397 1.15602 14.2815C1.21064 14.2232 1.27643 14.1766 1.34946 14.1444C1.42249 14.1121 1.50126 14.0949 1.58109 14.0938C1.66091 14.0926 1.74015 14.1076 1.81407 14.1377C1.888 14.1678 1.95509 14.2126 2.01136 14.2692C2.06762 14.3258 2.1119 14.3932 2.14156 14.4673L3.26006 17.0758C3.55707 17.7718 3.98518 18.4041 4.52106 18.9383L6.80506 21.2228C6.85119 21.2706 6.90636 21.3087 6.96736 21.3349C7.02836 21.3611 7.09397 21.3749 7.16036 21.3755C7.22675 21.376 7.29259 21.3634 7.35404 21.3382C7.41549 21.3131 7.47131 21.276 7.51826 21.229C7.56521 21.1821 7.60233 21.1263 7.62747 21.0648C7.65261 21.0034 7.66526 20.9375 7.66469 20.8711C7.66411 20.8047 7.65032 20.7391 7.62411 20.6781C7.59791 20.6171 7.55982 20.562 7.51206 20.5158L5.22806 18.2313C4.99839 18.0022 4.79189 17.751 4.61156 17.4813C4.84473 17.3019 5.13186 17.2069 5.42603 17.2118C5.7202 17.2167 6.00401 17.3212 6.23106 17.5083C7.16573 18.3661 8.24601 19.0502 9.42106 19.5283C9.89982 19.7024 10.3176 20.012 10.6236 20.4193Z" fill="#474747"/>
<path d="M11 26.5003H10.5C10.3674 26.5003 10.2402 26.553 10.1464 26.6468C10.0527 26.7405 10 26.8677 10 27.0003C10 27.1329 10.0527 27.2601 10.1464 27.3539C10.2402 27.4476 10.3674 27.5003 10.5 27.5003H11C11.1326 27.5003 11.2598 27.4476 11.3536 27.3539C11.4473 27.2601 11.5 27.1329 11.5 27.0003C11.5 26.8677 11.4473 26.7405 11.3536 26.6468C11.2598 26.553 11.1326 26.5003 11 26.5003ZM27.896 19.6713L29.8555 15.3608C29.944 15.1688 29.9934 14.961 30.0009 14.7496C30.0083 14.5383 29.9736 14.3276 29.8988 14.1298C29.824 13.9319 29.7106 13.751 29.5651 13.5975C29.4197 13.4439 29.2452 13.3208 29.0517 13.2354C28.8582 13.15 28.6497 13.1039 28.4382 13.0999C28.2268 13.0959 28.0167 13.134 27.8201 13.2119C27.6235 13.2899 27.4444 13.4062 27.2932 13.5541C27.142 13.702 27.0218 13.8785 26.9395 14.0733L25.8605 16.5908C25.4484 16.3201 24.9604 16.1886 24.4681 16.2156C23.9757 16.2426 23.505 16.4267 23.125 16.7408C22.2841 17.5138 21.3156 18.1354 20.2625 18.5778C19.6003 18.8118 19.0211 19.2343 18.596 19.7933C17.8707 20.7301 17.4843 21.8851 17.5 23.0698V24.0003C17.2348 24.0003 16.9804 24.1057 16.7929 24.2932C16.6054 24.4808 16.5 24.7351 16.5 25.0003V29.0003C16.5 29.2655 16.6054 29.5199 16.7929 29.7074C16.9804 29.895 17.2348 30.0003 17.5 30.0003H23C23.2652 30.0003 23.5196 29.895 23.7071 29.7074C23.8946 29.5199 24 29.2655 24 29.0003V25.0003C23.9995 24.7474 23.9025 24.5043 23.729 24.3203L26.8105 21.2383C27.2639 20.7857 27.6316 20.2549 27.896 19.6713ZM23 29.0003H17.5V25.0003H23V29.0003ZM22.6345 24.0003H18.5V23.0698C18.4849 22.1129 18.7938 21.179 19.3765 20.4198C19.6818 20.0128 20.0986 19.7031 20.5765 19.5283C21.7518 19.0503 22.8322 18.3662 23.767 17.5083C23.9938 17.3198 24.2779 17.214 24.5727 17.2083C24.8676 17.2026 25.1556 17.2973 25.3895 17.4768C25.2086 17.7485 25.0011 18.0014 24.77 18.2318L22.486 20.5163C22.3949 20.6106 22.3445 20.7369 22.3457 20.868C22.3468 20.9991 22.3994 21.1245 22.4921 21.2172C22.5848 21.3099 22.7102 21.3625 22.8413 21.3637C22.9724 21.3648 23.0987 21.3144 23.193 21.2233L25.477 18.9388C26.0129 18.4046 26.441 17.7723 26.738 17.0763L27.8565 14.4673C27.8988 14.3681 27.9674 14.2823 28.0549 14.2191C28.1424 14.1559 28.2454 14.1178 28.3529 14.1088C28.4604 14.0998 28.5684 14.1203 28.6651 14.168C28.7619 14.2158 28.8438 14.289 28.902 14.3798C29.012 14.5498 29.027 14.7638 28.9435 14.9478L26.984 19.2583C26.7689 19.7325 26.4699 20.1639 26.1015 20.5318L22.6345 24.0003Z" fill="#474747"/>
<path d="M11 26.5004H10.5C10.3674 26.5004 10.2402 26.553 10.1464 26.6468C10.0527 26.7406 10 26.8678 10 27.0004C10 27.133 10.0527 27.2602 10.1464 27.3539C10.2402 27.4477 10.3674 27.5004 10.5 27.5004H11C11.1326 27.5004 11.2598 27.4477 11.3536 27.3539C11.4473 27.2602 11.5 27.133 11.5 27.0004C11.5 26.8678 11.4473 26.7406 11.3536 26.6468C11.2598 26.553 11.1326 26.5004 11 26.5004Z" fill="#1769E9"/>
<path d="M19.5 26.5001H19C18.8674 26.5001 18.7402 26.5527 18.6464 26.6465C18.5527 26.7403 18.5 26.8675 18.5 27.0001C18.5 27.1327 18.5527 27.2598 18.6464 27.3536C18.7402 27.4474 18.8674 27.5001 19 27.5001H19.5C19.6326 27.5001 19.7598 27.4474 19.8536 27.3536C19.9473 27.2598 20 27.1327 20 27.0001C20 26.8675 19.9473 26.7403 19.8536 26.6465C19.7598 26.5527 19.6326 26.5001 19.5 26.5001ZM12.3 10.6001C12.1939 10.5205 12.0606 10.4863 11.9293 10.5051C11.798 10.5238 11.6796 10.594 11.6 10.7001C11.5204 10.8062 11.4863 10.9395 11.505 11.0708C11.5238 11.2021 11.5939 11.3205 11.7 11.4001L13.7 12.9001C13.7544 12.9409 13.8165 12.9701 13.8826 12.9861C13.9487 13.0021 14.0174 13.0044 14.0844 12.9929C14.1514 12.9815 14.2154 12.9565 14.2724 12.9194C14.3294 12.8824 14.3783 12.8341 14.416 12.7776L18.416 6.77756C18.4896 6.66723 18.5164 6.53219 18.4904 6.40213C18.4644 6.27207 18.3878 6.15766 18.2775 6.08406C18.1672 6.01047 18.0321 5.98371 17.9021 6.00969C17.772 6.03566 17.6576 6.11223 17.584 6.22256L13.877 11.7831L12.3 10.6001Z" fill="#1769E9"/>
</g>
<defs>
<clipPath id="clip0_963_1717">
<rect width="30" height="30" fill="white"/>
</clipPath>
</defs>
</svg>
