<svg width="30" height="30" viewBox="0 0 30 30" fill="none" xmlns="http://www.w3.org/2000/svg">
<path d="M23.5 5.5L15.5 6L14.5 7L14 10.5V16.5L14.5 19L15 21.5L13 24.5H14.5L17.5 25L21 24.5L22.5 23V8L24 6L23.5 5.5Z" fill="#F0F6FF"/>
<path fill-rule="evenodd" clip-rule="evenodd" d="M21.1842 18.9781C21.1842 19.0848 21.1419 19.1872 21.0665 19.2627C20.991 19.3381 20.8887 19.3806 20.782 19.3806H16.7961C16.5736 19.3806 16.3936 19.2003 16.3936 18.9781C16.3936 18.756 16.5736 18.576 16.7961 18.576H20.782C20.8887 18.576 20.991 18.6183 21.0664 18.6938C21.1419 18.7692 21.1842 18.8715 21.1842 18.9781ZM21.1842 16.0745C21.1842 16.1812 21.1419 16.2835 21.0664 16.3589C20.991 16.4343 20.8887 16.4767 20.782 16.4767H16.7961C16.7432 16.4767 16.6909 16.4663 16.6421 16.4461C16.5932 16.4259 16.5489 16.3963 16.5115 16.359C16.4741 16.3216 16.4445 16.2773 16.4242 16.2285C16.404 16.1797 16.3936 16.1273 16.3936 16.0745C16.3936 16.0216 16.404 15.9693 16.4242 15.9205C16.4444 15.8716 16.474 15.8272 16.5114 15.7899C16.5488 15.7525 16.5932 15.7228 16.642 15.7026C16.6909 15.6824 16.7432 15.672 16.7961 15.672H20.782C20.8349 15.672 20.8872 15.6825 20.936 15.7027C20.9848 15.7229 21.0292 15.7526 21.0665 15.7899C21.1039 15.8273 21.1335 15.8717 21.1537 15.9205C21.1739 15.9693 21.1843 16.0217 21.1842 16.0745ZM21.1842 21.8821C21.1842 21.9888 21.1419 22.0911 21.0665 22.1666C20.991 22.2421 20.8887 22.2845 20.782 22.2846H16.7961C16.6905 22.2827 16.5899 22.2395 16.5159 22.1643C16.4419 22.089 16.4005 21.9876 16.4005 21.8821C16.4005 21.7765 16.4419 21.6752 16.5159 21.5999C16.5899 21.5246 16.6905 21.4814 16.7961 21.4796H20.782C20.8887 21.4797 20.991 21.5221 21.0665 21.5976C21.1419 21.6731 21.1842 21.7754 21.1842 21.8821ZM16.6404 9.66513C16.6404 9.36405 17.0979 9.36381 17.0979 9.66513C17.0979 9.96645 16.6404 9.96627 16.6404 9.66513ZM17.9028 9.66513C17.9028 9.09477 17.4393 8.63127 16.8693 8.63127C16.2989 8.63127 15.8354 9.09477 15.8354 9.66513C15.8354 10.2351 16.2989 10.6986 16.8693 10.6986C17.4393 10.6986 17.9028 10.2351 17.9028 9.66513ZM16.5418 12.9366C16.4122 13.1173 16.4546 13.3686 16.6357 13.4978C16.8154 13.6271 17.0669 13.5859 17.1969 13.4046L20.1517 9.26769C20.2135 9.18076 20.2383 9.07289 20.2207 8.9677C20.2031 8.86251 20.1445 8.76859 20.0578 8.70651C20.0148 8.67575 19.9662 8.65376 19.9148 8.6418C19.8633 8.62984 19.81 8.62814 19.7579 8.6368C19.7057 8.64546 19.6558 8.66431 19.611 8.69227C19.5662 8.72023 19.5273 8.75675 19.4966 8.79975L16.5418 12.9366ZM20.0527 12.5388C20.0527 12.8404 19.5952 12.8409 19.5952 12.5388C19.5952 12.2382 20.0527 12.2388 20.0527 12.5388ZM18.7902 12.5388C18.7902 11.9692 19.2537 11.5056 19.8238 11.5056C20.3941 11.5056 20.8576 11.9692 20.8576 12.5388C20.8576 13.1092 20.3941 13.573 19.8238 13.573C19.2538 13.5731 18.7902 13.1092 18.7902 12.5388ZM23.1794 8.01645C23.3684 7.01337 24.2512 6.25215 25.3078 6.25215C26.3648 6.25215 27.2481 7.01307 27.437 8.01645H23.1794ZM22.3365 22.2168V8.41893C22.3365 7.56513 22.6979 6.79473 23.2764 6.25215H16.635C15.4401 6.25215 14.4682 7.22397 14.4682 8.41893V16.8588C15.0487 17.9191 15.3462 19.1466 15.3112 20.3823C15.2698 21.8415 14.7478 23.3312 13.7952 24.3835H20.1697C21.3646 24.3836 22.3365 23.4117 22.3365 22.2168ZM3.52077 23.4511C4.46109 24.7952 6.37557 25.6304 8.51691 25.6304C10.6576 25.6304 12.5721 24.7952 13.5127 23.4511C14.8883 21.4853 14.8102 18.7074 13.454 16.7419C12.3515 15.1439 10.8297 13.4454 10.1754 11.5528H6.86961C6.45693 12.7348 5.61363 13.903 4.62621 15.2692C4.28817 15.7368 3.93855 16.221 3.57945 16.7418C2.22387 18.7081 2.14551 21.4847 3.52077 23.4511ZM7.13781 9.92721C7.13475 9.81429 7.12593 9.69327 7.11441 9.56505H9.92649C9.8735 9.98541 9.88683 10.3303 9.96243 10.7481H7.07919C7.12546 10.4771 7.14509 10.2021 7.13781 9.92721ZM6.04323 4.48041C6.84453 4.22565 7.34541 4.44297 7.99671 4.79709C8.50839 5.07483 9.03735 5.36271 10.1062 5.20533C10.3981 5.16225 10.6959 5.08089 11.0047 4.95777C10.7097 6.14373 10.2907 7.66227 10.0648 8.75997H7.00347C6.77811 7.43151 6.34035 5.82255 6.04323 4.48041ZM25.3099 5.44749H16.635C14.9962 5.44749 13.6636 6.78009 13.6636 8.41893V15.6527C12.4347 13.9808 10.6483 11.8001 10.7006 9.95025C10.7301 8.90793 11.7037 5.67681 11.9814 4.30581C12.0499 3.96699 11.6844 3.70485 11.3856 3.87687C10.8745 4.17189 10.4178 4.34619 9.98919 4.40925C8.71929 4.59597 8.54811 4.00203 7.43043 3.67137C6.79497 3.48351 6.15645 3.54219 5.41965 3.85551C5.3343 3.89171 5.26412 3.95635 5.22104 4.03844C5.17795 4.12053 5.16462 4.215 5.18331 4.30581C5.50359 5.88213 6.29565 8.63067 6.33315 9.95025C6.37653 11.4724 5.31621 12.9397 3.97377 14.7978C3.63297 15.2695 3.28101 15.7567 2.91681 16.2847C1.36947 18.5284 1.29369 21.6712 2.86155 23.9125C3.96627 25.4921 6.08085 26.4354 8.51685 26.4354C10.1977 26.4354 11.7253 25.9857 12.8742 25.1886H20.1696C21.8084 25.1886 23.1411 23.8556 23.1411 22.2168V8.82111H27.8767C27.9834 8.82113 28.0858 8.77877 28.1613 8.70335C28.2367 8.62793 28.2792 8.52563 28.2792 8.41893C28.2793 6.78081 26.9473 5.44851 25.3099 5.44749Z" fill="#474747"/>
<path d="M6.68188 20.0235V18.8574H7.32424C7.70635 18.8574 7.99624 18.7718 8.19388 18.6005C8.39812 18.4226 8.50024 18.1558 8.50024 17.8C8.50024 17.4574 8.39812 17.2202 8.19388 17.0885C7.99624 16.9567 7.70635 16.8908 7.32424 16.8908H6.68188V15.7247H10.5953V16.4856H9.32047C9.51153 16.6306 9.65976 16.8151 9.76518 17.0391C9.87718 17.2565 9.93318 17.5101 9.93318 17.8C9.93318 18.3205 9.81788 18.7454 9.58729 19.0748C9.36329 19.3976 9.06353 19.6381 8.688 19.7962C8.31247 19.9478 7.89741 20.0235 7.44282 20.0235H6.68188ZM6.68188 18.1755V17.4739L7.41318 17.4146H10.5953V18.1755H6.68188ZM8.79671 22L7.16612 19.7172L8.16424 19.0155L10.4273 22H8.79671Z" fill="#1769E9"/>
</svg>
