<svg width="31" height="30" viewBox="0 0 31 30" fill="none" xmlns="http://www.w3.org/2000/svg">
<g clip-path="url(#clip0_963_582)">
<path d="M16 12H1.5L1 15L1.5 17L2.5 18V19L2 20.5L1 21V26H29.5V25V21.5L28.5 20L27.5 19L29 17.5L29.5 14V11.5L16 12Z" fill="#F0F6FF"/>
<path d="M23.7538 17.0789C22.7154 16.0405 21.3348 15.4688 19.8663 15.4688H15.3409C15.0172 15.4688 14.7549 15.7311 14.7549 16.0547C14.7549 16.3783 15.0172 16.6406 15.3409 16.6406H19.8663C20.8233 16.6406 21.7319 16.9498 22.4804 17.52H19.6065C18.5726 17.52 17.7315 18.3611 17.7315 19.395C17.7315 20.4288 18.5726 21.27 19.6065 21.27H25.985C25.9923 21.321 25.9973 21.3725 25.9973 21.4249C25.9973 22.0178 25.5151 22.5 24.9225 22.5H15.3409C15.0172 22.5 14.7549 22.7623 14.7549 23.0859C14.7549 23.4096 15.0172 23.6719 15.3409 23.6719H24.9225C26.1614 23.6719 27.1692 22.6639 27.1692 21.4249C27.1692 20.8248 26.9355 20.2607 26.5112 19.8363L23.7538 17.0789ZM18.9034 19.395C18.9034 19.0073 19.2187 18.6919 19.6065 18.6919H23.7094L25.1157 20.0981H19.6065C19.2187 20.0981 18.9034 19.7827 18.9034 19.395ZM5.78247 16.6406H12.0161C12.3395 16.6406 12.602 16.3783 12.602 16.0547C12.602 15.7311 12.3395 15.4688 12.0161 15.4688H5.78247C5.45886 15.4688 5.19653 15.7311 5.19653 16.0547C5.19653 16.3783 5.45886 16.6406 5.78247 16.6406ZM9.41528 22.5H5.78247C5.45886 22.5 5.19653 22.7623 5.19653 23.0859C5.19653 23.4096 5.45886 23.6719 5.78247 23.6719H9.41528C9.7389 23.6719 10.0012 23.4096 10.0012 23.0859C10.0012 22.7623 9.7389 22.5 9.41528 22.5ZM12.0163 22.5C11.8616 22.5 11.711 22.5627 11.6014 22.6717C11.4921 22.7819 11.4306 22.9307 11.4304 23.0859C11.4304 23.24 11.4924 23.3912 11.6014 23.5002C11.7117 23.6098 11.8608 23.6714 12.0163 23.6719C12.1704 23.6719 12.3216 23.6092 12.4306 23.5002C12.54 23.39 12.6017 23.2412 12.6023 23.0859C12.6023 22.9317 12.5396 22.7807 12.4306 22.6717C12.3204 22.5623 12.1716 22.5007 12.0163 22.5H12.0163ZM5.78247 21.3281H12.0161C12.3395 21.3281 12.602 21.0658 12.602 20.7422C12.602 20.4186 12.3395 20.1562 12.0161 20.1562H5.78247C5.45886 20.1562 5.19653 20.4186 5.19653 20.7422C5.19653 21.0658 5.45886 21.3281 5.78247 21.3281ZM5.78247 18.9844H7.58903C7.91265 18.9844 8.17497 18.7221 8.17497 18.3984C8.17497 18.0748 7.91265 17.8125 7.58903 17.8125H5.78247C5.45886 17.8125 5.19653 18.0748 5.19653 18.3984C5.19653 18.7221 5.45886 18.9844 5.78247 18.9844ZM12.0161 17.8125H10.3722C10.0488 17.8125 9.7863 18.0748 9.7863 18.3984C9.7863 18.7221 10.0488 18.9844 10.3722 18.9844H12.0161C12.3395 18.9844 12.602 18.7221 12.602 18.3984C12.602 18.0748 12.3395 17.8125 12.0161 17.8125Z" fill="#1769E9"/>
<path d="M30.0309 11.3232L30.1616 11.1926C30.3905 10.9636 30.3905 10.5926 30.1616 10.3637L26.3912 6.59335C26.1625 6.36472 25.7915 6.36472 25.5627 6.59335C25.06 7.09597 24.2423 7.0962 23.7396 6.59335C23.4961 6.35007 23.3619 6.02616 23.3619 5.68198C23.3619 5.3378 23.4961 5.01384 23.7396 4.77056C23.8495 4.66068 23.9112 4.51168 23.9113 4.3563C23.9113 4.20085 23.8495 4.05161 23.7396 3.94175L19.9692 0.171652C19.9148 0.117233 19.8502 0.0740645 19.7791 0.0446119C19.7081 0.0151593 19.6319 0 19.5549 0C19.478 0 19.4018 0.0151593 19.3307 0.0446119C19.2596 0.0740645 19.1951 0.117233 19.1407 0.171652L8.06235 11.25H0.919189C0.595576 11.25 0.333252 11.5123 0.333252 11.8359V17.1679C0.333252 17.4916 0.595576 17.7539 0.919189 17.7539C1.63011 17.7539 2.20825 18.332 2.20825 19.0429C2.20825 19.7536 1.63011 20.332 0.919189 20.332C0.595576 20.332 0.333252 20.5943 0.333252 20.9179V26.25C0.333252 26.5736 0.595576 26.8359 0.919189 26.8359H29.7473C30.0709 26.8359 30.3333 26.5736 30.3333 26.25V20.9179C30.3333 20.5943 30.0709 20.332 29.7473 20.332C29.0364 20.332 28.4583 19.7536 28.4583 19.0429C28.4583 18.332 29.0364 17.7539 29.7473 17.7539C30.0709 17.7539 30.3333 17.4916 30.3333 17.1679V11.8359C30.3333 11.7312 30.3053 11.6285 30.2521 11.5383C30.1989 11.4481 30.1225 11.3738 30.0309 11.3232ZM29.1614 16.6525C28.0863 16.9159 27.2864 17.8878 27.2864 19.0429C27.2864 20.1981 28.0863 21.1697 29.1614 21.4334V25.664H1.50513V21.4334C2.5802 21.1697 3.38013 20.1981 3.38013 19.0429C3.38013 17.8878 2.5802 16.916 1.50513 16.6525V12.4218H16.6516C16.9752 12.4218 17.2375 12.1595 17.2375 11.8359C17.2375 11.5123 16.9752 11.25 16.6516 11.25H9.71968L19.555 1.41443L22.546 4.40546C22.3142 4.78632 22.1904 5.22466 22.1904 5.68198C22.1904 6.33929 22.4462 6.95728 22.9111 7.42216C23.728 8.23878 24.9806 8.36036 25.9273 7.78655L28.9187 10.778L28.4468 11.25H21.5735C21.2499 11.25 20.9875 11.5123 20.9875 11.8359C20.9875 12.1595 21.2499 12.4218 21.5735 12.4218H29.1614V16.6525Z" fill="#474747"/>
<path d="M19.0263 12.4219C19.1806 12.4219 19.3317 12.3592 19.4402 12.2502C19.5499 12.1402 19.6116 11.9913 19.6119 11.8359C19.6119 11.6817 19.5498 11.5307 19.4402 11.4217C19.3302 11.3122 19.1815 11.2505 19.0263 11.25C18.8719 11.25 18.7206 11.3127 18.6116 11.4217C18.5021 11.5318 18.4404 11.6806 18.4399 11.8359C18.4399 11.99 18.5026 12.1412 18.6116 12.2502C18.7219 12.3597 18.8709 12.4214 19.0263 12.4219Z" fill="#474747"/>
</g>
<defs>
<clipPath id="clip0_963_582">
<rect width="30" height="30" fill="white" transform="translate(0.333252)"/>
</clipPath>
</defs>
</svg>
