<svg width="30" height="30" viewBox="0 0 30 30" fill="none" xmlns="http://www.w3.org/2000/svg">
<path d="M20.383 15.3337C20.383 17.6529 19.0834 19.6685 17.1727 20.6916C16.9875 20.6675 16.8 20.6552 16.6119 20.6552H11.3801C9.50569 19.6216 8.23596 17.6259 8.23596 15.3337C8.23596 11.9798 10.9553 9.2605 14.3098 9.2605C17.6637 9.2605 20.383 11.9798 20.383 15.3337Z" fill="#F0F6FF" stroke="#474747" stroke-miterlimit="10" stroke-linecap="round" stroke-linejoin="round"/>
<path d="M12.6819 16.0235V14.8574H13.3242C13.7064 14.8574 13.9962 14.7718 14.1939 14.6005C14.3981 14.4226 14.5002 14.1558 14.5002 13.8C14.5002 13.4574 14.3981 13.2202 14.1939 13.0885C13.9962 12.9567 13.7064 12.8908 13.3242 12.8908H12.6819V11.7247H16.5953V12.4856H15.3205C15.5115 12.6306 15.6598 12.8151 15.7652 13.0391C15.8772 13.2565 15.9332 13.5101 15.9332 13.8C15.9332 14.3205 15.8179 14.7454 15.5873 15.0748C15.3633 15.3976 15.0635 15.6381 14.688 15.7962C14.3125 15.9478 13.8974 16.0235 13.4428 16.0235H12.6819ZM12.6819 14.1755V13.4739L13.4132 13.4146H16.5953V14.1755H12.6819ZM14.7967 18L13.1661 15.7172L14.1642 15.0155L16.4273 18H14.7967Z" fill="#1769E9"/>
<path d="M11.7633 7.03549C8.21285 8.12357 5.63086 11.427 5.63086 15.3338C5.63086 18.3789 7.19883 21.0573 9.57129 22.6059C9.55898 22.5227 9.55254 22.4377 9.55254 22.351C9.55254 21.9297 9.70488 21.5395 9.96152 21.2383C10.2182 20.9366 10.5785 20.7227 10.9939 20.6553H16.6119C16.8 20.6553 16.9875 20.6676 17.1727 20.6916C17.7445 20.7655 18.2959 20.9521 18.7951 21.2407L19.9658 21.9163C21.8162 20.3248 22.9881 17.9664 22.9881 15.3338C22.9881 11.4242 20.4028 8.11895 16.8486 7.0332" stroke="#474747" stroke-miterlimit="10" stroke-linecap="round" stroke-linejoin="round"/>
<path d="M25.7397 28.3896L11.127 27.1215C10.4801 27.0675 9.83958 26.9545 9.21327 26.784L3.47881 25.219C2.53376 24.9608 1.97067 23.9927 2.21313 23.0437C2.42014 22.2331 3.14917 21.6937 3.94967 21.6937C4.092 21.6937 4.23655 21.7111 4.38116 21.7466L9.70663 23.0612C9.6047 22.8382 9.55211 22.5959 9.55247 22.3507C9.55213 21.943 9.69713 21.5485 9.96145 21.238C10.2255 20.9271 10.5916 20.7205 10.9943 20.6553H16.6117C17.3783 20.6552 18.1313 20.8572 18.7949 21.2409L20.6232 22.2962L20.6404 22.306C21.3792 22.729 22.218 22.9453 23.0693 22.9453H25.7398" stroke="#474747" stroke-miterlimit="10" stroke-linecap="round" stroke-linejoin="round"/>
<path d="M14.8506 20.6555H10.994C10.1629 20.7908 9.55242 21.5086 9.55242 22.3507C9.55242 23.2992 10.3213 24.0682 11.2699 24.0682H15.3732M27.171 20.1301C27.728 18.6371 28.0332 17.0213 28.0332 15.334C28.0332 7.75467 21.889 1.61035 14.3096 1.61035C6.7302 1.61035 0.585938 7.75467 0.585938 15.3341C0.585938 17.0213 0.891094 18.6371 1.44814 20.1301" stroke="#474747" stroke-miterlimit="10" stroke-linecap="round" stroke-linejoin="round"/>
<path d="M25.9396 17.8779L27.171 20.1301L29.414 18.7635" stroke="#474747" stroke-miterlimit="10" stroke-linecap="round" stroke-linejoin="round"/>
</svg>
