<svg width="30" height="28" viewBox="0 0 30 28" fill="none" xmlns="http://www.w3.org/2000/svg">
<path d="M27.7955 19.5254V25.9164C27.7955 26.4022 27.4023 26.7954 26.9165 26.7954H24.2625C23.7767 26.7954 23.3835 26.4022 23.3835 25.9164V15.3202C23.3835 14.835 23.7767 14.4412 24.2625 14.4412H26.9165C27.4023 14.4412 27.7955 14.835 27.7955 15.3202V17.4744M9.26426 23.8068V25.9164C9.26426 26.4022 9.65747 26.7954 10.1433 26.7954H12.7973C13.2831 26.7954 13.6763 26.4022 13.6763 25.9164V18.8497C13.6763 18.3645 13.2831 17.9707 12.7973 17.9707H10.1433C9.65747 17.9707 9.26426 18.3645 9.26426 18.8497V21.7557M17.1788 11.4391C20.1558 9.92167 22.8782 7.94976 25.2481 5.5943L23.6278 3.97399C23.0741 3.42022 23.4116 2.52832 24.1951 2.52832H28.6815C29.1673 2.52832 29.5605 2.92153 29.5605 3.40674V7.89378C29.5605 8.67669 28.6686 9.01481 28.1149 8.46104L26.4969 6.84308L25.9455 7.39392C19.9058 13.4337 11.7142 16.8268 3.17274 16.8268H2.54865C2.42441 16.8268 2.30252 16.8016 2.19001 16.7554C1.5726 16.4981 1.41045 15.7025 1.88998 15.2229C2.05289 15.06 2.27908 14.9551 2.54865 14.9546C6.98529 14.9551 11.327 14.0398 15.3218 12.3128M17.2028 26.7956H19.857C20.3425 26.7956 20.736 26.402 20.736 25.9165V17.0851C20.736 16.5996 20.3425 16.2061 19.857 16.2061H17.2028C16.7173 16.2061 16.3237 16.5996 16.3237 17.0851V25.9165C16.3237 26.402 16.7173 26.7956 17.2028 26.7956ZM3.08349 26.7956H5.73774C6.22319 26.7956 6.61675 26.402 6.61675 25.9165V20.6149C6.61675 20.1295 6.22319 19.7359 5.73774 19.7359H3.08349C2.59805 19.7359 2.20449 20.1295 2.20449 20.6149V25.9165C2.20449 26.402 2.59799 26.7956 3.08349 26.7956Z" stroke="#474747" stroke-miterlimit="10" stroke-linecap="round" stroke-linejoin="round"/>
<path d="M6.17539 12.6763C9.34326 12.6763 11.9113 10.1083 11.9113 6.9404C11.9113 3.77253 9.34326 1.20447 6.17539 1.20447C3.00752 1.20447 0.439453 3.77253 0.439453 6.9404C0.439453 10.1083 3.00752 12.6763 6.17539 12.6763Z" stroke="#474747" stroke-miterlimit="10" stroke-linecap="round" stroke-linejoin="round"/>
</svg>
