<svg width="30" height="30" viewBox="0 0 30 30" fill="none" xmlns="http://www.w3.org/2000/svg">
<g clip-path="url(#clip0_1050_344)">
<path d="M17.5 12.5H11.5L12.5 13V14V15.5L11.5 16.5L10.5 17H9L8.5 21L9 23H10.5L13 25H16.5L18.5 23.5L20.5 23L21.5 22.5V18.5L21 17H19L18 16L17.5 14.5V12.5Z" fill="#F0F6FF"/>
<path d="M24 16.75V16.25C24 15.4216 23.3284 14.75 22.5 14.75C21.6733 14.7541 21.0041 15.4232 21 16.25V16.75H19.2395C18.965 16.4134 18.6494 16.1125 18.3 15.8545C18.2 15.7795 18.1 15.7095 18 15.645V13.25H19C19.8267 13.2459 20.4959 12.5768 20.5 11.75C20.5 10.9216 19.8284 10.25 19 10.25H17V9.25H18C18.1326 9.25 18.2598 9.19732 18.3536 9.10355C18.4473 9.00979 18.5 8.88261 18.5 8.75V7.25H21.5C22.3284 7.25 23 6.57844 23 5.75C23 4.92156 22.3284 4.25 21.5 4.25H8.5C7.67156 4.25 7 4.92156 7 5.75C7 6.57844 7.67156 7.25 8.5 7.25H11.5V8.75C11.5 8.88261 11.5527 9.00979 11.6464 9.10355C11.7402 9.19732 11.8674 9.25 12 9.25H13V10.25H11C10.1733 10.2541 9.50412 10.9233 9.5 11.75C9.5 12.5784 10.1716 13.25 11 13.25H12V15.645C11.8984 15.7101 11.7995 15.7794 11.7035 15.8525C11.3526 16.1108 11.0358 16.4123 10.7605 16.75H9V16.25C8.99588 15.4232 8.32675 14.7541 7.5 14.75C6.67156 14.75 6 15.4216 6 16.25V16.75H0V23.75H6V24.25C6 25.0784 6.67156 25.75 7.5 25.75C8.32844 25.75 9 25.0784 9 24.25V23.75H10.7615C12.6894 26.0909 16.15 26.4256 18.4909 24.4976C18.7636 24.2731 19.0139 24.0227 19.2385 23.75H21V24.25C21 25.0784 21.6716 25.75 22.5 25.75C23.3284 25.75 24 25.0784 24 24.25V23.75H30V16.75H24ZM6 22.75H1V17.75H6V22.75ZM8 24.25C8 24.3826 7.94732 24.5098 7.85355 24.6036C7.75979 24.6973 7.63261 24.75 7.5 24.75C7.36739 24.75 7.24021 24.6973 7.14645 24.6036C7.05268 24.5098 7 24.3826 7 24.25V16.25C7 16.1174 7.05268 15.9902 7.14645 15.8964C7.24021 15.8027 7.36739 15.75 7.5 15.75C7.56665 15.7498 7.63264 15.7632 7.69388 15.7896C7.75511 15.8159 7.81029 15.8545 7.856 15.903C7.90217 15.9481 7.93873 16.0021 7.96348 16.0618C7.98823 16.1214 8.00065 16.1854 8 16.25V24.25ZM8.5 6.25C8.36739 6.25 8.24021 6.19732 8.14645 6.10355C8.05268 6.00979 8 5.88261 8 5.75C8 5.61739 8.05268 5.49021 8.14645 5.39645C8.24021 5.30268 8.36739 5.25 8.5 5.25H21.5C21.6326 5.25 21.7598 5.30268 21.8536 5.39645C21.9473 5.49021 22 5.61739 22 5.75C22 5.88261 21.9473 6.00979 21.8536 6.10355C21.7598 6.19732 21.6326 6.25 21.5 6.25H8.5ZM12.5 8.25V7.25H17.5V8.25H12.5ZM16 9.25V10.25H14V9.25H16ZM11 12.25C10.8674 12.25 10.7402 12.1973 10.6464 12.1036C10.5527 12.0098 10.5 11.8826 10.5 11.75C10.4998 11.6833 10.5132 11.6174 10.5396 11.5561C10.5659 11.4949 10.6045 11.4397 10.653 11.394C10.6981 11.3478 10.7521 11.3113 10.8118 11.2865C10.8714 11.2618 10.9354 11.2494 11 11.25H19C19.1326 11.25 19.2598 11.3027 19.3536 11.3964C19.4473 11.4902 19.5 11.6174 19.5 11.75C19.5002 11.8167 19.4868 11.8826 19.4604 11.9439C19.4341 12.0051 19.3955 12.0603 19.347 12.106C19.3019 12.1522 19.2479 12.1887 19.1882 12.2135C19.1286 12.2382 19.0646 12.2507 19 12.25H11ZM21 22.75H18.995C18.9174 22.75 18.8408 22.7681 18.7714 22.8028C18.702 22.8375 18.6416 22.8879 18.595 22.95C17.1094 24.9354 14.2954 25.3406 12.31 23.855C11.9667 23.5981 11.6619 23.2933 11.405 22.95C11.3584 22.8879 11.298 22.8375 11.2286 22.8028C11.1592 22.7681 11.0826 22.75 11.005 22.75H9V17.75H11.005C11.0829 17.7496 11.1597 17.731 11.2291 17.6957C11.2986 17.6603 11.3588 17.6093 11.405 17.5465C11.7685 17.064 12.2261 16.6602 12.75 16.3595C12.8262 16.3155 12.8895 16.2522 12.9334 16.1759C12.9773 16.0996 13.0003 16.013 13 15.925V13.25H17V15.925C16.9997 16.013 17.0227 16.0996 17.0666 16.1758C17.1105 16.2521 17.1738 16.3155 17.25 16.3595C17.4062 16.4499 17.5565 16.5501 17.7 16.6595C18.0394 16.9094 18.3391 17.2091 18.589 17.5485C18.6352 17.6112 18.6954 17.6623 18.7649 17.6977C18.8343 17.733 18.9111 17.7516 18.989 17.752H21V22.75ZM23 24.25C23 24.3826 22.9473 24.5098 22.8536 24.6036C22.7598 24.6973 22.6326 24.75 22.5 24.75C22.3674 24.75 22.2402 24.6973 22.1464 24.6036C22.0527 24.5098 22 24.3826 22 24.25V16.25C21.9998 16.1833 22.0132 16.1174 22.0396 16.0561C22.0659 15.9949 22.1045 15.9397 22.153 15.894C22.1981 15.8478 22.2521 15.8113 22.3118 15.7865C22.3714 15.7618 22.4354 15.7494 22.5 15.75C22.6326 15.75 22.7598 15.8027 22.8536 15.8964C22.9473 15.9902 23 16.1174 23 16.25V24.25ZM29 22.75H24V17.75H29V22.75Z" fill="#474747"/>
<circle cx="15" cy="20" r="2" fill="#1769E9"/>
</g>
<defs>
<clipPath id="clip0_1050_344">
<rect width="30" height="30" fill="white"/>
</clipPath>
</defs>
</svg>
