<svg width="30" height="30" viewBox="0 0 30 30" fill="none" xmlns="http://www.w3.org/2000/svg">
<path d="M21 0H9C7.34643 0 6 1.34643 6 3V27C6 28.6548 7.34643 30 9 30H21C22.6548 30 24 28.6548 24 27V3C24 1.34643 22.6548 0 21 0ZM22.8 27C22.8 27.9924 21.9924 28.8 21 28.8H9C8.0076 28.8 7.2 27.9924 7.2 27V3C7.2 2.0076 8.0076 1.2 9 1.2H21C21.9924 1.2 22.8 2.0076 22.8 3V27Z" fill="#474747"/>
<path d="M16.2 2.40002H13.8C13.4688 2.40002 13.2 2.66885 13.2 3.00002C13.2 3.3312 13.4688 3.60002 13.8 3.60002H16.2C16.5312 3.60002 16.8 3.3312 16.8 3.00002C16.8 2.66885 16.5312 2.40002 16.2 2.40002ZM15 26.4C14.6688 26.4 14.4 26.6689 14.4 27C14.4 27.3312 14.6688 27.6 15 27.6C15.3312 27.6 15.6 27.3312 15.6 27C15.6 26.6689 15.3312 26.4 15 26.4ZM23.4 4.80002H6.6C6.26877 4.80002 6 5.06885 6 5.40002C6 5.73126 6.26877 6.00002 6.6 6.00002H23.4C23.7312 6.00002 24 5.7312 24 5.40002C24 5.06885 23.7312 4.80002 23.4 4.80002ZM23.4 24H6.6C6.26877 24 6 24.2689 6 24.6C6 24.9312 6.26877 25.2 6.6 25.2H23.4C23.7312 25.2 24 24.9312 24 24.6C24 24.2689 23.7312 24 23.4 24Z" fill="#474747"/>
<path d="M16.2 2.3999H13.8C13.4687 2.3999 13.2 2.66873 13.2 2.9999C13.2 3.33107 13.4688 3.5999 13.8 3.5999H16.2C16.5311 3.5999 16.8 3.33107 16.8 2.9999C16.8 2.66873 16.5311 2.3999 16.2 2.3999ZM15 26.3999C14.6688 26.3999 14.4 26.6687 14.4 26.9999C14.4 27.3311 14.6688 27.5999 15 27.5999C15.3311 27.5999 15.6 27.3311 15.6 26.9999C15.6 26.6687 15.3311 26.3999 15 26.3999Z" fill="#1769E9"/>
<rect x="7" y="6" width="16" height="18" fill="#F0F6FF"/>
</svg>
