<svg width="27" height="30" viewBox="0 0 27 30" fill="none" xmlns="http://www.w3.org/2000/svg">
<path d="M6.5 21.5L5 22L4.5 23.5V25.5L5 28L6 27.5H7L8.5 28L14.5 29.5L16.5 29L18 28L21.5 26C22.6667 25.3333 25.1 24 25.5 24C25.9 24 25.6667 23.3333 25.5 23L24 22.5L23 23L22.5 23.5L19.5 24L18.5 24.5V23H15.5L11.5 22.5L10 21.5H6.5Z" fill="#F0F6FF"/>
<path d="M6.43115 13.686C6.43115 17.627 9.6259 20.8218 13.5669 20.8218C17.5079 20.8218 20.7026 17.627 20.7026 13.686C20.7026 9.74504 17.5079 6.55029 13.5669 6.55029C9.62781 6.5546 6.43577 9.74695 6.43115 13.686ZM13.5669 7.53447C16.9644 7.53447 19.7185 10.2886 19.7185 13.686C19.7185 17.0835 16.9644 19.8376 13.5669 19.8376C10.1694 19.8376 7.41533 17.0835 7.41533 13.686C7.4192 10.2902 10.1711 7.53834 13.5669 7.53447Z" fill="#474747"/>
<path d="M11.6819 15.0235V13.8574H12.3242C12.7064 13.8574 12.9962 13.7718 13.1939 13.6005C13.3981 13.4226 13.5002 13.1558 13.5002 12.8C13.5002 12.4574 13.3981 12.2202 13.1939 12.0885C12.9962 11.9567 12.7064 11.8908 12.3242 11.8908H11.6819V10.7247H15.5953V11.4856H14.3205C14.5115 11.6306 14.6598 11.8151 14.7652 12.0391C14.8772 12.2565 14.9332 12.5101 14.9332 12.8C14.9332 13.3205 14.8179 13.7454 14.5873 14.0748C14.3633 14.3976 14.0635 14.6381 13.688 14.7962C13.3125 14.9478 12.8974 15.0235 12.4428 15.0235H11.6819ZM11.6819 13.1755V12.4739L12.4132 12.4146H15.5953V13.1755H11.6819ZM13.7967 17L12.1661 14.7172L13.1642 14.0155L15.4273 17H13.7967Z" fill="#1769E9"/>
<path d="M23.1285 22.035L19.2737 23.8564C19.0122 23.37 18.6271 22.9612 18.1571 22.6712C17.6872 22.3812 17.1491 22.2203 16.5971 22.2047L13.0385 22.1069C12.4749 22.0907 11.9222 21.948 11.4212 21.6893L11.0592 21.5017C10.1457 21.0255 9.13061 20.7774 8.10049 20.7785C7.07037 20.7796 6.0558 21.0298 5.14332 21.5079L5.16589 20.6876C5.16769 20.623 5.15674 20.5586 5.13367 20.4983C5.1106 20.4379 5.07586 20.3826 5.03143 20.3357C4.98701 20.2887 4.93378 20.251 4.87477 20.2246C4.81576 20.1983 4.75213 20.1838 4.68753 20.182L0.785402 20.0747C0.720803 20.0729 0.656486 20.0838 0.596125 20.1069C0.535764 20.13 0.480543 20.1648 0.433616 20.2092C0.386689 20.2536 0.348977 20.3069 0.322635 20.3659C0.296292 20.4249 0.281835 20.4885 0.28009 20.5531L0.0443807 29.116C0.0425788 29.1806 0.0535262 29.2449 0.0765974 29.3053C0.0996686 29.3657 0.134412 29.4209 0.178841 29.4679C0.223271 29.5149 0.276517 29.5526 0.335536 29.579C0.394556 29.6053 0.458193 29.6198 0.522812 29.6216L4.42487 29.729H4.43834C4.56656 29.729 4.68974 29.679 4.78165 29.5896C4.87355 29.5002 4.92694 29.3785 4.93043 29.2503L4.94169 28.8406L5.95539 28.2979C6.35312 28.0838 6.81857 28.0328 7.2532 28.1558L13.3067 29.8548C13.3173 29.858 13.3278 29.8604 13.3387 29.8628C13.7762 29.9543 14.2221 30.0003 14.6691 30C15.6158 30.0006 16.5514 29.7964 17.4118 29.4015C17.433 29.3918 17.4534 29.3806 17.4729 29.3678L26.25 23.6906C26.3553 23.6224 26.4306 23.5166 26.4606 23.3948C26.4905 23.273 26.4728 23.1443 26.4111 23.0351C25.7595 21.8788 24.3142 21.4384 23.1285 22.035ZM1.04178 28.6513L1.2503 21.072L4.1685 21.1523L3.95998 28.7318L1.04178 28.6513ZM16.9685 28.5225C15.8995 29.0049 14.7057 29.1382 13.5566 28.9034L7.51942 27.2087C6.84011 27.0167 6.11276 27.0962 5.49098 27.4304L4.97294 27.708L5.11158 22.6686C5.91752 22.1326 6.85254 21.8226 7.81909 21.7711C8.78564 21.7195 9.74832 21.9283 10.6067 22.3755L10.9688 22.5632C11.6016 22.8899 12.2997 23.0702 13.0116 23.0909L16.5704 23.1887C17.5699 23.2174 18.4188 23.9291 18.6216 24.9085L13.3209 24.7622C13.0491 24.7548 12.823 24.9691 12.8153 25.2406C12.8117 25.3711 12.8601 25.4976 12.9499 25.5924C13.0396 25.6872 13.1633 25.7425 13.2938 25.7462L19.1435 25.9071H19.1572C19.2853 25.907 19.4084 25.857 19.5002 25.7676C19.592 25.6782 19.6453 25.5565 19.6488 25.4285C19.6549 25.2146 19.6389 25.0007 19.6013 24.7901L23.555 22.9219C23.5589 22.9202 23.5627 22.9183 23.5666 22.9164C23.8404 22.7778 24.15 22.7263 24.454 22.7689C24.7579 22.8115 25.0415 22.9461 25.2667 23.1545L16.9685 28.5225ZM14.059 5.16691V0.492087C14.059 0.361577 14.0072 0.236413 13.9149 0.144129C13.8226 0.0518447 13.6974 0 13.5669 0C13.4364 0 13.3112 0.0518447 13.219 0.144129C13.1267 0.236413 13.0748 0.361577 13.0748 0.492087V5.16691C13.0748 5.29742 13.1267 5.42258 13.219 5.51487C13.3112 5.60715 13.4364 5.659 13.5669 5.659C13.6974 5.659 13.8226 5.60715 13.9149 5.51487C14.0072 5.42258 14.059 5.29742 14.059 5.16691ZM17.7497 5.16691V2.95252C17.7497 2.82201 17.6978 2.69685 17.6055 2.60456C17.5132 2.51228 17.3881 2.46043 17.2576 2.46043C17.1271 2.46043 17.0019 2.51228 16.9096 2.60456C16.8173 2.69685 16.7655 2.82201 16.7655 2.95252V5.16691C16.7655 5.29742 16.8173 5.42258 16.9096 5.51487C17.0019 5.60715 17.1271 5.659 17.2576 5.659C17.3881 5.659 17.5132 5.60715 17.6055 5.51487C17.6978 5.42258 17.7497 5.29742 17.7497 5.16691ZM10.3684 5.16691V2.95252C10.3684 2.82201 10.3165 2.69685 10.2242 2.60456C10.1319 2.51228 10.0068 2.46043 9.87627 2.46043C9.74576 2.46043 9.6206 2.51228 9.52831 2.60456C9.43603 2.69685 9.38418 2.82201 9.38418 2.95252V5.16691C9.38418 5.29742 9.43603 5.42258 9.52831 5.51487C9.6206 5.60715 9.74576 5.659 9.87627 5.659C10.0068 5.659 10.1319 5.60715 10.2242 5.51487C10.3165 5.42258 10.3684 5.29742 10.3684 5.16691Z" fill="#474747"/>
</svg>
