<svg width="36" height="36" viewBox="0 0 36 36" fill="none" xmlns="http://www.w3.org/2000/svg">
<path d="M6.00186 16.3572H29.9981C30.4115 16.3572 30.7872 16.526 31.0591 16.798C31.3311 17.07 31.5 17.4456 31.5 17.859V29.5366C31.5 29.95 31.3311 30.3256 31.0591 30.5976C30.7872 30.8696 30.4115 31.0385 29.9981 31.0385H6.00186C5.58838 31.0385 5.21283 30.8696 4.94084 30.5976C4.66886 30.3256 4.5 29.95 4.5 29.5366V17.859C4.5 17.4456 4.66886 17.07 4.94084 16.798C5.21283 16.526 5.58842 16.3572 6.00186 16.3572Z" fill="#F0F6FF"/>
<path d="M6.00186 16.3574H29.9981C30.4115 16.3574 30.7872 16.5263 31.0591 16.7982C31.3311 17.0703 31.5 17.4458 31.5 17.8593V29.5368C31.5 29.9503 31.3311 30.3259 31.0591 30.5978C30.7872 30.8699 30.4115 31.0387 29.9981 31.0387H6.00186C5.58838 31.0387 5.21283 30.8699 4.94084 30.5978C4.66886 30.3259 4.5 29.9503 4.5 29.5368V17.8593C4.5 17.4458 4.66886 17.0702 4.94084 16.7983C5.21283 16.5263 5.58842 16.3574 6.00186 16.3574ZM29.9981 17.2012H6.00186C5.82133 17.2012 5.65689 17.2754 5.53741 17.3948C5.41793 17.5143 5.34375 17.6788 5.34375 17.8593V29.5368C5.34375 29.7174 5.41793 29.8818 5.53743 30.0013C5.65689 30.1208 5.82135 30.1949 6.00184 30.1949H29.9981C30.1786 30.1949 30.3431 30.1208 30.4626 30.0013C30.582 29.8818 30.6562 29.7173 30.6562 29.5368V17.8593C30.6562 17.6788 30.582 17.5143 30.4626 17.3948C30.3431 17.2754 30.1786 17.2012 29.9981 17.2012Z" fill="black"/>
<path d="M9.17029 17.0517C9.00559 17.2164 8.73845 17.2164 8.57373 17.0517C8.40902 16.8869 8.40902 16.6198 8.57373 16.4551L16.2264 8.80236C16.3911 8.63766 16.6583 8.63766 16.823 8.80236C16.9877 8.96709 16.9877 9.23421 16.823 9.39893L9.17029 17.0517ZM19.1772 9.39893C19.0125 9.23422 19.0125 8.96709 19.1772 8.80236C19.3419 8.63766 19.609 8.63766 19.7738 8.80236L27.4264 16.4551C27.5911 16.6198 27.5911 16.8869 27.4264 17.0517C27.2617 17.2164 26.9946 17.2164 26.8299 17.0517L19.1772 9.39893Z" fill="black"/>
<path d="M18 4.9613C18.7106 4.9613 19.3539 5.24936 19.8196 5.71507C20.2853 6.18075 20.5734 6.82415 20.5734 7.53476C20.5734 8.24534 20.2853 8.88871 19.8196 9.35441C19.3539 9.82014 18.7106 10.1082 18 10.1082C17.2893 10.1082 16.646 9.82014 16.1803 9.35443C15.7146 8.88871 15.4265 8.24534 15.4265 7.53474C15.4265 6.82413 15.7145 6.18075 16.1803 5.71507C16.646 5.24936 17.2893 4.9613 18 4.9613ZM19.2231 6.31164C18.9101 5.99866 18.4776 5.80505 18 5.80505C17.5223 5.80505 17.0898 5.99866 16.7768 6.31164C16.4639 6.6246 16.2702 7.05706 16.2702 7.53474C16.2702 8.01241 16.4639 8.44487 16.7768 8.75784C17.0898 9.07084 17.5223 9.26445 18 9.26445C18.4776 9.26445 18.9101 9.07084 19.2231 8.75784C19.536 8.44487 19.7297 8.01241 19.7297 7.53476C19.7297 7.05706 19.536 6.6246 19.2231 6.31164Z" fill="black"/>
<path fill-rule="evenodd" clip-rule="evenodd" d="M8.8894 26.2499V21.1451H11.0604C11.6058 21.1451 12.0027 21.1914 12.2499 21.2829C12.4982 21.3744 12.6955 21.5372 12.844 21.7713C12.9925 22.0066 13.0674 22.2739 13.0674 22.5758C13.0674 22.9596 12.9557 23.2757 12.7311 23.5252C12.5065 23.7747 12.1714 23.9316 11.7247 23.997C11.9469 24.1265 12.1299 24.2691 12.2736 24.4247C12.4186 24.5804 12.6135 24.8573 12.8583 25.2541L13.4809 26.2499H12.2487L11.5096 25.1353C11.2446 24.7396 11.0628 24.4901 10.9642 24.3867C10.8667 24.2845 10.7633 24.2132 10.654 24.1752C10.5435 24.1372 10.37 24.1182 10.1324 24.1182H9.92321V26.2499H8.8894ZM9.92321 23.3054H10.6861C11.1804 23.3054 11.4882 23.284 11.6117 23.2424C11.7342 23.2008 11.8316 23.1283 11.9005 23.0261C11.9706 22.9239 12.0051 22.7956 12.0051 22.6423C12.0051 22.47 11.9587 22.3322 11.8672 22.2252C11.7758 22.1195 11.6462 22.0529 11.4798 22.0256C11.3955 22.0137 11.1447 22.0078 10.7277 22.0078H9.92321V23.3054ZM14.0382 26.2499V21.1451H17.817V22.0078H15.072V23.1414H17.6245V24.0041H15.072V25.3872H17.9168V26.2499H14.0382ZM18.7937 26.2499V21.1451H19.7942L21.8951 24.5661V21.1451H22.8505V26.2499H21.8179L19.7491 22.8942V26.2499H18.7937ZM25.0904 26.2499V22.0078H23.5789V21.1451H27.6286V22.0078H26.1242V26.2499H25.0904Z" fill="#1769E9"/>
</svg>
