<svg width="21" height="30" viewBox="0 0 21 30" fill="none" xmlns="http://www.w3.org/2000/svg">
<path d="M0.933228 18.8653C0.933228 24.1825 5.2436 28.4929 10.5608 28.4929C15.878 28.4929 20.1884 24.1825 20.1884 18.8653C20.1884 13.548 15.878 9.23767 10.5608 9.23767C5.24618 9.24348 0.939452 13.5506 0.933228 18.8653ZM10.5608 10.5655C15.1447 10.5655 18.8606 14.2814 18.8606 18.8653C18.8606 23.4492 15.1447 27.165 10.5608 27.165C5.97691 27.165 2.26108 23.4492 2.26108 18.8653C2.26631 14.2836 5.97915 10.5708 10.5608 10.5655Z" fill="#474747"/>
<path d="M8.42785 20.0669V18.6509H9.20785C9.67185 18.6509 10.0239 18.5469 10.2639 18.3389C10.5119 18.1229 10.6359 17.7989 10.6359 17.3669C10.6359 16.9509 10.5119 16.6629 10.2639 16.5029C10.0239 16.3429 9.67185 16.2629 9.20785 16.2629H8.42785V14.8469H13.1799V15.7709H11.6319C11.8639 15.9469 12.0439 16.1709 12.1719 16.4429C12.3079 16.7069 12.3759 17.0149 12.3759 17.3669C12.3759 17.9989 12.2359 18.5149 11.9559 18.9149C11.6839 19.3069 11.3199 19.5989 10.8639 19.7909C10.4079 19.9749 9.90385 20.0669 9.35185 20.0669H8.42785ZM8.42785 17.8229V16.9709L9.31585 16.8989H13.1799V17.8229H8.42785ZM10.9959 22.4669L9.01585 19.6949L10.2279 18.8429L12.9759 22.4669H10.9959Z" fill="#1769E9"/>
<path d="M11.2248 7.37125V1.06395C11.2248 0.887867 11.1548 0.718994 11.0303 0.594484C10.9058 0.469974 10.7369 0.400024 10.5609 0.400024C10.3848 0.400024 10.2159 0.469974 10.0914 0.594484C9.96688 0.718994 9.89693 0.887867 9.89693 1.06395V7.37125C9.89693 7.54734 9.96688 7.71621 10.0914 7.84072C10.2159 7.96523 10.3848 8.03518 10.5609 8.03518C10.7369 8.03518 10.9058 7.96523 11.0303 7.84072C11.1548 7.71621 11.2248 7.54734 11.2248 7.37125ZM16.2042 7.37125V4.38358C16.2042 4.2075 16.1343 4.03863 16.0098 3.91412C15.8853 3.78961 15.7164 3.71966 15.5403 3.71966C15.3642 3.71966 15.1953 3.78961 15.0708 3.91412C14.9463 4.03863 14.8764 4.2075 14.8764 4.38358V7.37125C14.8764 7.54734 14.9463 7.71621 15.0708 7.84072C15.1953 7.96523 15.3642 8.03518 15.5403 8.03518C15.7164 8.03518 15.8853 7.96523 16.0098 7.84072C16.1343 7.71621 16.2042 7.54734 16.2042 7.37125ZM6.24533 7.37125V4.38358C6.24533 4.2075 6.17538 4.03863 6.05087 3.91412C5.92636 3.78961 5.75749 3.71966 5.58141 3.71966C5.40532 3.71966 5.23645 3.78961 5.11194 3.91412C4.98743 4.03863 4.91748 4.2075 4.91748 4.38358V7.37125C4.91748 7.54734 4.98743 7.71621 5.11194 7.84072C5.23645 7.96523 5.40532 8.03518 5.58141 8.03518C5.75749 8.03518 5.92636 7.96523 6.05087 7.84072C6.17538 7.71621 6.24533 7.54734 6.24533 7.37125Z" fill="#474747"/>
</svg>
