<svg width="30" height="30" viewBox="0 0 30 30" fill="none" xmlns="http://www.w3.org/2000/svg">
<rect x="3" y="4" width="13" height="22" fill="#F0F6FF"/>
<path d="M3 26.365H27C27.275 26.365 27.5 26.14 27.5 25.865V11.97C27.5 11.725 27.32 11.515 27.08 11.475C23.5636 10.921 19.9843 10.894 16.46 11.395V4.64501C16.46 4.40001 16.28 4.19001 16.04 4.15001C11.6956 3.46001 7.26944 3.46001 2.925 4.15001C2.68 4.19001 2.5 4.40001 2.5 4.64501V25.865C2.5 26.14 2.725 26.365 3 26.365ZM8.03 25.365V21.825H10.93V25.365H8.03ZM20.465 25.365V22.84H22.495V25.365H20.465ZM26.5 12.4V25.365H23.495V22.34C23.495 22.065 23.27 21.84 22.995 21.84H19.965C19.69 21.84 19.465 22.065 19.465 22.34V25.365H16.46V12.4C19.7889 11.9125 23.1711 11.9125 26.5 12.4ZM3.5 5.07501C7.46521 4.49001 11.4948 4.49001 15.46 5.07501V25.365H11.93V21.325C11.93 21.05 11.705 20.825 11.43 20.825H7.53C7.255 20.825 7.03 21.05 7.03 21.325V25.365H3.5V5.07501Z" fill="#474747"/>
<path d="M6.69507 9.565H12.4901C12.7651 9.565 12.9901 9.34 12.9901 9.065C12.9901 8.79 12.7651 8.565 12.4901 8.565H6.69507C6.42007 8.565 6.19507 8.79 6.19507 9.065C6.19507 9.34 6.42007 9.565 6.69507 9.565ZM6.69507 13.23H12.4901C12.7651 13.23 12.9901 13.005 12.9901 12.73C12.9901 12.455 12.7651 12.23 12.4901 12.23H6.69507C6.42007 12.23 6.19507 12.455 6.19507 12.73C6.19507 13.005 6.42007 13.23 6.69507 13.23ZM12.4901 16.895C12.7651 16.895 12.9901 16.67 12.9901 16.395C12.9901 16.12 12.7651 15.895 12.4901 15.895H6.69507C6.42007 15.895 6.19507 16.12 6.19507 16.395C6.19507 16.67 6.42007 16.895 6.69507 16.895H12.4901ZM19.1701 15.9H23.7901C24.0651 15.9 24.2901 15.675 24.2901 15.4C24.2901 15.125 24.0651 14.9 23.7901 14.9H19.1701C18.8951 14.9 18.6701 15.125 18.6701 15.4C18.6701 15.675 18.8951 15.9 19.1701 15.9ZM19.1701 18.975H23.7901C24.0651 18.975 24.2901 18.75 24.2901 18.475C24.2901 18.2 24.0651 17.975 23.7901 17.975H19.1701C18.8951 17.975 18.6701 18.2 18.6701 18.475C18.6701 18.75 18.8951 18.975 19.1701 18.975Z" fill="#1769E9"/>
</svg>
