<svg width="30" height="30" viewBox="0 0 30 30" fill="none" xmlns="http://www.w3.org/2000/svg">
<g clip-path="url(#clip0_963_1111)">
<path d="M21 11H9.5L6.5 15L4.5 20.5L4 25.5L6.5 28.5L11.5 29.5L23 29L26 24.5L24.5 17L21 11Z" fill="#F0F6FF"/>
<path d="M3.75462 25.8745C4.0524 27.06 4.73973 28.1111 5.70635 28.8592C6.67297 29.6073 7.86285 30.009 9.08512 30H20.9151C22.1375 30.009 23.3275 29.6071 24.2941 28.8588C25.2608 28.1105 25.948 27.0592 26.2456 25.8735C27.3646 21.287 24.5386 15.5235 21.3366 11.3935C21.6299 11.2933 21.8904 11.1152 22.0903 10.8782C22.2901 10.6413 22.4218 10.3545 22.4711 10.0485C22.9284 10.1174 23.3597 10.3048 23.722 10.5922C24.0843 10.8796 24.365 11.2569 24.5361 11.6865C24.5856 11.8096 24.6819 11.9079 24.8039 11.96C24.9259 12.012 25.0636 12.0135 25.1866 11.964C25.3097 11.9145 25.4081 11.8182 25.4601 11.6962C25.5121 11.5742 25.5136 11.4366 25.4641 11.3135C25.2397 10.7476 24.876 10.2476 24.4068 9.85966C23.9376 9.47176 23.3781 9.20858 22.7801 9.0945C23.2935 8.75394 23.7176 8.29516 24.0169 7.75669C24.3162 7.21822 24.4819 6.61579 24.5001 6C24.5001 5.86739 24.4474 5.74022 24.3537 5.64645C24.2599 5.55268 24.1327 5.5 24.0001 5.5C23.8675 5.5 23.7403 5.55268 23.6466 5.64645C23.5528 5.74022 23.5001 5.86739 23.5001 6C23.4713 6.51096 23.3127 7.00612 23.0392 7.43867C22.7657 7.87123 22.3864 8.22688 21.9371 8.472C21.6157 8.16974 21.1913 8.00101 20.7501 8H20.4111L21.9571 5.573C22.1495 5.27032 22.257 4.92146 22.2683 4.56297C22.2796 4.20448 22.1943 3.84954 22.0213 3.53535C21.8483 3.22116 21.594 2.95927 21.285 2.77711C20.9761 2.59496 20.6238 2.49925 20.2651 2.5H19.6846C19.7615 2.20458 19.7696 1.89546 19.7084 1.5964C19.6472 1.29734 19.5182 1.0163 19.3314 0.774879C19.1446 0.533453 18.9049 0.338069 18.6308 0.20374C18.3567 0.069411 18.0554 -0.000287318 17.7501 8.90188e-07H12.2501C11.9449 -0.000287318 11.6436 0.069411 11.3695 0.20374C11.0954 0.338069 10.8557 0.533453 10.6689 0.774879C10.482 1.0163 10.3531 1.29734 10.2918 1.5964C10.2306 1.89546 10.2387 2.20458 10.3156 2.5H9.73512C9.37642 2.49928 9.02412 2.59504 8.71514 2.77726C8.40616 2.95947 8.15188 3.22143 7.97893 3.53569C7.80598 3.84995 7.72073 4.20493 7.73211 4.56346C7.74349 4.92198 7.85109 5.27085 8.04362 5.5735L9.58912 8H9.25012C8.83802 7.99927 8.43894 8.14433 8.12349 8.40951C7.80804 8.6747 7.59656 9.04291 7.52647 9.44901C7.45637 9.85511 7.53217 10.2729 7.74047 10.6285C7.94876 10.9841 8.27612 11.2545 8.66462 11.392C5.46212 15.523 2.63512 21.2865 3.75462 25.8745ZM8.85462 4.02C8.94033 3.86154 9.06758 3.72942 9.2227 3.6378C9.37783 3.54619 9.55497 3.49855 9.73512 3.5H10.7086L12.0386 6.6925C12.0897 6.8149 12.1873 6.912 12.3099 6.96245C12.4326 7.0129 12.5702 7.01256 12.6926 6.9615C12.815 6.91045 12.9121 6.81286 12.9626 6.69021C13.013 6.56756 13.0127 6.4299 12.9616 6.3075L11.3271 2.3845C11.2638 2.23255 11.239 2.06732 11.2549 1.90348C11.2708 1.73964 11.3269 1.58226 11.4182 1.4453C11.5095 1.30834 11.6332 1.19604 11.7783 1.11836C11.9235 1.04068 12.0855 1.00002 12.2501 1H17.7501C17.9147 1.00002 18.0768 1.04068 18.2219 1.11836C18.367 1.19604 18.4907 1.30834 18.582 1.4453C18.6734 1.58226 18.7294 1.73964 18.7453 1.90348C18.7612 2.06732 18.7364 2.23255 18.6731 2.3845L17.0386 6.3075C16.9876 6.4299 16.9872 6.56756 17.0377 6.69021C17.0881 6.81286 17.1852 6.91045 17.3076 6.9615C17.43 7.01256 17.5677 7.0129 17.6903 6.96245C17.813 6.912 17.9106 6.8149 17.9616 6.6925L19.2916 3.5H20.2651C20.4448 3.4989 20.6214 3.54624 20.7765 3.63702C20.9316 3.72781 21.0593 3.85869 21.1463 4.01591C21.2332 4.17313 21.2762 4.35089 21.2708 4.53048C21.2653 4.71007 21.2115 4.88487 21.1151 5.0365L19.2256 8H10.7756L8.88812 5.037C8.7907 4.88651 8.73611 4.71233 8.73021 4.53315C8.72431 4.35398 8.76732 4.17658 8.85462 4.02ZM9.85462 11.5H11.5001C11.6327 11.5 11.7599 11.4473 11.8537 11.3536C11.9474 11.2598 12.0001 11.1326 12.0001 11C12.0001 10.8674 11.9474 10.7402 11.8537 10.6464C11.7599 10.5527 11.6327 10.5 11.5001 10.5H9.25012C9.05121 10.5 8.86044 10.421 8.71979 10.2803C8.57914 10.1397 8.50012 9.94891 8.50012 9.75C8.50012 9.55109 8.57914 9.36032 8.71979 9.21967C8.86044 9.07902 9.05121 9 9.25012 9H20.7501C20.949 9 21.1398 9.07902 21.2805 9.21967C21.4211 9.36032 21.5001 9.55109 21.5001 9.75C21.5001 9.94891 21.4211 10.1397 21.2805 10.2803C21.1398 10.421 20.949 10.5 20.7501 10.5H14.5001C14.3675 10.5 14.2403 10.5527 14.1466 10.6464C14.0528 10.7402 14.0001 10.8674 14.0001 11C14.0001 11.1326 14.0528 11.2598 14.1466 11.3536C14.2403 11.4473 14.3675 11.5 14.5001 11.5H20.1441C23.3596 15.469 26.3556 21.2065 25.2746 25.6355C25.0299 26.6036 24.4672 27.4615 23.6766 28.0716C22.8861 28.6817 21.9136 29.0086 20.9151 29H9.08512C8.08675 29.0088 7.11436 28.6821 6.32391 28.0721C5.53346 27.4622 4.97078 26.6045 4.72612 25.6365C3.64512 21.2065 6.64062 15.469 9.85612 11.5H9.85462Z" fill="#474747"/>
<path d="M7.5 20.5001H9V24.5001C9 24.6327 9.05268 24.7599 9.14645 24.8536C9.24022 24.9474 9.36739 25.0001 9.5 25.0001C9.63261 25.0001 9.75979 24.9474 9.85355 24.8536C9.94732 24.7599 10 24.6327 10 24.5001V20.5001H11.5C11.6326 20.5001 11.7598 20.4474 11.8536 20.3536C11.9473 20.2599 12 20.1327 12 20.0001C12 19.8675 11.9473 19.7403 11.8536 19.6465C11.7598 19.5527 11.6326 19.5001 11.5 19.5001H7.5C7.36739 19.5001 7.24021 19.5527 7.14645 19.6465C7.05268 19.7403 7 19.8675 7 20.0001C7 20.1327 7.05268 20.2599 7.14645 20.3536C7.24021 20.4474 7.36739 20.5001 7.5 20.5001ZM18.7225 24.9161C18.7771 24.9525 18.8384 24.9778 18.9028 24.9906C18.9672 25.0034 19.0335 25.0033 19.0979 24.9905C19.1623 24.9776 19.2236 24.9522 19.2781 24.9157C19.3327 24.8791 19.3796 24.8322 19.416 24.7776L20.5 23.1501L21.584 24.7761C21.6576 24.8864 21.772 24.963 21.9021 24.9889C22.0321 25.0149 22.1672 24.9882 22.2775 24.9146C22.3878 24.841 22.4644 24.7266 22.4904 24.5965C22.5164 24.4664 22.4896 24.3314 22.416 24.2211L21.1 22.2501L22.415 20.2776C22.4886 20.1672 22.5154 20.0322 22.4894 19.9021C22.4634 19.7721 22.3868 19.6577 22.2765 19.5841C22.1662 19.5105 22.0311 19.4837 21.9011 19.5097C21.771 19.5357 21.6566 19.6122 21.583 19.7226L20.5 21.3501L19.416 19.7241C19.3424 19.6137 19.228 19.5372 19.0979 19.5112C18.9679 19.4852 18.8328 19.512 18.7225 19.5856C18.6122 19.6592 18.5356 19.7736 18.5096 19.9036C18.4836 20.0337 18.5104 20.1687 18.584 20.2791L19.9 22.2501L18.585 24.2226C18.5113 24.3328 18.4844 24.4677 18.5102 24.5978C18.5359 24.7278 18.6123 24.8423 18.7225 24.9161ZM12.797 24.9571C12.857 24.9837 12.9217 24.9983 12.9873 25C13.053 25.0016 13.1183 24.9904 13.1796 24.9668C13.2409 24.9432 13.2969 24.9078 13.3445 24.8625C13.3921 24.8173 13.4303 24.7631 13.457 24.7031L13.9915 23.5001H16.0085L16.543 24.7031C16.5968 24.8243 16.6966 24.9191 16.8204 24.9668C16.9442 25.0144 17.0818 25.0109 17.203 24.9571C17.3242 24.9032 17.4191 24.8034 17.4667 24.6797C17.5143 24.5559 17.5108 24.4183 17.457 24.2971L16.797 22.8126L16.7905 22.7981L15.457 19.7981C15.4177 19.7096 15.3537 19.6345 15.2726 19.5817C15.1914 19.529 15.0968 19.5009 15 19.5009C14.9032 19.5009 14.8086 19.529 14.7274 19.5817C14.6463 19.6345 14.5823 19.7096 14.543 19.7981L13.2095 22.7981L13.203 22.8126L12.543 24.2971C12.5163 24.3571 12.5018 24.4218 12.5001 24.4874C12.4984 24.5531 12.5097 24.6184 12.5333 24.6797C12.5569 24.741 12.5923 24.797 12.6376 24.8446C12.6828 24.8922 12.737 24.9304 12.797 24.9571ZM15 21.2311L15.564 22.5001H14.436L15 21.2311Z" fill="#1769E9"/>
</g>
<defs>
<clipPath id="clip0_963_1111">
<rect width="30" height="30" fill="white"/>
</clipPath>
</defs>
</svg>
