<svg width="30" height="30" viewBox="0 0 30 30" fill="none" xmlns="http://www.w3.org/2000/svg">
<path d="M26.8441 17.822C27.1558 17.823 27.46 17.7259 27.7135 17.5445C27.967 17.363 28.157 17.1064 28.2566 16.811L29.9226 12.311C30.0193 12.0206 30.0249 11.7075 29.9386 11.4138C29.8523 11.1201 29.6781 10.8599 29.4396 10.668C27.2526 8.9235 22.4686 6 15.0001 6C7.53158 6 2.75008 8.9235 0.560575 10.666C0.320308 10.86 0.145586 11.1232 0.0601549 11.4199C-0.0252765 11.7166 -0.017274 12.0325 0.0830749 12.3245L1.73808 16.7955C1.85459 17.151 2.10033 17.4497 2.42665 17.6326C2.75297 17.8155 3.13606 17.8692 3.50008 17.783L5.80258 17.25L1.23107 24.49C1.08057 24.7297 1.00052 25.0069 1.00007 25.29V28.5C1.00007 28.8978 1.15811 29.2794 1.43941 29.5607C1.72072 29.842 2.10225 30 2.50008 30H27.5001C27.8979 30 28.2794 29.842 28.5607 29.5607C28.842 29.2794 29.0001 28.8978 29.0001 28.5V25.29C28.9991 25.0069 28.9187 24.7297 28.7681 24.49L24.2001 17.25L26.5001 17.783C26.6131 17.809 26.7281 17.822 26.8441 17.822ZM3.27358 16.8085C3.14959 16.8372 3.01932 16.8175 2.90932 16.7535C2.79932 16.6895 2.71788 16.586 2.68158 16.464L1.02608 11.9925C0.994008 11.8968 0.991905 11.7936 1.02005 11.6966C1.04819 11.5997 1.10524 11.5137 1.18358 11.45C2.86208 10.1105 7.56858 7 15.0001 7C22.4316 7 27.1381 10.1105 28.8166 11.45C28.8938 11.5117 28.9506 11.5952 28.9796 11.6897C29.0086 11.7841 29.0084 11.8851 28.9791 11.9795L27.3131 16.4795C27.2738 16.5975 27.192 16.6967 27.0835 16.7576C26.9751 16.8186 26.8478 16.8369 26.7266 16.809L21.8876 15.692C21.7774 15.6666 21.679 15.6045 21.6087 15.5159C21.5383 15.4274 21.5 15.3176 21.5001 15.2045V12.9695C21.4992 12.7338 21.4432 12.5015 21.3366 12.2912C21.23 12.081 21.0757 11.8985 20.8861 11.7585C19.1628 10.5576 17.0997 9.94122 15.0001 10C12.9002 9.94119 10.8369 10.5577 9.11358 11.759C8.92407 11.899 8.76991 12.0814 8.66339 12.2916C8.55687 12.5017 8.50095 12.7339 8.50008 12.9695V15.2045C8.50004 15.3175 8.4617 15.4272 8.39133 15.5156C8.32096 15.6041 8.2227 15.6661 8.11258 15.6915L3.27358 16.8085ZM27.9236 25.02C27.9746 25.101 28.0021 25.1945 28.0026 25.29V28.5C28.0026 28.6326 27.9499 28.7598 27.8561 28.8536C27.7624 28.9473 27.6352 29 27.5026 29H2.50008C2.36747 29 2.24029 28.9473 2.14652 28.8536C2.05275 28.7598 2.00008 28.6326 2.00008 28.5V25.29C2.00008 25.195 2.02758 25.1025 2.07808 25.022L7.18758 16.9315L8.33758 16.6665C8.66863 16.5912 8.96416 16.4053 9.17547 16.1396C9.38678 15.8738 9.50127 15.544 9.50008 15.2045V12.9695C9.49992 12.8901 9.51866 12.8119 9.55474 12.7412C9.59082 12.6705 9.64321 12.6094 9.70758 12.563C11.259 11.489 13.1141 10.9411 15.0001 11C16.8859 10.941 18.7409 11.4889 20.2921 12.563C20.3565 12.6094 20.409 12.6704 20.4452 12.7411C20.4814 12.8118 20.5002 12.8901 20.5001 12.9695V15.2045C20.4989 15.544 20.6134 15.8738 20.8247 16.1396C21.036 16.4053 21.3315 16.5912 21.6626 16.6665L22.8126 16.9315L27.9236 25.02Z" fill="#474747"/>
<path d="M15 15C11.9625 15 9.5 17.4625 9.5 20.5C9.5 23.5375 11.9625 26 15 26C18.0375 26 20.5 23.5375 20.5 20.5C20.4965 17.464 18.036 15.0035 15 15ZM15 25C14.11 25 13.24 24.7361 12.4999 24.2416C11.7599 23.7471 11.1831 23.0443 10.8425 22.2221C10.5019 21.3998 10.4128 20.495 10.5865 19.6221C10.7601 18.7492 11.1887 17.9474 11.818 17.318C12.4474 16.6887 13.2492 16.2601 14.1221 16.0865C14.995 15.9128 15.8998 16.0019 16.7221 16.3425C17.5443 16.6831 18.2471 17.2599 18.7416 17.9999C19.2361 18.74 19.5 19.61 19.5 20.5C19.4985 21.693 19.024 22.8368 18.1804 23.6804C17.3368 24.524 16.193 24.9985 15 25Z" fill="#1769E9"/>
<path d="M15 19C14.6022 19 14.2207 19.158 13.9394 19.4393C13.6581 19.7206 13.5 20.1022 13.5 20.5C13.5 20.8978 13.6581 21.2794 13.9394 21.5607C14.2207 21.842 14.6022 22 15 22C15.3979 22 15.7794 21.842 16.0607 21.5607C16.342 21.2794 16.5 20.8978 16.5 20.5C16.5 20.1022 16.342 19.7206 16.0607 19.4393C15.7794 19.158 15.3979 19 15 19ZM15 21C14.8674 21 14.7403 20.9473 14.6465 20.8535C14.5527 20.7598 14.5 20.6326 14.5 20.5C14.5 20.3674 14.5527 20.2402 14.6465 20.1464C14.7403 20.0527 14.8674 20 15 20C15.1327 20 15.2598 20.0527 15.3536 20.1464C15.4474 20.2402 15.5 20.3674 15.5 20.5C15.5 20.6326 15.4474 20.7598 15.3536 20.8535C15.2598 20.9473 15.1327 21 15 21ZM10.7575 4.25749C10.6665 4.35179 10.6161 4.4781 10.6172 4.60919C10.6183 4.74029 10.6709 4.8657 10.7636 4.9584C10.8563 5.05111 10.9817 5.10369 11.1128 5.10483C11.2439 5.10597 11.3702 5.05557 11.4645 4.96449C13.4185 3.01449 16.5815 3.01449 18.5355 4.96449C18.5817 5.01225 18.6368 5.05034 18.6978 5.07654C18.7588 5.10275 18.8245 5.11654 18.8908 5.11712C18.9572 5.1177 19.0231 5.10504 19.0845 5.0799C19.146 5.05476 19.2018 5.01764 19.2487 4.97069C19.2957 4.92374 19.3328 4.86792 19.358 4.80647C19.3831 4.74502 19.3957 4.67918 19.3952 4.61279C19.3946 4.5464 19.3808 4.48079 19.3546 4.41979C19.3284 4.35879 19.2903 4.30362 19.2425 4.25749C16.8975 1.91799 13.1025 1.91799 10.7575 4.25749Z" fill="#1769E9"/>
<path d="M21.0105 3.48952C21.1093 3.4895 21.206 3.46017 21.2882 3.40522C21.3704 3.35028 21.4345 3.2722 21.4723 3.18085C21.5101 3.0895 21.52 2.98898 21.5008 2.89201C21.4815 2.79503 21.4339 2.70595 21.364 2.63602C17.847 -0.872977 12.153 -0.872977 8.63596 2.63602C8.54488 2.73032 8.49449 2.85663 8.49562 2.98772C8.49676 3.11882 8.54935 3.24423 8.64205 3.33693C8.73476 3.42964 8.86016 3.48222 8.99126 3.48336C9.12236 3.4845 9.24866 3.4341 9.34296 3.34302C12.4695 0.224023 17.5305 0.224023 20.657 3.34302C20.7507 3.4368 20.8779 3.48949 21.0105 3.48952Z" fill="#1769E9"/>
</svg>
