<svg width="36" height="36" viewBox="0 0 36 36" fill="none" xmlns="http://www.w3.org/2000/svg">
<path fill-rule="evenodd" clip-rule="evenodd" d="M12.6698 14.3427H9.769C9.65726 14.3427 9.55008 14.3871 9.47107 14.4662C9.39205 14.5452 9.34766 14.6523 9.34766 14.7641V18.9166C9.34766 19.0284 9.39205 19.1355 9.47107 19.2146C9.55008 19.2936 9.65726 19.338 9.769 19.338H12.6698V22.2387C12.6698 22.3505 12.7142 22.4577 12.7932 22.5367C12.8722 22.6157 12.9794 22.6601 13.0911 22.6601H17.2438C17.3555 22.6601 17.4627 22.6157 17.5417 22.5367C17.6207 22.4577 17.6651 22.3505 17.6651 22.2387V19.338H20.5659C20.6777 19.338 20.7848 19.2936 20.8638 19.2146C20.9429 19.1355 20.9873 19.0284 20.9873 18.9166V14.7641C20.9873 14.6523 20.9429 14.5452 20.8638 14.4662C20.7848 14.3871 20.6777 14.3427 20.5659 14.3427H17.6651V11.442C17.6651 11.3302 17.6207 11.2231 17.5417 11.144C17.4627 11.065 17.3555 11.0206 17.2438 11.0206H13.0911C12.9794 11.0206 12.8722 11.065 12.7932 11.144C12.7142 11.2231 12.6698 11.3302 12.6698 11.442V14.3427Z" fill="#F0F6FF"/>
<path fill-rule="evenodd" clip-rule="evenodd" d="M12.6698 14.343H9.769C9.65726 14.343 9.55008 14.3874 9.47107 14.4664C9.39205 14.5454 9.34766 14.6526 9.34766 14.7643V18.9169C9.34766 19.0286 9.39205 19.1358 9.47107 19.2148C9.55008 19.2938 9.65726 19.3382 9.769 19.3382H12.6698V22.239C12.6698 22.3507 12.7142 22.4579 12.7932 22.5369C12.8722 22.6159 12.9794 22.6603 13.0911 22.6603H17.2438C17.3555 22.6603 17.4627 22.6159 17.5417 22.5369C17.6207 22.4579 17.6651 22.3507 17.6651 22.239V19.3382H20.5659C20.6777 19.3382 20.7848 19.2938 20.8638 19.2148C20.9429 19.1358 20.9873 19.0286 20.9873 18.9169V14.7643C20.9873 14.6526 20.9429 14.5454 20.8638 14.4664C20.7848 14.3874 20.6777 14.343 20.5659 14.343H17.6651V11.4422C17.6651 11.3305 17.6207 11.2233 17.5417 11.1443C17.4627 11.0653 17.3555 11.0209 17.2438 11.0209H13.0911C12.9794 11.0209 12.8722 11.0653 12.7932 11.1443C12.7142 11.2233 12.6698 11.3305 12.6698 11.4422V14.343ZM13.0911 15.1857C13.3238 15.1857 13.5125 14.9969 13.5125 14.7643V11.8636H16.8224V14.7643C16.8224 14.8761 16.8668 14.9833 16.9459 15.0623C17.0249 15.1413 17.132 15.1857 17.2438 15.1857H20.1446V18.4955H17.2438C17.132 18.4955 17.0249 18.5399 16.9459 18.6189C16.8668 18.698 16.8224 18.8051 16.8224 18.9169V21.8176H13.5125V18.9169C13.5125 18.8615 13.5016 18.8068 13.4804 18.7556C13.4592 18.7045 13.4282 18.6581 13.3891 18.6189C13.3499 18.5798 13.3035 18.5488 13.2524 18.5276C13.2012 18.5064 13.1464 18.4955 13.0911 18.4955H10.1904V15.1857H13.0911Z" fill="#1769E9"/>
<path fill-rule="evenodd" clip-rule="evenodd" d="M19.1567 27.3819C19.2523 27.3424 19.3301 27.2692 19.3751 27.1761C19.4202 27.083 19.4294 26.9765 19.401 26.8771C19.2359 26.2964 19.1524 25.6955 19.153 25.0918C19.153 21.9218 21.423 19.2776 24.4247 18.6982C24.5089 18.682 24.5862 18.6404 24.6461 18.5791C24.706 18.5178 24.7459 18.4396 24.7602 18.3551L25.9919 11.1021C26.2145 9.79151 25.413 8.52383 24.1335 8.16288L17.6385 6.33079C16.0226 5.87492 14.3122 5.87492 12.6963 6.33079L6.20131 8.16288C4.9219 8.52383 4.12032 9.79151 4.34293 11.1021L6.55942 24.1544C6.63318 24.5889 6.81609 24.9974 7.09098 25.3418C7.36588 25.6862 7.72375 25.955 8.13102 26.1232L13.5058 28.3434C14.5699 28.7829 15.7649 28.7829 16.829 28.3434L19.1567 27.3819ZM18.4967 26.7428L16.5073 27.5646C15.6492 27.9191 14.6856 27.9191 13.8275 27.5646L8.45273 25.3445C8.17738 25.2307 7.93544 25.0489 7.7496 24.8161C7.56376 24.5832 7.44011 24.307 7.39026 24.0133L5.17376 10.961C5.10109 10.5332 5.1892 10.0935 5.42112 9.7267C5.65305 9.35986 6.01242 9.09174 6.43012 8.97389L12.9251 7.1418C14.3914 6.72827 15.9434 6.72827 17.4097 7.1418L23.9047 8.97389C24.3224 9.09174 24.6818 9.35986 24.9137 9.7267C25.1456 10.0935 25.2337 10.5332 25.161 10.961L23.9772 17.9324C20.7308 18.6956 18.3103 21.6133 18.3103 25.0918C18.3099 25.6474 18.3725 26.2013 18.4967 26.7428Z" fill="#474747"/>
<path fill-rule="evenodd" clip-rule="evenodd" d="M20.2574 29.6105C20.3167 29.586 20.3696 29.5483 20.4121 29.5003C20.4546 29.4523 20.4856 29.3952 20.5027 29.3334C20.5198 29.2716 20.5226 29.2068 20.5108 29.1437C20.499 29.0807 20.473 29.0212 20.4347 28.9697C19.6006 27.849 19.1511 26.4888 19.153 25.0917C19.153 21.4979 22.0708 18.58 25.6647 18.58C25.819 18.58 25.9685 18.6333 26.088 18.7309C26.2075 18.8284 26.2896 18.9643 26.3204 19.1155C26.3399 19.2119 26.3925 19.2985 26.4691 19.3602C26.5457 19.4219 26.6415 19.4549 26.7399 19.4533C26.8383 19.4518 26.933 19.4159 27.0077 19.3519C27.0824 19.2878 27.1323 19.1996 27.1488 19.1026L28.437 11.5173C28.8717 8.95712 27.3061 6.48107 24.8068 5.77604L18.3119 3.94395C16.2558 3.3639 14.0792 3.3639 12.023 3.94395L5.52817 5.77604C3.0288 6.48107 1.46327 8.95712 1.89797 11.5173L4.11446 24.5695C4.25859 25.418 4.61587 26.2161 5.15279 26.8887C5.68972 27.5614 6.3887 28.0867 7.18417 28.4153L12.5591 30.6355C14.2296 31.3255 16.1055 31.3255 17.776 30.6355L20.2574 29.6105ZM19.4542 29.0304L17.4541 29.8567C15.9897 30.4615 14.3453 30.4615 12.8808 29.8567L7.50601 27.6365C6.84243 27.3624 6.25934 26.9243 5.81144 26.3631C5.36354 25.802 5.0655 25.1363 4.94529 24.4285L2.7288 11.3761C2.36624 9.24053 3.67208 7.17518 5.75698 6.58705L12.2518 4.75496C14.1584 4.21711 16.1766 4.21711 18.0831 4.75496L24.578 6.58705C26.6629 7.17518 27.9688 9.24053 27.6061 11.3761L26.4849 17.9791C26.2406 17.8209 25.9557 17.7369 25.6647 17.7373C21.6057 17.7373 18.3103 21.0328 18.3103 25.0917C18.3083 26.4868 18.7052 27.8534 19.4542 29.0304Z" fill="#474747"/>
<path fill-rule="evenodd" clip-rule="evenodd" d="M23.0188 25.3048C23.86 26.0383 24.5546 26.9181 25.0964 27.951C25.2315 28.2088 25.4382 28.4221 25.6916 28.5653C25.945 28.7085 26.2344 28.7754 26.525 28.7582C26.8155 28.7409 27.0949 28.6401 27.3295 28.4679C27.5642 28.2956 27.7441 28.0593 27.8477 27.7873C28.8891 25.0557 30.7538 23.1469 33.2839 21.9041C34.0333 21.536 34.3424 20.6301 33.9744 19.8807C33.6063 19.1313 32.7003 18.8223 31.9509 19.1904C29.5388 20.3751 27.6073 22.0407 26.2295 24.2598C25.852 23.8193 25.443 23.407 25.0056 23.0259C24.3762 22.4773 23.4214 22.5427 22.8727 23.1719C22.3241 23.8013 22.3895 24.7562 23.0188 25.3048ZM23.5725 24.6696C23.441 24.5524 23.361 24.3881 23.35 24.2123C23.3389 24.0364 23.3976 23.8634 23.5134 23.7306C23.6291 23.5978 23.7926 23.516 23.9683 23.503C24.144 23.49 24.3177 23.5468 24.4517 23.6611C25.0027 24.1409 25.5049 24.6741 25.9509 25.2528C25.9935 25.3079 26.0491 25.3517 26.1127 25.3801C26.1763 25.4085 26.246 25.4207 26.3155 25.4156C26.385 25.4105 26.4521 25.3883 26.5109 25.3509C26.5697 25.3135 26.6183 25.2621 26.6523 25.2013C27.9594 22.8667 29.8803 21.1462 32.3225 19.9468C32.4015 19.907 32.4876 19.8832 32.5758 19.8769C32.664 19.8705 32.7526 19.8818 32.8365 19.9099C32.9203 19.938 32.9977 19.9825 33.0643 20.0407C33.1309 20.099 33.1852 20.1698 33.2242 20.2492C33.2632 20.3286 33.286 20.4149 33.2915 20.5032C33.2969 20.5915 33.2847 20.68 33.2557 20.7635C33.2268 20.8471 33.1815 20.924 33.1226 20.99C33.0636 21.0559 32.9922 21.1095 32.9124 21.1477C30.1872 22.4863 28.1819 24.5449 27.0603 27.4872C27.0144 27.6075 26.9347 27.712 26.8309 27.7882C26.7271 27.8644 26.6034 27.9089 26.4749 27.9166C26.3463 27.9242 26.2183 27.8946 26.1062 27.8313C25.994 27.768 25.9025 27.6736 25.8427 27.5596C25.2509 26.4313 24.4915 25.4708 23.5725 24.6696Z" fill="#474747"/>
<path fill-rule="evenodd" clip-rule="evenodd" d="M32.2327 21.9147C32.1672 21.8371 32.0759 21.7858 31.9755 21.7702C31.8752 21.7546 31.7726 21.7758 31.6867 21.8298C31.0273 22.2443 30.4202 22.7108 29.8679 23.2324C29.809 23.2881 29.7674 23.3596 29.7481 23.4384C29.7288 23.5172 29.7326 23.5998 29.7591 23.6765C29.9163 24.1318 29.9962 24.6101 29.9956 25.0917C29.9956 27.4821 28.055 29.4227 25.6647 29.4227C23.2744 29.4227 21.3338 27.4821 21.3338 25.0917C21.3338 22.7014 23.2744 20.7608 25.6647 20.7608C26.4996 20.7608 27.1764 20.0839 27.1764 19.249C27.1764 18.4142 26.4996 17.7373 25.6647 17.7373C21.6057 17.7373 18.3103 21.0327 18.3103 25.0917C18.3103 29.1507 21.6057 32.4461 25.6647 32.4461C29.7237 32.4461 33.0191 29.1507 33.0191 25.0917C33.0191 24.1115 32.8265 23.1757 32.4779 22.3201C32.418 22.1729 32.3352 22.0361 32.2327 21.9147ZM31.7574 22.7911C32.0352 23.5262 32.1772 24.3058 32.1764 25.0917C32.1764 28.6856 29.2586 31.6034 25.6647 31.6034C22.0708 31.6034 19.153 28.6856 19.153 25.0917C19.153 21.4979 22.0708 18.58 25.6647 18.58C25.8398 18.5835 26.0066 18.6555 26.1292 18.7806C26.2517 18.9057 26.3204 19.0739 26.3204 19.249C26.3204 19.4242 26.2517 19.5924 26.1292 19.7174C26.0066 19.8425 25.8398 19.9146 25.6647 19.9181C22.8092 19.9181 20.4911 22.2364 20.4911 25.0917C20.4911 27.9471 22.8092 30.2654 25.6647 30.2654C28.5201 30.2654 30.8383 27.9471 30.8383 25.0917C30.8383 24.5978 30.769 24.1198 30.6396 23.6672C30.9926 23.351 31.366 23.0583 31.7574 22.7911Z" fill="#474747"/>
</svg>
