<svg width="30" height="30" viewBox="0 0 30 30" fill="none" xmlns="http://www.w3.org/2000/svg">
<rect x="7" y="12" width="16" height="11" fill="#F0F6FF"/>
<path d="M21.7913 9.51469H15.8907L20.9973 3.58688C21.0387 3.54042 21.0705 3.48615 21.0908 3.42726C21.111 3.36838 21.1194 3.30604 21.1153 3.2439C21.1112 3.18176 21.0947 3.12106 21.0669 3.06535C21.0391 3.00963 21.0004 2.96002 20.9532 2.91941C20.906 2.8788 20.8512 2.848 20.7919 2.82882C20.7327 2.80964 20.6702 2.80245 20.6081 2.80769C20.5461 2.81292 20.4857 2.83047 20.4305 2.85931C20.3753 2.88814 20.3264 2.92769 20.2867 2.97563L15.0001 9.11251L9.71259 2.97563C9.6308 2.88398 9.5163 2.82809 9.39372 2.82C9.27115 2.81191 9.1503 2.85225 9.05717 2.93236C8.96404 3.01246 8.90608 3.12593 8.89575 3.24833C8.88543 3.37074 8.92357 3.49231 9.00196 3.58688L14.1085 9.51469H8.20884C7.23712 9.51569 6.30547 9.90207 5.61828 10.5891C4.93108 11.2761 4.54445 12.2077 4.54321 13.1794V23.5219C4.54421 24.4938 4.93072 25.4256 5.61795 26.1128C6.30517 26.8 7.23696 27.1865 8.20884 27.1875H21.7913C22.7631 27.1865 23.6947 26.8001 24.3819 26.1131C25.0691 25.4261 25.4557 24.4945 25.457 23.5228V13.1803C25.456 12.2084 25.0695 11.2766 24.3822 10.5894C23.695 9.9022 22.7632 9.51569 21.7913 9.51469ZM24.5195 23.5228C24.5185 24.246 24.2307 24.9392 23.7193 25.4505C23.2078 25.9617 22.5145 26.2493 21.7913 26.25H8.20884C7.48568 26.2493 6.79235 25.9617 6.28092 25.4505C5.76948 24.9392 5.48171 24.246 5.48071 23.5228V13.1803C5.48171 12.4572 5.76948 11.7639 6.28092 11.2527C6.79235 10.7414 7.48568 10.4539 8.20884 10.4531H21.7913C22.5145 10.4539 23.2078 10.7414 23.7193 11.2527C24.2307 11.7639 24.5185 12.4572 24.5195 13.1803V23.5228Z" fill="#474747"/>
<path d="M21.6113 11.3953H8.38883C7.30508 11.3953 6.42383 12.2766 6.42383 13.3603V21.4669C6.42383 22.5497 7.30508 23.431 8.38883 23.431H21.6113C22.6951 23.431 23.5763 22.5497 23.5763 21.4669V13.3603C23.5756 12.8394 23.3683 12.34 23 11.9717C22.6316 11.6033 22.1323 11.3961 21.6113 11.3953ZM22.6379 21.4669C22.6379 22.0331 22.1766 22.4935 21.6104 22.4935H8.38883C8.11656 22.4932 7.85549 22.385 7.66288 22.1926C7.47027 22.0001 7.36182 21.7392 7.36133 21.4669V13.3603C7.36133 12.7941 7.82258 12.3328 8.38883 12.3328H21.6113C22.1776 12.3328 22.6388 12.7941 22.6388 13.3603L22.6379 21.4669ZM17.2098 24.3422H8.88008C8.75576 24.3422 8.63653 24.3916 8.54862 24.4795C8.46071 24.5674 8.41133 24.6866 8.41133 24.811C8.41133 24.9353 8.46071 25.0545 8.54862 25.1424C8.63653 25.2303 8.75576 25.2797 8.88008 25.2797H17.2098C17.3341 25.2797 17.4533 25.2303 17.5412 25.1424C17.6291 25.0545 17.6785 24.9353 17.6785 24.811C17.6785 24.6866 17.6291 24.5674 17.5412 24.4795C17.4533 24.3916 17.3341 24.3422 17.2098 24.3422ZM21.1201 24.3422H19.0379C18.9136 24.3422 18.7943 24.3916 18.7064 24.4795C18.6185 24.5674 18.5691 24.6866 18.5691 24.811C18.5691 24.9353 18.6185 25.0545 18.7064 25.1424C18.7943 25.2303 18.9136 25.2797 19.0379 25.2797H21.1201C21.2444 25.2797 21.3636 25.2303 21.4515 25.1424C21.5394 25.0545 21.5888 24.9353 21.5888 24.811C21.5888 24.6866 21.5394 24.5674 21.4515 24.4795C21.3636 24.3916 21.2444 24.3422 21.1201 24.3422Z" fill="#474747"/>
<path d="M17.2098 24.3423H8.88013C8.75581 24.3423 8.63658 24.3917 8.54867 24.4796C8.46076 24.5675 8.41138 24.6867 8.41138 24.811C8.41138 24.9354 8.46076 25.0546 8.54867 25.1425C8.63658 25.2304 8.75581 25.2798 8.88013 25.2798H17.2098C17.3341 25.2798 17.4534 25.2304 17.5413 25.1425C17.6292 25.0546 17.6786 24.9354 17.6786 24.811C17.6786 24.6867 17.6292 24.5675 17.5413 24.4796C17.4534 24.3917 17.3341 24.3423 17.2098 24.3423ZM21.1201 24.3423H19.0379C18.9136 24.3423 18.7944 24.3917 18.7065 24.4796C18.6186 24.5675 18.5692 24.6867 18.5692 24.811C18.5692 24.9354 18.6186 25.0546 18.7065 25.1425C18.7944 25.2304 18.9136 25.2798 19.0379 25.2798H21.1201C21.2444 25.2798 21.3637 25.2304 21.4516 25.1425C21.5395 25.0546 21.5889 24.9354 21.5889 24.811C21.5889 24.6867 21.5395 24.5675 21.4516 24.4796C21.3637 24.3917 21.2444 24.3423 21.1201 24.3423Z" fill="#1769E9"/>
</svg>
