<svg width="30" height="30" viewBox="0 0 30 30" fill="none" xmlns="http://www.w3.org/2000/svg">
<g clip-path="url(#clip0_1050_513)">
<path d="M22 5.5L20.5 7.5L18 10.5L16.5 14L18.5 17L22 18L25 16.5L26 13L24.5 9.5L22 5.5Z" fill="#F0F6FF"/>
<path d="M11.7045 25.8177C8.81089 24.918 6.86673 22.2756 6.86673 19.2424C6.86673 17.7598 7.33087 16.3473 8.20905 15.1575C8.22908 15.1304 8.24717 15.1007 8.26227 15.0705C8.40737 14.7804 8.28953 14.4279 7.99933 14.2829C7.73668 14.1513 7.42251 14.2358 7.25768 14.4681C6.23334 15.8596 5.69189 17.5103 5.69189 19.2424C5.69189 20.9964 6.24574 22.6641 7.29351 24.065C8.30627 25.4191 9.74887 26.4401 11.3557 26.9396C11.4122 26.9573 11.471 26.9663 11.5302 26.9663C11.7807 26.9663 12.0128 26.8048 12.091 26.5531C12.1874 26.2433 12.0143 25.9141 11.7045 25.8177Z" fill="#1769E9"/>
<path d="M26.7626 13.7274C26.7626 12.6092 26.4141 11.5439 25.7546 10.6455L22.036 5.12516C21.9823 5.04534 21.9097 4.97995 21.8248 4.93474C21.7398 4.88953 21.6451 4.86589 21.5488 4.86589C21.4526 4.86589 21.3578 4.88953 21.2729 4.93474C21.1879 4.97995 21.1153 5.04534 21.0616 5.12516L19.4946 7.45127L14.6497 0.259272C14.596 0.179453 14.5234 0.114064 14.4385 0.0688541C14.3535 0.0236445 14.2588 0 14.1625 0C14.0663 0 13.9716 0.0236445 13.8866 0.0688541C13.8017 0.114064 13.7291 0.179453 13.6754 0.259272L5.35853 12.6052C3.97086 14.491 3.23755 16.7278 3.23755 19.075C3.23755 25.0991 8.13851 30 14.1625 30C20.1866 30 25.0875 25.0991 25.0875 19.075C25.0875 18.5942 25.0554 18.1124 24.993 17.6381C26.0773 16.682 26.7626 15.2834 26.7626 13.7274ZM21.5488 6.50484L24.7801 11.3016C24.7865 11.3116 24.7933 11.3214 24.8005 11.331C25.3155 12.0285 25.5877 12.8571 25.5877 13.7274C25.5877 15.9544 23.7759 17.7662 21.5488 17.7662C19.3218 17.7662 17.51 15.9544 17.51 13.7274C17.51 12.8571 17.7822 12.0285 18.2972 11.331C18.304 11.3218 18.3106 11.3124 18.3169 11.3027L19.9807 8.83277C19.9837 8.82825 19.9869 8.82379 19.9898 8.81915L21.5488 6.50484ZM23.9126 19.075C23.9126 24.4513 19.5387 28.8251 14.1625 28.8251C8.78622 28.8251 4.41238 24.4513 4.41238 19.075C4.41238 16.9753 5.06974 14.9747 6.31348 13.2898C6.32059 13.2802 6.32746 13.2702 6.3341 13.2599L14.1625 1.63889L18.7864 8.50275L17.343 10.6455C16.6836 11.5439 16.3351 12.6093 16.3351 13.7274C16.3351 16.6023 18.674 18.9412 21.5488 18.9412C22.3895 18.9412 23.1841 18.7409 23.888 18.386C23.904 18.6151 23.9126 18.8452 23.9126 19.075Z" fill="black"/>
<path d="M19.4776 13.584C19.4776 13.2994 19.5356 13.0247 19.6499 12.7676C19.7817 12.4711 19.6482 12.1239 19.3518 11.9922C19.0553 11.8605 18.7081 11.9938 18.5763 12.2903C18.3947 12.6987 18.3027 13.1339 18.3027 13.584C18.3027 14.6502 18.8323 15.6412 19.7194 16.2348C19.8159 16.2995 19.9294 16.334 20.0456 16.334C20.1422 16.3341 20.2374 16.3104 20.3227 16.2649C20.4079 16.2194 20.4806 16.1536 20.5343 16.0732C20.7148 15.8035 20.6424 15.4386 20.3728 15.2582C19.8123 14.8832 19.4776 14.2573 19.4776 13.584ZM13.884 26.6312C13.7402 26.2533 13.2036 26.1455 12.9259 26.4409C12.5952 26.7613 12.7732 27.3497 13.2267 27.4319C13.6762 27.5304 14.0681 27.0532 13.884 26.6312ZM21.2394 16.7703C21.6182 17.0326 22.1606 16.7425 22.1529 16.2821C22.1614 15.8216 21.6179 15.5309 21.2394 15.7933C20.8963 16.0084 20.895 16.556 21.2394 16.7703Z" fill="#1769E9"/>
</g>
<defs>
<clipPath id="clip0_1050_513">
<rect width="30" height="30" fill="white"/>
</clipPath>
</defs>
</svg>
